<?xml version="1.0" encoding="UTF-8"?>
<svg width="80px" height="80px" viewBox="0 0 80 80" version="1.1" xmlns="http://www.w3.org/2000/svg" xmlns:xlink="http://www.w3.org/1999/xlink">
    <!-- Generator: Sketch 52.2 (67145) - http://www.bohemiancoding.com/sketch -->
    <title>userBig_ic</title>
    <desc>Created with Sketch.</desc>
    <defs>
        <circle id="path-1" cx="40" cy="40" r="40"></circle>
    </defs>
    <g id="Page-1" stroke="none" stroke-width="1" fill="none" fill-rule="evenodd">
        <g id="基本信息" transform="translate(-282.000000, -96.000000)">
            <g id="Content-Box" transform="translate(214.000000, 32.000000)">
                <g id="左1" transform="translate(8.000000, 40.000000)">
                    <g id="分组-2" transform="translate(60.000000, 24.000000)">
                        <g id="形状">
                            <mask id="mask-2" fill="white">
                                <use xlink:href="#path-1"></use>
                            </mask>
                            <use id="Mask" fill="#E8E8E8" fill-rule="nonzero" xlink:href="#path-1"></use>
                            <path d="M29.6566096,22.3550311 C31.9810703,20.4638516 34.8013623,19.2916573 37.7753153,18.9806641 C45.5186233,18.1402186 52.6986061,23.1519029 54.6233995,30.7407591 C56.548193,38.3296152 52.6322807,46.1871359 45.4345724,49.17871 C38.2368641,52.170284 29.9468813,49.3858836 25.9818336,42.6450156 C22.016786,35.9041476 23.5828292,27.257364 29.6566096,22.3550311 Z M66.6156011,75.7062747 C66.5340707,77.199281 65.6801478,78.2564677 64.4056998,79.011601 C63.1001247,79.7316476 61.6751758,80.2068476 60.2004505,80.4139912 C56.6903547,81.0396731 53.1373482,81.0698785 49.5886328,81.0957687 C46.1772316,81.121659 42.7658304,81.0957687 39.3544293,81.0957687 C35.7070193,81.0957687 32.0596091,81.1302891 28.4207814,81.0957687 C26.1078943,81.0655634 23.7950073,80.9792625 21.4907022,80.8152907 C19.3970828,80.7234952 17.3327186,80.2861569 15.3802176,79.5207765 C14.2863327,79.122819 13.3600181,78.3617974 12.7540824,77.3632529 C12.423995,76.7388124 12.2515864,76.0423614 12.2520271,75.3351807 C12.0449407,71.5372802 12.9202856,67.7588523 14.7751767,64.4440015 C17.1951098,60.1179378 21.0774816,56.8079033 25.7174068,55.1148696 C28.1705501,54.1991838 30.7689282,53.7400625 33.38555,53.7599446 L45.5335711,53.7599446 C50.7320425,53.6876814 55.7742408,55.5468178 59.6941042,58.9811517 C63.2108989,61.9735217 65.5722338,66.1117684 66.3667189,70.6749297 C66.6487722,72.3360785 66.7323258,74.0251788 66.6156011,75.7062747 Z" fill="#FFFFFF" fill-rule="nonzero" mask="url(#mask-2)"></path>
                        </g>
                    </g>
                </g>
            </g>
        </g>
    </g>
</svg>