<?xml version="1.0" encoding="UTF-8"?>
<svg width="512px" height="512px" viewBox="0 0 512 512" version="1.1" xmlns="http://www.w3.org/2000/svg" xmlns:xlink="http://www.w3.org/1999/xlink">
    <!-- Generator: Sketch 51 (57462) - http://www.bohemiancoding.com/sketch -->
    <title>icon/tool/add user</title>
    <desc>Created with Sketch.</desc>
    <defs>
        <path d="M254.60511,186.771992 C261.04036,188.961987 267.356398,191.495012 273.530839,194.362407 C281.545333,198.084318 285.025159,207.598553 281.303248,215.613046 C277.581337,223.62754 268.067102,227.107366 260.052609,223.385455 C239.107145,213.658434 216.207283,208.551724 192.551724,208.551724 C103.878763,208.551724 32,280.430487 32,369.103448 C32,377.940004 24.836556,385.103448 16,385.103448 C7.163444,385.103448 0,377.940004 0,369.103448 C0,285.35914 53.4568567,214.104079 128.10982,187.599015 C102.86225,168.568672 86.5403586,138.328884 86.5403586,104.275862 C86.5403586,46.6845475 133.224906,0 190.816221,0 C248.407535,0 295.092083,46.6845475 295.092083,104.275862 C295.092083,137.839716 279.235748,167.699103 254.60511,186.771992 Z M304,304 L304,272 C304,263.163444 311.163444,256 320,256 C328.836556,256 336,263.163444 336,272 L336,304 L368,304 C376.836556,304 384,311.163444 384,320 C384,328.836556 376.836556,336 368,336 L336,336 L336,368 C336,376.836556 328.836556,384 320,384 C311.163444,384 304,376.836556 304,368 L304,336 L272,336 C263.163444,336 256,328.836556 256,320 C256,311.163444 263.163444,304 272,304 L304,304 Z M263.092083,104.275862 C263.092083,64.3576594 230.734423,32 190.816221,32 C150.898018,32 118.540359,64.3576594 118.540359,104.275862 C118.540359,144.194065 150.898018,176.551724 190.816221,176.551724 C230.734423,176.551724 263.092083,144.194065 263.092083,104.275862 Z" id="path-1"></path>
    </defs>
    <g id="symbol" stroke="none" stroke-width="1" fill="none" fill-rule="evenodd">
        <g id="icon/tool/add-user">
            <g>
                <rect id="Rectangle-Copy-369" fill-opacity="0" fill="#F0F0F0" x="0" y="0" width="512" height="512"></rect>
                <g id="Page-1" transform="translate(64.448276, 63.448276)">
                    <g id="color1">
                        <mask id="mask-2" fill="white">
                            <use xlink:href="#path-1"></use>
                        </mask>
                        <use id="Mask" fill="#262626" fill-rule="nonzero" xlink:href="#path-1"></use>
                    </g>
                </g>
            </g>
        </g>
    </g>
</svg>