<?xml version="1.0" encoding="UTF-8"?>
<svg width="512px" height="512px" viewBox="0 0 512 512" version="1.1" xmlns="http://www.w3.org/2000/svg" xmlns:xlink="http://www.w3.org/1999/xlink">
    <!-- Generator: Sketch 51 (57462) - http://www.bohemiancoding.com/sketch -->
    <title>icon/tool/add</title>
    <desc>Created with Sketch.</desc>
    <defs>
        <path d="M339.736532,85.3496552 C269.33852,14.9516438 155.198226,14.9516438 84.8002152,85.3496552 C14.4022038,155.747666 14.4022038,269.88796 84.8002152,340.285972 C155.198122,410.683878 269.33818,410.683983 339.736217,340.286286 C410.126219,269.888105 410.126114,155.747076 339.736532,85.3496552 Z M228.266667,196.821227 L228.266667,136.021227 C228.266667,127.184671 221.103223,120.021227 212.266667,120.021227 C203.430111,120.021227 196.266667,127.184671 196.266667,136.021227 L196.266667,196.821227 L135.466667,196.821227 C126.630111,196.821227 119.466667,203.984671 119.466667,212.821227 C119.466667,221.657783 126.630111,228.821227 135.466667,228.821227 L196.266667,228.821227 L196.266667,289.621227 C196.266667,298.457783 203.430111,305.621227 212.266667,305.621227 C221.103223,305.621227 228.266667,298.457783 228.266667,289.621227 L228.266667,228.821227 L289.066667,228.821227 C297.903223,228.821227 305.066667,221.657783 305.066667,212.821227 C305.066667,203.984671 297.903223,196.821227 289.066667,196.821227 L228.266667,196.821227 Z M362.364578,362.912759 C279.46916,445.808177 145.067587,445.808177 62.1727982,362.913388 C-20.7219905,280.0186 -20.7219905,145.617027 62.1727982,62.7222382 C145.067587,-20.1725505 279.46916,-20.1725505 362.364578,62.722868 C445.249994,145.617513 445.249994,280.018114 362.364578,362.912759 Z" id="path-1"></path>
    </defs>
    <g id="symbol" stroke="none" stroke-width="1" fill="none" fill-rule="evenodd">
        <g id="icon/tool/add">
            <g>
                <rect id="Rectangle-17" fill-opacity="0" fill="#D8D8D8" x="0" y="0" width="512" height="512"></rect>
                <g id="Group-16" transform="translate(44.000000, 43.000000)">
                    <g id="color1">
                        <mask id="mask-2" fill="white">
                            <use xlink:href="#path-1"></use>
                        </mask>
                        <use id="Mask" fill="#262626" fill-rule="nonzero" xlink:href="#path-1"></use>
                    </g>
                </g>
            </g>
        </g>
    </g>
</svg>