<?xml version="1.0" encoding="UTF-8"?>
<svg width="512px" height="512px" viewBox="0 0 512 512" version="1.1" xmlns="http://www.w3.org/2000/svg" xmlns:xlink="http://www.w3.org/1999/xlink">
    <!-- Generator: Sketch 51 (57462) - http://www.bohemiancoding.com/sketch -->
    <title>icon/tool/approved</title>
    <desc>Created with Sketch.</desc>
    <defs>
        <path d="M401.226795,382.704786 L326.308774,373.227278 L297.068046,442.846913 L240.665712,345.155755 C227.622474,348.21906 214.209345,349.786343 200.612078,349.786343 C187.009946,349.786343 173.596479,348.219443 160.557855,345.156774 L104.159082,442.841764 L74.9084898,373.227278 L0,382.705102 L16.1181572,354.785437 L59.9955881,278.781518 C37.8827766,248.924891 25.7155261,212.824221 25.7155261,174.889792 C25.7155261,70.9059568 115.813012,-10.3711417 220.301757,1.07717362 C301.23266,9.94737949 366.307196,75.5956786 374.569573,156.633155 C379.107291,201.068371 366.949419,244.058619 341.222213,278.783808 L401.226795,382.704786 Z M342.734874,159.881526 C336.002325,93.8486295 282.734976,40.111621 216.815948,32.8867498 C131.314012,23.5187252 57.7155261,89.9120466 57.7155261,174.889792 C57.7155261,207.170369 68.4723729,237.75996 87.9808166,262.719664 C94.2748529,270.756665 95.1921678,281.805826 90.0439295,290.73594 L59.9496729,342.864826 L94.9975969,338.430375 L108.684384,371.004027 L145.432537,307.354717 L157.673902,311.205691 C171.479284,315.548684 185.899309,317.786343 200.612078,317.786343 C215.316456,317.786343 229.737078,315.548592 243.552812,311.204886 L255.79272,307.356625 L292.536799,370.998878 L306.215796,338.430375 L341.271851,342.865143 L311.089468,290.592731 C305.994853,281.738983 306.909954,270.78978 313.159584,262.819825 C335.799035,233.907849 346.588648,197.619284 342.734874,159.881526 Z M322.540464,174.89244 C322.540464,242.22941 267.946399,296.823475 200.60943,296.823475 C133.27246,296.823475 78.6783951,242.22941 78.6783951,174.89244 C78.6783951,107.55547 133.27246,52.9614056 200.60943,52.9614056 C267.946399,52.9614056 322.540464,107.55547 322.540464,174.89244 Z M290.540464,174.89244 C290.540464,125.228582 250.273287,84.9614056 200.60943,84.9614056 C150.945572,84.9614056 110.678395,125.228582 110.678395,174.89244 C110.678395,224.556298 150.945572,264.823475 200.60943,264.823475 C250.273287,264.823475 290.540464,224.556298 290.540464,174.89244 Z M181.652084,196.187819 L248.857843,136.449367 C255.462367,130.578679 265.575525,131.17357 271.446213,137.778094 C277.316901,144.382619 276.72201,154.495777 270.117485,160.366465 L190.66921,230.987155 C183.954827,236.955495 173.643861,236.227479 167.834711,229.374903 L133.186436,188.503179 C127.472333,181.762722 128.304358,171.666307 135.044815,165.952205 C141.785272,160.238103 151.881687,161.070127 157.595789,167.810584 L181.652084,196.187819 Z" id="path-1"></path>
    </defs>
    <g id="symbol" stroke="none" stroke-width="1" fill="none" fill-rule="evenodd">
        <g id="icon/tool/approved">
            <g>
                <rect id="Rectangle-Copy-29" fill-opacity="0" fill="#F0F0F0" x="0" y="0" width="512" height="512"></rect>
                <g id="Page-1" transform="translate(55.448276, 34.793103)">
                    <g id="color1">
                        <mask id="mask-2" fill="white">
                            <use xlink:href="#path-1"></use>
                        </mask>
                        <use id="Mask" fill="#262626" fill-rule="nonzero" xlink:href="#path-1"></use>
                    </g>
                </g>
            </g>
        </g>
    </g>
</svg>