<?xml version="1.0" encoding="UTF-8"?>
<svg width="512px" height="512px" viewBox="0 0 512 512" version="1.1" xmlns="http://www.w3.org/2000/svg" xmlns:xlink="http://www.w3.org/1999/xlink">
    <!-- Generator: Sketch 51 (57462) - http://www.bohemiancoding.com/sketch -->
    <title>icon/tool/back</title>
    <desc>Created with Sketch.</desc>
    <defs>
        <path d="M438.068966,219.034483 C438.068966,340.007866 340.007866,438.068966 219.034483,438.068966 C98.0610992,438.068966 0,340.007866 0,219.034483 C0,98.0610992 98.0610992,0 219.034483,0 C340.007866,0 438.068966,98.0610992 438.068966,219.034483 Z M406.068966,219.034483 C406.068966,115.734211 322.334754,32 219.034483,32 C115.734211,32 32,115.734211 32,219.034483 C32,322.334754 115.734211,406.068966 219.034483,406.068966 C322.334754,406.068966 406.068966,322.334754 406.068966,219.034483 Z M275.809377,290.516471 C282.057766,296.764859 282.057766,306.895499 275.809377,313.143888 C269.560989,319.392276 259.430349,319.392276 253.18196,313.143888 L170.388029,230.349957 C164.139641,224.101568 164.139641,213.970928 170.388029,207.72254 L253.18196,124.928609 C259.430349,118.68022 269.560989,118.68022 275.809377,124.928609 C282.057766,131.176997 282.057766,141.307637 275.809377,147.556026 L204.329155,219.036248 L275.809377,290.516471 Z" id="path-1"></path>
    </defs>
    <g id="symbol" stroke="none" stroke-width="1" fill="none" fill-rule="evenodd">
        <g id="icon/tool/back">
            <g>
                <rect id="Rectangle-Copy-89" fill-opacity="0" fill="#F0F0F0" x="0" y="0" width="512" height="512"></rect>
                <g id="Page-1" transform="translate(36.965517, 36.965517)">
                    <g id="color1">
                        <mask id="mask-2" fill="white">
                            <use xlink:href="#path-1"></use>
                        </mask>
                        <use id="Mask" fill="#262626" fill-rule="nonzero" xlink:href="#path-1"></use>
                    </g>
                </g>
            </g>
        </g>
    </g>
</svg>