<?xml version="1.0" encoding="UTF-8"?>
<svg width="512px" height="512px" viewBox="0 0 512 512" version="1.1" xmlns="http://www.w3.org/2000/svg" xmlns:xlink="http://www.w3.org/1999/xlink">
    <!-- Generator: Sketch 51 (57462) - http://www.bohemiancoding.com/sketch -->
    <title>icon/tool/Batch deleting</title>
    <desc>Created with Sketch.</desc>
    <defs>
        <path d="M273.160964,161.066667 L406.913922,294.819625 C413.162311,301.068014 413.162311,311.198653 406.913922,317.447042 C400.665533,323.695431 390.534894,323.695431 384.286505,317.447042 L250.533547,183.694084 L116.780588,317.447042 C110.5322,323.695431 100.40156,323.695431 94.1531715,317.447042 C87.9047828,311.198653 87.9047828,301.068014 94.1531715,294.819625 L227.90613,161.066667 L94.1531715,27.3137085 C87.9047828,21.0653198 87.9047828,10.9346802 94.1531715,4.6862915 C100.40156,-1.56209717 110.5322,-1.56209717 116.780588,4.6862915 L250.533547,138.43925 L384.286505,4.6862915 C390.534894,-1.56209717 400.665533,-1.56209717 406.913922,4.6862915 C413.162311,10.9346802 413.162311,21.0653198 406.913922,27.3137085 L273.160964,161.066667 Z M161.066667,145.066667 C169.903223,145.066667 177.066667,152.230111 177.066667,161.066667 C177.066667,169.903223 169.903223,177.066667 161.066667,177.066667 L16,177.066667 C7.163444,177.066667 0,169.903223 0,161.066667 C0,152.230111 7.163444,145.066667 16,145.066667 L161.066667,145.066667 Z M101.333333,204.8 C110.169889,204.8 117.333333,211.963444 117.333333,220.8 C117.333333,229.636556 110.169889,236.8 101.333333,236.8 L16,236.8 C7.163444,236.8 0,229.636556 0,220.8 C0,211.963444 7.163444,204.8 16,204.8 L101.333333,204.8 Z M101.333333,85.3333333 C110.169889,85.3333333 117.333333,92.4967773 117.333333,101.333333 C117.333333,110.169889 110.169889,117.333333 101.333333,117.333333 L16,117.333333 C7.163444,117.333333 0,110.169889 0,101.333333 C0,92.4967773 7.163444,85.3333333 16,85.3333333 L101.333333,85.3333333 Z" id="path-1"></path>
    </defs>
    <g id="symbol" stroke="none" stroke-width="1" fill="none" fill-rule="evenodd">
        <g id="icon/tool/Batch-deleting">
            <g>
                <rect id="Rectangle-18-Copy-2" fill-opacity="0" fill="#D8D8D8" x="0" y="0" width="512" height="512"></rect>
                <g id="Group-19" transform="translate(50.266667, 94.933333)">
                    <g id="color1">
                        <mask id="mask-2" fill="white">
                            <use xlink:href="#path-1"></use>
                        </mask>
                        <use id="Mask" fill="#262626" fill-rule="nonzero" xlink:href="#path-1"></use>
                    </g>
                </g>
            </g>
        </g>
    </g>
</svg>