<?xml version="1.0" encoding="UTF-8"?>
<svg width="512px" height="512px" viewBox="0 0 512 512" version="1.1" xmlns="http://www.w3.org/2000/svg" xmlns:xlink="http://www.w3.org/1999/xlink">
    <!-- Generator: Sketch 51 (57462) - http://www.bohemiancoding.com/sketch -->
    <title>icon/tool/cancel SVN</title>
    <desc>Created with Sketch.</desc>
    <defs>
        <path d="M16,106.908248 C7.163444,106.908248 3.69482223e-13,99.7448043 3.69482223e-13,90.9082483 C3.69482223e-13,82.0716923 7.163444,74.9082483 16,74.9082483 L351.448276,74.9082483 C389.415866,74.9082483 420.413793,105.906175 420.413793,143.873766 L420.413793,267.459972 C420.413793,305.427563 389.415866,336.42549 351.448276,336.42549 L16,336.42549 C7.163444,336.42549 3.69482223e-13,329.262046 3.69482223e-13,320.42549 C3.69482223e-13,311.588934 7.163444,304.42549 16,304.42549 L351.448276,304.42549 C371.742754,304.42549 388.413793,287.754451 388.413793,267.459972 L388.413793,143.873766 C388.413793,123.579287 371.742754,106.908248 351.448276,106.908248 L16,106.908248 Z M38.6293986,90.9102299 L102.218426,154.499257 C108.466814,160.747646 108.466814,170.878285 102.218426,177.126674 C95.9700371,183.375063 85.8393974,183.375063 79.5910087,177.126674 L4.68893978,102.224605 C-1.55918855,95.9764767 -1.559487,85.8463512 4.68827315,79.5978547 L79.5903421,4.68695817 C85.8383626,-1.56179867 95.9690022,-1.56239561 102.217759,4.68562487 C108.466516,10.9336453 108.467113,21.064285 102.219092,27.3130418 L38.6293986,90.9102299 Z" id="path-1"></path>
    </defs>
    <g id="symbol" stroke="none" stroke-width="1" fill="none" fill-rule="evenodd">
        <g id="icon/tool/cancel-SVN">
            <g>
                <rect id="Rectangle-Copy-26" fill-opacity="0" fill="#F0F0F0" x="0" y="0" width="512" height="512"></rect>
                <g id="Page-1" transform="translate(45.793103, 87.931034)">
                    <g id="color1">
                        <mask id="mask-2" fill="white">
                            <use xlink:href="#path-1"></use>
                        </mask>
                        <use id="Mask" fill="#262626" fill-rule="nonzero" xlink:href="#path-1"></use>
                    </g>
                </g>
            </g>
        </g>
    </g>
</svg>