<?xml version="1.0" encoding="UTF-8"?>
<svg width="512px" height="512px" viewBox="0 0 512 512" version="1.1" xmlns="http://www.w3.org/2000/svg" xmlns:xlink="http://www.w3.org/1999/xlink">
    <!-- Generator: Sketch 51 (57462) - http://www.bohemiancoding.com/sketch -->
    <title>icon/tool/Cancel billing 取消对账</title>
    <desc>Created with Sketch.</desc>
    <defs>
        <path d="M227.47863,201.195883 L266.966775,161.707738 C273.215163,155.459349 283.345803,155.459349 289.594192,161.707738 C295.84258,167.956127 295.84258,178.086766 289.594192,184.335155 L250.106047,223.8233 L290.249522,263.966775 C296.497911,270.215163 296.497911,280.345803 290.249522,286.594192 C284.001133,292.84258 273.870494,292.84258 267.622105,286.594192 L227.47863,246.450717 L187.313708,286.615638 C181.06532,292.864027 170.93468,292.864027 164.686292,286.615638 C158.437903,280.36725 158.437903,270.23661 164.686292,263.988221 L204.851213,223.8233 L165.341622,184.313708 C159.093233,178.06532 159.093233,167.93468 165.341622,161.686292 C171.59001,155.437903 181.72065,155.437903 187.969039,161.686292 L227.47863,201.195883 Z M63,348.82747 L26.2050235,379.296149 C15.7748482,387.933026 0,380.515348 0,366.973976 L0,15.9988654 C0,7.16293604 7.163444,0 16,0 L303,0 C311.836556,0 319,7.16293604 319,15.9988654 L319,64 L367,64 C375.836556,64 383,71.163444 383,80 L383,432 C383,446.712274 364.815753,453.625912 355.041451,442.629821 L295,375.083189 L234.958549,442.629821 C228.593893,449.79006 217.406107,449.79006 211.041451,442.629821 L151,375.083189 L90.9585491,442.629821 C81.1842465,453.625912 63,446.712274 63,432 L63,348.82747 Z M63,307.282252 L63,80 C63,71.163444 70.163444,64 79,64 L287,64 L287,31.9977309 L32,31.9977309 L32,332.952306 L63,307.282252 Z M95,319.55277 L95,389.916811 L139.041451,340.370179 C145.406107,333.20994 156.593893,333.20994 162.958549,340.370179 L223,407.916811 L283.041451,340.370179 C289.406107,333.20994 300.593893,333.20994 306.958549,340.370179 L351,389.916811 L351,96 L95,96 L95,308.39785 C96.3457777,312.01476 96.321977,315.986205 95.0000012,319.552767 Z" id="path-1"></path>
    </defs>
    <g id="symbol" stroke="none" stroke-width="1" fill="none" fill-rule="evenodd">
        <g id="icon/tool/Cancel-billing-取消对账">
            <rect fill="#D8D8D8" opacity="0" x="0" y="0" width="512" height="512"></rect>
            <g id="color1" transform="translate(65.000000, 32.000000)">
                <mask id="mask-2" fill="white">
                    <use xlink:href="#path-1"></use>
                </mask>
                <use id="Mask" fill="#262626" fill-rule="nonzero" xlink:href="#path-1"></use>
            </g>
        </g>
    </g>
</svg>