<?xml version="1.0" encoding="UTF-8"?>
<svg width="512px" height="512px" viewBox="0 0 512 512" version="1.1" xmlns="http://www.w3.org/2000/svg" xmlns:xlink="http://www.w3.org/1999/xlink">
    <!-- Generator: Sketch 51 (57462) - http://www.bohemiancoding.com/sketch -->
    <title>icon/tool/Compare bills 对账</title>
    <desc>Created with Sketch.</desc>
    <defs>
        <path d="M208.509868,224.50029 L159,224.50029 C150.163444,224.50029 143,217.336846 143,208.50029 C143,199.663734 150.163444,192.50029 159,192.50029 L208.022085,192.50029 C207.879026,192.385838 207.737376,192.268541 207.597206,192.148396 L165.597206,156.148396 C158.887992,150.397641 158.111008,140.296842 163.861762,133.587628 C169.612517,126.878415 179.713316,126.10143 186.42253,131.852184 L223.507699,163.639472 L261.950313,132.55821 C268.821885,127.002471 278.89621,128.069164 284.451948,134.940736 C290.007687,141.812307 288.940994,151.886632 282.069422,157.442371 L240.483011,191.065427 C240.500834,191.374774 240.509868,191.686477 240.509868,192.00029 L240.509868,192.50029 L289.018521,192.50029 C297.855077,192.50029 305.018521,199.663734 305.018521,208.50029 C305.018521,217.336846 297.855077,224.50029 289.018521,224.50029 L240.509868,224.50029 L240.509868,256.50029 L272.009868,256.50029 C280.846424,256.50029 288.009868,263.663734 288.009868,272.50029 C288.009868,281.336846 280.846424,288.50029 272.009868,288.50029 L240.509868,288.50029 L240.509868,336.50029 C240.509868,345.336846 233.346424,352.50029 224.509868,352.50029 C215.673312,352.50029 208.509868,345.336846 208.509868,336.50029 L208.509868,288.50029 L176.009868,288.50029 C167.173312,288.50029 160.009868,281.336846 160.009868,272.50029 C160.009868,263.663734 167.173312,256.50029 176.009868,256.50029 L208.509868,256.50029 L208.509868,224.50029 Z M64,348.024082 L26.2050235,379.323047 C15.7748482,387.960536 0,380.542333 0,367 L0,16 C0,7.163444 7.163444,0 16,0 L303,0 C311.836556,0 319,7.163444 319,16 L319,64 L367,64 C375.836556,64 383,71.163444 383,80 L383,431 C383,444.990741 366.309079,452.242963 356.081898,442.695942 L295.25,385.909673 L234.418102,442.695942 C228.270511,448.434686 218.729489,448.434686 212.581898,442.695942 L151.75,385.909673 L90.918102,442.695942 C80.6909213,452.242963 64,444.990741 64,431 L64,348.024082 Z M64,306.475918 L64,80 C64,71.163444 71.163444,64 80,64 L287,64 L287,32 L32,32 L32,332.975918 L64,306.475918 Z M96,314.108496 L96,394.176147 L140.831898,352.325798 C146.979489,346.587053 156.520511,346.587053 162.668102,352.325798 L223.5,409.112066 L284.331898,352.325798 C290.479489,346.587053 300.020511,346.587053 306.168102,352.325798 L351,394.176147 L351,96 L96,96 L96,313.873817 C96.0005709,313.952054 96.0005706,314.030282 96,314.108496 Z" id="path-1"></path>
    </defs>
    <g id="symbol" stroke="none" stroke-width="1" fill="none" fill-rule="evenodd">
        <g id="icon/tool/Compare-bills-对账">
            <rect fill="#D8D8D8" opacity="0" x="0" y="0" width="512" height="512"></rect>
            <g id="color1" transform="translate(64.000000, 32.000000)">
                <mask id="mask-2" fill="white">
                    <use xlink:href="#path-1"></use>
                </mask>
                <use id="Mask" fill="#262626" fill-rule="nonzero" xlink:href="#path-1"></use>
            </g>
        </g>
    </g>
</svg>