<?xml version="1.0" encoding="UTF-8"?>
<svg width="512px" height="512px" viewBox="0 0 512 512" version="1.1" xmlns="http://www.w3.org/2000/svg" xmlns:xlink="http://www.w3.org/1999/xlink">
    <!-- Generator: Sketch 51 (57462) - http://www.bohemiancoding.com/sketch -->
    <title>icon/tool/confirm</title>
    <desc>Created with Sketch.</desc>
    <defs>
        <path d="M378.99235,166.11254 C376.898591,157.527617 382.160719,148.870836 390.745642,146.777077 C399.330564,144.683318 407.987346,149.945446 410.081105,158.530369 C414.000093,174.599179 416,191.17492 416,208 C416,322.875821 322.878745,416 208,416 C93.1270804,416 0,322.87292 0,208 C0,93.1270804 93.1270804,0 208,0 C256.922072,0 303.272813,16.9609452 340.247303,47.4488526 C347.065038,53.0705256 348.034638,63.1546584 342.412966,69.9723938 C336.791293,76.7901292 326.70716,77.7597294 319.889424,72.1380564 C288.594912,46.3336653 249.423982,32 208,32 C110.800192,32 32,110.800192 32,208 C32,305.199808 110.800192,384 208,384 C305.205408,384 384,305.202934 384,208 C384,193.734621 382.307194,179.704212 378.99235,166.11254 Z M189.060073,263.917165 L378.473637,74.5036006 C384.722026,68.2552119 394.852665,68.2552119 401.101054,74.5036006 C407.349443,80.7519893 407.349443,90.8826289 401.101054,97.1310176 L200.373781,297.85829 C194.125393,304.106679 183.994753,304.106679 177.746364,297.85829 L90.473637,210.585563 C84.2252483,204.337174 84.2252483,194.206535 90.473637,187.958146 C96.7220256,181.709757 106.852665,181.709757 113.101054,187.958146 L189.060073,263.917165 Z" id="path-1"></path>
    </defs>
    <g id="symbol" stroke="none" stroke-width="1" fill="none" fill-rule="evenodd">
        <g id="icon/tool/confirm">
            <g>
                <rect id="Rectangle-Copy-32" fill-opacity="0" fill="#F0F0F0" x="0" y="0" width="512" height="512"></rect>
                <g id="Page-1" transform="translate(48.000000, 48.000000)">
                    <g id="color1">
                        <mask id="mask-2" fill="white">
                            <use xlink:href="#path-1"></use>
                        </mask>
                        <use id="Mask" fill="#262626" fill-rule="nonzero" xlink:href="#path-1"></use>
                    </g>
                </g>
            </g>
        </g>
    </g>
</svg>