<?xml version="1.0" encoding="UTF-8"?>
<svg width="512px" height="512px" viewBox="0 0 512 512" version="1.1" xmlns="http://www.w3.org/2000/svg" xmlns:xlink="http://www.w3.org/1999/xlink">
    <!-- Generator: Sketch 51 (57462) - http://www.bohemiancoding.com/sketch -->
    <title>icon/tool/Counter trial</title>
    <desc>Created with Sketch.</desc>
    <defs>
        <path d="M113.811516,205.562429 C113.852827,205.520211 113.894419,205.478164 113.936292,205.436292 L163.762239,155.610344 C170.010627,149.361956 180.141267,149.361956 186.389656,155.610344 C192.638044,161.858733 192.638044,171.989373 186.389656,178.237761 L163.627417,201 L230,201 C254.300529,201 274,220.699471 274,245 L274,285.5 C274,309.800529 254.300529,329.5 230,329.5 L125,329.5 C116.163444,329.5 109,322.336556 109,313.5 C109,304.663444 116.163444,297.5 125,297.5 L230,297.5 C236.627417,297.5 242,292.127417 242,285.5 L242,245 C242,238.372583 236.627417,233 230,233 L125,233 C116.163444,233 109,225.836556 109,217 C109,212.518372 110.842585,208.467103 113.811516,205.562429 Z M287.5,64 L287.5,80.5 C287.5,89.336556 280.336556,96.5 271.5,96.5 L110.5,96.5 C101.663444,96.5 94.5,89.336556 94.5,80.5 L94.5,64 L32,64 L32,416 L350,416 L350,64 L287.5,64 Z M287.5,32 L366,32 C374.836556,32 382,39.163444 382,48 L382,432 C382,440.836556 374.836556,448 366,448 L16,448 C7.163444,448 0,440.836556 0,432 L0,48 C0,39.163444 7.163444,32 16,32 L94.5,32 L94.5,16 C94.5,7.163444 101.663444,0 110.5,0 L271.5,0 C280.336556,0 287.5,7.163444 287.5,16 L287.5,32 Z M126.5,32 L126.5,64.5 L255.5,64.5 L255.5,32 L126.5,32 Z" id="path-1"></path>
    </defs>
    <g id="symbol" stroke="none" stroke-width="1" fill="none" fill-rule="evenodd">
        <g id="icon/tool/Counter-trial">
            <rect fill="#D8D8D8" opacity="0" x="0" y="0" width="512" height="512"></rect>
            <g transform="translate(65.000000, 32.000000)">
                <mask id="mask-2" fill="white">
                    <use xlink:href="#path-1"></use>
                </mask>
                <use fill="#262626" fill-rule="nonzero" xlink:href="#path-1"></use>
            </g>
        </g>
    </g>
</svg>