<?xml version="1.0" encoding="UTF-8"?>
<svg width="512px" height="512px" viewBox="0 0 512 512" version="1.1" xmlns="http://www.w3.org/2000/svg" xmlns:xlink="http://www.w3.org/1999/xlink">
    <!-- Generator: Sketch 51 (57462) - http://www.bohemiancoding.com/sketch -->
    <title>icon/tool/custom</title>
    <desc>Created with Sketch.</desc>
    <defs>
        <path d="M13.5490534,173.493976 L159.944923,173.493976 C167.545611,173.493976 173.493976,167.545611 173.493976,159.944923 L173.493976,13.5490534 C173.493976,5.94836489 167.545611,0 159.944923,0 L13.5490534,0 C5.94836489,0 0,5.94836489 0,13.5490534 L0,159.944923 C0,167.215146 6.2788296,173.493976 13.5490534,173.493976 L13.5490534,173.493976 Z M27.0981067,27.0981067 L146.395869,27.0981067 L146.395869,146.395869 L27.0981067,146.395869 L27.0981067,27.0981067 Z M384,13.5490534 L384,159.944923 C384,167.545611 378.051635,173.493976 370.450947,173.493976 L224.055077,173.493976 C216.454389,173.493976 210.506024,167.545611 210.506024,159.944923 L210.506024,13.5490534 C210.506024,5.94836489 216.454389,0 224.055077,0 L370.450947,0 C378.051635,0 384,5.94836489 384,13.5490534 Z M356.901893,146.395869 L356.901893,27.0981067 L237.604131,27.0981067 L237.604131,146.395869 L356.901893,146.395869 Z M13.5490534,384 C6.2788296,384 0,377.72117 0,370.450947 L0,224.055077 C0,216.454389 5.94836489,210.506024 13.5490534,210.506024 L159.944923,210.506024 C167.545611,210.506024 173.493976,216.454389 173.493976,224.055077 L173.493976,370.450947 C173.493976,378.051635 167.545611,384 159.944923,384 L13.5490534,384 Z M27.0981067,237.604131 L27.0981067,356.901893 L146.395869,356.901893 L146.395869,237.604131 L27.0981067,237.604131 Z M370.450947,210.506024 C377.72117,210.506024 384,216.784854 384,224.055077 L384,370.450947 C384,378.051635 378.051635,384 370.450947,384 L224.055077,384 C216.454389,384 210.506024,378.051635 210.506024,370.450947 L210.506024,224.055077 C210.506024,216.454389 216.454389,210.506024 224.055077,210.506024 L370.450947,210.506024 Z M356.901893,356.901893 L356.901893,237.604131 L237.604131,237.604131 L237.604131,356.901893 L356.901893,356.901893 Z" id="path-1"></path>
    </defs>
    <g id="symbol" stroke="none" stroke-width="1" fill="none" fill-rule="evenodd">
        <g id="icon/tool/custom">
            <g>
                <rect id="Rectangle-18-Copy-7" fill-opacity="0" fill="#D8D8D8" x="0" y="0" width="512" height="512"></rect>
                <g id="color1" transform="translate(64.000000, 64.000000)">
                    <mask id="mask-2" fill="white">
                        <use xlink:href="#path-1"></use>
                    </mask>
                    <use id="Mask" fill="#30363E" xlink:href="#path-1"></use>
                </g>
            </g>
        </g>
    </g>
</svg>