<?xml version="1.0" encoding="UTF-8"?>
<svg width="512px" height="512px" viewBox="0 0 512 512" version="1.1" xmlns="http://www.w3.org/2000/svg" xmlns:xlink="http://www.w3.org/1999/xlink">
    <!-- Generator: Sketch 51 (57462) - http://www.bohemiancoding.com/sketch -->
    <title>icon/tool/delete</title>
    <desc>Created with Sketch.</desc>
    <defs>
        <path d="M83.2017067,142.9376 L83.2017067,340.270933 C83.2017067,363.230036 95.3041892,375.470933 118.401707,375.470933 L237.868373,375.470933 C262.170039,375.470933 273.068373,364.696869 273.068373,340.270933 L273.068373,142.9376 L83.2017067,142.9376 Z M253.868373,59.7376 L322.2272,59.7376 C340.981264,59.7376 356.266667,75.0180173 356.266667,93.7770667 L356.266667,108.8896 C356.266667,127.64793 340.981982,142.9376 322.2272,142.9376 L305.068373,142.9376 L305.068373,340.270933 C305.068373,382.452649 279.761524,407.470933 237.868373,407.470933 L118.401707,407.470933 C77.5491061,407.470933 51.2017067,380.822201 51.2017067,340.270933 L51.2017067,142.9376 L34.048,142.9376 C15.2804181,142.9376 0,127.652198 0,108.8896 L0,93.7770667 C0,75.013752 15.281136,59.7376 34.048,59.7376 L102.401707,59.7376 L102.401707,25.856 C102.401707,11.604241 113.99902,0 128.249173,0 L228.012373,0 C242.267596,0 253.868373,11.6007773 253.868373,25.856 L253.868373,59.7376 Z M221.868373,59.7376 L221.868373,32 L134.401707,32 L134.401707,59.7376 L221.868373,59.7376 Z M322.2272,110.9376 C323.306533,110.9376 324.266667,109.977154 324.266667,108.8896 L324.266667,93.7770667 C324.266667,92.6934665 323.310488,91.7376 322.2272,91.7376 L34.048,91.7376 C32.9519117,91.7376 32,92.6892012 32,93.7770667 L32,108.8896 C32,109.981422 32.9558665,110.9376 34.048,110.9376 L322.2272,110.9376 Z M162.13504,178.1376 L194.13504,178.1376 L194.13504,340.125867 L162.13504,340.125867 L162.13504,178.1376 Z M221.868373,178.14528 L253.868373,178.14528 L253.868373,340.133547 L221.868373,340.133547 L221.868373,178.14528 Z M134.401707,340.132693 L102.401707,340.132693 L102.401707,178.144427 L134.401707,178.144427 L134.401707,340.132693 Z" id="path-1"></path>
    </defs>
    <g id="symbol" stroke="none" stroke-width="1" fill="none" fill-rule="evenodd">
        <g id="icon/tool/delete">
            <g>
                <rect id="Rectangle-18-Copy" fill-opacity="0" fill="#D8D8D8" x="0" y="0" width="512" height="512"></rect>
                <g id="Group-18" transform="translate(77.866667, 52.266667)">
                    <g id="color1">
                        <mask id="mask-2" fill="white">
                            <use xlink:href="#path-1"></use>
                        </mask>
                        <use id="Mask" fill="#262626" fill-rule="nonzero" xlink:href="#path-1"></use>
                    </g>
                </g>
            </g>
        </g>
    </g>
</svg>