<?xml version="1.0" encoding="UTF-8"?>
<svg width="512px" height="512px" viewBox="0 0 512 512" version="1.1" xmlns="http://www.w3.org/2000/svg" xmlns:xlink="http://www.w3.org/1999/xlink">
    <!-- Generator: Sketch 51 (57462) - http://www.bohemiancoding.com/sketch -->
    <title>icon/tool/download</title>
    <desc>Created with Sketch.</desc>
    <defs>
        <path d="M312.7344,123.658133 L368.550933,123.658133 L370.666417,123.798602 C393.154037,126.798199 406.033522,141.558988 403.950982,161.338786 C402.491882,175.197202 393.56024,189.898697 380.661092,201.343975 L241.755157,313.698986 C219.32412,335.480005 185.51304,335.508301 163.052435,313.783874 L20.1230202,201.485223 L18.6942915,200.217708 C-4.552711,176.970706 -0.328045453,138.996973 26.9541395,125.348787 C29.1766009,124.236978 31.6274875,123.658133 34.1125333,123.658133 L96.0816,123.658133 L96.0816,57.5845333 C96.0816,26.1754732 121.704482,0.556266667 153.1184,0.556266667 L255.6976,0.556266667 C287.111518,0.556266667 312.7344,26.1754732 312.7344,57.5845333 L312.7344,123.658133 Z M296.7344,155.658133 C287.897844,155.658133 280.7344,148.494689 280.7344,139.658133 L280.7344,57.5845333 C280.7344,43.8496128 269.439434,32.5562667 255.6976,32.5562667 L153.1184,32.5562667 C139.376566,32.5562667 128.0816,43.8496128 128.0816,57.5845333 L128.0816,139.658133 C128.0816,148.494689 120.918156,155.658133 112.0816,155.658133 L38.908785,155.658133 C34.2319225,160.247187 34.0281867,169.757248 40.7463145,176.993236 L183.517513,289.167577 L184.943301,290.432151 C195.113719,300.597283 209.606281,300.597283 219.776699,290.432151 L221.025308,289.308825 L359.96774,176.94667 C366.809623,170.863592 371.601761,162.975726 372.126884,157.988148 C372.303582,156.309887 372.405564,156.308429 367.494075,155.658133 L296.7344,155.658133 Z M16.1421867,390.95456 C7.30563067,390.95456 0.142186667,383.791116 0.142186667,374.95456 C0.142186667,366.118004 7.30563067,358.95456 16.1421867,358.95456 L391.608853,358.95456 C400.445409,358.95456 407.608853,366.118004 407.608853,374.95456 C407.608853,383.791116 400.445409,390.95456 391.608853,390.95456 L16.1421867,390.95456 Z" id="path-1"></path>
    </defs>
    <g id="symbol" stroke="none" stroke-width="1" fill="none" fill-rule="evenodd">
        <g id="icon/tool/download">
            <g>
                <rect id="Rectangle-18-Copy-5" fill-opacity="0" fill="#D8D8D8" x="0" y="0" width="512" height="512"></rect>
                <g id="Group-22" transform="translate(51.733333, 60.266667)">
                    <g id="color1">
                        <mask id="mask-2" fill="white">
                            <use xlink:href="#path-1"></use>
                        </mask>
                        <use id="Mask" fill="#262626" fill-rule="nonzero" xlink:href="#path-1"></use>
                    </g>
                </g>
            </g>
        </g>
    </g>
</svg>