<?xml version="1.0" encoding="UTF-8"?>
<svg width="512px" height="512px" viewBox="0 0 512 512" version="1.1" xmlns="http://www.w3.org/2000/svg" xmlns:xlink="http://www.w3.org/1999/xlink">
    <!-- Generator: Sketch 51 (57462) - http://www.bohemiancoding.com/sketch -->
    <title>icon/tool/edit</title>
    <desc>Created with Sketch.</desc>
    <defs>
        <path d="M359.550825,108.263678 C362.900915,104.913588 362.410683,97.5354864 356.973758,92.0985618 L301.805758,36.9305618 C296.360823,31.4856264 288.990861,30.9947428 285.640829,34.3447745 L32.7279215,287.266058 L33.4438449,360.418303 L106.641585,361.172918 L359.550825,108.263678 Z M113.035594,393.240536 L26.7403577,392.317116 C13.5445136,391.321602 2.59691569,380.380193 1.53416709,366.123659 L0.663767088,280.867125 C0.619869844,276.567347 2.30852714,272.430877 5.34903749,269.390266 L263.013225,11.7175448 C279.58148,-4.85071006 307.11309,-3.01694023 324.433175,14.3031448 L379.601175,69.4711448 C396.914622,86.7845917 398.74451,114.324827 382.178242,130.891095 L124.514242,388.555095 C121.473223,391.596114 117.336015,393.284871 113.035594,393.240536 Z M15.6199448,281.739095 C9.37155617,275.490706 9.37155617,265.360067 15.6199448,259.111678 C21.8683335,252.863289 31.9989732,252.863289 38.2473618,259.111678 L134.784962,355.649278 C141.033351,361.897667 141.033351,372.028306 134.784962,378.276695 C128.536573,384.525084 118.405934,384.525084 112.157545,378.276695 L15.6199448,281.739095 Z M238.877903,58.4801465 C232.629788,52.2314843 232.630231,42.1008446 238.878894,35.8527295 C245.127556,29.6046144 255.258195,29.6050579 261.50631,35.8537202 L358.956977,133.31292 C365.205092,139.561582 365.204649,149.692222 358.955986,155.940337 C352.707324,162.188452 342.576685,162.188009 336.32857,155.939346 L238.877903,58.4801465 Z M68.4135485,311.909548 C62.1651598,318.157937 52.0345202,318.157937 45.7861315,311.909548 C39.5377428,305.66116 39.5377428,295.53052 45.7861315,289.282132 L269.043732,66.0245315 C275.29212,59.7761428 285.42276,59.7761428 291.671148,66.0245315 C297.919537,72.2729202 297.919537,82.4035598 291.671148,88.6519485 L68.4135485,311.909548 Z M104.622188,348.113922 C98.3737998,354.362311 88.2431602,354.362311 81.9947715,348.113922 C75.7463828,341.865533 75.7463828,331.734894 81.9947715,325.486505 L305.252372,102.228905 C311.50076,95.9805162 321.6314,95.9805162 327.879788,102.228905 C334.128177,108.477294 334.128177,118.607933 327.879788,124.856322 L104.622188,348.113922 Z" id="path-1"></path>
    </defs>
    <g id="symbol" stroke="none" stroke-width="1" fill="none" fill-rule="evenodd">
        <g id="icon/tool/edit">
            <g>
                <rect id="Rectangle-18" fill-opacity="0" fill="#D8D8D8" x="0" y="0" width="512" height="512"></rect>
                <g id="Group-17" transform="translate(59.000000, 59.000000)">
                    <g id="color1">
                        <mask id="mask-2" fill="white">
                            <use xlink:href="#path-1"></use>
                        </mask>
                        <use id="Mask" fill="#262626" fill-rule="nonzero" xlink:href="#path-1"></use>
                    </g>
                </g>
            </g>
        </g>
    </g>
</svg>