<?xml version="1.0" encoding="UTF-8"?>
<svg width="512px" height="512px" viewBox="0 0 512 512" version="1.1" xmlns="http://www.w3.org/2000/svg" xmlns:xlink="http://www.w3.org/1999/xlink">
    <!-- Generator: Sketch 51 (57462) - http://www.bohemiancoding.com/sketch -->
    <title>icon/tool/exit</title>
    <desc>Created with Sketch.</desc>
    <defs>
        <path d="M212.266667,424.533333 C95.0397107,424.533333 0,329.493623 0,212.266667 C0,95.0340169 95.036871,0 212.266667,0 C329.496462,0 424.533333,95.0340169 424.533333,212.266667 C424.533333,329.493623 329.493623,424.533333 212.266667,424.533333 Z M212.266667,392.533333 C311.820511,392.533333 392.533333,311.820511 392.533333,212.266667 C392.533333,112.707344 311.823565,32 212.266667,32 C112.709768,32 32,112.707344 32,212.266667 C32,311.820511 112.712823,392.533333 212.266667,392.533333 Z M132.686292,138.247042 C126.437903,131.998653 126.437903,121.868014 132.686292,115.619625 C138.93468,109.371236 149.06532,109.371236 155.313708,115.619625 L240.647042,200.952958 C246.895431,207.201347 246.895431,217.331986 240.647042,223.580375 L155.313708,308.913708 C149.06532,315.162097 138.93468,315.162097 132.686292,308.913708 C126.437903,302.66532 126.437903,292.53468 132.686292,286.286292 L206.705916,212.266667 L132.686292,138.247042 Z M264.533333,126.933333 C264.533333,118.096777 271.696777,110.933333 280.533333,110.933333 C289.369889,110.933333 296.533333,118.096777 296.533333,126.933333 L296.533333,297.6 C296.533333,306.436556 289.369889,313.6 280.533333,313.6 C271.696777,313.6 264.533333,306.436556 264.533333,297.6 L264.533333,126.933333 Z" id="path-1"></path>
    </defs>
    <g id="symbol" stroke="none" stroke-width="1" fill="none" fill-rule="evenodd">
        <g id="icon/tool/exit">
            <g>
                <rect id="Rectangle-18-Copy-7" fill-opacity="0" fill="#D8D8D8" x="0" y="0" width="512" height="512"></rect>
                <g id="Group-24" transform="translate(43.733333, 43.733333)">
                    <g id="color1">
                        <mask id="mask-2" fill="white">
                            <use xlink:href="#path-1"></use>
                        </mask>
                        <use id="Mask" fill="#262626" fill-rule="nonzero" xlink:href="#path-1"></use>
                    </g>
                </g>
            </g>
        </g>
    </g>
</svg>