<?xml version="1.0" encoding="UTF-8"?>
<svg width="512px" height="512px" viewBox="0 0 512 512" version="1.1" xmlns="http://www.w3.org/2000/svg" xmlns:xlink="http://www.w3.org/1999/xlink">
    <!-- Generator: Sketch 51 (57462) - http://www.bohemiancoding.com/sketch -->
    <title>icon/tool/export</title>
    <desc>Created with Sketch.</desc>
    <defs>
        <path d="M363.47483,1.76862003 C365.361955,2.54941636 367.129977,3.70682686 368.664002,5.2408515 C370.198026,6.77487615 371.355437,8.54289883 372.136233,10.4300231 C372.918525,12.3165279 373.350293,14.3851215 373.350293,16.55456 L373.350293,101.887893 C373.350293,110.724449 366.186849,117.887893 357.350293,117.887893 C348.513737,117.887893 341.350293,110.724449 341.350293,101.887893 L341.350293,55.181977 L138.264002,258.268268 C132.015613,264.516657 121.884974,264.516657 115.636585,258.268268 C109.388196,252.01988 109.388196,241.88924 115.636585,235.640852 L318.722876,32.55456 L272.01696,32.55456 C263.180404,32.55456 256.01696,25.391116 256.01696,16.55456 C256.01696,7.718004 263.180404,0.55456 272.01696,0.55456 L357.350293,0.55456 C359.519732,0.55456 361.588325,0.986328003 363.47483,1.76861997 Z M341.350293,195.717013 C341.350293,186.880457 348.513737,179.717013 357.350293,179.717013 C366.186849,179.717013 373.350293,186.880457 373.350293,195.717013 L373.350293,306.68448 C373.350293,343.681036 343.146849,373.88448 306.150293,373.88448 L67.21696,373.88448 C30.220404,373.88448 0.01696,343.681036 0.01696,306.68448 L0.01696,67.7511467 C0.01696,30.7545907 30.220404,0.551146667 67.21696,0.551146667 L182.451093,0.551146667 C191.287649,0.551146667 198.451093,7.71459067 198.451093,16.5511467 C198.451093,25.3877027 191.287649,32.5511467 182.451093,32.5511467 L67.21696,32.5511467 C47.893516,32.5511467 32.01696,48.4277027 32.01696,67.7511467 L32.01696,306.68448 C32.01696,326.007924 47.893516,341.88448 67.21696,341.88448 L306.150293,341.88448 C325.473737,341.88448 341.350293,326.007924 341.350293,306.68448 L341.350293,195.717013 Z" id="path-1"></path>
    </defs>
    <g id="symbol" stroke="none" stroke-width="1" fill="none" fill-rule="evenodd">
        <g id="icon/tool/export">
            <g>
                <rect id="Rectangle-18-Copy-6" fill-opacity="0" fill="#D8D8D8" x="0" y="0" width="512" height="512"></rect>
                <g id="Group-23" transform="translate(69.333333, 69.333333)">
                    <g id="color1">
                        <mask id="mask-2" fill="white">
                            <use xlink:href="#path-1"></use>
                        </mask>
                        <use id="Mask" fill="#262626" fill-rule="nonzero" xlink:href="#path-1"></use>
                    </g>
                </g>
            </g>
        </g>
    </g>
</svg>