<?xml version="1.0" encoding="UTF-8"?>
<svg width="512px" height="512px" viewBox="0 0 512 512" version="1.1" xmlns="http://www.w3.org/2000/svg" xmlns:xlink="http://www.w3.org/1999/xlink">
    <!-- Generator: Sketch 51 (57462) - http://www.bohemiancoding.com/sketch -->
    <title>icon/tool/freeze</title>
    <desc>Created with Sketch.</desc>
    <defs>
        <path d="M243.8592,312.912611 L320.209611,387.772094 C326.519302,393.958573 326.619185,404.08872 320.432706,410.398411 C314.246227,416.708102 304.11608,416.807985 297.806389,410.621506 L243.8592,357.727767 L243.8592,439.712 C243.8592,448.548556 236.695756,455.712 227.8592,455.712 C219.022644,455.712 211.8592,448.548556 211.8592,439.712 L211.8592,357.225029 L158.143591,411.999548 C151.956484,418.308623 141.826327,418.407498 135.517252,412.220391 C129.208177,406.033284 129.109302,395.903127 135.296409,389.594052 L211.8592,311.521958 L211.8592,243.8592 L142.796512,243.8592 L67.9382844,320.208033 C61.7517932,326.517712 51.6216458,326.617576 45.3119668,320.431084 C39.0022878,314.244593 38.9024244,304.114446 45.0889156,297.804767 L97.9812695,243.8592 L16,243.8592 C7.163444,243.8592 0,236.695756 0,227.8592 C0,219.022644 7.163444,211.8592 16,211.8592 L98.5139114,211.8592 L43.727989,158.143106 C37.418298,151.956627 37.3184149,141.82648 43.5048938,135.516789 C49.6913727,129.207098 59.82152,129.107215 66.131211,135.293694 L144.221623,211.8592 L211.8592,211.8592 L211.8592,160.445606 L135.511504,85.6033995 C129.201209,79.4175365 129.100337,69.2873991 135.2862,62.9771042 C141.472063,56.6668094 151.602201,56.5659375 157.912496,62.7518005 L211.8592,115.634737 L211.8592,16 C211.8592,7.163444 219.022644,0 227.8592,0 C236.695756,0 243.8592,7.163444 243.8592,16 L243.8592,116.161911 L297.575294,61.375989 C303.761773,55.066298 313.89192,54.9664149 320.201611,61.1528938 C326.511302,67.3393727 326.611185,77.46952 320.424706,83.779211 L243.8592,161.869623 L243.8592,211.8592 L303.396583,211.8592 L379.859092,135.396692 C386.10748,129.148303 396.23812,129.148303 402.486508,135.396692 C408.734897,141.64508 408.734897,151.77572 402.486508,158.024108 L348.651417,211.8592 L439.712,211.8592 C448.548556,211.8592 455.712,219.022644 455.712,227.8592 C455.712,236.695756 448.548556,243.8592 439.712,243.8592 L348.645017,243.8592 L402.486508,297.700692 C408.734897,303.94908 408.734897,314.07972 402.486508,320.328108 C396.23812,326.576497 386.10748,326.576497 379.859092,320.328108 L303.390183,243.8592 L243.8592,243.8592 L243.8592,312.912611 Z" id="path-1"></path>
    </defs>
    <g id="symbol" stroke="none" stroke-width="1" fill="none" fill-rule="evenodd">
        <g id="icon/tool/freeze">
            <g>
                <rect id="Rectangle-17" fill-opacity="0" fill="#D8D8D8" x="0" y="0" width="512" height="512"></rect>
                <g id="color1" transform="translate(28.000000, 28.000000)">
                    <mask id="mask-2" fill="white">
                        <use xlink:href="#path-1"></use>
                    </mask>
                    <use id="Mask" fill="#262626" fill-rule="nonzero" xlink:href="#path-1"></use>
                </g>
            </g>
        </g>
    </g>
</svg>