<?xml version="1.0" encoding="UTF-8"?>
<svg width="512px" height="512px" viewBox="0 0 512 512" version="1.1" xmlns="http://www.w3.org/2000/svg" xmlns:xlink="http://www.w3.org/1999/xlink">
    <!-- Generator: Sketch 51 (57462) - http://www.bohemiancoding.com/sketch -->
    <title>icon/tool/帮助</title>
    <desc>Created with Sketch.</desc>
    <defs>
        <path d="M224,448 C100.288216,448 0,347.711784 0,224 C0,100.288216 100.288216,0 224,0 C347.711784,0 448,100.288216 448,224 C448,347.711784 347.711784,448 224,448 Z M224,416 C330.038672,416 416,330.038672 416,224 C416,117.961328 330.038672,32 224,32 C117.961328,32 32,117.961328 32,224 C32,330.038672 117.961328,416 224,416 Z M286.640342,110.857913 C301.548669,124.098914 309.001031,141.311806 309,162.517095 C309,184.233035 294.422717,206.98873 265.247557,230.753421 C247.825248,244.895749 239.12542,261.080164 239.12542,279.331273 L238.957067,284.921759 L238.919998,284.966364 C238.332046,292.814782 231.757493,299 223.725932,299 C215.308753,299 208.484501,292.205694 208.484501,283.822016 C208.484501,283.360586 208.508699,282.904795 208.549371,282.453619 L208.545253,282.413116 C208.545253,264.680346 210.249385,251.82951 213.661254,243.85548 C217.073123,235.891191 224.859103,226.504672 236.991909,215.715917 L249.382136,204.725671 C266.039388,189.81788 274.356172,175.098251 274.356172,160.584215 C274.356172,148.119442 269.86725,137.904399 260.899703,129.939598 C251.932157,121.974796 240.542271,117.982398 226.735194,117.982398 C190.98857,117.982398 173.004566,138.38121 172.743541,179.158838 C172.743541,179.19319 172.746115,179.228053 172.746115,179.262404 C172.746115,179.323416 172.741996,179.382889 172.741481,179.442875 C172.740451,179.64898 172.736848,179.852522 172.736848,180.059653 L172.726036,180.059653 C172.307983,188.691478 165.149082,195.562176 156.377691,195.562176 C147.6063,195.562176 140.447914,188.691477 140.030376,180.059653 L140,180.059653 C140,152.556864 147.90285,130.841437 163.715243,114.902094 C179.530725,98.9637756 201.046556,91 228.280755,91 C252.284825,91 271.734074,97.6261407 286.640342,110.857913 Z M205,337 C205,325.40202 214.40202,316 226,316 C237.59798,316 247,325.40202 247,337 C247,348.59798 237.59798,358 226,358 C214.40202,358 205,348.59798 205,337 Z" id="path-1"></path>
    </defs>
    <g id="symbol" stroke="none" stroke-width="1" fill="none" fill-rule="evenodd">
        <g id="icon/tool/帮助">
            <g>
                <g transform="translate(32.000000, 32.000000)">
                    <mask id="mask-2" fill="white">
                        <use xlink:href="#path-1"></use>
                    </mask>
                    <use id="Mask" fill="#D5E2E5" fill-rule="nonzero" xlink:href="#path-1"></use>
                </g>
            </g>
        </g>
    </g>
</svg>