<?xml version="1.0" encoding="UTF-8"?>
<svg width="24px" height="24px" viewBox="0 0 24 24" version="1.1" xmlns="http://www.w3.org/2000/svg" xmlns:xlink="http://www.w3.org/1999/xlink">
    <!-- Generator: Sketch 52.2 (67145) - http://www.bohemiancoding.com/sketch -->
    <title>HelpCenter_icon</title>
    <desc>Created with Sketch.</desc>
    <defs>
        <path d="M7,14 C3.13400675,14 0,10.8659932 0,7 C0,3.13400675 3.13400675,0 7,0 C10.8659932,0 14,3.13400675 14,7 C14,10.8659932 10.8659932,14 7,14 Z M7,13 C10.3137085,13 13,10.3137085 13,7 C13,3.6862915 10.3137085,1 7,1 C3.6862915,1 1,3.6862915 1,7 C1,10.3137085 3.6862915,13 7,13 Z M8.95751067,3.46430978 C9.42339591,3.87809107 9.65628222,4.41599393 9.65625,5.07865923 C9.65625,5.75728234 9.20070992,6.46839783 8.28898617,7.2110444 C7.74453901,7.65299216 7.47266939,8.15875511 7.47266939,8.72910229 L7.46740833,8.90380497 L7.46624994,8.90519888 C7.44787645,9.15046194 7.24242166,9.34375 6.99143538,9.34375 C6.72839854,9.34375 6.51514064,9.13142793 6.51514064,8.86943801 C6.51514064,8.85501832 6.51589683,8.84077485 6.51716785,8.8266756 L6.51703914,8.82540987 C6.51703914,8.27126081 6.57029329,7.86967218 6.67691419,7.62048375 C6.78353509,7.37159973 7.02684698,7.078271 7.40599715,6.74112241 L7.79319175,6.3976772 C8.31373086,5.93180876 8.57363036,5.47182035 8.57363036,5.01825671 C8.57363036,4.62873255 8.43335155,4.30951246 8.15311573,4.06061242 C7.8728799,3.81171238 7.51694596,3.68694995 7.08547481,3.68694995 C5.9683928,3.68694995 5.40639269,4.32441282 5.39823564,5.5987137 C5.39823564,5.59978718 5.3983161,5.60087665 5.3983161,5.60195013 C5.3983161,5.60385674 5.39818738,5.60571527 5.39817129,5.60758983 C5.39813911,5.61403063 5.39802649,5.62039131 5.39802649,5.62686416 L5.39768863,5.62686416 C5.38462447,5.89660868 5.16090881,6.111318 4.88680284,6.111318 C4.61269688,6.111318 4.38899731,5.89660867 4.37594924,5.62686416 L4.375,5.62686416 C4.375,4.76740199 4.62196406,4.08879491 5.11610133,3.59069043 C5.61033514,3.09261799 6.28270487,2.84375 7.13377359,2.84375 C7.88390078,2.84375 8.4916898,3.0508169 8.95751067,3.46430978 Z M6.40625,10.53125 C6.40625,10.1688131 6.70006313,9.875 7.0625,9.875 C7.42493687,9.875 7.71875,10.1688131 7.71875,10.53125 C7.71875,10.8936869 7.42493687,11.1875 7.0625,11.1875 C6.70006313,11.1875 6.40625,10.8936869 6.40625,10.53125 Z" id="path-1"></path>
    </defs>
    <g id="Symbols" stroke="none" stroke-width="1" fill="none" fill-rule="evenodd">
        <g id="headerBox" transform="translate(-1106.000000, -4.000000)">
            <g id="icon">
                <g transform="translate(1026.000000, 4.000000)">
                    <g id="设置-copy" transform="translate(80.000000, 0.000000)">
                        <rect id="Rectangle-4" fill-opacity="0" fill="#FFFFFF" x="0" y="0" width="24" height="24"></rect>
                        <g id="icon/tool/帮助" transform="translate(4.000000, 4.000000)">
                            <g>
                                <g transform="translate(1.000000, 1.000000)">
                                    <mask id="mask-2" fill="white">
                                        <use xlink:href="#path-1"></use>
                                    </mask>
                                    <use id="Mask" fill="#D5E2E5" fill-rule="nonzero" xlink:href="#path-1"></use>
                                </g>
                            </g>
                        </g>
                        <polygon id="Rectangle-5" fill="#D5E2E5" points="24 20 24 24 20 24"></polygon>
                    </g>
                </g>
            </g>
        </g>
    </g>
</svg>