<?xml version="1.0" encoding="UTF-8"?>
<svg width="512px" height="512px" viewBox="0 0 512 512" version="1.1" xmlns="http://www.w3.org/2000/svg" xmlns:xlink="http://www.w3.org/1999/xlink">
    <!-- Generator: Sketch 51 (57462) - http://www.bohemiancoding.com/sketch -->
    <title>icon/tool/Ignore passback 忽略回传</title>
    <desc>Created with Sketch.</desc>
    <defs>
        <path d="M207.710155,284.691125 L185.332738,262.313708 C179.084349,256.06532 179.084349,245.93468 185.332738,239.686292 C191.581127,233.437903 201.711766,233.437903 207.960155,239.686292 L230.337572,262.063708 L252.568542,239.832738 C258.816931,233.584349 268.947571,233.584349 275.195959,239.832738 C281.444348,246.081127 281.444348,256.211766 275.195959,262.460155 L252.964989,284.691125 L275.842406,307.568542 C282.090795,313.816931 282.090795,323.947571 275.842406,330.195959 C269.594017,336.444348 259.463378,336.444348 253.214989,330.195959 L230.337572,307.318542 L207.313708,330.342406 C201.06532,336.590795 190.93468,336.590795 184.686292,330.342406 C178.437903,324.094017 178.437903,313.963378 184.686292,307.714989 L207.710155,284.691125 Z M291.691027,302.016448 L291.691027,270.010328 L309.176699,270.010328 L309.176699,195.996175 L229.187107,195.996175 C222.812232,195.996175 217.046963,192.203221 214.516814,186.344632 L203.998639,161.989672 L151.343883,161.989672 L151.343883,270.010328 L169.820118,270.010328 L169.820118,302.016448 L135.360813,302.016448 C126.533607,302.016448 119.377743,294.851634 119.377743,286.013388 L119.377743,145.986612 C119.377743,137.148366 126.533607,129.983552 135.360813,129.983552 L214.50072,129.983552 C220.875595,129.983552 226.640863,133.776506 229.171012,139.635096 L239.689188,163.990055 L325.159769,163.990055 C333.986974,163.990055 341.142839,171.154869 341.142839,179.993115 L341.142839,286.013388 C341.142839,294.851634 333.986974,302.016448 325.159769,302.016448 L291.691027,302.016448 Z M66.6364526,116.730363 L75.8992444,113.087789 C84.11546,109.856779 93.3919983,113.906417 96.6189725,122.132909 C99.8459467,130.3594 95.8013673,139.647541 87.5851517,142.878551 L41.3095793,161.076326 C34.2276775,163.86127 26.3580153,161.237099 22.2535846,155.191405 C21.4326455,154.111817 20.7364018,152.909171 20.1946197,151.595848 L1.21472408,105.58705 C-2.15515137,97.4182002 1.72691404,88.0607984 9.88555986,84.6867083 C18.0442057,81.3126181 27.3899187,85.1995388 30.7597942,93.3683887 L35.8999208,105.82847 C74.0840007,41.3325474 143.915767,0 221.399804,0 C340.474828,0 437,96.7088188 437,216 C437,335.291181 340.474828,432 221.399804,432 C109.275656,432 16.1232342,345.910116 6.59687855,234.69532 C5.84453468,225.912132 12.3459259,218.181294 21.1181422,217.428009 C29.8903586,216.674724 37.6115402,223.184247 38.363884,231.967434 C46.4790654,326.707572 125.866945,400.0765 221.399804,400.0765 C322.861342,400.0765 405.116377,317.664969 405.116377,216 C405.116377,114.335031 322.861342,31.9234999 221.399804,31.9234999 C157.553297,31.9234999 99.8033192,64.8570779 66.6364526,116.730363 Z" id="path-1"></path>
    </defs>
    <g id="symbol" stroke="none" stroke-width="1" fill="none" fill-rule="evenodd">
        <g id="icon/tool/Ignore-passback-忽略回传">
            <rect fill="#D8D8D8" opacity="0" x="0" y="0" width="512" height="512"></rect>
            <g id="color1" transform="translate(37.000000, 40.000000)">
                <mask id="mask-2" fill="white">
                    <use xlink:href="#path-1"></use>
                </mask>
                <use id="Mask" fill="#262626" fill-rule="nonzero" xlink:href="#path-1"></use>
            </g>
        </g>
    </g>
</svg>