<?xml version="1.0" encoding="UTF-8"?>
<svg width="512px" height="512px" viewBox="0 0 512 512" version="1.1" xmlns="http://www.w3.org/2000/svg" xmlns:xlink="http://www.w3.org/1999/xlink">
    <!-- Generator: Sketch 51 (57462) - http://www.bohemiancoding.com/sketch -->
    <title>icon/tool/import</title>
    <desc>Created with Sketch.</desc>
    <defs>
        <path d="M133.95778,260.304947 C132.070656,259.524151 130.302633,258.36674 128.768609,256.832715 C127.234584,255.298691 126.077174,253.530668 125.296377,251.643544 C124.514085,249.757039 124.082317,247.688445 124.082317,245.519007 L124.082317,157.243145 C124.082317,148.406589 131.245761,141.243145 140.082317,141.243145 C148.918873,141.243145 156.082317,148.406589 156.082317,157.243145 L156.082317,206.89159 L349.458264,13.5156432 C355.706653,7.26725456 365.837292,7.26725456 372.085681,13.5156432 C378.33407,19.7640319 378.33407,29.8946716 372.085681,36.1430602 L178.709734,229.519007 L228.358179,229.519007 C237.194735,229.519007 244.358179,236.682451 244.358179,245.519007 C244.358179,254.355563 237.194735,261.519007 228.358179,261.519007 L140.082317,261.519007 C137.912879,261.519007 135.844285,261.087239 133.95778,260.304947 Z M353.103448,201.344 C353.103448,192.507444 360.266892,185.344 369.103448,185.344 C377.940004,185.344 385.103448,192.507444 385.103448,201.344 L385.103448,316.137931 C385.103448,354.105522 354.105522,385.103448 316.137931,385.103448 L68.9655172,385.103448 C30.9979268,385.103448 0,354.105522 0,316.137931 L0,68.9655172 C0,30.9979268 30.9979268,2.84217094e-14 68.9655172,2.84217094e-14 L188.173241,2.84217094e-14 C197.009797,2.84217094e-14 204.173241,7.163444 204.173241,16 C204.173241,24.836556 197.009797,32 188.173241,32 L68.9655172,32 C48.6710388,32 32,48.6710388 32,68.9655172 L32,316.137931 C32,336.43241 48.6710388,353.103448 68.9655172,353.103448 L316.137931,353.103448 C336.43241,353.103448 353.103448,336.43241 353.103448,316.137931 L353.103448,201.344 Z" id="path-1"></path>
    </defs>
    <g id="symbol" stroke="none" stroke-width="1" fill="none" fill-rule="evenodd">
        <g id="icon/tool/import">
            <g>
                <rect id="Rectangle-18-Copy-6" fill-opacity="0" fill="#D8D8D8" x="0" y="0" width="512" height="512"></rect>
                <g id="导入" transform="translate(63.448276, 63.448276)">
                    <g id="color1">
                        <mask id="mask-2" fill="white">
                            <use xlink:href="#path-1"></use>
                        </mask>
                        <use id="Mask" fill="#262626" fill-rule="nonzero" xlink:href="#path-1"></use>
                    </g>
                </g>
            </g>
        </g>
    </g>
</svg>