<?xml version="1.0" encoding="UTF-8"?>
<svg width="512px" height="512px" viewBox="0 0 512 512" version="1.1" xmlns="http://www.w3.org/2000/svg" xmlns:xlink="http://www.w3.org/1999/xlink">
    <!-- Generator: Sketch 51 (57462) - http://www.bohemiancoding.com/sketch -->
    <title>icon/tool/multiple files</title>
    <desc>Created with Sketch.</desc>
    <defs>
        <path d="M356.840339,332.640197 L398.27801,375.654535 C404.408677,382.018469 404.219577,392.147343 397.855644,398.27801 C391.491711,404.408677 381.362836,404.219577 375.232169,397.855644 L334.446301,355.517909 C317.038946,368.554336 295.42101,376.275862 271.999117,376.275862 C214.407803,376.275862 167.723255,329.591315 167.723255,272 C167.723255,214.408685 214.407803,167.724138 271.999117,167.724138 C329.590432,167.724138 376.274979,214.408685 376.274979,272 C376.274979,294.618078 369.074348,315.553894 356.840339,332.640197 Z M95.4297379,120.275862 C86.5931819,120.275862 79.4297379,113.112418 79.4297379,104.275862 C79.4297379,95.4393061 86.5931819,88.2758621 95.4297379,88.2758621 L245.516359,88.2758621 C254.352915,88.2758621 261.516359,95.4393061 261.516359,104.275862 C261.516359,113.112418 254.352915,120.275862 245.516359,120.275862 L95.4297379,120.275862 Z M95.4473931,208.551724 C86.6108371,208.551724 79.4473931,201.38828 79.4473931,192.551724 C79.4473931,183.715168 86.6108371,176.551724 95.4473931,176.551724 L174.886841,176.551724 C183.723397,176.551724 190.886841,183.715168 190.886841,192.551724 C190.886841,201.38828 183.723397,208.551724 174.886841,208.551724 L95.4473931,208.551724 Z M95.4297379,296.827586 C86.5931819,296.827586 79.4297379,289.664142 79.4297379,280.827586 C79.4297379,271.99103 86.5931819,264.827586 95.4297379,264.827586 L148.41291,264.827586 C157.249466,264.827586 164.41291,271.99103 164.41291,280.827586 C164.41291,289.664142 157.249466,296.827586 148.41291,296.827586 L95.4297379,296.827586 Z M344.274979,272 C344.274979,232.081797 311.91732,199.724138 271.999117,199.724138 C232.080915,199.724138 199.723255,232.081797 199.723255,272 C199.723255,311.918203 232.080915,344.275862 271.999117,344.275862 C311.91732,344.275862 344.274979,311.918203 344.274979,272 Z M205.91669,370.758621 C214.753246,370.758621 221.91669,377.922065 221.91669,386.758621 C221.91669,395.595177 214.753246,402.758621 205.91669,402.758621 L68.9655172,402.758621 C30.9979268,402.758621 0,371.760694 0,333.793103 L0,68.9655172 C0,30.9979268 30.9979268,0 68.9655172,0 L280.827586,0 C318.795177,0 349.793103,30.9979268 349.793103,68.9655172 L349.793103,154.875586 C349.793103,163.712142 342.629659,170.875586 333.793103,170.875586 C324.956547,170.875586 317.793103,163.712142 317.793103,154.875586 L317.793103,68.9655172 C317.793103,48.6710388 301.122065,32 280.827586,32 L68.9655172,32 C48.6710388,32 32,48.6710388 32,68.9655172 L32,333.793103 C32,354.087582 48.6710388,370.758621 68.9655172,370.758621 L205.91669,370.758621 Z" id="path-1"></path>
    </defs>
    <g id="symbol" stroke="none" stroke-width="1" fill="none" fill-rule="evenodd">
        <g id="icon/tool/multiple-files">
            <g>
                <rect id="Rectangle-18-Copy-5" fill-opacity="0" fill="#D8D8D8" x="0" y="0" width="512" height="512"></rect>
                <g id="Page-1" transform="translate(54.620690, 54.620690)">
                    <g id="color1">
                        <mask id="mask-2" fill="white">
                            <use xlink:href="#path-1"></use>
                        </mask>
                        <use id="Mask" fill="#262626" fill-rule="nonzero" xlink:href="#path-1"></use>
                    </g>
                </g>
            </g>
        </g>
    </g>
</svg>