<?xml version="1.0" encoding="UTF-8"?>
<svg width="512px" height="512px" viewBox="0 0 512 512" version="1.1" xmlns="http://www.w3.org/2000/svg" xmlns:xlink="http://www.w3.org/1999/xlink">
    <!-- Generator: Sketch 51 (57462) - http://www.bohemiancoding.com/sketch -->
    <title>icon/tool/note</title>
    <desc>Created with Sketch.</desc>
    <defs>
        <path d="M333.793103,402.758621 L68.9655172,402.758621 C30.9979268,402.758621 0,371.760694 0,333.793103 L0,68.9655172 C0,30.9979268 30.9979268,0 68.9655172,0 L333.793103,0 C371.760694,0 402.758621,30.9979268 402.758621,68.9655172 L402.758621,333.793103 C402.758621,371.760694 371.760694,402.758621 333.793103,402.758621 Z M333.793103,370.758621 C354.087582,370.758621 370.758621,354.087582 370.758621,333.793103 L370.758621,68.9655172 C370.758621,48.6710388 354.087582,32 333.793103,32 L68.9655172,32 C48.6710388,32 32,48.6710388 32,68.9655172 L32,333.793103 C32,354.087582 48.6710388,370.758621 68.9655172,370.758621 L333.793103,370.758621 Z M68.9655172,129.103448 C60.1289612,129.103448 52.9655172,121.940004 52.9655172,113.103448 C52.9655172,104.266892 60.1289612,97.1034483 68.9655172,97.1034483 L86.6206897,97.1034483 C95.4572457,97.1034483 102.62069,104.266892 102.62069,113.103448 C102.62069,121.940004 95.4572457,129.103448 86.6206897,129.103448 L68.9655172,129.103448 Z M130.758621,129.103448 C121.922065,129.103448 114.758621,121.940004 114.758621,113.103448 C114.758621,104.266892 121.922065,97.1034483 130.758621,97.1034483 L333.793103,97.1034483 C342.629659,97.1034483 349.793103,104.266892 349.793103,113.103448 C349.793103,121.940004 342.629659,129.103448 333.793103,129.103448 L130.758621,129.103448 Z M68.9655172,217.37931 C60.1289612,217.37931 52.9655172,210.215866 52.9655172,201.37931 C52.9655172,192.542754 60.1289612,185.37931 68.9655172,185.37931 L86.6206897,185.37931 C95.4572457,185.37931 102.62069,192.542754 102.62069,201.37931 C102.62069,210.215866 95.4572457,217.37931 86.6206897,217.37931 L68.9655172,217.37931 Z M130.758621,217.37931 C121.922065,217.37931 114.758621,210.215866 114.758621,201.37931 C114.758621,192.542754 121.922065,185.37931 130.758621,185.37931 L333.793103,185.37931 C342.629659,185.37931 349.793103,192.542754 349.793103,201.37931 C349.793103,210.215866 342.629659,217.37931 333.793103,217.37931 L130.758621,217.37931 Z M68.9655172,305.655172 C60.1289612,305.655172 52.9655172,298.491728 52.9655172,289.655172 C52.9655172,280.818616 60.1289612,273.655172 68.9655172,273.655172 L86.6206897,273.655172 C95.4572457,273.655172 102.62069,280.818616 102.62069,289.655172 C102.62069,298.491728 95.4572457,305.655172 86.6206897,305.655172 L68.9655172,305.655172 Z M130.758621,305.655172 C121.922065,305.655172 114.758621,298.491728 114.758621,289.655172 C114.758621,280.818616 121.922065,273.655172 130.758621,273.655172 L333.793103,273.655172 C342.629659,273.655172 349.793103,280.818616 349.793103,289.655172 C349.793103,298.491728 342.629659,305.655172 333.793103,305.655172 L130.758621,305.655172 Z" id="path-1"></path>
    </defs>
    <g id="symbol" stroke="none" stroke-width="1" fill="none" fill-rule="evenodd">
        <g id="icon/tool/note">
            <g transform="translate(54.000000, 54.000000)" id="Page-1">
                <g transform="translate(0.620690, 0.620690)">
                    <g id="color1">
                        <mask id="mask-2" fill="white">
                            <use xlink:href="#path-1"></use>
                        </mask>
                        <use id="Mask" fill="#262626" fill-rule="nonzero" xlink:href="#path-1"></use>
                    </g>
                </g>
            </g>
        </g>
    </g>
</svg>