<?xml version="1.0" encoding="UTF-8"?>
<svg width="512px" height="512px" viewBox="0 0 512 512" version="1.1" xmlns="http://www.w3.org/2000/svg" xmlns:xlink="http://www.w3.org/1999/xlink">
    <!-- Generator: Sketch 51 (57462) - http://www.bohemiancoding.com/sketch -->
    <title>icon/tool/在线客服</title>
    <desc>Created with Sketch.</desc>
    <defs>
        <path d="M77.9532299,192 L48,192 C39.163444,192 32,199.163444 32,208 L32,232 C32,240.836556 39.163444,248 48,248 C67.7225686,248.000107 77.6035421,248.000267 77.6429204,248.000481 L77.4656049,280 L48,280 C21.490332,280 0,258.509668 0,232 L0,208 C0,181.490332 21.490332,160 48,160 L78.1305481,160 L77.9532299,192 Z M204,387 L242,387 C258.016258,387 271,399.983742 271,416 C271,432.016258 258.016258,445 242,445 L204,445 C187.983742,445 175,432.016258 175,416 C175,399.983742 187.983742,387 204,387 Z M368.876794,248 L399,248 C407.836556,248 415,240.836556 415,232 L415,208 C415,199.163444 407.836556,192 399,192 L370.187786,192 C370.028621,192 369.869728,191.998838 369.711114,191.996522 L370.187786,160 L399,160 C425.509668,160 447,181.490332 447,208 L447,232 C447,258.509668 425.509668,280 399,280 L368.40007,280 L368.876794,248 Z M385,192 L385,248 L399,248 C407.836556,248 415,240.836556 415,232 L415,208 C415,199.163444 407.836556,192 399,192 L385,192 Z M384.851916,160 L399,160 C425.509668,160 447,181.490332 447,208 L447,232 C447,258.509668 425.509668,280 399,280 L384.924309,280 C382.28207,367.156787 310.797413,437 223,437 C214.163444,437 207,429.836556 207,421 C207,412.163444 214.163444,405 223,405 C294.797017,405 353,346.797017 353,275 L353,167 C353,95.2029825 294.797017,32 223,32 C151.202983,32 93,95.2029825 93,167 L93,264 C93,272.836556 85.836556,280 77,280 C68.163444,280 61,272.836556 61,264 L61,167 C61,77.5298705 133.529871,1.38348534e-14 223,0 C310.128213,-1.1996258e-14 381.191396,73.5242388 384.851915,159.999968 Z" id="path-1"></path>
    </defs>
    <g id="symbol" stroke="none" stroke-width="1" fill="none" fill-rule="evenodd">
        <g id="icon/tool/在线客服">
            <g>
                <g transform="translate(33.000000, 36.000000)">
                    <mask id="mask-2" fill="white">
                        <use xlink:href="#path-1"></use>
                    </mask>
                    <use id="Mask" fill="#D5E2E5" fill-rule="nonzero" xlink:href="#path-1"></use>
                </g>
            </g>
        </g>
    </g>
</svg>