<?xml version="1.0" encoding="UTF-8"?>
<svg width="512px" height="512px" viewBox="0 0 512 512" version="1.1" xmlns="http://www.w3.org/2000/svg" xmlns:xlink="http://www.w3.org/1999/xlink">
    <!-- Generator: Sketch 51 (57462) - http://www.bohemiancoding.com/sketch -->
    <title>icon/tool/photograph 拍照</title>
    <desc>Created with Sketch.</desc>
    <defs>
        <path d="M97,64 L97,16 C97,7.163444 104.163444,0 113,0 L336,0 C344.836556,0 352,7.163444 352,16 L352,64 L432,64 C440.836556,64 448,71.163444 448,80 L448,369 C448,377.836556 440.836556,385 432,385 L16,385 C7.163444,385 0,377.836556 0,369 L0,80 C0,71.163444 7.163444,64 16,64 L97,64 Z M129,32 L129,80 C129,88.836556 121.836556,96 113,96 L32,96 L32,353 L416,353 L416,96 L336,96 C327.163444,96 320,88.836556 320,80 L320,32 L129,32 Z M224.5,321 C171.204522,321 128,277.795478 128,224.5 C128,171.204522 171.204522,128 224.5,128 C277.795478,128 321,171.204522 321,224.5 C321,277.795478 277.795478,321 224.5,321 Z M224.5,289 C260.122366,289 289,260.122366 289,224.5 C289,188.877634 260.122366,160 224.5,160 C188.877634,160 160,188.877634 160,224.5 C160,260.122366 188.877634,289 224.5,289 Z M369,160 C360.163444,160 353,152.836556 353,144 C353,135.163444 360.163444,128 369,128 C377.836556,128 385,135.163444 385,144 C385,152.836556 377.836556,160 369,160 Z" id="path-1"></path>
    </defs>
    <g id="symbol" stroke="none" stroke-width="1" fill="none" fill-rule="evenodd">
        <g id="icon/tool/photograph-拍照">
            <rect fill="#D8D8D8" opacity="0" x="0" y="0" width="512" height="512"></rect>
            <g id="color1" transform="translate(32.000000, 64.000000)">
                <mask id="mask-2" fill="white">
                    <use xlink:href="#path-1"></use>
                </mask>
                <use id="Mask" fill="#262626" fill-rule="nonzero" xlink:href="#path-1"></use>
            </g>
        </g>
    </g>
</svg>