<?xml version="1.0" encoding="UTF-8"?>
<svg width="512px" height="512px" viewBox="0 0 512 512" version="1.1" xmlns="http://www.w3.org/2000/svg" xmlns:xlink="http://www.w3.org/1999/xlink">
    <!-- Generator: Sketch 51 (57462) - http://www.bohemiancoding.com/sketch -->
    <title>icon/tool/print 打印</title>
    <desc>Created with Sketch.</desc>
    <defs>
        <path d="M52,64 L52,16 C52,7.163444 59.163444,0 68,0 L356,0 C364.836556,0 372,7.163444 372,16 L372,64 L401,64 C409.836556,64 417,71.163444 417,80 L417,274 C417,282.836556 409.836556,290 401,290 L369,290 L369,401 C369,409.836556 361.836556,417 353,417 L65,417 C56.163444,417 49,409.836556 49,401 L49,290 L16,290 C7.163444,290 0,282.836556 0,274 L0,80 C0,71.163444 7.163444,64 16,64 L52,64 Z M84,64 L340,64 L340,32 L84,32 L84,64 Z M49,258 L49,224 C49,215.163444 56.163444,208 65,208 L353,208 C361.836556,208 369,215.163444 369,224 L369,258 L385,258 L385,96 L32,96 L32,258 L49,258 Z M81,240 L81,385 L337,385 L337,240 L81,240 Z M113.5,304.5 C104.663444,304.5 97.5,297.336556 97.5,288.5 C97.5,279.663444 104.663444,272.5 113.5,272.5 L304.565434,272.5 C313.40199,272.5 320.565434,279.663444 320.565434,288.5 C320.565434,297.336556 313.40199,304.5 304.565434,304.5 L113.5,304.5 Z M113.5,368.5 C104.663444,368.5 97.5,361.336556 97.5,352.5 C97.5,343.663444 104.663444,336.5 113.5,336.5 L304.565434,336.5 C313.40199,336.5 320.565434,343.663444 320.565434,352.5 C320.565434,361.336556 313.40199,368.5 304.565434,368.5 L113.5,368.5 Z M337,160 C328.163444,160 321,152.836556 321,144 C321,135.163444 328.163444,128 337,128 C345.836556,128 353,135.163444 353,144 C353,152.836556 345.836556,160 337,160 Z M273,160 C264.163444,160 257,152.836556 257,144 C257,135.163444 264.163444,128 273,128 C281.836556,128 289,135.163444 289,144 C289,152.836556 281.836556,160 273,160 Z" id="path-1"></path>
    </defs>
    <g id="symbol" stroke="none" stroke-width="1" fill="none" fill-rule="evenodd">
        <g id="icon/tool/print-打印">
            <rect fill="#D8D8D8" opacity="0" x="0" y="0" width="512" height="512"></rect>
            <g id="color1" transform="translate(48.000000, 48.000000)">
                <mask id="mask-2" fill="white">
                    <use xlink:href="#path-1"></use>
                </mask>
                <use id="Mask" fill="#262626" fill-rule="nonzero" xlink:href="#path-1"></use>
            </g>
        </g>
    </g>
</svg>