<?xml version="1.0" encoding="UTF-8"?>
<svg width="512px" height="512px" viewBox="0 0 512 512" version="1.1" xmlns="http://www.w3.org/2000/svg" xmlns:xlink="http://www.w3.org/1999/xlink">
    <!-- Generator: Sketch 51 (57462) - http://www.bohemiancoding.com/sketch -->
    <title>icon/tool/问题反馈</title>
    <desc>Created with Sketch.</desc>
    <defs>
        <path d="M249.468344,40.1149173 L39.3823644,250.200897 L34.102539,307.878041 L94.9302323,304.961687 L304.622673,95.2692462 C305.013197,94.878722 305.013197,94.245557 304.622673,93.8550327 L250.882557,40.1149173 C250.492033,39.724393 249.858868,39.724393 249.468344,40.1149173 Z M261.489159,5.46668504 L339.270905,83.248431 C345.519294,89.4968196 345.519294,99.6274593 339.270905,105.875848 L113.185803,331.96095 C110.372604,334.774149 106.612227,336.438357 102.638327,336.628884 L17.2582433,340.722391 C7.55001646,341.187847 -0.327386603,332.9611 0.558630785,323.28219 L8.04315774,241.520748 C8.38405365,237.79678 10.0185764,234.309851 12.6628296,231.665598 L238.861742,5.46668504 C245.110131,-0.781703629 255.24077,-0.781703629 261.489159,5.46668504 Z M16.8155153,372.724766 L394.815515,372.724766 C403.652071,372.724766 410.815515,379.88821 410.815515,388.724766 C410.815515,397.561322 403.652071,404.724766 394.815515,404.724766 L16.8155153,404.724766 C7.97895927,404.724766 0.815515265,397.561322 0.815515265,388.724766 C0.815515265,379.88821 7.97895927,372.724766 16.8155153,372.724766 Z" id="path-1"></path>
    </defs>
    <g id="symbol" stroke="none" stroke-width="1" fill="none" fill-rule="evenodd">
        <g id="icon/tool/问题反馈">
            <g>
                <g transform="translate(54.000000, 47.000000)">
                    <mask id="mask-2" fill="white">
                        <use xlink:href="#path-1"></use>
                    </mask>
                    <use id="Mask" fill="#D5E2E5" fill-rule="nonzero" xlink:href="#path-1"></use>
                </g>
            </g>
        </g>
    </g>
</svg>