<?xml version="1.0" encoding="UTF-8"?>
<svg width="512px" height="512px" viewBox="0 0 512 512" version="1.1" xmlns="http://www.w3.org/2000/svg" xmlns:xlink="http://www.w3.org/1999/xlink">
    <!-- Generator: Sketch 51 (57462) - http://www.bohemiancoding.com/sketch -->
    <title>icon/tool/refresh</title>
    <desc>Created with Sketch.</desc>
    <defs>
        <path d="M228.266667,126.933333 C228.266667,135.769889 221.103223,142.933333 212.266667,142.933333 C203.430111,142.933333 196.266667,135.769889 196.266667,126.933333 L196.266667,16 C196.266667,7.163444 203.430111,0 212.266667,0 C221.103223,0 228.266667,7.163444 228.266667,16 L228.266667,126.933333 Z M163.238615,140.611198 C169.487004,146.859587 169.487004,156.990226 163.238615,163.238615 C156.990226,169.487004 146.859587,169.487004 140.611198,163.238615 L62.1727982,84.8002152 C55.9244095,78.5518265 55.9244095,68.4211868 62.1727982,62.1727982 C68.4211868,55.9244095 78.5518265,55.9244095 84.8002152,62.1727982 L163.238615,140.611198 Z M126.933333,196.266667 C135.769889,196.266667 142.933333,203.430111 142.933333,212.266667 C142.933333,221.103223 135.769889,228.266667 126.933333,228.266667 L16,228.266667 C7.163444,228.266667 -2.84217094e-14,221.103223 -2.84217094e-14,212.266667 C-2.84217094e-14,203.430111 7.163444,196.266667 16,196.266667 L126.933333,196.266667 Z M140.611198,261.290452 C146.859587,255.042063 156.990226,255.042063 163.238615,261.290452 C169.487004,267.53884 169.487004,277.66948 163.238615,283.917868 L84.8002152,362.356268 C78.5518265,368.604657 68.4211868,368.604657 62.1727982,362.356268 C55.9244095,356.10788 55.9244095,345.97724 62.1727982,339.728852 L140.611198,261.290452 Z M196.266667,297.6 C196.266667,288.763444 203.430111,281.6 212.266667,281.6 C221.103223,281.6 228.266667,288.763444 228.266667,297.6 L228.266667,408.533333 C228.266667,417.369889 221.103223,424.533333 212.266667,424.533333 C203.430111,424.533333 196.266667,417.369889 196.266667,408.533333 L196.266667,297.6 Z M261.294718,283.917868 C255.046329,277.66948 255.046329,267.53884 261.294718,261.290452 C267.543107,255.042063 277.673746,255.042063 283.922135,261.290452 L362.360535,339.728852 C368.608924,345.97724 368.608924,356.10788 362.360535,362.356268 C356.112146,368.604657 345.981507,368.604657 339.733118,362.356268 L261.294718,283.917868 Z M297.6,228.266667 C288.763444,228.266667 281.6,221.103223 281.6,212.266667 C281.6,203.430111 288.763444,196.266667 297.6,196.266667 L408.533333,196.266667 C417.369889,196.266667 424.533333,203.430111 424.533333,212.266667 C424.533333,221.103223 417.369889,228.266667 408.533333,228.266667 L297.6,228.266667 Z M283.922135,163.238615 C277.673746,169.487004 267.543107,169.487004 261.294718,163.238615 C255.046329,156.990226 255.046329,146.859587 261.294718,140.611198 L339.733118,62.1727982 C345.981507,55.9244095 356.112146,55.9244095 362.360535,62.1727982 C368.608924,68.4211868 368.608924,78.5518265 362.360535,84.8002152 L283.922135,163.238615 Z" id="path-1"></path>
    </defs>
    <g id="symbol" stroke="none" stroke-width="1" fill="none" fill-rule="evenodd">
        <g id="icon/tool/refresh">
            <g>
                <rect id="Rectangle-18-Copy-4" fill-opacity="0" fill="#D8D8D8" x="0" y="0" width="512" height="512"></rect>
                <g id="Group-21" transform="translate(43.733333, 43.733333)">
                    <g id="color1">
                        <mask id="mask-2" fill="white">
                            <use xlink:href="#path-1"></use>
                        </mask>
                        <use id="Mask" fill="#262626" fill-rule="nonzero" xlink:href="#path-1"></use>
                    </g>
                </g>
            </g>
        </g>
    </g>
</svg>