<?xml version="1.0" encoding="UTF-8"?>
<svg width="512px" height="512px" viewBox="0 0 512 512" version="1.1" xmlns="http://www.w3.org/2000/svg" xmlns:xlink="http://www.w3.org/1999/xlink">
    <!-- Generator: Sketch 51 (57462) - http://www.bohemiancoding.com/sketch -->
    <title>icon/tool/reset password</title>
    <desc>Created with Sketch.</desc>
    <defs>
        <path d="M401.885503,182.502167 L415.359394,169.025382 C421.607112,162.776323 431.737752,162.775235 437.986811,169.022953 C444.235871,175.270671 444.236958,185.40131 437.98924,191.65037 L396.879171,232.769266 C390.630979,239.0188 380.499403,239.019344 374.25054,232.770481 L333.158126,191.678067 C326.909737,185.429678 326.909737,175.299039 333.158126,169.05065 C339.406515,162.802261 349.537154,162.802261 355.785543,169.05065 L369.777599,183.042706 C360.636044,98.121273 288.729577,32 201.37931,32 C107.833522,32 32,107.833522 32,201.37931 C32,294.925099 107.833522,370.758621 201.37931,370.758621 C254.12924,370.758621 302.848291,346.506196 334.776464,305.765383 C340.227169,298.810203 350.284127,297.590585 357.239307,303.041291 C364.194487,308.491997 365.414104,318.548954 359.963398,325.504134 C322.032688,373.904274 264.069147,402.758621 201.37931,402.758621 C90.1604095,402.758621 0,312.598211 0,201.37931 C0,90.1604095 90.1604095,0 201.37931,0 C306.232525,0 392.368856,80.1349888 401.885503,182.502167 Z M141.238731,170.858492 L141.238731,157.240497 C141.238731,124.030975 168.167141,97.1025655 201.376662,97.1025655 C234.586184,97.1025655 261.514593,124.030975 261.514593,157.240497 L261.514593,170.858492 C277.024139,177.198163 287.997352,192.459925 287.997352,210.206897 L287.997352,263.172414 C287.997352,286.574487 268.916666,305.655172 245.514593,305.655172 L157.238731,305.655172 C133.836658,305.655172 114.755972,286.574487 114.755972,263.172414 L114.755972,210.206897 C114.755972,192.459925 125.729185,177.198163 141.238731,170.858492 Z M173.238731,167.724138 L229.514593,167.724138 L229.514593,157.240497 C229.514593,141.704087 216.913072,129.102566 201.376662,129.102566 C185.840253,129.102566 173.238731,141.704087 173.238731,157.240497 L173.238731,167.724138 Z M245.514593,273.655172 C251.243554,273.655172 255.997352,268.901375 255.997352,263.172414 L255.997352,210.206897 C255.997352,204.477935 251.243554,199.724138 245.514593,199.724138 L157.238731,199.724138 C151.50977,199.724138 146.755972,204.477935 146.755972,210.206897 L146.755972,263.172414 C146.755972,268.901375 151.50977,273.655172 157.238731,273.655172 L245.514593,273.655172 Z M217.376662,254.344828 C217.376662,263.181384 210.213218,270.344828 201.376662,270.344828 C192.540106,270.344828 185.376662,263.181384 185.376662,254.344828 L185.376662,219.034483 C185.376662,210.197927 192.540106,203.034483 201.376662,203.034483 C210.213218,203.034483 217.376662,210.197927 217.376662,219.034483 L217.376662,254.344828 Z" id="path-1"></path>
    </defs>
    <g id="symbol" stroke="none" stroke-width="1" fill="none" fill-rule="evenodd">
        <g id="icon/tool/reset-password">
            <g>
                <rect id="Rectangle-Copy-289" fill-opacity="0" fill="#F0F0F0" x="0" y="0" width="512" height="512"></rect>
                <g id="Page-1" transform="translate(34.965517, 54.620690)">
                    <g id="color1">
                        <mask id="mask-2" fill="white">
                            <use xlink:href="#path-1"></use>
                        </mask>
                        <use id="Mask" fill="#262626" fill-rule="nonzero" xlink:href="#path-1"></use>
                    </g>
                </g>
            </g>
        </g>
    </g>
</svg>