<?xml version="1.0" encoding="UTF-8"?>
<svg width="512px" height="512px" viewBox="0 0 512 512" version="1.1" xmlns="http://www.w3.org/2000/svg" xmlns:xlink="http://www.w3.org/1999/xlink">
    <!-- Generator: Sketch 51 (57462) - http://www.bohemiancoding.com/sketch -->
    <title>icon/tool/restore SVN</title>
    <desc>Created with Sketch.</desc>
    <defs>
        <path d="M347.322597,277.942731 L299.730705,230.35084 C293.482317,224.102451 293.482317,213.971811 299.730705,207.723423 C305.979094,201.475034 316.109734,201.475034 322.358122,207.723423 L394.663166,280.028467 C399.498168,282.7811 402.758621,287.981156 402.758621,293.942731 C402.758621,299.894164 399.509253,305.086667 394.68783,307.842925 L322.36695,380.163805 C316.118561,386.412194 305.987922,386.412194 299.739533,380.163805 C293.491144,373.915416 293.491144,363.784777 299.739533,357.536388 L347.33319,309.942731 L29.2413793,309.942731 C13.0955814,309.942731 0,296.847149 0,280.701352 L0,170.356524 C0,161.519968 7.163444,154.356524 16,154.356524 C24.836556,154.356524 32,161.519968 32,170.356524 L32,277.942731 L347.322597,277.942731 Z M55.4369067,106.908248 L103.027915,154.499257 C109.276304,160.747646 109.276304,170.878285 103.027915,177.126674 C96.7795267,183.375063 86.6488871,183.375063 80.4004984,177.126674 L5.8083515,102.534527 C2.72462806,99.6179395 0.800662069,95.4877771 0.800662069,90.9082483 C0.800662069,88.713734 1.24246911,86.6224092 2.04198924,84.718368 C2.82241491,82.8534555 3.97161912,81.1063432 5.48960185,79.5883605 L80.3916708,4.6862915 C86.6400595,-1.56209717 96.7706991,-1.56209717 103.019088,4.6862915 C109.267476,10.9346802 109.267476,21.0653198 103.019088,27.3137085 L55.424548,74.9082483 L373.514593,74.9082483 C389.66782,74.9082483 402.755972,88.0024296 402.755972,104.149628 L402.755972,214.494455 C402.755972,235.827789 370.755972,235.827789 370.755972,214.494455 L370.755972,104.149628 C370.755972,105.672244 371.991408,106.908248 373.514593,106.908248 L55.4369067,106.908248 Z" id="path-1"></path>
    </defs>
    <g id="symbol" stroke="none" stroke-width="1" fill="none" fill-rule="evenodd">
        <g id="icon/tool/restore-SVN">
            <g>
                <rect id="Rectangle-Copy-386" fill-opacity="0" fill="#F0F0F0" x="0" y="0" width="512" height="512"></rect>
                <g id="同步" transform="translate(54.620690, 63.448276)">
                    <g id="color1">
                        <mask id="mask-2" fill="white">
                            <use xlink:href="#path-1"></use>
                        </mask>
                        <use id="Mask" fill="#262626" fill-rule="nonzero" xlink:href="#path-1"></use>
                    </g>
                </g>
            </g>
        </g>
    </g>
</svg>