<?xml version="1.0" encoding="UTF-8"?>
<svg width="512px" height="512px" viewBox="0 0 512 512" version="1.1" xmlns="http://www.w3.org/2000/svg" xmlns:xlink="http://www.w3.org/1999/xlink">
    <!-- Generator: Sketch 51 (57462) - http://www.bohemiancoding.com/sketch -->
    <title>icon/tool/review</title>
    <desc>Created with Sketch.</desc>
    <defs>
        <path d="M84.9696,194.208 L121.384,194.208 L121.384,183.7216 C121.384,162.388267 153.384,162.388267 153.384,183.7216 L153.384,194.208 L189.7984,194.208 L189.7984,183.7216 C189.7984,162.388267 221.7984,162.388267 221.7984,183.7216 L221.7984,194.208 L258.2112,194.208 L258.2112,183.7216 C258.2112,162.388267 290.2112,162.388267 290.2112,183.7216 L290.2112,194.208 L326.6256,194.208 L326.6256,166.0736 C326.6256,144.740267 358.6256,144.740267 358.6256,166.0736 L358.6256,194.208 L379.5872,194.208 L379.5872,32 L32.0032,32 L32.0032,194.208 L52.9696,194.208 L52.9696,166.0736 C52.9696,144.740267 84.9696,144.740267 84.9696,166.0736 L84.9696,194.208 Z M16.0032,226.208 C7.166644,226.208 0.00320000001,219.044556 0.00320000001,210.208 L0.00320000001,16 C0.00320000001,7.163444 7.166644,0 16.0032,0 L395.5872,0 C404.423756,0 411.5872,7.163444 411.5872,16 L411.5872,210.208 C411.5872,219.044556 404.423756,226.208 395.5872,226.208 L16.0032,226.208 Z M16,305.6672 C7.163444,305.6672 0,298.503756 0,289.6672 C0,280.830644 7.163444,273.6672 16,273.6672 L395.584,273.6672 C404.420556,273.6672 411.584,280.830644 411.584,289.6672 C411.584,298.503756 404.420556,305.6672 395.584,305.6672 L16,305.6672 Z" id="path-1"></path>
    </defs>
    <g id="symbol" stroke="none" stroke-width="1" fill="none" fill-rule="evenodd">
        <g id="icon/tool/review">
            <g>
                <rect id="Rectangle-18-Copy-3" fill-opacity="0" fill="#D8D8D8" x="0" y="0" width="512" height="512"></rect>
                <g id="尺寸复合" transform="translate(50.000000, 103.000000)">
                    <g id="color1">
                        <mask id="mask-2" fill="white">
                            <use xlink:href="#path-1"></use>
                        </mask>
                        <use id="Mask" fill="#262626" fill-rule="nonzero" xlink:href="#path-1"></use>
                    </g>
                </g>
            </g>
        </g>
    </g>
</svg>