<?xml version="1.0" encoding="UTF-8"?>
<svg width="512px" height="512px" viewBox="0 0 512 512" version="1.1" xmlns="http://www.w3.org/2000/svg" xmlns:xlink="http://www.w3.org/1999/xlink">
    <!-- Generator: Sketch 51 (57462) - http://www.bohemiancoding.com/sketch -->
    <title>icon/tool/save</title>
    <desc>Created with Sketch.</desc>
    <defs>
        <path d="M112,128 C103.163444,128 96,120.836556 96,112 L96,16 C96,7.163444 103.163444,0 112,0 L288,0 C296.836556,0 304,7.163444 304,16 L304,112 C304,120.836556 296.836556,128 288,128 L112,128 Z M128,96 L272,96 L272,32 L128,32 L128,96 Z M384,86.7766137 L333.51533,32 L32,32 L32,384 L384,384 L384,86.7766137 Z M416,80.528 L416,400 C416,408.836556 408.836556,416 400,416 L16,416 C7.163444,416 0,408.836556 0,400 L0,16 C0,7.163444 7.163444,0 16,0 L340.528,0 C344.997872,0 349.263954,1.86978921 352.29324,5.15660886 L411.76524,69.6846089 C414.488267,72.6391339 416,76.5100284 416,80.528 Z M112,416 C103.163444,416 96,408.836556 96,400 L96,224 C96,215.163444 103.163444,208 112,208 L288,208 C296.836556,208 304,215.163444 304,224 L304,400 C304,408.836556 296.836556,416 288,416 L112,416 Z M128,384 L272,384 L272,240 L128,240 L128,384 Z M160,304 C151.163444,304 144,296.836556 144,288 C144,279.163444 151.163444,272 160,272 L240,272 C248.836556,272 256,279.163444 256,288 C256,296.836556 248.836556,304 240,304 L160,304 Z M160,368 C151.163444,368 144,360.836556 144,352 C144,343.163444 151.163444,336 160,336 L240,336 C248.836556,336 256,343.163444 256,352 C256,360.836556 248.836556,368 240,368 L160,368 Z" id="path-1"></path>
    </defs>
    <g id="symbol" stroke="none" stroke-width="1" fill="none" fill-rule="evenodd">
        <g id="icon/tool/save">
            <g>
                <rect id="Rectangle" fill="#FFFFFF" opacity="0" x="0" y="0" width="512" height="512"></rect>
                <g id="save" transform="translate(48.000000, 48.000000)">
                    <g id="color1">
                        <mask id="mask-2" fill="white">
                            <use xlink:href="#path-1"></use>
                        </mask>
                        <use id="Mask" fill="#262626" fill-rule="nonzero" xlink:href="#path-1"></use>
                    </g>
                </g>
            </g>
        </g>
    </g>
</svg>