<?xml version="1.0" encoding="UTF-8"?>
<svg width="512px" height="512px" viewBox="0 0 512 512" version="1.1" xmlns="http://www.w3.org/2000/svg" xmlns:xlink="http://www.w3.org/1999/xlink">
    <!-- Generator: Sketch 51 (57462) - http://www.bohemiancoding.com/sketch -->
    <title>icon/tool/search</title>
    <desc>Created with Sketch.</desc>
    <defs>
        <path d="M307.2,169.6 C307.2,93.6066893 245.593311,32 169.6,32 C93.6066893,32 32,93.6066893 32,169.6 C32,245.593311 93.6066893,307.2 169.6,307.2 C245.593311,307.2 307.2,245.593311 307.2,169.6 Z M300.308955,277.677272 L394.247042,371.615358 C400.495431,377.863747 400.495431,387.994386 394.247042,394.242775 C387.998653,400.491164 377.868014,400.491164 371.619625,394.242775 L277.68194,300.305091 C248.335857,324.599276 210.672789,339.2 169.6,339.2 C75.9335773,339.2 0,263.266423 0,169.6 C0,75.9335773 75.9335773,0 169.6,0 C263.266423,0 339.2,75.9335773 339.2,169.6 C339.2,210.670611 324.600825,248.331862 300.308955,277.677272 Z" id="path-1"></path>
    </defs>
    <g id="symbol" stroke="none" stroke-width="1" fill="none" fill-rule="evenodd">
        <g id="icon/tool/search">
            <g>
                <rect id="Rectangle-18-Copy-3" fill-opacity="0" fill="#D8D8D8" x="0" y="0" width="512" height="512"></rect>
                <g id="Group-20" transform="translate(56.266667, 56.266667)">
                    <g id="color1">
                        <mask id="mask-2" fill="white">
                            <use xlink:href="#path-1"></use>
                        </mask>
                        <use id="Mask" fill="#262626" fill-rule="nonzero" xlink:href="#path-1"></use>
                    </g>
                </g>
            </g>
        </g>
    </g>
</svg>