<?xml version="1.0" encoding="UTF-8"?>
<svg width="24px" height="24px" viewBox="0 0 24 24" version="1.1" xmlns="http://www.w3.org/2000/svg" xmlns:xlink="http://www.w3.org/1999/xlink">
    <!-- Generator: Sketch 52.2 (67145) - http://www.bohemiancoding.com/sketch -->
    <title>set_icon</title>
    <desc>Created with Sketch.</desc>
    <g id="Symbols" stroke="none" stroke-width="1" fill="none" fill-rule="evenodd">
        <g id="headerBox" transform="translate(-1146.000000, -4.000000)">
            <g id="icon">
                <g transform="translate(1026.000000, 4.000000)">
                    <g id="设置" transform="translate(120.000000, 0.000000)">
                        <rect id="Rectangle-4" fill-opacity="0" fill="#FFFFFF" x="0" y="0" width="24" height="24"></rect>
                        <path d="M6.43706624,10.9121246 C6.19188274,10.9121246 6,11.1043382 6,11.3499444 L6,13.0585095 C6,13.3041157 6.19188274,13.4963293 6.43706624,13.4963293 L7.23657765,13.4963293 C7.35383932,13.9555061 7.53506191,14.3933259 7.78024541,14.7991101 L7.22591749,15.3543938 C7.05535506,15.5252503 7.05535506,15.8028921 7.22591749,15.9737486 L8.43051469,17.1804227 C8.60107712,17.3512792 8.87824107,17.3512792 9.04880351,17.1804227 L9.61379157,16.6144605 C10.0188774,16.8493882 10.4559436,17.0309232 10.9143301,17.1483871 L10.9143301,17.949277 C10.9143301,18.1948832 11.1062129,18.3870968 11.3513964,18.3870968 L13.0570207,18.3870968 C13.3022042,18.3870968 13.4940869,18.1948832 13.4940869,17.949277 L13.4940869,17.1377086 C13.9524735,17.0202447 14.3788796,16.8387097 14.7839654,16.603782 L15.3596136,17.1804227 C15.530176,17.3512792 15.80734,17.3512792 15.9779024,17.1804227 L17.1824996,15.9737486 C17.353062,15.8028921 17.353062,15.5252503 17.1824996,15.3543938 L16.6068514,14.7777531 C16.8413747,14.3719689 17.0225973,13.9448276 17.139859,13.4856507 L17.9500305,13.4856507 C18.195214,13.4856507 18.3870968,13.2934372 18.3870968,13.0478309 L18.3870968,11.3392659 C18.3870968,11.0936596 18.195214,10.9014461 17.9500305,10.9014461 L17.139859,10.9014461 C17.0225973,10.4422692 16.8413747,10.0151279 16.6068514,9.60934372 L17.1824996,9.032703 C17.353062,8.8618465 17.353062,8.58420467 17.1824996,8.41334816 L15.9672422,7.21735261 C15.7966798,7.04649611 15.5195159,7.04649611 15.3489534,7.21735261 L14.7839654,7.78331479 C14.3788796,7.5483871 13.9418133,7.36685206 13.4834268,7.23870968 L13.4834268,6.4378198 C13.4834268,6.19221357 13.2915441,6 13.0463606,6 L11.3407362,6 C11.0955527,6 10.90367,6.19221357 10.90367,6.4378198 L10.90367,7.23870968 C10.4452834,7.35617353 10.0082172,7.53770857 9.60313142,7.77263626 L9.03814336,7.20667408 C8.86758092,7.03581758 8.59041697,7.03581758 8.41985453,7.20667408 L7.21525734,8.4240267 C7.04469491,8.5948832 7.04469491,8.87252503 7.21525734,9.04338154 L7.76958525,9.59866518 C7.52440175,10.0044494 7.34317917,10.4422692 7.22591749,10.9121246 L6.43706624,10.9121246 L6.43706624,10.9121246 Z M8.01476875,11.4246941 C8.12137027,10.8266963 8.35589362,10.2820912 8.68635834,9.79087875 C8.80362001,9.62002225 8.78229971,9.38509455 8.63305758,9.23559511 L8.14269058,8.73370412 L8.72899895,8.14638487 L9.2300261,8.64827586 C9.37926822,8.79777531 9.61379157,8.81913237 9.78435401,8.70166852 C10.274721,8.35995551 10.8290489,8.13570634 11.4153573,8.02892102 C11.6179002,7.9862069 11.7778025,7.81535039 11.7778025,7.60177976 L11.7778025,6.88631813 L12.6092943,6.88631813 L12.6092943,7.60177976 C12.6092943,7.81535039 12.7585364,7.99688543 12.9610793,8.02892102 C13.5473877,8.13570634 14.0910555,8.37063404 14.5814225,8.70166852 C14.7519849,8.81913237 14.9865082,8.79777531 15.1357504,8.64827586 L15.6474377,8.13570634 L16.233746,8.72302558 L15.7220587,9.23559511 C15.5728166,9.38509455 15.5514963,9.62002225 15.668758,9.79087875 C15.9992227,10.2820912 16.2230859,10.8266963 16.3403476,11.4140156 C16.3829882,11.6169077 16.5642108,11.7770857 16.7667537,11.7770857 L17.491644,11.7770857 L17.491644,12.6100111 L16.7667537,12.6100111 C16.5535506,12.6100111 16.372328,12.7595106 16.3403476,12.9624027 C16.233746,13.5497219 16.0098828,14.094327 15.668758,14.5855395 C15.5514963,14.756396 15.5728166,14.9913237 15.7220587,15.1408231 L16.233746,15.6533927 L15.6474377,16.2407119 L15.1357504,15.7281424 C14.9865082,15.5786429 14.7519849,15.5572859 14.5814225,15.6747497 C14.0910555,16.0164627 13.5473877,16.2407119 12.9610793,16.3474972 C12.7585364,16.3902113 12.6092943,16.5717464 12.6092943,16.7746385 L12.6092943,17.4901001 L11.7778025,17.4901001 L11.7778025,16.7746385 C11.7778025,16.5610679 11.6285603,16.3795328 11.4153573,16.3474972 C10.8183888,16.2407119 10.274721,16.0164627 9.78435401,15.6747497 C9.61379157,15.5572859 9.37926822,15.5786429 9.2300261,15.7281424 L8.72899895,16.2300334 L8.14269058,15.6747497 L8.64371773,15.1728587 C8.79295986,15.0233593 8.81428016,14.7884316 8.69701849,14.6175751 C8.35589362,14.1263626 8.13203043,13.571079 8.01476875,12.9837597 C7.97212814,12.7808676 7.80156571,12.6313682 7.58836267,12.6313682 L6.88479263,12.6313682 L6.88479263,11.7984427 L7.58836267,11.7984427 C7.79090556,11.7877642 7.97212814,11.6382647 8.01476875,11.4246941 Z M12.1828882,15.2689655 C13.8352118,15.2689655 15.178391,13.9234705 15.178391,12.2682981 C15.178391,10.6131257 13.8352118,9.2676307 12.1828882,9.2676307 C10.5305647,9.2676307 9.18738549,10.6131257 9.18738549,12.2682981 C9.18738549,13.9234705 10.5305647,15.2689655 12.1828882,15.2689655 Z M12.1828882,10.1432703 C13.355505,10.1432703 14.3042585,11.0936596 14.3042585,12.2682981 C14.3042585,13.4429366 13.355505,14.3933259 12.1828882,14.3933259 C11.0102715,14.3933259 10.061518,13.4429366 10.061518,12.2682981 C10.061518,11.0936596 11.0102715,10.1432703 12.1828882,10.1432703 Z" id="settings-1" fill="#D5E2E5"></path>
                        <polygon id="Rectangle-5" fill="#D5E2E5" points="24 20 24 24 20 24"></polygon>
                    </g>
                </g>
            </g>
        </g>
    </g>
</svg>