<?xml version="1.0" encoding="UTF-8"?>
<svg width="512px" height="512px" viewBox="0 0 512 512" version="1.1" xmlns="http://www.w3.org/2000/svg" xmlns:xlink="http://www.w3.org/1999/xlink">
    <!-- Generator: Sketch 51 (57462) - http://www.bohemiancoding.com/sketch -->
    <title>icon/tool/size</title>
    <desc>Created with Sketch.</desc>
    <defs>
        <path d="M400,400 L400,342.557895 L99.0631579,342.557895 C90.2266019,342.557895 83.0631579,335.394451 83.0631579,326.557895 L83.0631579,32 L32,32 L32,400 L400,400 Z M115.063158,310.557895 L416,310.557895 C424.836556,310.557895 432,317.721339 432,326.557895 L432,416 C432,424.836556 424.836556,432 416,432 L16,432 C7.163444,432 0,424.836556 0,416 L0,16 C0,7.163444 7.163444,0 16,0 L99.0631579,0 C107.899714,0 115.063158,7.163444 115.063158,16 L115.063158,310.557895 Z M96,80 L48,80 C26.6666667,80 26.6666667,48 48,48 L96,48 C117.333333,48 117.333333,80 96,80 Z M80,144 L64,144 C42.6666667,144 42.6666667,112 64,112 L80,112 C101.333333,112 101.333333,144 80,144 Z M80,208 L64,208 C42.6666667,208 42.6666667,176 64,176 L80,176 C101.333333,176 101.333333,208 80,208 Z M80,256 L64,256 C42.6666667,256 42.6666667,224 64,224 L80,224 C101.333333,224 101.333333,256 80,256 Z M96,320 L48,320 C26.6666667,320 26.6666667,288 48,288 L96,288 C117.333333,288 117.333333,320 96,320 Z M144,336 L144,384 C144,405.333333 112,405.333333 112,384 L112,336 C112,314.666667 144,314.666667 144,336 Z M208,336 L208,352 C208,373.333333 176,373.333333 176,352 L176,336 C176,314.666667 208,314.666667 208,336 Z M256,336 L256,352 C256,373.333333 224,373.333333 224,352 L224,336 C224,314.666667 256,314.666667 256,336 Z M320,336 L320,352 C320,373.333333 288,373.333333 288,352 L288,336 C288,314.666667 320,314.666667 320,336 Z M384,336 L384,384 C384,405.333333 352,405.333333 352,384 L352,336 C352,314.666667 384,314.666667 384,336 Z" id="path-1"></path>
    </defs>
    <g id="symbol" stroke="none" stroke-width="1" fill="none" fill-rule="evenodd">
        <g id="icon/tool/size">
            <g>
                <rect id="Rectangle-18-Copy-3" fill-opacity="0" fill="#D8D8D8" x="0" y="0" width="512" height="512"></rect>
                <g id="尺寸监测" transform="translate(40.000000, 40.000000)">
                    <g id="color1">
                        <mask id="mask-2" fill="white">
                            <use xlink:href="#path-1"></use>
                        </mask>
                        <use id="Mask" fill="#262626" fill-rule="nonzero" xlink:href="#path-1"></use>
                    </g>
                </g>
            </g>
        </g>
    </g>
</svg>