<?xml version="1.0" encoding="UTF-8"?>
<svg width="512px" height="512px" viewBox="0 0 512 512" version="1.1" xmlns="http://www.w3.org/2000/svg" xmlns:xlink="http://www.w3.org/1999/xlink">
    <!-- Generator: Sketch 51 (57462) - http://www.bohemiancoding.com/sketch -->
    <title>icon/tool/SUK导入</title>
    <desc>Created with Sketch.</desc>
    <defs>
        <path d="M237,223 L237,159 L211,159 L211,223 C211,227.418278 207.418278,231 203,231 L188.321122,231 L224.5,261.945455 L260.678878,231 L245,231 C240.581722,231 237,227.418278 237,223 Z M217.576572,47.5862374 L416,47.5862374 C433.673112,47.5862374 448,61.9131254 448,79.5862374 L448,352 C448,369.673112 433.673112,384 416,384 L32,384 C14.326888,384 0,369.673112 0,352 L0,32 C0,14.326888 14.326888,0 32,0 L177.321173,0 C182.6739,0 187.67205,2.67667343 190.638792,7.13202212 L217.576572,47.5862374 Z M168.752647,32 L32,32 L32,352 L416,352 L416,79.5862374 L209.008046,79.5862374 C203.655319,79.5862374 198.657169,76.9095639 195.690428,72.4542152 L168.752647,32 Z M179,199 L179,143 C179,134.163444 186.163444,127 195,127 L253,127 C261.836556,127 269,134.163444 269,143 L269,199 L304,199 C318.862713,199 325.694696,217.498075 314.400061,227.158895 L234.900061,295.158895 C228.912456,300.280368 220.087544,300.280368 214.099939,295.158895 L134.599939,227.158895 C123.305304,217.498075 130.137287,199 145,199 L179,199 Z" id="path-1"></path>
    </defs>
    <g id="symbol" stroke="none" stroke-width="1" fill="none" fill-rule="evenodd">
        <g id="icon/tool/SUK导入">
            <g id="color1" transform="translate(32.000000, 65.000000)">
                <mask id="mask-2" fill="white">
                    <use xlink:href="#path-1"></use>
                </mask>
                <use id="Mask" fill="#262626" fill-rule="nonzero" xlink:href="#path-1"></use>
            </g>
        </g>
    </g>
</svg>