<?xml version="1.0" encoding="UTF-8"?>
<svg width="512px" height="512px" viewBox="0 0 512 512" version="1.1" xmlns="http://www.w3.org/2000/svg" xmlns:xlink="http://www.w3.org/1999/xlink">
    <!-- Generator: Sketch 51 (57462) - http://www.bohemiancoding.com/sketch -->
    <title>icon/tool/To be audited</title>
    <desc>Created with Sketch.</desc>
    <defs>
        <path d="M296,337.610937 L321.703636,366.157717 C327.616446,372.724558 327.08625,382.841314 320.519409,388.754124 C313.952568,394.666934 303.835812,394.136738 297.923002,387.569897 L269.770112,356.302945 C266.244306,353.36802 264,348.946103 264,344 L264,313 C264,304.163444 271.163444,297 280,297 C288.836556,297 296,304.163444 296,313 L296,337.610937 Z M279.5,448 C221.806473,448 175,401.45797 175,344 C175,286.54203 221.806473,240 279.5,240 C337.193527,240 384,286.54203 384,344 C384,401.45797 337.193527,448 279.5,448 Z M279.5,416 C319.560874,416 352,383.744146 352,344 C352,304.255854 319.560874,272 279.5,272 C239.439126,272 207,304.255854 207,344 C207,383.744146 239.439126,416 279.5,416 Z M191,416 C199.836556,416 207,423.163444 207,432 C207,440.836556 199.836556,448 191,448 L56,448 C25.072054,448 0,422.927946 0,392 L0,56 C0,25.072054 25.072054,7.10542736e-15 56,0 L328,0 C358.927946,-1.0658141e-14 384,25.072054 384,56 L384,257 C384,265.836556 376.836556,273 368,273 C359.163444,273 352,265.836556 352,257 L352,56 C352,42.745166 341.254834,32 328,32 L56,32 C42.745166,32 32,42.745166 32,56 L32,392 C32,405.254834 42.745166,416 56,416 L191,416 Z M79,96.5 C70.163444,96.5 63,89.336556 63,80.5 C63,71.663444 70.163444,64.5 79,64.5 L304,64.5 C312.836556,64.5 320,71.663444 320,80.5 C320,89.336556 312.836556,96.5 304,96.5 L79,96.5 Z M79,160.5 C70.163444,160.5 63,153.336556 63,144.5 C63,135.663444 70.163444,128.5 79,128.5 L304,128.5 C312.836556,128.5 320,135.663444 320,144.5 C320,153.336556 312.836556,160.5 304,160.5 L79,160.5 Z M79,224.5 C70.163444,224.5 63,217.336556 63,208.5 C63,199.663444 70.163444,192.5 79,192.5 L240,192.5 C248.836556,192.5 256,199.663444 256,208.5 C256,217.336556 248.836556,224.5 240,224.5 L79,224.5 Z M79,288.5 C70.163444,288.5 63,281.336556 63,272.5 C63,263.663444 70.163444,256.5 79,256.5 L144,256.5 C152.836556,256.5 160,263.663444 160,272.5 C160,281.336556 152.836556,288.5 144,288.5 L79,288.5 Z" id="path-1"></path>
    </defs>
    <g id="symbol" stroke="none" stroke-width="1" fill="none" fill-rule="evenodd">
        <g id="icon/tool/To-be-audited">
            <g transform="translate(65.000000, 32.000000)">
                <mask id="mask-2" fill="white">
                    <use xlink:href="#path-1"></use>
                </mask>
                <use id="Combined-Shape" fill="#262626" fill-rule="nonzero" xlink:href="#path-1"></use>
            </g>
        </g>
    </g>
</svg>