<?xml version="1.0" encoding="UTF-8"?>
<svg width="512px" height="512px" viewBox="0 0 512 512" version="1.1" xmlns="http://www.w3.org/2000/svg" xmlns:xlink="http://www.w3.org/1999/xlink">
    <!-- Generator: Sketch 51 (57462) - http://www.bohemiancoding.com/sketch -->
    <title>icon/tool/Transfer storehouse</title>
    <desc>Created with Sketch.</desc>
    <defs>
        <path d="M196.678258,294.748843 C191.388841,290.823586 188.876573,283.860147 190.919798,277.207861 C193.514517,268.760033 202.473225,264.013017 210.929632,266.605104 C215.034082,267.863214 219.331354,268.510619 223.734166,268.510619 C247.797177,268.510619 267.304102,249.023482 267.304102,224.984881 C267.304102,220.592197 266.657709,216.304671 265.401503,212.209139 C262.810031,203.760316 267.565306,194.812519 276.022709,192.223675 C284.480111,189.634832 293.436994,194.385284 296.028466,202.834107 C298.213919,209.959208 299.336597,217.405923 299.336597,224.984881 C299.336597,260.222241 275.180413,289.823345 242.508538,298.163569 L249.635792,305.96169 C255.600061,312.487359 255.139585,322.607549 248.60729,328.565768 C242.074996,334.523987 231.944529,334.063978 225.980259,327.53831 L198.982097,297.99889 C198.061525,296.991667 197.294011,295.898811 196.678258,294.748843 Z M249.58348,156.599794 C252.759131,160.316672 254.196139,165.434363 253.021833,170.564125 C251.049875,179.178299 242.461029,184.5645 233.838108,182.594542 C230.665854,181.869822 227.397788,181.5 224.069828,181.5 C200.006816,181.5 180.499891,200.987137 180.499891,225.025738 C180.499891,228.357352 180.871656,231.628876 181.600147,234.804188 C183.576222,243.41742 178.188653,252.000125 169.566675,253.974196 C160.944696,255.948267 152.353276,250.566163 150.377201,241.952931 C149.111655,236.436723 148.467397,230.767266 148.467397,225.025738 C148.467397,190.755059 171.316387,161.815634 202.626102,152.581132 L197.981082,147.49889 C192.016813,140.973222 192.477288,130.853031 199.009583,124.894812 C205.541878,118.936593 215.672345,119.396602 221.636614,125.92227 L248.634776,155.46169 C248.971464,155.830069 249.287677,156.209902 249.58348,156.599794 Z M351.673533,352 L351.673533,240 C351.673533,231.163444 358.844251,224 367.68978,224 C376.535309,224 383.706027,231.163444 383.706027,240 L383.706027,368 C383.706027,376.836556 376.535309,384 367.68978,384 L79.8978385,384 C71.0523094,384 63.8815913,376.836556 63.8815913,368 L63.8815913,240 C63.8815913,231.163444 71.0523094,224 79.8978385,224 C88.7433675,224 95.9140857,231.163444 95.9140857,240 L95.9140857,352 L351.673533,352 Z M224.594256,38.5331605 L27.4357007,235.691716 C21.1809671,241.94645 11.0451838,241.951593 4.79679517,235.703205 C-1.4515935,229.454816 -1.44644992,219.319033 4.80828367,213.064299 L213.292036,4.58054652 C219.54677,-1.67418707 229.682553,-1.67933065 235.930942,4.56905802 L444.203205,212.841321 C450.451593,219.08971 450.44645,229.225493 444.191716,235.480226 C437.936983,241.73496 427.801199,241.740104 421.552811,235.491715 L224.594256,38.5331605 Z" id="path-1"></path>
    </defs>
    <g id="symbol" stroke="none" stroke-width="1" fill="none" fill-rule="evenodd">
        <g id="icon/tool/Transfer-storehouse">
            <g transform="translate(32.000000, 64.000000)">
                <mask id="mask-2" fill="white">
                    <use xlink:href="#path-1"></use>
                </mask>
                <use fill="#262626" fill-rule="nonzero" xlink:href="#path-1"></use>
            </g>
        </g>
    </g>
</svg>