<?xml version="1.0" encoding="UTF-8"?>
<svg width="512px" height="512px" viewBox="0 0 512 512" version="1.1" xmlns="http://www.w3.org/2000/svg" xmlns:xlink="http://www.w3.org/1999/xlink">
    <!-- Generator: Sketch 51 (57462) - http://www.bohemiancoding.com/sketch -->
    <title>icon/tool/unfreeze</title>
    <desc>Created with Sketch.</desc>
    <defs>
        <path d="M313.384,241.1088 C313.384,201.177356 281.027444,168.8208 241.096,168.8208 C201.188556,168.8208 168.824,201.185356 168.824,241.1088 C168.824,281.01827 201.190582,313.3808 241.096,313.3808 C281.025418,313.3808 313.384,281.026269 313.384,241.1088 Z M345.384,241.1088 C345.384,298.700278 298.697634,345.3808 241.096,345.3808 C183.518366,345.3808 136.824,298.692279 136.824,241.1088 C136.824,183.512244 183.515444,136.8208 241.096,136.8208 C298.700556,136.8208 345.384,183.504244 345.384,241.1088 Z M229.5168,16 C229.5168,7.163444 236.680244,0 245.5168,0 C254.353356,0 261.5168,7.163444 261.5168,16 L261.5168,86.624 C261.5168,95.460556 254.353356,102.624 245.5168,102.624 C236.680244,102.624 229.5168,95.460556 229.5168,86.624 L229.5168,16 Z M73.7406915,90.1265085 C67.4923028,83.8781198 67.4923028,73.7474802 73.7406915,67.4990915 C79.9890802,61.2507028 90.1197198,61.2507028 96.3681085,67.4990915 L146.304108,117.435092 C152.552497,123.68348 152.552497,133.81412 146.304108,140.062508 C140.05572,146.310897 129.92508,146.310897 123.676692,140.062508 L73.7406915,90.1265085 Z M16,252.688 C7.163444,252.688 0,245.524556 0,236.688 C0,227.851444 7.163444,220.688 16,220.688 L86.624,220.688 C95.460556,220.688 102.624,227.851444 102.624,236.688 C102.624,245.524556 95.460556,252.688 86.624,252.688 L16,252.688 Z M90.1265085,408.470508 C83.8781198,414.718897 73.7474802,414.718897 67.4990915,408.470508 C61.2507028,402.22212 61.2507028,392.09148 67.4990915,385.843092 L117.435092,335.907092 C123.68348,329.658703 133.81412,329.658703 140.062508,335.907092 C146.310897,342.15548 146.310897,352.28612 140.062508,358.534508 L90.1265085,408.470508 Z M252.688,466.2032 C252.688,475.039756 245.524556,482.2032 236.688,482.2032 C227.851444,482.2032 220.688,475.039756 220.688,466.2032 L220.688,395.5792 C220.688,386.742644 227.851444,379.5792 236.688,379.5792 C245.524556,379.5792 252.688,386.742644 252.688,395.5792 L252.688,466.2032 Z M408.470508,392.076692 C414.718897,398.32508 414.718897,408.45572 408.470508,414.704108 C402.22212,420.952497 392.09148,420.952497 385.843092,414.704108 L335.907092,364.768108 C329.658703,358.51972 329.658703,348.38908 335.907092,342.140692 C342.15548,335.892303 352.28612,335.892303 358.534508,342.140692 L408.470508,392.076692 Z M466.2032,229.5152 C475.039756,229.5152 482.2032,236.678644 482.2032,245.5152 C482.2032,254.351756 475.039756,261.5152 466.2032,261.5152 L395.5792,261.5152 C386.742644,261.5152 379.5792,254.351756 379.5792,245.5152 C379.5792,236.678644 386.742644,229.5152 395.5792,229.5152 L466.2032,229.5152 Z M392.084692,73.7326915 C398.33308,67.4843028 408.46372,67.4843028 414.712108,73.7326915 C420.960497,79.9810802 420.960497,90.1117198 414.712108,96.3601085 L364.776108,146.296108 C358.52772,152.544497 348.39708,152.544497 342.148692,146.296108 C335.900303,140.04772 335.900303,129.91708 342.148692,123.668692 L392.084692,73.7326915 Z" id="path-1"></path>
    </defs>
    <g id="symbol" stroke="none" stroke-width="1" fill="none" fill-rule="evenodd">
        <g id="icon/tool/unfreeze">
            <g>
                <rect id="Rectangle-18" fill-opacity="0" fill="#D8D8D8" x="0" y="0" width="512" height="512"></rect>
                <g id="解冻" transform="translate(15.000000, 15.000000)">
                    <g id="color1">
                        <mask id="mask-2" fill="white">
                            <use xlink:href="#path-1"></use>
                        </mask>
                        <use id="Mask" fill="#262626" fill-rule="nonzero" xlink:href="#path-1"></use>
                    </g>
                </g>
            </g>
        </g>
    </g>
</svg>