<?xml version="1.0" encoding="UTF-8"?>
<svg width="512px" height="512px" viewBox="0 0 512 512" version="1.1" xmlns="http://www.w3.org/2000/svg" xmlns:xlink="http://www.w3.org/1999/xlink">
    <!-- Generator: Sketch 51 (57462) - http://www.bohemiancoding.com/sketch -->
    <title>icon/tool/Unlock</title>
    <desc>Created with Sketch.</desc>
    <defs>
        <path d="M190.283917,334.106008 L190.283917,355.138207 C190.283917,363.974763 183.120473,371.138207 174.283917,371.138207 C165.447361,371.138207 158.283917,363.974763 158.283917,355.138207 L158.283917,333.813286 C128.22046,326.377826 105.934566,299.224734 105.934566,266.862345 C105.934566,228.771168 136.808906,197.896828 174.900083,197.896828 C212.991259,197.896828 243.8656,228.771168 243.8656,266.862345 C243.8656,299.665384 220.968679,327.116299 190.283917,334.106008 Z M61.7966345,144.93131 L61.7966345,113.103448 C61.7966345,50.6333023 112.433117,0 174.900083,0 C225.956783,0 270.279862,34.1155048 283.833607,82.5810314 C286.213504,91.0910734 281.244039,99.9191128 272.733997,102.299009 C264.223955,104.678906 255.395916,99.7094412 253.016019,91.1993992 C243.303926,56.4708639 211.511225,32 174.900083,32 C130.105779,32 93.7966345,68.3068642 93.7966345,113.103448 L93.7966345,144.93131 L314.540138,144.93131 C333.967887,144.93131 349.793103,160.761532 349.793103,180.184276 L349.793103,388.850759 C349.793103,408.273503 333.967887,424.103724 314.540138,424.103724 L35.2617931,424.103724 C15.834636,424.103724 0,408.274093 0,388.850759 L0,180.184276 C0,160.760942 15.834636,144.93131 35.2617931,144.93131 L61.7966345,144.93131 Z M314.540138,392.103724 C316.292509,392.103724 317.793103,390.602655 317.793103,388.850759 L317.793103,180.184276 C317.793103,178.432379 316.292509,176.93131 314.540138,176.93131 L35.2617931,176.93131 C33.505484,176.93131 32,178.436319 32,180.184276 L32,388.850759 C32,390.598716 33.505484,392.103724 35.2617931,392.103724 L314.540138,392.103724 Z M211.8656,266.862345 C211.8656,246.44428 195.318147,229.896828 174.900083,229.896828 C154.482018,229.896828 137.934566,246.44428 137.934566,266.862345 C137.934566,287.28041 154.482018,303.827862 174.900083,303.827862 C195.318147,303.827862 211.8656,287.28041 211.8656,266.862345 Z" id="path-1"></path>
    </defs>
    <g id="symbol" stroke="none" stroke-width="1" fill="none" fill-rule="evenodd">
        <g id="icon/tool/Unlock">
            <g>
                <rect id="Rectangle-Copy-189" fill="#F0F0F0" opacity="0" x="0" y="0" width="512" height="512"></rect>
                <g id="Page-1" transform="translate(81.103448, 43.793103)">
                    <g id="color1">
                        <mask id="mask-2" fill="white">
                            <use xlink:href="#path-1"></use>
                        </mask>
                        <use id="Mask" fill="#262626" fill-rule="nonzero" xlink:href="#path-1"></use>
                    </g>
                </g>
            </g>
        </g>
    </g>
</svg>