<?xml version="1.0" encoding="UTF-8"?>
<svg width="512px" height="512px" viewBox="0 0 512 512" version="1.1" xmlns="http://www.w3.org/2000/svg" xmlns:xlink="http://www.w3.org/1999/xlink">
    <!-- Generator: Sketch 51 (57462) - http://www.bohemiancoding.com/sketch -->
    <title>icon/tool/upload</title>
    <desc>Created with Sketch.</desc>
    <defs>
        <path d="M240.5,227.546337 L240.5,432 C240.5,440.836556 233.336556,448 224.5,448 C215.663444,448 208.5,440.836556 208.5,432 L208.5,228.127417 L163.394788,273.232629 C157.1464,279.481017 147.01576,279.481017 140.767371,273.232629 C134.518983,266.98424 134.518983,256.8536 140.767371,250.605212 L213.186292,178.186292 C216.384381,174.988202 220.599488,173.426979 224.79054,173.502622 C228.981592,173.426979 233.196699,174.988202 236.394788,178.186292 L308.813708,250.605212 C315.062097,256.8536 315.062097,266.98424 308.813708,273.232629 C302.56532,279.481017 292.43468,279.481017 286.186292,273.232629 L240.5,227.546337 Z M449,225 C449,289.065031 397.065031,341 333,341 C309.011763,341 286.077475,333.685186 266.794527,320.262208 C259.542096,315.213747 257.755425,305.241903 262.803887,297.989472 C267.852348,290.737041 277.824192,288.95037 285.076623,293.998832 C299.036881,303.716652 315.60187,309 333,309 C379.391919,309 417,271.391919 417,225 C417,190.715305 396.273235,160.268029 365.137332,147.36244 C360.345159,145.376122 356.813393,141.189765 355.66251,136.131519 C341.90163,75.6510371 287.869211,32 225,32 C162.28167,32 108.342456,75.4440241 94.4294232,135.730331 C93.2515899,140.833979 89.6503228,145.037974 84.7880086,146.985387 C53.1664542,159.650181 32,190.35463 32,225 C32,271.391919 69.608081,309 116,309 C133.519388,309 150.193348,303.6424 164.210914,293.797785 C171.442261,288.71917 181.421458,290.464304 186.500074,297.695651 C191.578689,304.926998 189.833555,314.906195 182.602208,319.984811 C163.240843,333.582406 140.155755,341 116,341 C51.934969,341 0,289.065031 0,225 C0,180.002825 25.8609369,139.818211 65.2726533,120.651788 C85.2546642,50.0518178 150.059952,0 225,0 C300.156431,0 365.101674,50.3384438 384.88876,121.225418 C423.675338,140.628433 449,180.472353 449,225 Z" id="path-1"></path>
    </defs>
    <g id="symbol" stroke="none" stroke-width="1" fill="none" fill-rule="evenodd">
        <g id="icon/tool/upload">
            <g id="upload" transform="translate(32.000000, 32.000000)">
                <g id="color1">
                    <mask id="mask-2" fill="white">
                        <use xlink:href="#path-1"></use>
                    </mask>
                    <use id="Mask" fill="#262626" fill-rule="nonzero" xlink:href="#path-1"></use>
                </g>
            </g>
        </g>
    </g>
</svg>