<?xml version="1.0" encoding="UTF-8"?>
<svg width="24px" height="24px" viewBox="0 0 24 24" version="1.1" xmlns="http://www.w3.org/2000/svg" xmlns:xlink="http://www.w3.org/1999/xlink">
    <!-- Generator: Sketch 52.2 (67145) - http://www.bohemiancoding.com/sketch -->
    <title>icon/用户中心</title>
    <desc>Created with Sketch.</desc>
    <defs>
        <circle id="path-1" cx="12" cy="12" r="12"></circle>
    </defs>
    <g id="Page-1" stroke="none" stroke-width="1" fill="none" fill-rule="evenodd">
        <g id="icon/用户中心">
            <g id="user-icon">
                <g id="profile">
                    <mask id="mask-2" fill="white">
                        <use xlink:href="#path-1"></use>
                    </mask>
                    <use id="Mask" fill-opacity="0" fill="#FFFFFF" xlink:href="#path-1"></use>
                    <path d="M11.9671593,15.4721311 C14.9228243,15.4721311 17.320197,13.0786885 17.320197,10.1278689 C17.320197,7.17704918 14.9228243,4.8 11.9671593,4.8 C9.01149425,4.8 6.61412151,7.19344262 6.61412151,10.1278689 C6.61412151,13.0622951 9.01149425,15.4721311 11.9671593,15.4721311 L11.9671593,15.4721311 Z M11.9671593,6.19344262 C14.134647,6.19344262 15.908046,7.96393443 15.908046,10.1278689 C15.908046,12.2918033 14.134647,14.0622951 11.9671593,14.0622951 C9.79967159,14.0622951 8.02627258,12.2918033 8.02627258,10.1278689 C8.02627258,7.96393443 9.79967159,6.19344262 11.9671593,6.19344262 Z M2.70607553,23.8163934 C2.31198686,23.8163934 2,23.504918 2,23.1114754 C2,19.4065574 5.02134647,16.4065574 8.71592775,16.4065574 L15.2840722,16.4065574 C18.9950739,16.4065574 22,19.4229508 22,23.1114754 C22,23.504918 21.6880131,23.8163934 21.2939245,23.8163934 L2.70607553,23.8163934 Z M8.71592775,17.8163934 C6.02298851,17.8163934 3.80623974,19.8327869 3.46141215,22.4065574 L20.5385878,22.4065574 C20.1937603,19.8163934 17.9770115,17.8163934 15.2840722,17.8163934 L8.71592775,17.8163934 Z" fill="#E4E4E4" mask="url(#mask-2)"></path>
                </g>
                <circle id="Oval" stroke="#E4E4E4" stroke-width="1.6" cx="12" cy="12" r="11.2"></circle>
            </g>
        </g>
    </g>
</svg>