<?xml version="1.0" encoding="UTF-8"?>
<svg width="512px" height="512px" viewBox="0 0 512 512" version="1.1" xmlns="http://www.w3.org/2000/svg" xmlns:xlink="http://www.w3.org/1999/xlink">
    <!-- Generator: Sketch 51 (57462) - http://www.bohemiancoding.com/sketch -->
    <title>icon/tool/VIP batch</title>
    <desc>Created with Sketch.</desc>
    <defs>
        <path d="M166.9664,32.1572993 C127.344012,33.0194774 92.3207735,37.3814321 62.1033223,44.1419905 C50.4598589,46.7469857 40.413081,49.5213703 32,52.2759932 L32,192.0032 L49.3968,192.0032 C58.233356,192.0032 65.3968,199.166644 65.3968,208.0032 C65.3968,216.839756 58.233356,224.0032 49.3968,224.0032 L32,224.0032 L32,277.990832 C47.3411396,298.856488 66.8837287,317.612078 89.6975992,334.284406 C110.888805,349.770893 133.680142,362.607112 156.470097,372.896278 C164.43536,376.492421 171.814294,379.506759 178.406544,381.956917 C179.582948,382.394154 180.650708,382.783087 181.604249,383.124251 C182.572584,382.787052 183.65789,382.402241 184.854408,381.969287 C191.499487,379.564795 198.936423,376.607648 206.963427,373.08076 C229.924636,362.992111 252.885344,350.411402 274.230371,335.240606 C298.022452,318.330587 318.263177,299.252847 333.92,277.988453 L333.92,224.0032 L316.5296,224.0032 C307.693044,224.0032 300.5296,216.839756 300.5296,208.0032 C300.5296,199.166644 307.693044,192.0032 316.5296,192.0032 L333.92,192.0032 L333.92,52.2901969 C325.454714,49.534636 315.308899,46.7584311 303.508253,44.151234 C273.508037,37.5230826 238.616388,33.198196 198.9664,32.2141718 L198.9664,49.3952 C198.9664,58.231756 191.802956,65.3952 182.9664,65.3952 C174.129844,65.3952 166.9664,58.231756 166.9664,49.3952 L166.9664,32.1572993 Z M363.027593,292.311566 C344.738202,318.438551 320.857549,341.359838 292.768729,361.323729 C269.504702,377.858438 244.669997,391.465953 219.835792,402.377555 C211.134401,406.200754 203.037827,409.420193 195.742577,412.059946 C191.289918,413.671121 188.038498,414.746796 186.185454,415.309558 C183.115463,416.241903 179.836076,416.229737 176.773087,415.274641 C174.925125,414.698413 171.688201,413.598667 167.258144,411.952136 C160.003668,409.255847 151.953394,405.967262 143.302586,402.061612 C118.618053,390.917084 93.9349025,377.015385 70.8165865,360.120569 C43.8655131,340.424783 20.807137,317.896331 2.89358768,292.313252 C1.01022846,289.623549 0,286.419526 0,283.136 L0,41.056 C0,34.6561264 3.8136716,28.871921 9.69583369,26.3503043 C17.8866022,22.839014 33.129128,17.8332899 55.1166777,12.9140095 C91.2416167,4.83176728 133.488726,0 181.536,0 C230.817305,0 273.853456,4.82769422 310.411747,12.904766 C332.676922,17.8239623 348.02114,22.832796 356.225624,26.3509294 C362.107007,28.8729022 365.92,34.6567029 365.92,41.056 L365.92,283.136 C365.92,286.418824 364.910203,289.622196 363.027593,292.311566 Z M249.7472,192.0032 C258.583756,192.0032 265.7472,199.166644 265.7472,208.0032 C265.7472,216.839756 258.583756,224.0032 249.7472,224.0032 L182.9632,224.0032 C174.126644,224.0032 166.9632,216.839756 166.9632,208.0032 C166.9632,199.166644 174.126644,192.0032 182.9632,192.0032 L249.7472,192.0032 Z M166.9664,107.832 C166.9664,98.995444 174.129844,91.832 182.9664,91.832 C191.802956,91.832 198.9664,98.995444 198.9664,107.832 L198.9664,208.008 C198.9664,216.844556 191.802956,224.008 182.9664,224.008 C174.129844,224.008 166.9664,216.844556 166.9664,208.008 L166.9664,107.832 Z" id="path-1"></path>
    </defs>
    <g id="symbol" stroke="none" stroke-width="1" fill="none" fill-rule="evenodd">
        <g id="icon/tool/VIP-batch">
            <g id="Group">
                <g>
                    <rect id="Rectangle" fill="#D8D8D8" opacity="0" x="0" y="0" width="512" height="512"></rect>
                    <g id="VIP-batch" transform="translate(73.000000, 48.000000)">
                        <g id="color1">
                            <mask id="mask-2" fill="white">
                                <use xlink:href="#path-1"></use>
                            </mask>
                            <use id="Mask" fill="#262626" fill-rule="nonzero" xlink:href="#path-1"></use>
                        </g>
                    </g>
                </g>
            </g>
        </g>
    </g>
</svg>