<?xml version="1.0" encoding="UTF-8"?>
<svg width="512px" height="512px" viewBox="0 0 512 512" version="1.1" xmlns="http://www.w3.org/2000/svg" xmlns:xlink="http://www.w3.org/1999/xlink">
    <!-- Generator: Sketch 51 (57462) - http://www.bohemiancoding.com/sketch -->
    <title>icon/tool/仓库需捡</title>
    <desc>Created with Sketch.</desc>
    <defs>
        <path d="M224.489261,34.3125431 L23.7767021,142.096102 C15.9916401,146.276715 6.2915433,143.354733 2.11092954,135.569671 C-2.06968422,127.784609 0.852298407,118.084512 8.63736041,113.903898 L216.918007,2.05624204 C221.644342,-0.481821307 227.328114,-0.482316745 232.054891,2.0549226 L440.422682,113.902579 C448.208473,118.081835 451.132146,127.781423 446.95289,135.567213 C442.773633,143.353004 433.074046,146.276678 425.288255,142.097421 L224.489261,34.3125431 Z M384.402344,352.445312 L384.402344,161.117188 C384.402344,152.280632 391.565788,145.117188 400.402344,145.117188 C409.2389,145.117188 416.402344,152.280632 416.402344,161.117188 L416.402344,368.445312 C416.402344,377.281868 409.2389,384.445312 400.402344,384.445312 L336.203125,384.445312 C327.366569,384.445312 320.203125,377.281868 320.203125,368.445312 L320.203125,192 L127.421875,192 L127.421875,368.445312 C127.421875,377.281868 120.258431,384.445312 111.421875,384.445312 L48.2773438,384.445312 C39.4407878,384.445312 32.2773438,377.281868 32.2773438,368.445312 L32.2773438,160.117188 C32.2773438,151.280632 39.4407878,144.117188 48.2773438,144.117188 C57.1138997,144.117188 64.2773438,151.280632 64.2773438,160.117188 L64.2773438,352.445312 L95.421875,352.445312 L95.421875,176 C95.421875,167.163444 102.585319,160 111.421875,160 L336.203125,160 C345.039681,160 352.203125,167.163444 352.203125,176 L352.203125,352.445312 L384.402344,352.445312 Z M176.5,256.5 C167.663444,256.5 160.5,249.336556 160.5,240.5 C160.5,231.663444 167.663444,224.5 176.5,224.5 L273.5,224.5 C282.336556,224.5 289.5,231.663444 289.5,240.5 C289.5,249.336556 282.336556,256.5 273.5,256.5 L176.5,256.5 Z M176.5,320.5 C167.663444,320.5 160.5,313.336556 160.5,304.5 C160.5,295.663444 167.663444,288.5 176.5,288.5 L273.5,288.5 C282.336556,288.5 289.5,295.663444 289.5,304.5 C289.5,313.336556 282.336556,320.5 273.5,320.5 L176.5,320.5 Z M176.5,384.5 C167.663444,384.5 160.5,377.336556 160.5,368.5 C160.5,359.663444 167.663444,352.5 176.5,352.5 L273.5,352.5 C282.336556,352.5 289.5,359.663444 289.5,368.5 C289.5,377.336556 282.336556,384.5 273.5,384.5 L176.5,384.5 Z" id="path-1"></path>
    </defs>
    <g id="symbol" stroke="none" stroke-width="1" fill="none" fill-rule="evenodd">
        <g id="icon/tool/仓库需捡">
            <g transform="translate(32.000000, 64.000000)">
                <mask id="mask-2" fill="white">
                    <use xlink:href="#path-1"></use>
                </mask>
                <use id="Mask" fill="#262626" fill-rule="nonzero" xlink:href="#path-1"></use>
            </g>
        </g>
    </g>
</svg>