<?xml version="1.0" encoding="UTF-8"?>
<svg width="512px" height="512px" viewBox="0 0 512 512" version="1.1" xmlns="http://www.w3.org/2000/svg" xmlns:xlink="http://www.w3.org/1999/xlink">
    <!-- Generator: Sketch 51 (57462) - http://www.bohemiancoding.com/sketch -->
    <title>icon/tool/入库状态</title>
    <desc>Created with Sketch.</desc>
    <defs>
        <path d="M268.71221,78.8786714 L125.36847,166.762036 L192.5,207.040954 L338.729569,119.303212 L268.71221,78.8786714 Z M237.181653,60.6744956 L191.803157,34.4752086 L45.5869934,118.89315 L94.4266206,148.196926 L237.181653,60.6744956 Z M351.606314,148.895258 L208.5,234.759046 L208.5,393.884865 L351.606314,311.262396 L351.606314,148.895258 Z M32,148.059046 L32,311.262396 L176.5,394.68951 L176.5,234.759046 L111.5,195.759046 L111.5,236 C111.5,244.836556 104.336556,252 95.5,252 C86.663444,252 79.5,244.836556 79.5,236 L79.5,177 C79.5,176.853723 79.501963,176.707904 79.505864,176.562568 L32,148.059046 Z M199.803157,2.14359354 L375.606314,103.643594 C380.556731,106.501718 383.606314,111.783751 383.606314,117.5 L383.606314,320.5 C383.606314,326.216249 380.556731,331.498282 375.606314,334.356406 L199.803157,435.856406 C194.85274,438.714531 188.753574,438.714531 183.803157,435.856406 L8,334.356406 C3.04958277,331.498282 -2.27373675e-13,326.216249 -2.27373675e-13,320.5 L-3.41060513e-13,117.5 C-3.41060513e-13,111.783751 3.04958277,106.501718 8,103.643594 L183.803157,2.14359354 C188.753574,-0.71453118 194.85274,-0.71453118 199.803157,2.14359354 Z" id="path-1"></path>
    </defs>
    <g id="symbol" stroke="none" stroke-width="1" fill="none" fill-rule="evenodd">
        <g id="icon/tool/入库状态">
            <g transform="translate(64.000000, 37.000000)">
                <mask id="mask-2" fill="white">
                    <use xlink:href="#path-1"></use>
                </mask>
                <use id="Mask" fill="#262626" fill-rule="nonzero" xlink:href="#path-1"></use>
            </g>
        </g>
    </g>
</svg>