<?xml version="1.0" encoding="UTF-8"?>
<svg width="512px" height="512px" viewBox="0 0 512 512" version="1.1" xmlns="http://www.w3.org/2000/svg" xmlns:xlink="http://www.w3.org/1999/xlink">
    <!-- Generator: Sketch 51 (57462) - http://www.bohemiancoding.com/sketch -->
    <title>icon/tool/取消订单</title>
    <desc>Created with Sketch.</desc>
    <defs>
        <path d="M304.802561,277.763303 L380.130357,353.091099 C386.378746,359.339487 386.378746,369.470127 380.130357,375.718516 C373.881968,381.966904 363.751329,381.966904 357.50294,375.718516 L282.175144,300.39072 L206.847348,375.718516 C200.59896,381.966904 190.46832,381.966904 184.219931,375.718516 C177.971543,369.470127 177.971543,359.339487 184.219931,353.091099 L259.547727,277.763303 L184.219931,202.435507 C177.971543,196.187118 177.971543,186.056479 184.219931,179.80809 C190.46832,173.559701 200.59896,173.559701 206.847348,179.80809 L282.175144,255.135886 L357.50294,179.80809 C363.751329,173.559701 373.881968,173.559701 380.130357,179.80809 C386.378746,186.056479 386.378746,196.187118 380.130357,202.435507 L304.802561,277.763303 Z M97,127.5 C88.163444,127.5 81,120.336556 81,111.5 C81,102.663444 88.163444,95.5 97,95.5 L290,95.5 C298.836556,95.5 306,102.663444 306,111.5 C306,120.336556 298.836556,127.5 290,127.5 L97,127.5 Z M96,208.5 C87.163444,208.5 80,201.336556 80,192.5 C80,183.663444 87.163444,176.5 96,176.5 L131,176.5 C139.836556,176.5 147,183.663444 147,192.5 C147,201.336556 139.836556,208.5 131,208.5 L96,208.5 Z M361,416 C369.836556,416 377,423.163444 377,432 C377,440.836556 369.836556,448 361,448 L32,448 C14.326888,448 0,433.673112 0,416 L0,32 C0,14.326888 14.326888,0 32,0 L352,0 C369.673112,5.68434189e-14 384,14.326888 384,32 L384,127.837588 C384,136.674144 376.836556,143.837588 368,143.837588 C359.163444,143.837588 352,136.674144 352,127.837588 L352,32 L32,32 L32,416 L361,416 Z" id="path-1"></path>
    </defs>
    <g id="symbol" stroke="none" stroke-width="1" fill="none" fill-rule="evenodd">
        <g id="icon/tool/取消订单">
            <g id="color1" transform="translate(64.000000, 33.000000)">
                <mask id="mask-2" fill="white">
                    <use xlink:href="#path-1"></use>
                </mask>
                <use id="Mask" fill="#262626" fill-rule="nonzero" xlink:href="#path-1"></use>
            </g>
        </g>
    </g>
</svg>