<?xml version="1.0" encoding="UTF-8"?>
<svg width="512px" height="512px" viewBox="0 0 512 512" version="1.1" xmlns="http://www.w3.org/2000/svg" xmlns:xlink="http://www.w3.org/1999/xlink">
    <!-- Generator: Sketch 51 (57462) - http://www.bohemiancoding.com/sketch -->
    <title>icon/tool/差异对比</title>
    <desc>Created with Sketch.</desc>
    <defs>
        <path d="M415.128869,205.590839 C413.800181,191.623222 410.975088,178.091852 406.815703,165.158839 L240.5,331.474543 L240.5,380.219709 L415.128869,205.590839 Z M413.972743,252.0018 L252.0018,413.972743 C335.627253,401.753238 401.753238,335.627253 413.972743,252.0018 Z M393.32147,133.398239 C387.032819,121.670253 379.561287,110.671345 371.066387,100.56103 L240.5,231.127417 L240.5,286.219709 L393.32147,133.398239 Z M348.522093,77.8504898 C338.365991,69.1889538 327.295951,61.5674075 315.476771,55.1506463 L240.5,130.127417 L240.5,185.872583 L348.522093,77.8504898 Z M385.466085,68.7427183 C424.191746,109.007199 448,163.723242 448,224 C448,347.711784 347.711784,448 224,448 C100.288216,448 0,347.711784 0,224 C0,100.288216 100.288216,0 224,0 C256.475506,0 287.336866,6.91097964 315.193611,19.3424703 C318.209341,19.7901266 321.121704,21.1001767 323.5326,23.2726384 C344.559049,33.7188805 363.71117,47.3716603 380.349206,63.5912187 C381.348355,64.218802 382.293231,64.9674287 383.162901,65.8370987 C384.059197,66.7333943 384.826924,67.7095722 385.466083,68.742715 Z M283.858082,41.5145008 C270.031042,36.9817918 255.511827,33.9767982 240.5,32.6990834 L240.5,84.872583 L283.858082,41.5145008 Z M208.5,415.383415 L208.5,32.6165846 C109.709588,40.5084994 32,123.179226 32,224 C32,324.820774 109.709588,407.491501 208.5,415.383415 Z" id="path-1"></path>
    </defs>
    <g id="symbol" stroke="none" stroke-width="1" fill="none" fill-rule="evenodd">
        <g id="icon/tool/差异对比">
            <g transform="translate(32.000000, 32.000000)">
                <mask id="mask-2" fill="white">
                    <use xlink:href="#path-1"></use>
                </mask>
                <use id="Mask" fill="#262626" fill-rule="nonzero" xlink:href="#path-1"></use>
            </g>
        </g>
    </g>
</svg>