<?xml version="1.0" encoding="UTF-8"?>
<svg width="512px" height="512px" viewBox="0 0 512 512" version="1.1" xmlns="http://www.w3.org/2000/svg" xmlns:xlink="http://www.w3.org/1999/xlink">
    <!-- Generator: Sketch 51 (57462) - http://www.bohemiancoding.com/sketch -->
    <title>icon/tool/库存对比</title>
    <desc>Created with Sketch.</desc>
    <defs>
        <path d="M43.9179837,114.5 L192.5,114.5 L192.5,32 L94.919338,32 L43.9179837,114.5 Z M32,146.469258 L32,384 L385,384 L385,146.5 L33,146.5 C32.6641493,146.5 32.3307155,146.489652 32,146.469258 Z M373.094987,114.5 L322.081754,32 L224.5,32 L224.5,114.5 L373.094987,114.5 Z M86,0 L331,0 C336.543972,0 341.692847,2.86993307 344.608537,7.58526726 L414.608537,120.791189 C416.171891,123.319488 417,126.233318 417,129.205921 L417,400 C417,408.836556 409.836556,416 401,416 L16,416 C7.163444,416 0,408.836556 0,400 L0,129.232287 C0,126.26025 0.827794006,123.346952 2.39058681,120.818972 L72.3905868,7.5866848 C75.3060977,2.87054248 80.4554349,0 86,0 Z M144.5,240.5 C135.663444,240.5 128.5,233.336556 128.5,224.5 C128.5,215.663444 135.663444,208.5 144.5,208.5 L274.502604,208.5 C283.33916,208.5 290.502604,215.663444 290.502604,224.5 C290.502604,233.336556 283.33916,240.5 274.502604,240.5 L144.5,240.5 Z" id="path-1"></path>
    </defs>
    <g id="symbol" stroke="none" stroke-width="1" fill="none" fill-rule="evenodd">
        <g id="icon/tool/库存对比">
            <g transform="translate(48.000000, 49.000000)">
                <mask id="mask-2" fill="white">
                    <use xlink:href="#path-1"></use>
                </mask>
                <use id="Mask" fill="#262626" fill-rule="nonzero" xlink:href="#path-1"></use>
            </g>
        </g>
    </g>
</svg>