<?xml version="1.0" encoding="UTF-8"?>
<svg width="512px" height="512px" viewBox="0 0 512 512" version="1.1" xmlns="http://www.w3.org/2000/svg" xmlns:xlink="http://www.w3.org/1999/xlink">
    <!-- Generator: Sketch 51 (57462) - http://www.bohemiancoding.com/sketch -->
    <title>icon/tool/批量结单</title>
    <desc>Created with Sketch.</desc>
    <defs>
        <path d="M102.26903,285.103553 L79.8916126,262.726136 C73.6432239,256.477748 73.6432239,246.347108 79.8916126,240.098719 C86.1400013,233.850331 96.2706409,233.850331 102.51903,240.098719 L124.896447,262.476136 L147.127417,240.245166 C153.375806,233.996777 163.506445,233.996777 169.754834,240.245166 C176.003223,246.493555 176.003223,256.624194 169.754834,262.872583 L147.523864,285.103553 L170.401281,307.98097 C176.649669,314.229359 176.649669,324.359999 170.401281,330.608387 C164.152892,336.856776 154.022252,336.856776 147.773864,330.608387 L124.896447,307.73097 L101.872583,330.754834 C95.6241943,337.003223 85.4935547,337.003223 79.245166,330.754834 C72.9967773,324.506445 72.9967773,314.375806 79.245166,308.127417 L102.26903,285.103553 Z M109,126.5 L109,95 C109,86.163444 116.163444,79 125,79 C133.836556,79 141,86.163444 141,95 L141,126.5 L172.5,126.5 C181.336556,126.5 188.5,133.663444 188.5,142.5 C188.5,151.336556 181.336556,158.5 172.5,158.5 L141,158.5 L141,191 C141,199.836556 133.836556,207 125,207 C116.163444,207 109,199.836556 109,191 L109,158.5 L76.5,158.5 C67.663444,158.5 60.5,151.336556 60.5,142.5 C60.5,133.663444 67.663444,126.5 76.5,126.5 L109,126.5 Z M32,0 L384,0 C401.673112,0 416,14.326888 416,32 L416,384 C416,401.673112 401.673112,416 384,416 L32,416 C14.326888,416 0,401.673112 0,384 L0,32 C0,14.326888 14.326888,0 32,0 Z M32,32 L32,384 L384,384 L384,32 L32,32 Z M241.5,158.5 C232.663444,158.5 225.5,151.336556 225.5,142.5 C225.5,133.663444 232.663444,126.5 241.5,126.5 L337.5,126.5 C346.336556,126.5 353.5,133.663444 353.5,142.5 C353.5,151.336556 346.336556,158.5 337.5,158.5 L241.5,158.5 Z M241.5,273.5 C232.663444,273.5 225.5,266.336556 225.5,257.5 C225.5,248.663444 232.663444,241.5 241.5,241.5 L337.5,241.5 C346.336556,241.5 353.5,248.663444 353.5,257.5 C353.5,266.336556 346.336556,273.5 337.5,273.5 L241.5,273.5 Z M241.5,332.5 C232.663444,332.5 225.5,325.336556 225.5,316.5 C225.5,307.663444 232.663444,300.5 241.5,300.5 L337.5,300.5 C346.336556,300.5 353.5,307.663444 353.5,316.5 C353.5,325.336556 346.336556,332.5 337.5,332.5 L241.5,332.5 Z" id="path-1"></path>
    </defs>
    <g id="symbol" stroke="none" stroke-width="1" fill="none" fill-rule="evenodd">
        <g id="icon/tool/批量结单">
            <g id="color1" transform="translate(49.000000, 49.000000)">
                <mask id="mask-2" fill="white">
                    <use xlink:href="#path-1"></use>
                </mask>
                <use id="Mask" fill="#262626" fill-rule="nonzero" xlink:href="#path-1"></use>
            </g>
        </g>
    </g>
</svg>