<?xml version="1.0" encoding="UTF-8"?>
<svg width="512px" height="512px" viewBox="0 0 512 512" version="1.1" xmlns="http://www.w3.org/2000/svg" xmlns:xlink="http://www.w3.org/1999/xlink">
    <!-- Generator: Sketch 51 (57462) - http://www.bohemiancoding.com/sketch -->
    <title>icon/tool/插件丢失</title>
    <desc>Created with Sketch.</desc>
    <defs>
        <path d="M399.000757,233.087419 L323.402446,157.489108 C314.476642,148.563303 318.918481,133.300094 331.239951,130.557588 C349.063477,126.590439 362.753235,120.62674 370.203268,113.176707 C382.803891,100.576084 382.787932,80.1161588 370.149974,67.4782004 C357.512015,54.840242 337.05209,54.8242834 324.451467,67.4249066 C316.799565,75.0768083 310.803802,88.6532124 306.875902,106.213565 C304.122127,118.524787 288.868503,122.955164 279.948036,114.034698 L204.540755,38.6274169 L167.598882,75.5692892 C173.32916,78.8583226 178.401387,82.640028 182.742967,86.9816073 C206.346775,110.585416 206.346775,148.854751 182.742967,172.45856 C159.139158,196.062368 120.869823,196.062368 97.2660142,172.45856 C92.9415739,168.134119 89.1790027,163.044168 85.9056719,157.2625 L38.627417,204.540755 L233.087419,399.000757 L280.608723,351.479453 C274.322837,348.016551 268.793347,343.985892 264.111059,339.303605 C240.507251,315.699796 240.507251,277.430461 264.111059,253.826652 C287.714868,230.222844 325.984203,230.222844 349.588012,253.826652 C354.250209,258.48885 358.259161,264.038395 361.705167,270.38301 L399.000757,233.087419 Z M432.941883,221.77371 C439.190271,228.022099 439.190271,238.152739 432.941883,244.401127 L367.18774,310.15527 C358.57159,318.77142 343.870584,314.978269 340.498796,303.268994 C336.994149,291.098331 332.348214,281.841689 326.960595,276.454069 C315.853563,265.347038 297.845507,265.347038 286.738476,276.454069 C275.631445,287.561101 275.631445,305.569156 286.738476,316.676188 C292.275461,322.213172 301.466179,326.893382 313.447459,330.387521 C325.122231,333.792271 328.880846,348.462164 320.281642,357.061368 L244.401127,432.941883 C238.152739,439.190271 228.022099,439.190271 221.77371,432.941883 L4.6862915,215.854464 C-1.56209717,209.606075 -1.56209717,199.475435 4.6862915,193.227047 L80.1479455,117.765393 C88.7033363,109.210002 103.292629,112.879797 106.781874,124.464899 C110.237725,135.939125 114.73159,144.669302 119.893431,149.831143 C131.000462,160.938174 149.008518,160.938174 160.11555,149.831143 C171.222581,138.724111 171.222581,120.716056 160.11555,109.609024 C154.811049,104.304523 146.139759,99.7756206 134.844224,96.3267147 C123.298071,92.801287 119.666445,78.2468912 128.202905,69.7104318 L193.227047,4.68629136 C199.475436,-1.56209718 209.606075,-1.56209711 215.854464,4.6862915 L283.867671,72.6994988 C288.511668,61.6250874 294.406018,52.2155212 301.82405,44.7974896 C326.929359,19.6921804 367.65055,19.7239427 392.777391,44.8507834 C417.904232,69.9776241 417.935994,110.698815 392.830685,135.804124 C385.463492,143.171317 376.013597,149.022747 364.814247,153.646074 L432.941883,221.77371 Z" id="path-1"></path>
    </defs>
    <g id="symbol" stroke="none" stroke-width="1" fill="none" fill-rule="evenodd">
        <g id="icon/tool/插件丢失">
            <g id="Group-2" transform="translate(37.000000, 42.000000)">
                <mask id="mask-2" fill="white">
                    <use xlink:href="#path-1"></use>
                </mask>
                <use id="Combined-Shape" fill="#262626" fill-rule="nonzero" xlink:href="#path-1"></use>
            </g>
        </g>
    </g>
</svg>