<?xml version="1.0" encoding="UTF-8"?>
<svg width="512px" height="512px" viewBox="0 0 512 512" version="1.1" xmlns="http://www.w3.org/2000/svg" xmlns:xlink="http://www.w3.org/1999/xlink">
    <!-- Generator: Sketch 51 (57462) - http://www.bohemiancoding.com/sketch -->
    <title>icon/tool/正</title>
    <desc>Created with Sketch.</desc>
    <defs>
        <path d="M256,448 C149.961328,448 64,362.038672 64,256 C64,149.961328 149.961328,64 256,64 C362.038672,64 448,149.961328 448,256 C448,362.038672 362.038672,448 256,448 Z M250.931429,168.211429 L250.931429,347.32 L199.365714,347.32 L199.365714,219.228571 L174.131429,219.228571 L174.131429,347.32 L133.262857,347.32 L133.262857,372.828571 L379.297143,372.828571 L379.297143,347.32 L276.988571,347.32 L276.988571,265.857143 L353.24,265.857143 L353.24,240.897143 L276.988571,240.897143 L276.988571,168.211429 L367.777143,168.211429 L367.777143,142.702857 L149.445714,142.702857 L149.445714,168.211429 L250.931429,168.211429 Z" id="path-1"></path>
    </defs>
    <g id="symbol" stroke="none" stroke-width="1" fill="none" fill-rule="evenodd">
        <g id="icon/tool/正">
            <g id="icon/table/edit-list">
                <g>
                    <rect id="Rectangle-28-Copy" opacity="0" x="0" y="0" width="512" height="512"></rect>
                    <mask id="mask-2" fill="white">
                        <use xlink:href="#path-1"></use>
                    </mask>
                    <use id="Combined-Shape" fill="#F0D319" xlink:href="#path-1"></use>
                </g>
            </g>
        </g>
    </g>
</svg>