<?xml version="1.0" encoding="UTF-8"?>
<svg width="512px" height="512px" viewBox="0 0 512 512" version="1.1" xmlns="http://www.w3.org/2000/svg" xmlns:xlink="http://www.w3.org/1999/xlink">
    <!-- Generator: Sketch 51 (57462) - http://www.bohemiancoding.com/sketch -->
    <title>icon/tool/测</title>
    <desc>Created with Sketch.</desc>
    <defs>
        <path d="M256,448 C149.961328,448 64,362.038672 64,256 C64,149.961328 149.961328,64 256,64 C362.038672,64 448,149.961328 448,256 C448,362.038672 362.038672,448 256,448 Z M150.948571,134.474286 L133.12,151.48 C149.851429,164.645714 162.742857,177.262857 171.794286,188.782857 L189.074286,171.502857 C178.651429,159.16 166.034286,146.817143 150.948571,134.474286 Z M146.56,201.674286 L128.731429,218.68 C144.914286,232.942857 157.531429,246.108571 166.582857,258.725714 L183.588571,241.445714 C173.44,228.28 161.097143,215.114286 146.56,201.674286 Z M165.211429,276.828571 C155.337143,308.645714 143.542857,339.64 130.102857,369.811429 L153.691429,379.96 C166.034286,350.337143 177.28,318.794286 187.154286,285.331429 L165.211429,276.828571 Z M292.754286,142.977143 L195.382857,142.977143 L195.382857,314.131429 L218.422857,314.131429 L218.422857,165.194286 L269.714286,165.194286 L269.714286,312.485714 L292.754286,312.485714 L292.754286,142.977143 Z M263.405714,323.731429 L247.771429,338.817143 C264.228571,354.725714 277.12,369.537143 286.171429,383.251429 L303.451429,366.245714 C292.48,351.982857 279.314286,337.994286 263.405714,323.731429 Z M233.508571,181.102857 L233.508571,267.228571 C232.685714,291.64 228.845714,311.388571 221.988571,326.748571 C214.857143,341.011429 201.691429,352.805714 182.217143,362.131429 L195.657143,383.8 C215.954286,373.925714 230.765714,360.485714 239.817143,342.931429 C249.142857,324.005714 254.08,298.771429 254.902857,267.228571 L254.902857,181.102857 L233.508571,181.102857 Z M348.982857,381.057143 C365.165714,381.057143 373.394286,372.005714 373.394286,354.451429 L373.394286,131.731429 L348.982857,131.731429 L348.982857,348.417143 C348.982857,355 345.965714,358.565714 340.48,358.565714 C331.702857,358.565714 322.651429,358.017143 313.325714,356.92 L318.811429,381.057143 L348.982857,381.057143 Z M308.937143,154.222857 L308.937143,323.731429 L331.702857,323.731429 L331.702857,154.222857 L308.937143,154.222857 Z" id="path-1"></path>
    </defs>
    <g id="symbol" stroke="none" stroke-width="1" fill="none" fill-rule="evenodd">
        <g id="icon/tool/测">
            <g id="icon/table/edit-list">
                <g>
                    <rect id="Rectangle-28-Copy" opacity="0" x="0" y="0" width="512" height="512"></rect>
                    <mask id="mask-2" fill="white">
                        <use xlink:href="#path-1"></use>
                    </mask>
                    <use id="Combined-Shape" fill="#F0D319" xlink:href="#path-1"></use>
                </g>
            </g>
        </g>
    </g>
</svg>