<?xml version="1.0" encoding="UTF-8"?>
<svg width="512px" height="512px" viewBox="0 0 512 512" version="1.1" xmlns="http://www.w3.org/2000/svg" xmlns:xlink="http://www.w3.org/1999/xlink">
    <!-- Generator: Sketch 51 (57462) - http://www.bohemiancoding.com/sketch -->
    <title>icon/tool/混单匹配</title>
    <desc>Created with Sketch.</desc>
    <defs>
        <path d="M352,16 C352,7.163444 359.163444,-7.10542736e-15 368,0 C376.836556,7.10542736e-15 384,7.163444 384,16 L384,346 C384,402.333044 338.333044,448 282,448 L95.6938717,448 C86.8573157,448 79.6938717,440.836556 79.6938717,432 C79.6938717,423.163444 86.8573157,416 95.6938717,416 L282,416 C320.659932,416 352,384.659932 352,346 L352,16 Z M32,432 C32,440.836556 24.836556,448 16,448 C7.163444,448 0,440.836556 0,432 L0,102 C0,45.6669555 45.6669555,7.10542736e-15 102,0 L288.596977,0 C297.433533,0 304.596977,7.163444 304.596977,16 C304.596977,24.836556 297.433533,32 288.596977,32 L102,32 C63.3400675,32 32,63.3400675 32,102 L32,432 Z M96,320.5 C87.163444,320.5 80,313.336556 80,304.5 C80,295.663444 87.163444,288.5 96,288.5 L288,288.5 C296.836556,288.5 304,295.663444 304,304.5 C304,313.336556 296.836556,320.5 288,320.5 L96,320.5 Z M96,240.5 C87.163444,240.5 80,233.336556 80,224.5 C80,215.663444 87.163444,208.5 96,208.5 L289,208.5 C297.836556,208.5 305,215.663444 305,224.5 C305,233.336556 297.836556,240.5 289,240.5 L96,240.5 Z M96,160.5 C87.163444,160.5 80,153.336556 80,144.5 C80,135.663444 87.163444,128.5 96,128.5 L289,128.5 C297.836556,128.5 305,135.663444 305,144.5 C305,153.336556 297.836556,160.5 289,160.5 L96,160.5 Z" id="path-1"></path>
    </defs>
    <g id="symbol" stroke="none" stroke-width="1" fill="none" fill-rule="evenodd">
        <g id="icon/tool/混单匹配">
            <g transform="translate(65.000000, 32.000000)">
                <mask id="mask-2" fill="white">
                    <use xlink:href="#path-1"></use>
                </mask>
                <use id="Mask" fill="#262626" fill-rule="nonzero" xlink:href="#path-1"></use>
            </g>
        </g>
    </g>
</svg>