<?xml version="1.0" encoding="UTF-8"?>
<svg width="512px" height="512px" viewBox="0 0 512 512" version="1.1" xmlns="http://www.w3.org/2000/svg" xmlns:xlink="http://www.w3.org/1999/xlink">
    <!-- Generator: Sketch 51 (57462) - http://www.bohemiancoding.com/sketch -->
    <title>icon/tool/结单</title>
    <desc>Created with Sketch.</desc>
    <defs>
        <path d="M203.456838,378.309903 C203.256235,378.53428 203.048201,378.75436 202.832738,378.969823 C196.584349,385.218212 186.45371,385.218212 180.205321,378.969823 L112.32307,311.087572 C106.074681,304.839183 106.074681,294.708544 112.32307,288.460155 C118.571459,282.211766 128.702098,282.211766 134.950487,288.460155 L191.900681,345.410349 L357.50294,179.80809 C363.751329,173.559701 373.881968,173.559701 380.130357,179.80809 C386.378746,186.056479 386.378746,196.187118 380.130357,202.435507 L206.847348,375.718516 C205.811996,376.753868 204.670051,377.617664 203.456838,378.309903 Z M352,303.416176 C352,294.57962 359.163444,287.416176 368,287.416176 C376.836556,287.416176 384,294.57962 384,303.416176 L384,416 C384,433.673112 369.673112,448 352,448 L32,448 C14.326888,448 0,433.673112 0,416 L0,32 C0,14.326888 14.326888,0 32,0 L352,0 C369.673112,5.68434189e-14 384,14.326888 384,32 L384,127.837588 C384,136.674144 376.836556,143.837588 368,143.837588 C359.163444,143.837588 352,136.674144 352,127.837588 L352,32 L32,32 L32,416 L352,416 L352,303.416176 Z M96,208.5 C87.163444,208.5 80,201.336556 80,192.5 C80,183.663444 87.163444,176.5 96,176.5 L209,176.5 C217.836556,176.5 225,183.663444 225,192.5 C225,201.336556 217.836556,208.5 209,208.5 L96,208.5 Z M97,127.5 C88.163444,127.5 81,120.336556 81,111.5 C81,102.663444 88.163444,95.5 97,95.5 L290,95.5 C298.836556,95.5 306,102.663444 306,111.5 C306,120.336556 298.836556,127.5 290,127.5 L97,127.5 Z" id="path-1"></path>
    </defs>
    <g id="symbol" stroke="none" stroke-width="1" fill="none" fill-rule="evenodd">
        <g id="icon/tool/结单">
            <g transform="translate(64.000000, 33.000000)">
                <mask id="mask-2" fill="white">
                    <use xlink:href="#path-1"></use>
                </mask>
                <use id="Mask" fill="#262626" fill-rule="nonzero" xlink:href="#path-1"></use>
            </g>
        </g>
    </g>
</svg>