<?xml version="1.0" encoding="UTF-8"?>
<svg width="512px" height="512px" viewBox="0 0 512 512" version="1.1" xmlns="http://www.w3.org/2000/svg" xmlns:xlink="http://www.w3.org/1999/xlink">
    <!-- Generator: Sketch 51 (57462) - http://www.bohemiancoding.com/sketch -->
    <title>icon/tool/肇</title>
    <desc>Created with Sketch.</desc>
    <defs>
        <path d="M256,448 C149.961328,448 64,362.038672 64,256 C64,149.961328 149.961328,64 256,64 C362.038672,64 448,149.961328 448,256 C448,362.038672 362.038672,448 256,448 Z M167.274286,206.611429 L250.108571,206.611429 L250.108571,147.365714 L214.725714,147.365714 C212.531429,139.96 210.062857,133.377143 207.868571,127.617143 L182.085714,132.005714 C184.28,136.668571 186.474286,141.88 188.668571,147.365714 L147.8,147.365714 L147.8,175.617143 C147.525714,197.56 140.942857,215.662857 128.325714,229.925714 L146.428571,246.382857 C156.302857,234.314286 163.16,221.148571 167.274286,206.611429 Z M275.891429,183.571429 C280.28,188.508571 285.491429,193.171429 291.525714,197.56 C283.297143,200.577143 274.245714,203.045714 263.822857,204.965714 L275.617143,224.165714 C289.88,220.874286 302.497143,216.211429 313.742857,210.451429 C329.377143,217.857143 348.302857,223.342857 370.794286,227.182857 L382.04,207.708571 C364.211429,205.24 348.302857,201.4 334.314286,196.462857 C344.188571,187.685714 352.142857,177.537143 358.177143,165.468571 L373.811429,165.468571 L373.811429,144.897143 L299.754286,144.897143 C301.4,140.782857 302.771429,136.394286 304.142857,131.731429 L282.2,128.988571 C276.714286,147.914286 266.84,163.822857 252.028571,176.988571 L265.194286,193.994286 C269.034286,190.702857 272.6,187.137143 275.891429,183.571429 Z M289.605714,165.468571 L334.588571,165.468571 C329.102857,173.697143 321.971429,180.828571 312.92,186.862857 C303.045714,181.377143 294.817143,174.794286 288.234286,167.388571 C288.508571,166.84 289.057143,166.291429 289.605714,165.468571 Z M346.108571,305.354286 L346.108571,276.828571 L372.44,276.828571 L372.44,258.725714 L346.108571,258.725714 L346.108571,229.377143 L268.76,229.377143 L268.76,215.937143 L243.525714,215.937143 L243.525714,229.377143 L171.114286,229.377143 L171.114286,247.205714 L243.525714,247.205714 L243.525714,258.725714 L145.605714,258.725714 L145.605714,276.828571 L243.525714,276.828571 L243.525714,287.525714 L170.84,287.525714 L170.84,305.354286 L243.525714,305.354286 L243.525714,316.325714 L158.222857,316.325714 L158.222857,334.428571 L243.525714,334.428571 L243.525714,345.674286 L138.2,345.674286 L138.2,363.777143 L243.525714,363.777143 L243.525714,384.074286 L268.76,384.074286 L268.76,363.777143 L374.085714,363.777143 L374.085714,345.674286 L268.76,345.674286 L268.76,334.428571 L353.788571,334.428571 L353.788571,316.325714 L268.76,316.325714 L268.76,305.354286 L346.108571,305.354286 Z M268.76,247.205714 L321.697143,247.205714 L321.697143,258.725714 L268.76,258.725714 L268.76,247.205714 Z M227.891429,167.662857 L227.891429,186.314286 L171.114286,186.314286 C171.388571,182.748571 171.662857,179.182857 171.662857,175.617143 L171.662857,167.662857 L227.891429,167.662857 Z M268.76,276.828571 L321.697143,276.828571 L321.697143,287.525714 L268.76,287.525714 L268.76,276.828571 Z" id="path-1"></path>
    </defs>
    <g id="symbol" stroke="none" stroke-width="1" fill="none" fill-rule="evenodd">
        <g id="icon/tool/肇">
            <g id="icon/table/edit-list">
                <g>
                    <rect id="Rectangle-28-Copy" opacity="0" x="0" y="0" width="512" height="512"></rect>
                    <mask id="mask-2" fill="white">
                        <use xlink:href="#path-1"></use>
                    </mask>
                    <use id="Combined-Shape" fill="#9BF578" xlink:href="#path-1"></use>
                </g>
            </g>
        </g>
    </g>
</svg>