<?xml version="1.0" encoding="UTF-8"?>
<svg width="512px" height="512px" viewBox="0 0 512 512" version="1.1" xmlns="http://www.w3.org/2000/svg" xmlns:xlink="http://www.w3.org/1999/xlink">
    <!-- Generator: Sketch 51 (57462) - http://www.bohemiancoding.com/sketch -->
    <title>icon/tool/计算格位</title>
    <desc>Created with Sketch.</desc>
    <defs>
        <path d="M352,95.5 L352,32 L32,32 L32,95.5 L352,95.5 Z M352,127.5 L32,127.5 L32,416 L352,416 L352,127.5 Z M384,416 C384,433.673112 369.673112,448 352,448 L32,448 C14.326888,448 0,433.673112 0,416 L0,32 C0,14.326888 14.326888,0 32,0 L352,0 C369.673112,5.68434189e-14 384,14.326888 384,32 L384,416 Z M83,190 L113,190 C122.941125,190 131,198.058875 131,208 L131,238 C131,247.941125 122.941125,256 113,256 L83,256 C73.0588745,256 65,247.941125 65,238 L65,208 C65,198.058875 73.0588745,190 83,190 Z M89,214 L89,232 L107,232 L107,214 L89,214 Z M83,285 L113,285 C122.941125,285 131,293.058875 131,303 L131,333 C131,342.941125 122.941125,351 113,351 L83,351 C73.0588745,351 65,342.941125 65,333 L65,303 C65,293.058875 73.0588745,285 83,285 Z M89,309 L89,327 L107,327 L107,309 L89,309 Z M177,190 L207,190 C216.941125,190 225,198.058875 225,208 L225,238 C225,247.941125 216.941125,256 207,256 L177,256 C167.058875,256 159,247.941125 159,238 L159,208 C159,198.058875 167.058875,190 177,190 Z M183,214 L183,232 L201,232 L201,214 L183,214 Z M177,285 L207,285 C216.941125,285 225,293.058875 225,303 L225,333 C225,342.941125 216.941125,351 207,351 L177,351 C167.058875,351 159,342.941125 159,333 L159,303 C159,293.058875 167.058875,285 177,285 Z M183,309 L183,327 L201,327 L201,309 L183,309 Z M273,190 L303,190 C312.941125,190 321,198.058875 321,208 L321,238 C321,247.941125 312.941125,256 303,256 L273,256 C263.058875,256 255,247.941125 255,238 L255,208 C255,198.058875 263.058875,190 273,190 Z M279,214 L279,232 L297,232 L297,214 L279,214 Z M273,285 L303,285 C312.941125,285 321,293.058875 321,303 L321,333 C321,342.941125 312.941125,351 303,351 L273,351 C263.058875,351 255,342.941125 255,333 L255,303 C255,293.058875 263.058875,285 273,285 Z M279,309 L279,327 L297,327 L297,309 L279,309 Z" id="path-1"></path>
    </defs>
    <g id="symbol" stroke="none" stroke-width="1" fill="none" fill-rule="evenodd">
        <g id="icon/tool/计算格位">
            <g id="color1" transform="translate(64.000000, 33.000000)">
                <mask id="mask-2" fill="white">
                    <use xlink:href="#path-1"></use>
                </mask>
                <use id="Mask" fill="#262626" fill-rule="nonzero" xlink:href="#path-1"></use>
            </g>
        </g>
    </g>
</svg>