<?xml version="1.0" encoding="UTF-8"?>
<svg width="512px" height="512px" viewBox="0 0 512 512" version="1.1" xmlns="http://www.w3.org/2000/svg" xmlns:xlink="http://www.w3.org/1999/xlink">
    <!-- Generator: Sketch 51 (57462) - http://www.bohemiancoding.com/sketch -->
    <title>icon/tool/订单匹配</title>
    <desc>Created with Sketch.</desc>
    <defs>
        <path d="M24.9915041,445.234533 C14.3685529,452.451736 0,444.842707 0,432 L0,16 C0,7.163444 7.163444,0 16,0 L80.0698311,0 C85.5775379,0 90.6980626,2.83278582 93.6244716,7.49872244 L120.280668,50 L262.851726,50 L290.870996,7.23185162 C293.827581,2.71896858 298.859414,0 304.254552,0 L368,0 C376.836556,0 384,7.163444 384,16 L384,432 C384,444.250204 370.796268,451.956161 360.130303,445.930825 L314.120929,419.939555 L287.460137,443.900253 C281.968087,448.83609 273.811579,449.372445 267.720475,445.198292 L231.445727,420.339679 L202.146847,444.370994 C196.67149,448.861951 188.895302,449.219439 183.030993,445.249789 L145.122394,419.588818 L105.949791,445.365806 C99.8294796,449.393191 91.7556469,448.749008 86.3513628,443.802114 L61.109173,420.69629 L24.9915041,445.234533 Z M32,32 L32,401.78631 L53.5897968,387.118263 C59.7228861,382.95146 67.9152618,383.544289 73.384546,388.550682 L98.7674676,411.785326 L136.45284,386.98699 C141.853802,383.432962 148.862948,383.478738 154.217029,387.103006 L191.083242,412.058369 L220.437293,387.981802 C225.938838,383.469365 233.759303,383.132243 239.628758,387.154504 L275.429434,411.688241 L301.283527,388.452543 C306.393864,383.859759 313.86594,383.042479 319.848268,386.421971 L352,404.584886 L352,32 L312.900208,32 L284.880938,74.7681484 C281.924352,79.2810314 276.89252,82 271.497382,82 L111.429119,82 C105.921412,82 100.800888,79.1672142 97.8744787,74.5012776 L71.2182825,32 L32,32 Z M96,320.5 C87.163444,320.5 80,313.336556 80,304.5 C80,295.663444 87.163444,288.5 96,288.5 L288,288.5 C296.836556,288.5 304,295.663444 304,304.5 C304,313.336556 296.836556,320.5 288,320.5 L96,320.5 Z M157,33.5 C148.163444,33.5 141,26.336556 141,17.5 C141,8.663444 148.163444,1.5 157,1.5 L229,1.5 C237.836556,1.5 245,8.663444 245,17.5 C245,26.336556 237.836556,33.5 229,33.5 L157,33.5 Z M96,240.5 C87.163444,240.5 80,233.336556 80,224.5 C80,215.663444 87.163444,208.5 96,208.5 L289,208.5 C297.836556,208.5 305,215.663444 305,224.5 C305,233.336556 297.836556,240.5 289,240.5 L96,240.5 Z M96,160.5 C87.163444,160.5 80,153.336556 80,144.5 C80,135.663444 87.163444,128.5 96,128.5 L289,128.5 C297.836556,128.5 305,135.663444 305,144.5 C305,153.336556 297.836556,160.5 289,160.5 L96,160.5 Z" id="path-1"></path>
    </defs>
    <g id="symbol" stroke="none" stroke-width="1" fill="none" fill-rule="evenodd">
        <g id="icon/tool/订单匹配">
            <g transform="translate(65.000000, 32.000000)">
                <mask id="mask-2" fill="white">
                    <use xlink:href="#path-1"></use>
                </mask>
                <use fill="#262626" fill-rule="nonzero" xlink:href="#path-1"></use>
            </g>
        </g>
    </g>
</svg>