<?xml version="1.0" encoding="UTF-8"?>
<svg width="512px" height="512px" viewBox="0 0 512 512" version="1.1" xmlns="http://www.w3.org/2000/svg" xmlns:xlink="http://www.w3.org/1999/xlink">
    <!-- Generator: Sketch 51 (57462) - http://www.bohemiancoding.com/sketch -->
    <title>icon/tool/订单无效</title>
    <desc>Created with Sketch.</desc>
    <defs>
        <path d="M328.954505,352.327088 L368.44265,312.838943 C374.691038,306.590554 384.821678,306.590554 391.070067,312.838943 C397.318455,319.087332 397.318455,329.217971 391.070067,335.46636 L351.581922,374.954505 L391.725397,415.09798 C397.973785,421.346368 397.973785,431.477008 391.725397,437.725397 C385.477008,443.973785 375.346368,443.973785 369.09798,437.725397 L328.954505,397.581922 L288.789583,437.746843 C282.541195,443.995232 272.410555,443.995232 266.162166,437.746843 C259.913778,431.498455 259.913778,421.367815 266.162166,415.119426 L306.327088,374.954505 L266.817496,335.444913 C260.569108,329.196525 260.569108,319.065885 266.817496,312.817496 C273.065885,306.569108 283.196525,306.569108 289.444913,312.817496 L328.954505,352.327088 Z M192,416 C200.836556,416 208,423.163444 208,432 C208,440.836556 200.836556,448 192,448 L32,448 C14.326888,448 0,433.673112 0,416 L0,32 C0,14.326888 14.326888,7.10542736e-15 32,7.10542736e-15 L352,0 C369.673112,-1.42108547e-14 384,14.326888 384,32 L384,255.281866 C384,264.118422 376.836556,271.281866 368,271.281866 C359.163444,271.281866 352,264.118422 352,255.281866 L352,32 L32,32 L32,416 L192,416 Z M96,159.5 C87.163444,159.5 80,152.336556 80,143.5 C80,134.663444 87.163444,127.5 96,127.5 L289,127.5 C297.836556,127.5 305,134.663444 305,143.5 C305,152.336556 297.836556,159.5 289,159.5 L96,159.5 Z M96,239.5 C87.163444,239.5 80,232.336556 80,223.5 C80,214.663444 87.163444,207.5 96,207.5 L289,207.5 C297.836556,207.5 305,214.663444 305,223.5 C305,232.336556 297.836556,239.5 289,239.5 L96,239.5 Z M96,319.5 C87.163444,319.5 80,312.336556 80,303.5 C80,294.663444 87.163444,287.5 96,287.5 L192,287.5 C200.836556,287.5 208,294.663444 208,303.5 C208,312.336556 200.836556,319.5 192,319.5 L96,319.5 Z" id="path-1"></path>
    </defs>
    <g id="symbol" stroke="none" stroke-width="1" fill="none" fill-rule="evenodd">
        <g id="icon/tool/订单无效">
            <g transform="translate(65.000000, 33.000000)">
                <mask id="mask-2" fill="white">
                    <use xlink:href="#path-1"></use>
                </mask>
                <use id="Mask" fill="#262626" fill-rule="nonzero" xlink:href="#path-1"></use>
            </g>
        </g>
    </g>
</svg>