<?xml version="1.0" encoding="UTF-8"?>
<svg width="512px" height="512px" viewBox="0 0 512 512" version="1.1" xmlns="http://www.w3.org/2000/svg" xmlns:xlink="http://www.w3.org/1999/xlink">
    <!-- Generator: Sketch 51 (57462) - http://www.bohemiancoding.com/sketch -->
    <title>icon/tool/调拨</title>
    <desc>Created with Sketch.</desc>
    <defs>
        <path d="M167.127417,294.5 L187.813708,315.186292 C194.062097,321.43468 194.062097,331.56532 187.813708,337.813708 C181.56532,344.062097 171.43468,344.062097 165.186292,337.813708 L119.307943,291.93536 C114.909766,289.08409 112,284.131851 112,278.5 C112,269.663444 119.163444,262.5 128,262.5 L128.207832,262.5 C128.400858,262.496528 128.593934,262.496528 128.78696,262.5 L289,262.5 C297.836556,262.5 305,269.663444 305,278.5 C305,287.336556 297.836556,294.5 289,294.5 L167.127417,294.5 Z M289.250892,231.498073 C289.167415,231.499356 289.083783,231.5 289,231.5 L128,231.5 C119.163444,231.5 112,224.336556 112,215.5 C112,206.663444 119.163444,199.5 128,199.5 L250.872583,199.5 L230.183687,178.811104 C223.935299,172.562716 223.935299,162.432076 230.183687,156.183687 C236.432076,149.935299 246.562716,149.935299 252.811104,156.183687 L300.813708,204.186292 C307.062097,210.43468 307.062097,220.56532 300.813708,226.813708 C297.626158,230.001259 293.428281,231.562714 289.250892,231.498073 Z M366.682385,80.5 L328.565433,32 L88.0346542,32 L49.600798,80.5 L366.682385,80.5 Z M384,112.5 L32,112.5 L32,383 L384,383 L384,112.5 Z M84.1668799,0 L332.453097,2.84217094e-14 C339.816706,2.84217094e-14 346.772762,3.38035097 351.322883,9.16992323 L410.869786,84.9373878 C414.193307,89.1662345 416,94.3889022 416,99.7674646 L416,391 C416,404.254834 405.254834,415 392,415 L24,415 C10.745166,415 1.42108547e-14,404.254834 1.42108547e-14,391 L0,99.9250819 C-2.13162821e-14,94.5133926 1.82898375,89.2605416 5.19007893,85.0191479 L65.3569589,9.09406597 C69.9092934,3.34943749 76.8371797,0 84.1668799,0 Z" id="path-1"></path>
    </defs>
    <g id="symbol" stroke="none" stroke-width="1" fill="none" fill-rule="evenodd">
        <g id="icon/tool/调拨">
            <g id="Group" transform="translate(48.000000, 49.000000)">
                <mask id="mask-2" fill="white">
                    <use xlink:href="#path-1"></use>
                </mask>
                <use id="Combined-Shape" fill="#262626" fill-rule="nonzero" xlink:href="#path-1"></use>
            </g>
        </g>
    </g>
</svg>