<?xml version="1.0" encoding="UTF-8"?>
<svg width="512px" height="512px" viewBox="0 0 512 512" version="1.1" xmlns="http://www.w3.org/2000/svg" xmlns:xlink="http://www.w3.org/1999/xlink">
    <!-- Generator: Sketch 51 (57462) - http://www.bohemiancoding.com/sketch -->
    <title>icon/tool/账单 Bill</title>
    <desc>Created with Sketch.</desc>
    <defs>
        <path d="M176.5,191.5 L126.990132,191.5 C118.153576,191.5 110.990132,184.336556 110.990132,175.5 C110.990132,166.663444 118.153576,159.5 126.990132,159.5 L176.012218,159.5 C175.869158,159.385547 175.727508,159.268251 175.587338,159.148106 L133.587338,123.148106 C126.878125,117.397351 126.10114,107.296552 131.851894,100.587338 C137.602649,93.8781245 147.703448,93.1011399 154.412662,98.8518944 L191.497831,130.639182 L229.940446,99.5579196 C236.812017,94.0021811 246.886342,95.0688743 252.44208,101.940446 C257.997819,108.812017 256.931126,118.886342 250.059554,124.44208 L208.473143,158.065137 C208.490966,158.374484 208.5,158.686187 208.5,159 L208.5,159.5 L257.008653,159.5 C265.845209,159.5 273.008653,166.663444 273.008653,175.5 C273.008653,184.336556 265.845209,191.5 257.008653,191.5 L208.5,191.5 L208.5,223.5 L240,223.5 C248.836556,223.5 256,230.663444 256,239.5 C256,248.336556 248.836556,255.5 240,255.5 L208.5,255.5 L208.5,303.5 C208.5,312.336556 201.336556,319.5 192.5,319.5 C183.663444,319.5 176.5,312.336556 176.5,303.5 L176.5,255.5 L144,255.5 C135.163444,255.5 128,248.336556 128,239.5 C128,230.663444 135.163444,223.5 144,223.5 L176.5,223.5 L176.5,191.5 Z M104,372.746093 L26.8358022,443.77223 C16.5812279,453.211099 0,445.937308 0,432 L0,16 C0,7.163444 7.163444,0 16,0 L368,0 C376.836556,0 384,7.163444 384,16 L384,432 C384,445.937308 367.418772,453.211099 357.164198,443.77223 L280,372.746093 L202.835802,443.77223 C196.711625,449.409257 187.288375,449.409257 181.164198,443.77223 L104,372.746093 Z M32,32 L32,395.526634 L93.1641978,339.22777 C99.2883755,333.590743 108.711625,333.590743 114.835802,339.22777 L192,410.253907 L269.164198,339.22777 C275.288375,333.590743 284.711625,333.590743 290.835802,339.22777 L352,395.526634 L352,32 L32,32 Z" id="path-1"></path>
    </defs>
    <g id="symbol" stroke="none" stroke-width="1" fill="none" fill-rule="evenodd">
        <g id="icon/tool/账单-Bill">
            <rect fill="#D8D8D8" opacity="0" x="0" y="0" width="512" height="512"></rect>
            <g id="color1" transform="translate(64.000000, 32.000000)">
                <mask id="mask-2" fill="white">
                    <use xlink:href="#path-1"></use>
                </mask>
                <use id="Mask" fill="#262626" fill-rule="nonzero" xlink:href="#path-1"></use>
            </g>
        </g>
    </g>
</svg>