<?xml version="1.0" encoding="UTF-8"?>
<svg width="512px" height="512px" viewBox="0 0 512 512" version="1.1" xmlns="http://www.w3.org/2000/svg" xmlns:xlink="http://www.w3.org/1999/xlink">
    <!-- Generator: Sketch 51 (57462) - http://www.bohemiancoding.com/sketch -->
    <title>icon/tool/路由信息</title>
    <desc>Created with Sketch.</desc>
    <defs>
        <path d="M92.8555348,343.999998 C98.8736721,331.179314 111.900084,322.301587 127,322.301587 C142.099916,322.301587 155.126328,331.179314 161.144465,343.999998 L431.04541,344 C439.881966,344 447.04541,351.163444 447.04541,360 C447.04541,368.836556 439.881966,376 431.04541,376 L161.144475,376 C155.126328,388.820686 142.099916,397.698413 127,397.698413 C111.900084,397.698413 98.8736721,388.820686 92.8555348,376.000002 L79,376 C35.3695048,376 7.10542736e-15,340.630495 0,297 C-2.13162821e-14,253.369505 35.3695048,218 79,218 L253.855525,218 C259.873672,205.179314 272.900084,196.301587 288,196.301587 C303.099917,196.301587 316.126329,205.179315 322.144466,218 L336,218 C354.225397,218 369,203.225397 369,185 C369,166.774603 354.225397,152 336,152 L225.163505,152 L144,152 C108.101491,152 79,122.898509 79,87 C79,51.1014913 108.101491,22 144,22 L163.855525,22 C169.873672,9.17931433 182.900084,0.301587302 198,0.301587302 C213.099916,0.301587302 226.126328,9.17931433 232.144465,21.9999981 L320,22 C328.836556,22 336,29.163444 336,38 C336,46.836556 328.836556,54 320,54 L232.144475,54 C226.126328,66.8206857 213.099916,75.6984127 198,75.6984127 C182.900084,75.6984127 169.873672,66.8206857 163.855535,54.0000019 L144,54 C125.774603,54 111,68.7746033 111,87 C111,105.225397 125.774603,120 144,120 L159.327011,120 L336,120 C371.898509,120 401,149.101491 401,185 C401,220.898509 371.898509,250 336,250 L322.144475,250 C316.126328,262.820686 303.099916,271.698413 288,271.698413 C272.900084,271.698413 259.873672,262.820686 253.855535,250.000002 L215.327679,250 L79,250 C53.0426168,250 32,271.042617 32,297 C32,322.957383 53.0426168,344 79,344 L92.8555248,344 Z" id="path-1"></path>
    </defs>
    <g id="symbol" stroke="none" stroke-width="1" fill="none" fill-rule="evenodd">
        <g id="icon/tool/路由信息">
            <g id="color1" transform="translate(33.000000, 51.000000)">
                <mask id="mask-2" fill="white">
                    <use xlink:href="#path-1"></use>
                </mask>
                <use id="路由信息" fill="#262626" fill-rule="nonzero" xlink:href="#path-1"></use>
            </g>
        </g>
    </g>
</svg>