<?xml version="1.0" encoding="UTF-8"?>
<svg width="512px" height="512px" viewBox="0 0 512 512" version="1.1" xmlns="http://www.w3.org/2000/svg" xmlns:xlink="http://www.w3.org/1999/xlink">
    <!-- Generator: Sketch 51 (57462) - http://www.bohemiancoding.com/sketch -->
    <title>icon/tool/重新回传</title>
    <desc>Created with Sketch.</desc>
    <defs>
        <path d="M67.2028436,116.749345 L76.4754469,113.107467 C84.7003656,109.877075 93.98673,113.925939 97.2171223,122.150857 C100.447515,130.375776 96.3986512,139.66214 88.1737325,142.892533 L41.8491428,161.086828 C34.7597395,163.871239 26.8817414,161.24757 22.7729631,155.203032 C21.9511544,154.123651 21.2541732,152.921235 20.7118172,151.608162 L1.71181718,105.608162 C-1.66162781,97.4408746 2.22454968,88.0852622 10.3918375,84.7118172 C18.5591254,81.3383722 27.9147378,85.2245497 31.2881828,93.3918375 L36.4337541,105.849537 C74.6582804,41.3659462 144.564016,0.0413021431 222.130128,0.0413021431 C341.331282,0.0413021431 437.958698,96.7316289 437.958698,216 C437.958698,335.268371 341.331282,431.958698 222.130128,431.958698 C109.887213,431.958698 16.6361191,345.885276 7.09967269,234.691745 C6.3465319,225.910237 12.8548097,218.180877 21.636318,217.427736 C30.4178263,216.674595 38.1471865,223.182873 38.9003273,231.964381 C47.0241047,326.686404 126.496076,400.041302 222.130128,400.041302 C323.699139,400.041302 406.041302,317.645529 406.041302,216 C406.041302,114.354471 323.699139,31.9586979 222.130128,31.9586979 C158.215992,31.9586979 100.404842,64.8859784 67.2028436,116.749345 Z M326,164 C334.836556,164 342,171.163444 342,180 L342,286 C342,294.836556 334.836556,302 326,302 L136,302 C127.163444,302 120,294.836556 120,286 L120,146 C120,137.163444 127.163444,130 136,130 L215.223736,130 C221.605363,130 227.376739,133.792228 229.909568,139.649698 L240.438884,164 L326,164 Z M152,270 L310,270 L310,196 L229.925679,196 C223.544051,196 217.772676,192.207772 215.239847,186.350302 L204.71053,162 L152,162 L152,270 Z" id="path-1"></path>
    </defs>
    <g id="symbol" stroke="none" stroke-width="1" fill="none" fill-rule="evenodd">
        <g id="icon/tool/重新回传">
            <g transform="translate(34.000000, 40.000000)">
                <mask id="mask-2" fill="white">
                    <use xlink:href="#path-1"></use>
                </mask>
                <use id="Mask" fill="#262626" fill-rule="nonzero" xlink:href="#path-1"></use>
            </g>
        </g>
    </g>
</svg>