<?xml version="1.0" encoding="UTF-8"?>
<svg width="512px" height="512px" viewBox="0 0 512 512" version="1.1" xmlns="http://www.w3.org/2000/svg" xmlns:xlink="http://www.w3.org/1999/xlink">
    <!-- Generator: Sketch 51 (57462) - http://www.bohemiancoding.com/sketch -->
    <title>icon/tool/顺</title>
    <desc>Created with Sketch.</desc>
    <defs>
        <path d="M256,448 C149.961328,448 64,362.038672 64,256 C64,149.961328 149.961328,64 256,64 C362.038672,64 448,149.961328 448,256 C448,362.038672 362.038672,448 256,448 Z M178.52,150.108571 L178.52,352.257143 L201.56,352.257143 L201.56,150.108571 L178.52,150.108571 Z M216.92,133.377143 L216.92,377.765714 L240.508571,377.765714 L240.508571,133.377143 L216.92,133.377143 Z M140.12,133.377143 L140.12,268.874286 C140.12,312.76 136.554286,344.577143 129.971429,364.6 L150.817143,382.702857 C159.594286,358.565714 164.257143,320.714286 164.531429,268.874286 L164.531429,133.377143 L140.12,133.377143 Z M248.737143,139.137143 L248.737143,163.548571 L299.48,163.548571 C298.657143,172.051429 297.56,180.28 296.462857,188.234286 L255.594286,188.234286 L255.594286,320.988571 L281.102857,320.988571 L281.102857,212.097143 L347.205714,212.097143 L347.205714,320.988571 L372.714286,320.988571 L372.714286,188.234286 L323.617143,188.234286 C324.714286,180.554286 325.537143,172.325714 326.36,163.548571 L380.942857,163.548571 L380.942857,139.137143 L248.737143,139.137143 Z M300.577143,225.811429 L300.577143,273.811429 C299.754286,296.302857 295.64,314.405714 288.234286,328.12 C280.554286,341.011429 266.565714,351.708571 245.994286,360.211429 L260.257143,382.977143 C282.748571,373.925714 299.205714,361.308571 309.08,344.851429 C319.502857,327.297143 324.988571,303.434286 325.811429,273.811429 L325.811429,225.811429 L300.577143,225.811429 Z M337.331429,320.165714 L319.777143,337.171429 C338.154286,353.628571 352.417143,368.714286 362.84,382.702857 L381.765714,363.777143 C369.697143,349.24 354.885714,334.702857 337.331429,320.165714 Z" id="path-1"></path>
    </defs>
    <g id="symbol" stroke="none" stroke-width="1" fill="none" fill-rule="evenodd">
        <g id="icon/tool/顺">
            <g id="icon/table/edit-list">
                <g>
                    <rect id="Rectangle-28-Copy" opacity="0" x="0" y="0" width="512" height="512"></rect>
                    <mask id="mask-2" fill="white">
                        <use xlink:href="#path-1"></use>
                    </mask>
                    <use id="Combined-Shape" fill="#9BF578" xlink:href="#path-1"></use>
                </g>
            </g>
        </g>
    </g>
</svg>