<?xml version="1.0" encoding="UTF-8"?>
<svg width="512px" height="512px" viewBox="0 0 512 512" version="1.1" xmlns="http://www.w3.org/2000/svg" xmlns:xlink="http://www.w3.org/1999/xlink">
    <!-- Generator: Sketch 52.4 (67378) - http://www.bohemiancoding.com/sketch -->
    <title>icon/table/Associated roles</title>
    <desc>Created with Sketch.</desc>
    <defs>
        <circle id="path-1" cx="192" cy="192" r="192"></circle>
    </defs>
    <g id="symbol" stroke="none" stroke-width="1" fill="none" fill-rule="evenodd">
        <g id="icon/table/Associated-roles">
            <g>
                <rect fill="#F5A623" fill-rule="nonzero" opacity="0" x="0" y="0" width="512" height="512"></rect>
                <g id="Group" transform="translate(64.000000, 64.000000)">
                    <mask id="mask-2" fill="white">
                        <use xlink:href="#path-1"></use>
                    </mask>
                    <use id="icon/table/Associated-roles" fill="#908FFF" fill-rule="nonzero" xlink:href="#path-1"></use>
                </g>
                <path d="M252.058561,169 C255.455078,169 258.921868,169.359184 262.341809,170.032653 C280.706426,173.714286 295.533981,188.889796 298.344891,206.893878 C301.226075,225.302041 292.629373,242.7 275.904454,252.285714 C271.664663,254.710204 269.205116,259.222449 269.533056,263.959184 C269.88442,268.695918 272.952997,272.826531 277.520727,274.667347 C304.646016,285.644898 324.041301,312.606122 328,345 L176,345 C180.075821,312.606122 199.447681,285.644898 226.57297,274.667347 C231.117275,272.826531 234.209277,268.673469 234.560641,263.959184 C234.912005,259.222449 232.452458,254.732653 228.189243,252.285714 C213.80675,244.046939 205.210048,229.702041 205.210048,213.897959 C205.210048,189.136735 226.221606,169 252.058561,169 Z M252.011691,156 C218.950902,156 192.156233,181.708259 192.156233,213.428571 C192.156233,234.40346 203.987038,252.551786 221.499436,262.579353 C190.75337,275.052121 167.76981,305.673214 163.093602,342.934487 C162.158361,350.404687 168.354336,357 176.186983,357 L327.813017,357 C335.645664,357 341.841639,350.404688 340.906398,342.934487 C336.23019,305.673214 313.270011,275.029688 282.523945,262.579353 C302.44459,251.160937 315.023589,229.221429 311.165717,204.567522 C307.541656,181.439063 288.836826,162.101786 264.964786,157.301116 C260.569151,156.426228 256.243658,156 252.011691,156 Z" fill="#FFFFFF" fill-rule="nonzero"></path>
            </g>
        </g>
    </g>
</svg>