<?xml version="1.0" encoding="UTF-8"?>
<svg width="512px" height="512px" viewBox="0 0 512 512" version="1.1" xmlns="http://www.w3.org/2000/svg" xmlns:xlink="http://www.w3.org/1999/xlink">
    <!-- Generator: Sketch 52.4 (67378) - http://www.bohemiancoding.com/sketch -->
    <title>icon/table/Associated users</title>
    <desc>Created with Sketch.</desc>
    <g id="symbol" stroke="none" stroke-width="1" fill="none" fill-rule="evenodd">
        <g id="icon/table/Associated-users" fill-rule="nonzero">
            <g>
                <rect fill="#F5A623" opacity="0" x="0" y="0" width="512" height="512"></rect>
                <circle fill="#4BB4F4" cx="256" cy="256" r="192"></circle>
                <path d="M307.072639,247.546257 C307.684838,247.272048 308.34088,247.070659 309.031242,246.954357 C318.644065,245.19869 326.264545,237.871146 328.369718,228.359262 C330.474891,218.847379 326.65458,209.004478 318.674922,203.380954 C313.448594,199.710712 306.96955,198.26928 300.673387,199.376046 C296.439431,199.887456 292.542061,197.01332 291.794543,192.828294 C291.047025,188.643269 293.709742,184.605126 297.860647,183.628747 C308.365554,181.741485 319.190654,184.142954 327.900708,190.292914 C341.194991,199.638323 347.559965,216.025471 344.04465,231.856816 C341.957331,241.257127 336.62884,249.370058 329.292644,255.013414 C348.225788,265.741106 361.006046,286.15485 360.999998,309.56332 L360.999998,320.974946 C360.999998,323.103323 360.159449,325.144527 358.663262,326.649516 C357.167074,328.154506 355.137809,329 353.021881,329 C350.905953,329 348.876688,328.154506 347.3805,326.649516 C345.884313,325.144527 345.043764,323.103323 345.043764,320.974946 L345.043764,309.56332 C345.061482,283.936289 324.455143,263.129743 298.978117,263.050108 C294.571925,263.050108 291,259.457169 291,255.025054 C291,250.592939 294.571925,247 298.978117,247 C301.7218,247.007082 304.423598,247.192823 307.072639,247.546257 Z M236.641915,252.641636 C256.513232,250.309568 272,233.195108 272,212.5 C272,190.218536 254.048,172.087699 232,172.087699 C209.952,172.087699 192,190.218536 192,212.5 C192,233.277883 207.610902,250.446417 227.596735,252.668909 C229.174169,252.576198 230.763694,252.529189 232.363993,252.529189 C233.798945,252.529189 235.225233,252.566986 236.641915,252.641636 Z M263.873438,258.963331 C292.570101,271.238705 312.727986,299.750205 312.727986,332.883669 L312.727986,347.990183 C312.727986,350.114519 311.881296,352.151847 310.374179,353.653979 C308.867062,355.156111 306.822972,356 304.691587,356 C300.253206,356 296.655187,352.413883 296.655187,347.990183 L296.655187,332.883669 C296.655187,299.08953 270.500826,271.311048 237.380771,268.742613 C235.609938,268.912899 233.815053,269 232,269 C230.300266,269 228.61822,268.923616 226.957051,268.774062 C194.021989,271.529482 168.072799,299.222342 168.072799,332.883669 L168.072799,347.990183 C168.072799,352.413883 164.47478,356 160.036399,356 C155.598019,356 152,352.413883 152,347.990183 L152,332.883669 C152,299.923357 171.947751,271.536826 200.405354,259.157108 C185.669179,248.980575 176,231.881883 176,212.5 C176,181.289863 201.072,156 232,156 C262.928,156 288,181.289863 288,212.5 C288,231.759389 278.452654,248.764355 263.873438,258.963331 Z" fill="#FFFFFF"></path>
            </g>
        </g>
    </g>
</svg>