<?xml version="1.0" encoding="UTF-8"?>
<svg width="512px" height="512px" viewBox="0 0 512 512" version="1.1" xmlns="http://www.w3.org/2000/svg" xmlns:xlink="http://www.w3.org/1999/xlink">
    <!-- Generator: Sketch 52.2 (67145) - http://www.bohemiancoding.com/sketch -->
    <title>edit cancelOrder</title>
    <desc>Created with Sketch.</desc>
    <defs>
        <path d="M192,384 C85.961328,384 0,298.038672 0,192 C0,85.961328 85.961328,0 192,0 C298.038672,0 384,85.961328 384,192 C384,298.038672 298.038672,384 192,384 Z M249.152543,257.466252 L223.696699,282.922096 C220.572505,286.04629 220.572505,291.11161 223.696699,294.235804 C226.820893,297.359999 231.886213,297.359999 235.010408,294.235804 L260.466252,268.77996 L285.922096,294.235804 C289.04629,297.359999 294.11161,297.359999 297.235804,294.235804 C300.359999,291.11161 300.359999,286.04629 297.235804,282.922096 L271.77996,257.466252 L297.235804,232.010408 C300.359999,228.886213 300.359999,223.820893 297.235804,220.696699 C294.11161,217.572505 289.04629,217.572505 285.922096,220.696699 L260.466252,246.152543 L235.010408,220.696699 C231.886213,217.572505 226.820893,217.572505 223.696699,220.696699 C220.572505,223.820893 220.572505,228.886213 223.696699,232.010408 L249.152543,257.466252 Z M120,280 L120,112 L264,112 L264,188.306591 C264,192.724869 267.581722,196.306591 272,196.306591 C276.418278,196.306591 280,192.724869 280,188.306591 L280,104 C280,99.581722 276.418278,96 272,96 L112,96 C107.581722,96 104,99.581722 104,104 L104,288 C104,292.418278 107.581722,296 112,296 L191,296 C195.418278,296 199,292.418278 199,288 C199,283.581722 195.418278,280 191,280 L120,280 Z M152,149.5 L232,149.5 C236.418278,149.5 240,145.918278 240,141.5 C240,137.081722 236.418278,133.5 232,133.5 L152,133.5 C147.581722,133.5 144,137.081722 144,141.5 C144,145.918278 147.581722,149.5 152,149.5 Z M152,189.5 L232,189.5 C236.418278,189.5 240,185.918278 240,181.5 C240,177.081722 236.418278,173.5 232,173.5 L152,173.5 C147.581722,173.5 144,177.081722 144,181.5 C144,185.918278 147.581722,189.5 152,189.5 Z M152,229.5 L191,229.5 C195.418278,229.5 199,225.918278 199,221.5 C199,217.081722 195.418278,213.5 191,213.5 L152,213.5 C147.581722,213.5 144,217.081722 144,221.5 C144,225.918278 147.581722,229.5 152,229.5 Z" id="path-1"></path>
    </defs>
    <g id="Page-1" stroke="none" stroke-width="1" fill="none" fill-rule="evenodd">
        <g id="edit-取消订单">
            <g id="合并形状" transform="translate(64.000000, 64.000000)">
                <mask id="mask-2" fill="white">
                    <use xlink:href="#path-1"></use>
                </mask>
                <use fill="#FF8D1A" xlink:href="#path-1"></use>
            </g>
        </g>
    </g>
</svg>