<?xml version="1.0" encoding="UTF-8"?>
<svg width="512px" height="512px" viewBox="0 0 512 512" version="1.1" xmlns="http://www.w3.org/2000/svg" xmlns:xlink="http://www.w3.org/1999/xlink">
    <!-- Generator: Sketch 52.4 (67378) - http://www.bohemiancoding.com/sketch -->
    <title>icon/table/delete</title>
    <desc>Created with Sketch.</desc>
    <defs>
        <path d="M219,185 L186,185 C177.163444,185 170,192.163444 170,201 L170,210 C170,218.836556 177.163444,226 186,226 L194,226 L194,333 C194,346.254834 204.745166,357 218,357 L294,357 C307.254834,357 318,346.254834 318,333 L318,226 L327,226 C335.836556,226 343,218.836556 343,210 L343,201 C343,192.163444 335.836556,185 327,185 L293,185 L293,173 C293,165.268014 286.731986,159 279,159 L233,159 C225.268014,159 219,165.268014 219,173 L219,185 Z M210,226 L302,226 L302,333 C302,337.418278 298.418278,341 294,341 L218,341 C213.581722,341 210,337.418278 210,333 L210,226 Z M256,448 C149.961328,448 64,362.038672 64,256 C64,149.961328 149.961328,64 256,64 C362.038672,64 448,149.961328 448,256 C448,362.038672 362.038672,448 256,448 Z M218.5,251 L218.5,316 C218.5,320.418278 222.081722,324 226.5,324 C230.918278,324 234.5,320.418278 234.5,316 L234.5,251 C234.5,246.581722 230.918278,243 226.5,243 C222.081722,243 218.5,246.581722 218.5,251 Z M248.5,251 L248.5,316 C248.5,320.418278 252.081722,324 256.5,324 C260.918278,324 264.5,320.418278 264.5,316 L264.5,251 C264.5,246.581722 260.918278,243 256.5,243 C252.081722,243 248.5,246.581722 248.5,251 Z M276.5,251 L276.5,316 C276.5,320.418278 280.081722,324 284.5,324 C288.918278,324 292.5,320.418278 292.5,316 L292.5,251 C292.5,246.581722 288.918278,243 284.5,243 C280.081722,243 276.5,246.581722 276.5,251 Z M186,203 C186,201.895431 186.895431,201 188,201 L325,201 C326.104569,201 327,201.895431 327,203 L327,208 C327,209.104569 326.104569,210 325,210 L188,210 C186.895431,210 186,209.104569 186,208 L186,203 Z M235,177 C235,175.895431 235.895431,175 237,175 L275,175 C276.104569,175 277,175.895431 277,177 L277,183 C277,184.104569 276.104569,185 275,185 L237,185 C235.895431,185 235,184.104569 235,183 L235,177 Z" id="path-1"></path>
    </defs>
    <g id="symbol" stroke="none" stroke-width="1" fill="none" fill-rule="evenodd">
        <g id="icon/table/delete">
            <mask id="mask-2" fill="white">
                <use xlink:href="#path-1"></use>
            </mask>
            <use fill="#F5222D" xlink:href="#path-1"></use>
        </g>
    </g>
</svg>