<?xml version="1.0" encoding="UTF-8"?>
<svg width="512px" height="512px" viewBox="0 0 512 512" version="1.1" xmlns="http://www.w3.org/2000/svg" xmlns:xlink="http://www.w3.org/1999/xlink">
    <!-- Generator: Sketch 52.4 (67378) - http://www.bohemiancoding.com/sketch -->
    <title>icon/table/edit list</title>
    <desc>Created with Sketch.</desc>
    <g id="symbol" stroke="none" stroke-width="1" fill="none" fill-rule="evenodd">
        <g id="icon/table/edit-list">
            <g>
                <rect id="Rectangle-28-Copy" fill="#FFFFFF" opacity="0" x="0" y="0" width="512" height="512"></rect>
                <path d="M256,448 C149.961328,448 64,362.038672 64,256 C64,149.961328 149.961328,64 256,64 C362.038672,64 448,149.961328 448,256 C448,362.038672 362.038672,448 256,448 Z M168.186047,300 L168,336.202532 C168,338.244726 168.744186,340.28692 170.232558,341.772152 C171.72093,343.257384 173.581395,344 175.627907,344 L211.72093,343.814346 C213.767442,343.814346 215.627907,343.07173 217.116279,341.586498 L341.767442,217.198312 C344.744186,214.227848 344.744186,209.400844 341.767442,206.244726 L306.046512,170.227848 C303.069767,167.257384 298.232558,167.257384 295.069767,170.227848 L270.139535,195.291139 L170.418605,294.616034 C169.116279,296.101266 168.186047,297.957806 168.186047,300 Z M300.651163,186.565401 L325.767442,211.628692 L311.627907,225.738397 L286.511628,200.675105 L300.651163,186.565401 Z M183.627907,303.341772 L275.534884,211.628692 L300.651163,236.691983 L208.744186,328.219409 L183.44186,328.405063 L183.627907,303.341772 Z" id="Combined-Shape" fill="#bfbfbf"></path>
            </g>
        </g>
    </g>
</svg>