<?xml version="1.0" encoding="UTF-8"?>
<svg width="512px" height="512px" viewBox="0 0 512 512" version="1.1" xmlns="http://www.w3.org/2000/svg" xmlns:xlink="http://www.w3.org/1999/xlink">
    <!-- Generator: Sketch 52.4 (67378) - http://www.bohemiancoding.com/sketch -->
    <title>icon/table/edit download</title>
    <desc>Created with Sketch.</desc>
    <defs>
        <circle id="path-1" cx="192" cy="192" r="192"></circle>
        <path d="M241.691799,159.496986 L267.170877,159.496986 L268.136552,159.560312 C278.401679,160.912595 284.280894,167.567079 283.330259,176.484239 C282.66421,182.731913 278.587102,189.359665 272.698911,194.519444 L209.291261,245.171515 C199.051962,254.99087 183.617912,255.003626 173.365117,245.209784 L108.120832,194.583122 L107.468647,194.011699 C96.8568775,183.531447 98.7853489,166.412067 111.239095,160.259169 C112.253602,159.757942 113.37238,159.496986 114.506752,159.496986 L142.794333,159.496986 L142.794333,129.709577 C142.794333,115.549693 154.490642,104 168.830438,104 L215.655694,104 C229.99549,104 241.691799,115.549693 241.691799,129.709577 L241.691799,159.496986 Z M234.388134,173.923278 C230.354431,173.923278 227.084469,170.693843 227.084469,166.710132 L227.084469,129.709577 C227.084469,123.517577 221.928554,118.426293 215.655694,118.426293 L168.830438,118.426293 C162.557578,118.426293 157.401663,123.517577 157.401663,129.709577 L157.401663,166.710132 C157.401663,170.693843 154.131701,173.923278 150.097998,173.923278 L116.69614,173.923278 C114.56125,175.992123 114.468249,180.279464 117.534934,183.541604 L182.706996,234.112225 L183.357838,234.682322 C188.000421,239.264984 194.615973,239.264984 199.258555,234.682322 L199.828519,234.175903 L263.25283,183.520612 C266.376006,180.778228 268.563516,177.222208 268.803224,174.973699 C268.883883,174.217103 268.930435,174.216446 266.688444,173.923278 L234.388134,173.923278 Z M106.303665,280 C102.269962,280 99,276.770564 99,272.786854 C99,268.803143 102.269962,265.573707 106.303665,265.573707 L277.696335,265.573707 C281.730038,265.573707 285,268.803143 285,272.786854 C285,276.770564 281.730038,280 277.696335,280 L106.303665,280 Z" id="path-3"></path>
    </defs>
    <g id="symbol" stroke="none" stroke-width="1" fill="none" fill-rule="evenodd">
        <g id="icon/table/edit-下载">
            <g id="icon/table/edit-download">
                <g id="color1" transform="translate(64.000000, 64.000000)">
                    <mask id="mask-2" fill="white">
                        <use xlink:href="#path-1"></use>
                    </mask>
                    <use id="Mask" fill="#52C41A" xlink:href="#path-1"></use>
                    <mask id="mask-4" fill="white">
                        <use xlink:href="#path-3"></use>
                    </mask>
                    <use id="edit-download" fill="#FFFFFF" fill-rule="nonzero" xlink:href="#path-3"></use>
                </g>
            </g>
        </g>
    </g>
</svg>