<?xml version="1.0" encoding="UTF-8"?>
<svg width="512px" height="512px" viewBox="0 0 512 512" version="1.1" xmlns="http://www.w3.org/2000/svg" xmlns:xlink="http://www.w3.org/1999/xlink">
    <!-- Generator: Sketch 52.2 (67145) - http://www.bohemiancoding.com/sketch -->
    <title>edit moveUp</title>
    <desc>Created with Sketch.</desc>
    <defs>
        <path d="M192,384 C85.961328,384 0,298.038672 0,192 C0,85.961328 85.961328,0 192,0 C298.038672,0 384,85.961328 384,192 C384,298.038672 298.038672,384 192,384 Z M184,130.539105 L184,273.225397 C184,277.643675 187.581722,281.225397 192,281.225397 C196.418278,281.225397 200,277.643675 200,273.225397 L200,131 L254.539105,185.539105 C257.6633,188.6633 262.728619,188.6633 265.852814,185.539105 C268.977008,182.414911 268.977008,177.349591 265.852814,174.225397 L197.970563,106.343146 C196.269987,104.64257 193.994277,103.86766 191.769553,104.018414 C189.544828,103.86766 187.269118,104.64257 185.568542,106.343146 L117.686292,174.225397 C114.562097,177.349591 114.562097,182.414911 117.686292,185.539105 C120.810486,188.6633 125.875806,188.6633 129,185.539105 L184,130.539105 Z" id="path-1"></path>
    </defs>
    <g id="Page-1" stroke="none" stroke-width="1" fill="none" fill-rule="evenodd">
        <g id="edit-上移">
            <g id="icon/table/edit-moveUp">
                <g id="icon/table/edit-list" transform="translate(64.000000, 64.000000)">
                    <mask id="mask-2" fill="white">
                        <use xlink:href="#path-1"></use>
                    </mask>
                    <use id="合并形状" fill="#F08519" xlink:href="#path-1"></use>
                </g>
            </g>
        </g>
    </g>
</svg>