<?xml version="1.0" encoding="UTF-8"?>
<svg width="512px" height="512px" viewBox="0 0 512 512" version="1.1" xmlns="http://www.w3.org/2000/svg" xmlns:xlink="http://www.w3.org/1999/xlink">
    <!-- Generator: Sketch 52.2 (67145) - http://www.bohemiancoding.com/sketch -->
    <title>edit pickType</title>
    <desc>Created with Sketch.</desc>
    <defs>
        <path d="M192,384 C85.961328,384 0,298.038672 0,192 C0,85.961328 85.961328,0 192,0 C298.038672,0 384,85.961328 384,192 C384,298.038672 298.038672,384 192,384 Z M164,164 L139,164 C125.192881,164 114,152.807119 114,139 C114,125.192881 125.192881,114 139,114 C152.807119,114 164,125.192881 164,139 L164,164 Z M139,98 C116.356325,98 98,116.356325 98,139 C98,161.643675 116.356325,180 139,180 L180,180 L180,139 C180,116.356325 161.643675,98 139,98 Z M164,220 L164,245 C164,258.807119 152.807119,270 139,270 C125.192881,270 114,258.807119 114,245 C114,231.192881 125.192881,220 139,220 L164,220 Z M139,204 C116.356325,204 98,222.356325 98,245 C98,267.643675 116.356325,286 139,286 C161.643675,286 180,267.643675 180,245 L180,204 L139,204 Z M245,98 C222.356325,98 204,116.356325 204,139 L204,180 L245,180 C267.643675,180 286,161.643675 286,139 C286,116.356325 267.643675,98 245,98 Z M220,220 L245,220 C258.807119,220 270,231.192881 270,245 C270,258.807119 258.807119,270 245,270 C231.192881,270 220,258.807119 220,245 L220,220 Z M204,204 L204,245 C204,267.643675 222.356325,286 245,286 C267.643675,286 286,267.643675 286,245 C286,222.356325 267.643675,204 245,204 L204,204 Z" id="path-1"></path>
    </defs>
    <g id="Page-1" stroke="none" stroke-width="1" fill="none" fill-rule="evenodd">
        <g id="edit-拣货类型">
            <g id="合并形状" transform="translate(64.000000, 64.000000)">
                <mask id="mask-2" fill="white">
                    <use xlink:href="#path-1"></use>
                </mask>
                <use fill="#1890FF" xlink:href="#path-1"></use>
            </g>
        </g>
    </g>
</svg>