<?xml version="1.0" encoding="UTF-8"?>
<svg width="512px" height="512px" viewBox="0 0 512 512" version="1.1" xmlns="http://www.w3.org/2000/svg" xmlns:xlink="http://www.w3.org/1999/xlink">
    <!-- Generator: Sketch 52.4 (67378) - http://www.bohemiancoding.com/sketch -->
    <title>icon/table/Related permissions</title>
    <desc>Created with Sketch.</desc>
    <defs>
        <circle id="path-1" cx="192" cy="192" r="192"></circle>
    </defs>
    <g id="symbol" stroke="none" stroke-width="1" fill="none" fill-rule="evenodd">
        <g id="icon/table/Related-permissions">
            <g>
                <rect fill="#F5A623" fill-rule="nonzero" opacity="0" x="0" y="0" width="512" height="512"></rect>
                <g id="Group" transform="translate(64.000000, 64.000000)">
                    <mask id="mask-2" fill="white">
                        <use xlink:href="#path-1"></use>
                    </mask>
                    <use id="icon/table/Associated-roles" fill="#F9A23C" fill-rule="nonzero" xlink:href="#path-1"></use>
                </g>
                <path d="M306.615385,230.444444 L302.75,230.444444 L302.75,200.666667 C302.75,176.1 281.876923,156 256.365385,156 L248.634615,156 C223.123077,156 202.25,176.1 202.25,200.666667 C202.25,203.169277 202.25,230.444444 202.25,237.137118 C202.25,243.486225 208.327711,237.137118 209.980769,237.137118 C211.944655,237.137118 216.344115,244.974054 217.711538,237.137118 C219.304663,228.006648 217.711538,202.869962 217.711538,200.666667 C217.711538,184.288889 231.626923,170.888889 248.634615,170.888889 L256.365385,170.888889 C273.373077,170.888889 287.288462,184.288889 287.288462,200.666667 L287.288462,230.444444 L198.384615,230.444444 C172.873077,230.444444 152,250.544444 152,275.111111 L152,312.333333 C152,336.9 172.873077,357 198.384615,357 L306.615385,357 C332.126923,357 353,336.9 353,312.333333 L353,275.111111 C353,250.544444 332.126923,230.444444 306.615385,230.444444 Z M338,312.461538 C338,328.707692 324.090909,342 307.090909,342 L198.909091,342 C181.909091,342 168,328.707692 168,312.461538 L168,275.538462 C168,259.292308 181.909091,246 198.909091,246 L307.090909,246 C324.090909,246 338,259.292308 338,275.538462 L338,312.461538 Z M252.5,268 C243.975,268 237,274.685714 237,282.857143 C237,288.428571 240.1,293.257143 244.75,295.857143 L244.75,312.571429 C244.75,316.657143 248.2375,320 252.5,320 C256.7625,320 260.25,316.657143 260.25,312.571429 L260.25,295.857143 C264.9,293.257143 268,288.428571 268,282.857143 C268,274.685714 261.025,268 252.5,268 Z" fill="#FFFFFF" fill-rule="nonzero"></path>
            </g>
        </g>
    </g>
</svg>