<?xml version="1.0" encoding="UTF-8"?>
<svg width="512px" height="512px" viewBox="0 0 512 512" version="1.1" xmlns="http://www.w3.org/2000/svg" xmlns:xlink="http://www.w3.org/1999/xlink">
    <!-- Generator: Sketch 52.4 (67378) - http://www.bohemiancoding.com/sketch -->
    <title>icon/table/ roles already Associated</title>
    <desc>Created with Sketch.</desc>
    <defs>
        <circle id="path-1" cx="256" cy="256" r="192"></circle>
    </defs>
    <g id="symbol" stroke="none" stroke-width="1" fill="none" fill-rule="evenodd">
        <g id="icon/table/-roles-already-Associated">
            <g>
                <g>
                    <rect id="Rectangle-28" fill="#FFFFFF" opacity="0" x="0" y="0" width="512" height="512"></rect>
                    <mask id="mask-2" fill="white">
                        <use xlink:href="#path-1"></use>
                    </mask>
                    <use id="Oval-2" fill="#6665FA" xlink:href="#path-1"></use>
                </g>
                <g transform="translate(170.666667, 149.333333)" fill="#FFFFFF" fill-rule="nonzero">
                    <path d="M124.605369,106.666667 L103.111356,106.666667 C102.532994,105.414793 102.173384,104.057129 102.068202,102.642857 C101.754353,98.1214286 104.108219,93.8142857 108.165837,91.5 C124.172128,82.35 132.399451,65.7428571 129.642065,48.1714286 C126.951932,30.9857143 112.76148,16.5 95.1859452,12.9857143 C91.9129501,12.3428571 88.5951195,12 85.3445422,12 C60.617737,12 40.5089932,31.2214286 40.5089932,54.8571429 C40.5089932,69.9428571 48.7363165,83.6357143 62.50083,91.5 C66.580865,93.8357143 68.9347313,98.1214286 68.5984647,102.642857 C68.2621981,107.142857 65.3030518,111.107143 60.9540036,112.864286 C34.9942207,123.342857 16.4547212,149.078571 12.5540284,180 L85.3333333,180 L85.3333333,192 L12.6436995,192 C5.13374508,192 -0.806965164,185.7 0.0897458158,178.564286 C4.57330071,142.971429 26.609973,113.721429 56.0893465,101.807143 C39.2984334,92.2285714 27.9550395,74.8928571 27.9550395,54.8571429 C27.9550395,24.5571429 53.6458091,9.9475983e-14 85.3445422,9.9475983e-14 C89.4021594,7.81597009e-14 93.5494477,0.407142857 97.7639893,1.24285714 C120.652537,5.82857143 138.586757,24.3 142.061512,46.3928571 C145.760444,69.9428571 133.699682,90.9 114.599738,101.807143 C118.042081,103.195887 121.382634,104.821597 124.605369,106.666667 Z M167.887532,113.900989 L191.396865,147.337434 L106.063532,147.337434 L106.063532,133.115212 L164.004865,133.115212 L156.239532,122.092989 L167.887532,113.900989 Z M124.211087,194.057434 L108.09731,161.559656 L191.396865,161.559656 L191.396865,175.781878 L131.037754,175.781878 L136.968421,187.742767 L124.211087,194.057434 Z"></path>
                </g>
            </g>
        </g>
    </g>
</svg>