<?xml version="1.0" encoding="UTF-8"?>
<svg width="512px" height="512px" viewBox="0 0 512 512" version="1.1" xmlns="http://www.w3.org/2000/svg" xmlns:xlink="http://www.w3.org/1999/xlink">
    <!-- Generator: Sketch 52.4 (67378) - http://www.bohemiancoding.com/sketch -->
    <title>icon/table/see list</title>
    <desc>Created with Sketch.</desc>
    <g id="symbol" stroke="none" stroke-width="1" fill="none" fill-rule="evenodd">
        <g id="icon/table/see-list">
            <g id="see-list">
                <rect id="Rectangle-28" fill="#FFFFFF" opacity="0" x="0" y="0" width="512" height="512"></rect>
                <path d="M256,448 C149.961328,448 64,362.038672 64,256 C64,149.961328 149.961328,64 256,64 C362.038672,64 448,149.961328 448,256 C448,362.038672 362.038672,448 256,448 Z M256,192 C201.347079,192 148.426117,247.589744 146.309278,250.051282 C144.769759,251.692308 144,253.74359 144,256 C144,258.25641 144.769759,260.307692 146.309278,261.948718 C148.618557,264.410256 201.347079,320 256,320 C310.652921,320 363.573883,264.410256 365.690722,261.948718 C367.230241,260.307692 368,258.25641 368,256 C368,253.74359 367.230241,251.692308 365.690722,250.051282 C363.573883,247.589744 310.845361,192 256,192 Z M256,302.974359 C217.704467,302.974359 178.254296,269.74359 163.436426,255.794872 C178.254296,241.846154 217.704467,208.615385 256,208.615385 C294.295533,208.615385 333.745704,241.846154 348.563574,255.794872 C333.745704,269.74359 294.295533,302.974359 256,302.974359 Z M227.71134,255.794872 C227.71134,272.410256 240.412371,286.153846 256.19244,286.153846 C271.972509,286.153846 284.67354,272.615385 284.67354,255.794872 C284.67354,238.974359 271.972509,225.435897 256.19244,225.435897 C240.412371,225.435897 227.71134,239.179487 227.71134,255.794872 Z M268.701031,255.794872 C268.701031,263.179487 263.120275,269.333333 256,269.333333 C249.072165,269.333333 243.298969,263.384615 243.298969,255.794872 C243.298969,248.205128 248.879725,242.25641 256,242.25641 C262.927835,242.461538 268.701031,248.410256 268.701031,255.794872 Z" id="Combined-Shape" fill="#4190DB"></path>
            </g>
        </g>
    </g>
</svg>