<?xml version="1.0" encoding="UTF-8"?>
<svg width="512px" height="512px" viewBox="0 0 512 512" version="1.1" xmlns="http://www.w3.org/2000/svg" xmlns:xlink="http://www.w3.org/1999/xlink">
    <!-- Generator: Sketch 52.2 (67145) - http://www.bohemiancoding.com/sketch -->
    <title>edit changeOrder</title>
    <desc>Created with Sketch.</desc>
    <defs>
        <path d="M192,384 C85.961328,384 0,298.038672 0,192 C0,85.961328 85.961328,0 192,0 C298.038672,0 384,85.961328 384,192 C384,298.038672 298.038672,384 192,384 Z M261.04388,150 L105,150 C100.581722,150 97,153.581722 97,158 C97,162.418278 100.581722,166 105,166 L279,166 C279.253466,166 279.504179,165.988212 279.75162,165.965155 C282.054625,166.1802 284.432062,165.399766 286.186088,163.627469 C289.294053,160.487129 289.267808,155.421877 286.127469,152.313912 L237.627469,104.313912 C234.487129,101.205947 229.421877,101.232192 226.313912,104.372531 C223.205947,107.512871 223.232192,112.578123 226.372531,115.686088 L261.04388,150 Z M124.45612,235 L279,235 C283.418278,235 287,231.418278 287,227 C287,222.581722 283.418278,219 279,219 L105,219 C103.907939,219 102.866986,219.218816 101.918592,219.614996 C100.969871,220.010391 100.082104,220.596337 99.3139119,221.372531 C98.556047,222.138291 97.9845449,223.018507 97.5991141,223.956891 C97.2129724,224.894983 97,225.92262 97,227 C97,228.092061 97.2188161,229.133014 97.6149958,230.081408 C98.0103909,231.030129 98.5963374,231.917896 99.3725314,232.686088 L147.872531,280.686088 C151.012871,283.794053 156.078123,283.767808 159.186088,280.627469 C162.294053,277.487129 162.267808,272.421877 159.127469,269.313912 L124.45612,235 Z" id="path-1"></path>
    </defs>
    <g id="Page-1" stroke="none" stroke-width="1" fill="none" fill-rule="evenodd">
        <g id="edit-转单">
            <g id="合并形状" transform="translate(64.000000, 64.000000)">
                <mask id="mask-2" fill="white">
                    <use xlink:href="#path-1"></use>
                </mask>
                <use fill="#0EC1AF" xlink:href="#path-1"></use>
            </g>
        </g>
    </g>
</svg>