<?xml version="1.0" encoding="UTF-8"?>
<svg width="512px" height="511px" viewBox="0 0 512 511" version="1.1" xmlns="http://www.w3.org/2000/svg" xmlns:xlink="http://www.w3.org/1999/xlink">
    <!-- Generator: Sketch 52.4 (67378) - http://www.bohemiancoding.com/sketch -->
    <title>icon/table/upload</title>
    <desc>Created with Sketch.</desc>
    <defs>
        <circle id="path-1" cx="192" cy="192" r="192"></circle>
        <path d="M108.037109,102.218081 L108.037109,194.0625 C108.037109,198.032047 104.819156,201.25 100.849609,201.25 C96.8800627,201.25 93.6621094,198.032047 93.6621094,194.0625 L93.6621094,102.479113 L73.4000026,122.74122 C70.5931092,125.548113 66.0422359,125.548113 63.2353426,122.74122 C60.4284492,119.934327 60.4284492,115.383453 63.2353426,112.57656 L95.7672794,80.0446231 C97.203921,78.6079816 99.0974261,77.9066508 100.980125,77.9406308 C102.862825,77.9066508 104.75633,78.6079816 106.192971,80.0446231 L138.724908,112.57656 C141.531801,115.383453 141.531801,119.934327 138.724908,122.74122 C135.918015,125.548113 131.367141,125.548113 128.560248,122.74122 L108.037109,102.218081 Z M201.699219,101.074219 C201.699219,129.853432 178.369057,153.183594 149.589844,153.183594 C138.813878,153.183594 128.511366,149.897642 119.849104,143.867789 C116.591176,141.599925 115.78857,137.120386 118.056434,133.862458 C120.324297,130.60453 124.803836,129.801924 128.061764,132.069788 C134.332974,136.435215 141.774278,138.808594 149.589844,138.808594 C170.429964,138.808594 187.324219,121.914339 187.324219,101.074219 C187.324219,85.6728909 178.013368,71.9954037 164.026536,66.1979713 C161.873802,65.30568 160.287266,63.4250895 159.770268,61.1528307 C153.588623,33.9838643 129.316247,14.375 101.074219,14.375 C72.8999691,14.375 48.6694626,33.8908702 42.4194675,60.9726096 C41.8903626,63.265264 40.2726059,65.1537776 38.0883632,66.0285917 C23.8833681,71.7178546 14.375,85.5108687 14.375,101.074219 C14.375,121.914339 31.2692551,138.808594 52.109375,138.808594 C59.9794128,138.808594 67.4696681,136.401859 73.7666214,131.979474 C77.0150782,129.698065 81.4979205,130.482011 83.7793299,133.730468 C86.0607393,136.978925 85.2767925,141.461767 82.0283356,143.743177 C73.3308472,149.851471 62.9605929,153.183594 52.109375,153.183594 C23.3301619,153.183594 0,129.853432 0,101.074219 C0,80.8606439 11.6172178,62.8089619 29.3216997,54.1990452 C38.2979937,22.484215 67.4097439,0 101.074219,0 C134.835897,0 164.010518,22.6129728 172.899248,54.4567306 C190.322906,63.1729287 201.699219,81.0715649 201.699219,101.074219 Z" id="path-3"></path>
    </defs>
    <g id="symbol" stroke="none" stroke-width="1" fill="none" fill-rule="evenodd">
        <g id="icon/table/upload">
            <g transform="translate(64.000000, 64.000000)">
                <mask id="mask-2" fill="white">
                    <use xlink:href="#path-1"></use>
                </mask>
                <use id="Path" fill="#1890FF" xlink:href="#path-1"></use>
                <g id="icon/tool/upload" mask="url(#mask-2)">
                    <g transform="translate(91.000000, 93.000000)" id="upload">
                        <g transform="translate(0.375000, 0.375000)">
                            <g id="color1">
                                <mask id="mask-4" fill="white">
                                    <use xlink:href="#path-3"></use>
                                </mask>
                                <use id="Mask" fill="#FFFFFF" fill-rule="nonzero" xlink:href="#path-3"></use>
                            </g>
                        </g>
                    </g>
                </g>
            </g>
        </g>
    </g>
</svg>