<?xml version="1.0" encoding="UTF-8"?>
<svg width="512px" height="512px" viewBox="0 0 512 512" version="1.1" xmlns="http://www.w3.org/2000/svg" xmlns:xlink="http://www.w3.org/1999/xlink">
    <!-- Generator: Sketch 52.4 (67378) - http://www.bohemiancoding.com/sketch -->
    <title>icon/table/Users already associated</title>
    <desc>Created with Sketch.</desc>
    <defs>
        <circle id="path-1" cx="256" cy="256" r="192"></circle>
    </defs>
    <g id="symbol" stroke="none" stroke-width="1" fill="none" fill-rule="evenodd">
        <g id="icon/table/Users-already-associated">
            <g>
                <g>
                    <rect id="Rectangle-28" fill="#FFFFFF" opacity="0" x="0" y="0" width="512" height="512"></rect>
                    <mask id="mask-2" fill="white">
                        <use xlink:href="#path-1"></use>
                    </mask>
                    <use fill="#0095F0" xlink:href="#path-1"></use>
                </g>
                <g transform="translate(170.666667, 149.333333)" fill="#FFFFFF" fill-rule="nonzero" id="Users-already-associated">
                    <path d="M167.382136,113.148809 L190.891469,146.585253 L105.558136,146.585253 L105.558136,132.363031 L163.499469,132.363031 L155.734136,121.340809 L167.382136,113.148809 Z M123.705691,193.305253 L107.591914,160.807475 L190.891469,160.807475 L190.891469,175.029698 L130.532358,175.029698 L136.463025,186.990587 L123.705691,193.305253 Z M12.6445196,167.451739 L12.6445196,186.108052 C7.37214825,190.275887 3.15730839,189.712134 -7.81597009e-13,184.416795 L-7.81597009e-13,167.451739 C-7.81597009e-13,133.507648 20.5966391,103.405204 52.4719014,90.7604405 L56.0800909,89.328979 L53.0179241,86.943769 C41.0528083,77.6081421 34.1893763,63.6607113 34.1893763,48.680317 C34.1893763,21.8372443 56.1951903,-1.13686838e-13 83.246724,-1.13686838e-13 C110.298258,-1.13686838e-13 132.304258,21.8372443 132.304259,48.6805035 C132.304259,63.6608979 125.4412,77.6083285 113.476084,86.9439555 L110.412984,89.3291655 C104.154337,94.9109336 92.1789612,96.7688514 84.2647105,97.3820687 C83.9279934,97.378341 83.5946341,97.3597021 83.2564247,97.3597021 C81.0094677,97.3597021 78.7901195,97.475263 76.5185384,97.6868135 C40.7328808,101.066964 12.6445196,131.059438 12.6445196,167.451739 Z M46.8338957,48.680317 C46.8338957,68.6177062 63.167939,84.8357181 83.246724,84.8359045 C103.325136,84.8359045 119.661977,68.6177062 119.661977,48.680317 C119.661977,28.7433006 103.325136,12.5243565 83.246724,12.5243565 C63.167939,12.5243565 46.8338957,28.7433007 46.8338957,48.680317 Z"></path>
                </g>
            </g>
        </g>
    </g>
</svg>