<?xml version="1.0" encoding="UTF-8"?>
<svg width="512px" height="512px" viewBox="0 0 512 512" version="1.1" xmlns="http://www.w3.org/2000/svg" xmlns:xlink="http://www.w3.org/1999/xlink">
    <!-- Generator: Sketch 51 (57462) - http://www.bohemiancoding.com/sketch -->
    <title>icon/btn/reset</title>
    <desc>Created with Sketch.</desc>
    <defs>
        <path d="M78.4448206,79.5781407 L83.5047015,78.0910261 C91.9826808,75.599322 100.875366,80.4521568 103.36707,88.930136 C105.858775,97.4081153 101.00594,106.300801 92.5279605,108.792505 L41.7075467,123.728781 C33.2286089,126.220767 24.3350868,121.366552 21.8444567,112.887216 L6.91700839,62.0668025 C4.42665986,53.5884249 9.28091651,44.6965155 17.7592941,42.206167 C26.2376716,39.7158185 35.129581,44.5700751 37.6199295,53.0484527 L42.9713599,71.2673673 C78.9405624,26.9181261 133.392467,0 192.551724,0 C298.897797,0 385.103448,86.2056509 385.103448,192.551724 C385.103448,298.897797 298.897797,385.103448 192.551724,385.103448 C86.2056509,385.103448 0,298.897797 0,192.551724 C0,183.715168 7.163444,176.551724 16,176.551724 C24.836556,176.551724 32,183.715168 32,192.551724 C32,281.224685 103.878763,353.103448 192.551724,353.103448 C281.224685,353.103448 353.103448,281.224685 353.103448,192.551724 C353.103448,103.878763 281.224685,32 192.551724,32 C148.730873,32 108.020484,49.7005439 78.4448206,79.5781407 Z" id="path-1"></path>
    </defs>
    <g id="symbol" stroke="none" stroke-width="1" fill="none" fill-rule="evenodd">
        <g id="icon/btn/reset">
            <g>
                <rect id="Rectangle-Copy-6" fill-opacity="0" fill="#FFFFFF" x="0" y="0" width="512" height="512"></rect>
                <g id="Page-1" transform="translate(63.448276, 63.448276)">
                    <g id="color1">
                        <mask id="mask-2" fill="white">
                            <use xlink:href="#path-1"></use>
                        </mask>
                        <use id="Mask" fill="#262626" fill-rule="nonzero" xlink:href="#path-1"></use>
                    </g>
                </g>
            </g>
        </g>
    </g>
</svg>