<?xml version="1.0" encoding="UTF-8"?>
<svg width="512px" height="512px" viewBox="0 0 512 512" version="1.1" xmlns="http://www.w3.org/2000/svg" xmlns:xlink="http://www.w3.org/1999/xlink">
    <!-- Generator: Sketch 51 (57462) - http://www.bohemiancoding.com/sketch -->
    <title>icon/table/edit 删除</title>
    <desc>Created with Sketch.</desc>
    <defs>
        <circle id="path-1" cx="256" cy="256" r="192"></circle>
    </defs>
    <g id="symbol" stroke="none" stroke-width="1" fill="none" fill-rule="evenodd">
        <g id="icon/table/edit-删除">
            <mask id="mask-2" fill="white">
                <use xlink:href="#path-1"></use>
            </mask>
            <use id="Path" fill="#F5222D" xlink:href="#path-1"></use>
            <path d="M219,185 L219,173 C219,165.268014 225.268014,159 233,159 L279,159 C286.731986,159 293,165.268014 293,173 L293,185 L327,185 C335.836556,185 343,192.163444 343,201 L343,210 C343,218.836556 335.836556,226 327,226 L318,226 L318,333 C318,346.254834 307.254834,357 294,357 L218,357 C204.745166,357 194,346.254834 194,333 L194,226 L186,226 C177.163444,226 170,218.836556 170,210 L170,201 C170,192.163444 177.163444,185 186,185 L219,185 Z M233,201 L188,201 C186.895431,201 186,201.895431 186,203 L186,208 C186,209.104569 186.895431,210 188,210 L325,210 C326.104569,210 327,209.104569 327,208 L327,203 C327,201.895431 326.104569,201 325,201 L279,201 L233,201 Z M210,226 L210,333 C210,337.418278 213.581722,341 218,341 L294,341 C298.418278,341 302,337.418278 302,333 L302,226 L210,226 Z M218.5,251 C218.5,246.581722 222.081722,243 226.5,243 C230.918278,243 234.5,246.581722 234.5,251 L234.5,316 C234.5,320.418278 230.918278,324 226.5,324 C222.081722,324 218.5,320.418278 218.5,316 L218.5,251 Z M248.5,251 C248.5,246.581722 252.081722,243 256.5,243 C260.918278,243 264.5,246.581722 264.5,251 L264.5,316 C264.5,320.418278 260.918278,324 256.5,324 C252.081722,324 248.5,320.418278 248.5,316 L248.5,251 Z M276.5,251 C276.5,246.581722 280.081722,243 284.5,243 C288.918278,243 292.5,246.581722 292.5,251 L292.5,316 C292.5,320.418278 288.918278,324 284.5,324 C280.081722,324 276.5,320.418278 276.5,316 L276.5,251 Z M235,177 L235,183 C235,184.104569 235.895431,185 237,185 L275,185 C276.104569,185 277,184.104569 277,183 L277,177 C277,175.895431 276.104569,175 275,175 L237,175 C235.895431,175 235,175.895431 235,177 Z" fill="#FFFFFF" fill-rule="nonzero"></path>
        </g>
    </g>
</svg>