<?xml version="1.0" encoding="UTF-8"?>
<svg width="512px" height="512px" viewBox="0 0 512 512" version="1.1" xmlns="http://www.w3.org/2000/svg" xmlns:xlink="http://www.w3.org/1999/xlink">
    <!-- Generator: Sketch 51 (57462) - http://www.bohemiancoding.com/sketch -->
    <title>icon/table/edit list</title>
    <desc>Created with Sketch.</desc>
    <defs>
        <circle id="path-1" cx="256" cy="256" r="192"></circle>
    </defs>
    <g id="symbol" stroke="none" stroke-width="1" fill="none" fill-rule="evenodd">
        <g id="icon/table/edit-list">
            <g>
                <rect id="Rectangle-28-Copy" fill="#FFFFFF" opacity="0" x="0" y="0" width="512" height="512"></rect>
                <mask id="mask-2" fill="white">
                    <use xlink:href="#path-1"></use>
                </mask>
                <use id="Oval-2-Copy" fill="#FAAD14" xlink:href="#path-1"></use>
                <path d="M168.186047,300 C168.186047,297.957806 169.116279,296.101266 170.418605,294.616034 L270.139535,195.291139 L295.069767,170.227848 C298.232558,167.257384 303.069767,167.257384 306.046512,170.227848 L341.767442,206.244726 C344.744186,209.400844 344.744186,214.227848 341.767442,217.198312 L217.116279,341.586498 C215.627907,343.07173 213.767442,343.814346 211.72093,343.814346 L175.627907,344 C173.581395,344 171.72093,343.257384 170.232558,341.772152 C168.744186,340.28692 168,338.244726 168,336.202532 L168.186047,300 Z M300.651163,186.565401 L286.511628,200.675105 L311.627907,225.738397 L325.767442,211.628692 L300.651163,186.565401 Z M183.627907,303.341772 L183.44186,328.405063 L208.744186,328.219409 L300.651163,236.691983 L275.534884,211.628692 L183.627907,303.341772 Z" id="edit" fill="#FFFFFF" mask="url(#mask-2)"></path>
            </g>
        </g>
    </g>
</svg>