<?xml version="1.0" encoding="UTF-8"?>
<svg width="512px" height="512px" viewBox="0 0 512 512" version="1.1" xmlns="http://www.w3.org/2000/svg" xmlns:xlink="http://www.w3.org/1999/xlink">
    <!-- Generator: Sketch 51 (57462) - http://www.bohemiancoding.com/sketch -->
    <title>icon/table/edit load</title>
    <desc>Created with Sketch.</desc>
    <defs>
        <circle id="path-1" cx="256" cy="256" r="192"></circle>
    </defs>
    <g id="symbol" stroke="none" stroke-width="1" fill="none" fill-rule="evenodd">
        <g id="icon/table/edit-load">
            <g id="icon/table/edit-list">
                <g>
                    <rect id="Rectangle-28-Copy" fill="#FFFFFF" opacity="0" x="0" y="0" width="512" height="512"></rect>
                    <mask id="mask-2" fill="white">
                        <use xlink:href="#path-1"></use>
                    </mask>
                    <use id="Oval-2-Copy" fill="#FAAD14" xlink:href="#path-1"></use>
                    <path d="M176,324.5 L336,324.5 C340.418278,324.5 344,328.081722 344,332.5 C344,336.918278 340.418278,340.5 336,340.5 L176,340.5 C171.581722,340.5 168,336.918278 168,332.5 C168,328.081722 171.581722,324.5 176,324.5 Z M227,244.56125 L198.806248,244.56125 L256,290.316251 L313.193752,244.56125 L285,244.56125 C280.581722,244.56125 277,240.979528 277,236.56125 L277,187 L235,187 L235,236.56125 C235,240.979528 231.418278,244.56125 227,244.56125 Z M219.00966,228.56125 C219.003238,228.374958 219,228.187857 219,228 L219,187 C219,178.163444 226.163444,171 235,171 L277,171 C285.836556,171 293,178.163444 293,187 L293,228 C293,228.187857 292.996762,228.374958 292.99034,228.56125 L330.298438,228.56125 C333.336275,228.56125 336.209404,229.942147 338.107126,232.314299 C341.557221,236.626919 340.858008,242.919842 336.545388,246.369938 L262.24695,305.808688 C258.594764,308.730437 253.405236,308.730437 249.75305,305.808688 L175.454612,246.369938 C173.082459,244.472216 171.701562,241.599087 171.701562,238.56125 C171.701562,233.038402 176.178715,228.56125 181.701562,228.56125 L219.00966,228.56125 Z" id="Combined-Shape" fill="#FFFFFF" fill-rule="nonzero" mask="url(#mask-2)"></path>
                </g>
            </g>
        </g>
    </g>
</svg>