<?xml version="1.0" encoding="UTF-8"?>
<svg width="512px" height="512px" viewBox="0 0 512 512" version="1.1" xmlns="http://www.w3.org/2000/svg" xmlns:xlink="http://www.w3.org/1999/xlink">
    <!-- Generator: Sketch 51 (57462) - http://www.bohemiancoding.com/sketch -->
    <title>icon/table/edit 减去</title>
    <desc>Created with Sketch.</desc>
    <defs>
        <path d="M256,448 C149.961328,448 64,362.038672 64,256 C64,149.961328 149.961328,64 256,64 C362.038672,64 448,149.961328 448,256 C448,362.038672 362.038672,448 256,448 Z M176,248 C171.581722,248 168,251.581722 168,256 C168,260.418278 171.581722,264 176,264 L336,264 C340.418278,264 344,260.418278 344,256 C344,251.581722 340.418278,248 336,248 L176,248 Z" id="path-1"></path>
    </defs>
    <g id="symbol" stroke="none" stroke-width="1" fill="none" fill-rule="evenodd">
        <g id="icon/table/edit-减去">
            <g id="icon/table/edit-list">
                <g>
                    <rect id="Rectangle-28-Copy" fill="#FFFFFF" opacity="0" x="0" y="0" width="512" height="512"></rect>
                    <mask id="mask-2" fill="white">
                        <use xlink:href="#path-1"></use>
                    </mask>
                    <use id="Combined-Shape" fill="#0EC1AF" xlink:href="#path-1"></use>
                </g>
            </g>
        </g>
    </g>
</svg>