<?xml version="1.0" encoding="UTF-8"?>
<svg width="512px" height="512px" viewBox="0 0 512 512" version="1.1" xmlns="http://www.w3.org/2000/svg" xmlns:xlink="http://www.w3.org/1999/xlink">
    <!-- Generator: Sketch 51 (57462) - http://www.bohemiancoding.com/sketch -->
    <title>icon/table/Statistics</title>
    <desc>Created with Sketch.</desc>
    <defs>
        <path d="M179.451093,137.872873 C179.901248,138.234776 180.336368,138.62461 180.754135,139.042377 L259.83286,218.121102 L359.968316,117.071167 C366.188239,110.794442 376.318774,110.748394 382.5955,116.968316 C388.872225,123.188239 388.918273,133.318774 382.698351,139.5955 L273.198351,250.0955 C271.874175,251.431768 270.372757,252.485643 268.769016,253.256781 C262.512926,257.800189 253.708489,257.251565 248.067834,251.61091 L169.375504,172.91858 L92.147042,250.147042 C85.8986534,256.395431 75.7680137,256.395431 69.519625,250.147042 C63.2712364,243.898653 63.2712364,233.768014 69.519625,227.519625 L158.054929,138.984321 C163.907799,133.131451 173.166988,132.760969 179.451093,137.872873 Z M0.00367924687,398.421821 C0.00123067064,398.307149 2.02474439e-07,398.192179 2.02474439e-07,398.076923 L2.02474439e-07,15.9230768 C2.0247444e-07,7.12900429 7.16344411,-4.53518016e-13 16,-4.52979534e-13 C20.2434639,-1.07226656e-07 24.3131265,1.6776049 27.3137086,4.66376106 C30.3142907,7.64991722 32.0000002,11.7000142 32.0000002,15.9230768 L32.0000002,382.769231 L398.076923,382.769231 C406.870996,382.769231 414,389.932675 414,398.769231 C414,407.605787 406.870996,414.769231 398.076923,414.769231 L15.923077,414.769231 C7.12900438,414.769231 -1.07696333e-15,407.605787 0,398.769231 C1.41493139e-17,398.653135 0.00123054598,398.537327 0.00367924687,398.421821 Z" id="path-1"></path>
    </defs>
    <g id="symbol" stroke="none" stroke-width="1" fill="none" fill-rule="evenodd">
        <g id="icon/table/Statistics">
            <g>
                <rect id="Rectangle" fill="#D8D8D8" opacity="0" x="0" y="0" width="512" height="512"></rect>
                <g id="Statistics" transform="translate(48.666667, 48.666667)">
                    <rect id="Rectangle-path" fill="#000000" fill-rule="nonzero" opacity="0" x="0" y="0" width="414.666667" height="414.666667"></rect>
                    <g id="color1">
                        <mask id="mask-2" fill="white">
                            <use xlink:href="#path-1"></use>
                        </mask>
                        <use id="Mask" fill="#262626" fill-rule="nonzero" xlink:href="#path-1"></use>
                    </g>
                </g>
            </g>
        </g>
    </g>
</svg>