<?xml version="1.0" encoding="UTF-8"?>
<svg width="512px" height="512px" viewBox="0 0 512 512" version="1.1" xmlns="http://www.w3.org/2000/svg" xmlns:xlink="http://www.w3.org/1999/xlink">
    <!-- Generator: Sketch 51 (57462) - http://www.bohemiancoding.com/sketch -->
    <title>icon/down sel/ clock-circle</title>
    <desc>Created with Sketch.</desc>
    <defs>
        <path d="M272.5,240.5 L368.5,240.5 C377.336556,240.5 384.5,247.663444 384.5,256.5 C384.5,265.336556 377.336556,272.5 368.5,272.5 L256.5,272.5 C247.663444,272.5 240.5,265.336556 240.5,256.5 C240.5,256.164149 240.510348,255.830716 240.530742,255.5 C240.510348,255.169284 240.5,254.835851 240.5,254.5 L240.5,112.5 C240.5,103.663444 247.663444,96.5 256.5,96.5 C265.336556,96.5 272.5,103.663444 272.5,112.5 L272.5,240.5 Z M256,480 C132.288216,480 32,379.711784 32,256 C32,132.288216 132.288216,32 256,32 C379.711784,32 480,132.288216 480,256 C480,379.711784 379.711784,480 256,480 Z M256,448 C362.038672,448 448,362.038672 448,256 C448,149.961328 362.038672,64 256,64 C149.961328,64 64,149.961328 64,256 C64,362.038672 149.961328,448 256,448 Z" id="path-1"></path>
    </defs>
    <g id="symbol" stroke="none" stroke-width="1" fill="none" fill-rule="evenodd">
        <g id="icon/down-sel/-clock-circle">
            <g id="Group">
                <g>
                    <rect id="Rectangle" fill="#D8D8D8" opacity="0" x="0" y="0" width="512" height="512"></rect>
                    <mask id="mask-2" fill="white">
                        <use xlink:href="#path-1"></use>
                    </mask>
                    <use id="Mask" fill="#BFBFBF" fill-rule="nonzero" xlink:href="#path-1"></use>
                </g>
            </g>
        </g>
    </g>
</svg>