<?xml version="1.0" encoding="UTF-8"?>
<svg width="512px" height="512px" viewBox="0 0 512 512" version="1.1" xmlns="http://www.w3.org/2000/svg" xmlns:xlink="http://www.w3.org/1999/xlink">
    <!-- Generator: Sketch 51 (57462) - http://www.bohemiancoding.com/sketch -->
    <title>icon/down sel/ Datepicker </title>
    <desc>Created with Sketch.</desc>
    <defs>
        <path d="M415,127.5 L415,63 L319.5,63 L319.5,81.0173054 C319.5,89.8538614 312.336556,97.0173054 303.5,97.0173054 C294.663444,97.0173054 287.5,89.8538614 287.5,81.0173054 L287.5,63 L159.5,63 L159.5,81.0173054 C159.5,89.8538614 152.336556,97.0173054 143.5,97.0173054 C134.663444,97.0173054 127.5,89.8538614 127.5,81.0173054 L127.5,63 L32,63 L32,127.5 L415,127.5 Z M415,159.5 L32,159.5 L32,352 L415,352 L415,159.5 Z M319.5,31 L431,31 C439.836556,31 447,38.163444 447,47 L447,368 C447,376.836556 439.836556,384 431,384 L16,384 C7.163444,384 0,376.836556 0,368 L0,47 C0,38.163444 7.163444,31 16,31 L127.5,31 L127.5,16 C127.5,7.163444 134.663444,0 143.5,0 C152.336556,0 159.5,7.163444 159.5,16 L159.5,31 L287.5,31 L287.5,16 C287.5,7.163444 294.663444,0 303.5,0 C312.336556,0 319.5,7.163444 319.5,16 L319.5,31 Z M142.195864,238 C133.359308,238 126.195864,230.836556 126.195864,222 C126.195864,213.163444 133.359308,206 142.195864,206 L303,206 C311.836556,206 319,213.163444 319,222 C319,230.836556 311.836556,238 303,238 L142.195864,238 Z M142.195864,302 C133.359308,302 126.195864,294.836556 126.195864,286 C126.195864,277.163444 133.359308,270 142.195864,270 L303,270 C311.836556,270 319,277.163444 319,286 C319,294.836556 311.836556,302 303,302 L142.195864,302 Z" id="path-1"></path>
    </defs>
    <g id="symbol" stroke="none" stroke-width="1" fill="none" fill-rule="evenodd">
        <g id="icon/down-sel/-Datepicker-">
            <g>
                <rect id="Rectangle" fill="#D8D8D8" opacity="0" x="0" y="0" width="512" height="512"></rect>
                <g id="Group" transform="translate(33.000000, 64.000000)">
                    <mask id="mask-2" fill="white">
                        <use xlink:href="#path-1"></use>
                    </mask>
                    <use id="Combined-Shape" fill="#BFBFBF" fill-rule="nonzero" xlink:href="#path-1"></use>
                </g>
            </g>
        </g>
    </g>
</svg>