<?xml version="1.0" standalone="no"?>
<!DOCTYPE svg PUBLIC "-//W3C//DTD SVG 1.1//EN" "http://www.w3.org/Graphics/SVG/1.1/DTD/svg11.dtd" >
<svg xmlns="http://www.w3.org/2000/svg">
<metadata>Generated by IcoMoon</metadata>
<defs>
<font id="icomoon" horiz-adv-x="1024">
<font-face units-per-em="1024" ascent="960" descent="-64" />
<missing-glyph horiz-adv-x="1024" />
<glyph unicode="&#x20;" horiz-adv-x="512" d="" />
<glyph unicode="&#xe900;" glyph-name="abnorConfirm" d="M168 103v409c0 189.986 154.014 344 344 344s344-154.014 344-344v-409h40c17.673 0 32-14.327 32-32s-14.327-32-32-32h-766c-17.673 0-32 14.327-32 32s14.327 32 32 32h38zM232 103h560v409c0 154.64-125.36 280-280 280s-280-125.36-280-280v-409zM490.739 333.173l185.915 195.233c12.497 12.497 32.758 12.497 45.255 0s12.497-32.758 0-45.255l-208.543-217.86c-12.497-12.497-32.758-12.497-45.255 0l-130.39 137.455c-12.497 12.497-12.497 32.758 0 45.255s32.758 12.497 45.255 0l107.763-114.827z" />
<glyph unicode="&#xe901;" glyph-name="add-user" d="M638.107 459.559c12.871-4.38 25.503-9.446 37.851-15.181 16.029-7.444 22.989-26.472 15.545-42.501s-26.472-22.989-42.501-15.545c-41.891 19.454-87.691 29.667-135.002 29.667-177.346 0-321.103-143.758-321.103-321.103 0-17.673-14.327-32-32-32s-32 14.327-32 32c0 167.489 106.914 309.999 256.22 363.009-50.495 38.061-83.139 98.54-83.139 166.646 0 115.183 93.369 208.552 208.552 208.552s208.552-93.369 208.552-208.552c0-67.128-31.713-126.846-80.974-164.992zM736.897 225.103v64c0 17.673 14.327 32 32 32s32-14.327 32-32v-64h64c17.673 0 32-14.327 32-32s-14.327-32-32-32h-64v-64c0-17.673-14.327-32-32-32s-32 14.327-32 32v64h-64c-17.673 0-32 14.327-32 32s14.327 32 32 32h64zM655.081 624.552c0 79.836-64.715 144.552-144.552 144.552s-144.552-64.715-144.552-144.552c0-79.836 64.715-144.552 144.552-144.552s144.552 64.715 144.552 144.552z" />
<glyph unicode="&#xe902;" glyph-name="add" d="M512 12c-240.796 0-436 195.204-436 436s195.204 436 436 436c240.796 0 436-195.204 436-436s-195.204-436-436-436zM512 76c205.45 0 372 166.55 372 372s-166.55 372-372 372c-205.45 0-372-166.55-372-372s166.55-372 372-372zM544 480h118c17.673 0 32-14.327 32-32s-14.327-32-32-32h-118v-118c0-17.673-14.327-32-32-32s-32 14.327-32 32v118h-118c-17.673 0-32 14.327-32 32s14.327 32 32 32h118v118c0 17.673 14.327 32 32 32s32-14.327 32-32v-118z" />
<glyph unicode="&#xe903;" glyph-name="add_Pictures" d="M898 479.159v256.841c0 17.673-14.327 32-32 32h-704c-17.673 0-32-14.327-32-32v-476.11l210.441 210.441c12.62 12.62 33.125 12.477 45.568-0.317l90.524-93.080 240.889 237.837c12.52 12.361 32.67 12.297 45.11-0.144l135.468-135.468zM898 388.649l-158.24 158.24-218.606-215.836 199.421-205.052h145.425c17.673 0 32 14.327 32 32v230.649zM130 169.38v-11.38c0-17.673 14.327-32 32-32h469.3l-268.548 276.132-232.752-232.752zM162 832h704c53.019 0 96-42.981 96-96v-578c0-53.019-42.981-96-96-96h-704c-53.019 0-96 42.981-96 96v578c0 53.019 42.981 96 96 96zM300 518c-50.81 0-92 41.19-92 92s41.19 92 92 92c50.81 0 92-41.19 92-92s-41.19-92-92-92zM300 582c15.464 0 28 12.536 28 28s-12.536 28-28 28c-15.464 0-28-12.536-28-28s12.536-28 28-28z" />
<glyph unicode="&#xe904;" glyph-name="addListing" d="M588.727 140h-157.454c-13.705-45.144-55.652-78-105.273-78s-91.568 32.856-105.273 78h-90.727c-35.346 0-64 28.654-64 64v560c0 35.346 28.654 64 64 64h574c35.346 0 64-28.654 64-64v-102.733l145.271-76.903c19.776-10.739 31.417-19.46 39.188-31.128 4.7-7.057 7.436-14.556 8.663-22.719 0.765-5.089 0.877-8.442 0.877-16.517v-310c0-35.346-28.654-64-64-64h-98.727c-13.705-45.144-55.652-78-105.273-78s-91.568 32.856-105.273 78zM588.727 204c13.705 45.144 55.652 78 105.273 78s91.568-32.856 105.273-78h98.727v310c0 2.139-0.011 3.625-0.033 4.68-0.255 0.203-0.537 0.42-0.846 0.652-3.024 2.265-7.667 5.133-14.246 8.711l-178.874 94.689v141.267h-574v-560h90.727c13.705 45.144 55.652 78 105.273 78s91.568-32.856 105.273-78h157.454zM326 126c25.405 0 46 20.595 46 46s-20.595 46-46 46c-25.405 0-46-20.595-46-46s20.595-46 46-46zM694 126c25.405 0 46 20.595 46 46s-20.595 46-46 46c-25.405 0-46-20.595-46-46s20.595-46 46-46zM578 480h96c17.673 0 32-14.327 32-32s-14.327-32-32-32h-128c-17.673 0-32 14.327-32 32v136c0 17.673 14.327 32 32 32s32-14.327 32-32v-104z" />
<glyph unicode="&#xe905;" glyph-name="align_left" d="M96 800h832c17.673 0 32-14.327 32-32s-14.327-32-32-32h-832c-17.673 0-32 14.327-32 32s14.327 32 32 32zM96 596h488c17.673 0 32-14.327 32-32s-14.327-32-32-32h-488c-17.673 0-32 14.327-32 32s14.327 32 32 32zM96 380h832c17.673 0 32-14.327 32-32s-14.327-32-32-32h-832c-17.673 0-32 14.327-32 32s14.327 32 32 32zM96 160h504c17.673 0 32-14.327 32-32s-14.327-32-32-32h-504c-17.673 0-32 14.327-32 32s14.327 32 32 32z" />
<glyph unicode="&#xe906;" glyph-name="align_middle" d="M96 786h832c17.673 0 32-14.327 32-32s-14.327-32-32-32h-832c-17.673 0-32 14.327-32 32s14.327 32 32 32zM320 582h388c17.673 0 32-14.327 32-32s-14.327-32-32-32h-388c-17.673 0-32 14.327-32 32s14.327 32 32 32zM96 376h814c17.673 0 32-14.327 32-32s-14.327-32-32-32h-814c-17.673 0-32 14.327-32 32s14.327 32 32 32zM318 174h390c17.673 0 32-14.327 32-32s-14.327-32-32-32h-390c-17.673 0-32 14.327-32 32s14.327 32 32 32z" />
<glyph unicode="&#xe907;" glyph-name="align_right" d="M96 788h832c17.673 0 32-14.327 32-32s-14.327-32-32-32h-832c-17.673 0-32 14.327-32 32s14.327 32 32 32zM478 580h448c17.673 0 32-14.327 32-32s-14.327-32-32-32h-448c-17.673 0-32 14.327-32 32s14.327 32 32 32zM102 376h826c17.673 0 32-14.327 32-32s-14.327-32-32-32h-826c-17.673 0-32 14.327-32 32s14.327 32 32 32zM478 172h450c17.673 0 32-14.327 32-32s-14.327-32-32-32h-450c-17.673 0-32 14.327-32 32s14.327 32 32 32z" />
<glyph unicode="&#xe908;" glyph-name="approved" d="M913.35 125.004l-149.836 18.955-58.481-139.239-112.805 195.382c-26.086-6.127-52.913-9.261-80.107-9.261-27.204 0-54.031 3.134-80.108 9.259l-112.798-195.37-58.501 139.229-149.817-18.956 119.991 207.847c-44.226 59.713-68.56 131.915-68.56 207.783 0 207.968 180.195 370.522 389.172 347.625 161.862-17.74 292.011-149.037 308.536-311.112 9.075-88.87-15.24-174.851-66.695-244.301l120.009-207.842zM796.366 570.651c-13.465 132.066-120 239.54-251.838 253.99-171.004 18.736-318.201-114.051-318.201-284.006 0-64.561 21.514-125.74 60.531-175.66 12.588-16.074 14.423-38.172 4.126-56.033l-60.189-104.258 70.096 8.869 27.374-65.147 73.496 127.299 24.483-7.702c27.611-8.686 56.451-13.161 85.876-13.161 29.409 0 58.25 4.476 85.881 13.163l24.48 7.697 73.488-127.285 27.358 65.137 70.112-8.87-60.365 104.545c-10.189 17.707-8.359 39.606 4.14 55.546 45.279 57.824 66.858 130.401 59.151 205.877zM755.977 540.629c0-134.674-109.188-243.862-243.862-243.862s-243.862 109.188-243.862 243.862c0 134.674 109.188 243.862 243.862 243.862s243.862-109.188 243.862-243.862zM691.977 540.629c0 99.328-80.534 179.862-179.862 179.862s-179.862-80.534-179.862-179.862c0-99.328 80.534-179.862 179.862-179.862s179.862 80.534 179.862 179.862zM474.201 498.038l134.412 119.477c13.209 11.741 33.435 10.552 45.177-2.657s10.552-33.435-2.657-45.177l-158.897-141.241c-13.429-11.937-34.051-10.481-45.669 3.225l-69.297 81.743c-11.428 13.481-9.764 33.674 3.717 45.102s33.674 9.764 45.102-3.717l48.113-56.754z" />
<glyph unicode="&#xe909;" glyph-name="areaArrow_down" horiz-adv-x="433" d="M295.385 258.835h137.846l-216.615-315.077-216.615 315.077h137.846v701.165h157.538v-701.165z" />
<glyph unicode="&#xe90a;" glyph-name="add-user1" d="M638.107 459.559c12.871-4.38 25.503-9.446 37.851-15.181 16.029-7.444 22.989-26.472 15.545-42.501s-26.472-22.989-42.501-15.545c-41.891 19.454-87.691 29.667-135.002 29.667-177.346 0-321.103-143.758-321.103-321.103 0-17.673-14.327-32-32-32s-32 14.327-32 32c0 167.489 106.914 309.999 256.22 363.009-50.495 38.061-83.139 98.54-83.139 166.646 0 115.183 93.369 208.552 208.552 208.552s208.552-93.369 208.552-208.552c0-67.128-31.713-126.846-80.974-164.992zM736.897 225.103v64c0 17.673 14.327 32 32 32s32-14.327 32-32v-64h64c17.673 0 32-14.327 32-32s-14.327-32-32-32h-64v-64c0-17.673-14.327-32-32-32s-32 14.327-32 32v64h-64c-17.673 0-32 14.327-32 32s14.327 32 32 32h64zM655.081 624.552c0 79.836-64.715 144.552-144.552 144.552s-144.552-64.715-144.552-144.552c0-79.836 64.715-144.552 144.552-144.552s144.552 64.715 144.552 144.552z" />
<glyph unicode="&#xe90b;" glyph-name="audited" d="M722 220.778l51.407-57.094c11.826-13.134 10.765-33.367-2.368-45.193s-33.367-10.765-45.193 2.368l-56.306 62.534c-7.052 5.87-11.54 14.714-11.54 24.606v62c0 17.673 14.327 32 32 32s32-14.327 32-32v-49.222zM689 0c-115.387 0-209 93.084-209 208s93.613 208 209 208c115.387 0 209-93.084 209-208s-93.613-208-209-208zM689 64c80.122 0 145 64.512 145 144s-64.878 144-145 144c-80.122 0-145-64.512-145-144s64.878-144 145-144zM512 64c17.673 0 32-14.327 32-32s-14.327-32-32-32h-270c-61.856 0-112 50.144-112 112v672c0 61.856 50.144 112 112 112h544c61.856 0 112-50.144 112-112v-402c0-17.673-14.327-32-32-32s-32 14.327-32 32v402c0 26.51-21.49 48-48 48h-544c-26.51 0-48-21.49-48-48v-672c0-26.51 21.49-48 48-48h270zM288 703c-17.673 0-32 14.327-32 32s14.327 32 32 32h450c17.673 0 32-14.327 32-32s-14.327-32-32-32h-450zM288 575c-17.673 0-32 14.327-32 32s14.327 32 32 32h450c17.673 0 32-14.327 32-32s-14.327-32-32-32h-450zM288 447c-17.673 0-32 14.327-32 32s14.327 32 32 32h322c17.673 0 32-14.327 32-32s-14.327-32-32-32h-322zM288 319c-17.673 0-32 14.327-32 32s14.327 32 32 32h130c17.673 0 32-14.327 32-32s-14.327-32-32-32h-130z" />
<glyph unicode="&#xe90c;" glyph-name="authorityManage" d="M480 478.628v-156.398c0-17.894 14.506-32.4 32.4-32.4s32.4 14.506 32.4 32.4v156.574c28.047 12.469 47.6 40.532 47.6 73.153 0 44.206-35.907 80.042-80.2 80.042s-80.2-35.836-80.2-80.042c0-32.776 19.739-60.951 48-73.33zM513.001 2l-10.345 3.753c-332.236 120.258-370.656 378.839-370.656 486.61 0 116.459 0 202.952 0 259.477 0 49.402 46.627 49.402 54.839 49.407 170.973 0.119 263.464 58.51 293.736 81.99 7.428 5.762 15.661 10.763 32.426 10.763s25.662-5.55 34.403-12.1c32.44-24.304 125.645-80.649 292.3-80.649 48.199 0 54.295-33.871 54.295-51.479 0-79.733 0-165.537 0-257.41 0-107.771-38.42-366.351-370.655-486.61l-10.344-3.753z" />
<glyph unicode="&#xe90d;" glyph-name="back" d="M950.069 448c0-241.947-196.122-438.069-438.069-438.069s-438.069 196.122-438.069 438.069c0 241.947 196.122 438.069 438.069 438.069s438.069-196.122 438.069-438.069zM886.069 448c0 206.601-167.468 374.069-374.069 374.069s-374.069-167.468-374.069-374.069c0-206.601 167.468-374.069 374.069-374.069s374.069 167.468 374.069 374.069zM625.55 305.036c12.497-12.497 12.497-32.758 0-45.255s-32.758-12.497-45.255 0l-165.588 165.588c-12.497 12.497-12.497 32.758 0 45.255l165.588 165.588c12.497 12.497 32.758 12.497 45.255 0s12.497-32.758 0-45.255l-142.96-142.96 142.96-142.96z" />
<glyph unicode="&#xe90e;" glyph-name="backRec" d="M640.738 512c-17.673 0-32 14.327-32 32s14.327 32 32 32h225.262c53.019 0 96-42.981 96-96v-356c0-53.019-42.981-96-96-96h-704c-53.019 0-96 42.981-96 96v356c0 53.019 42.981 96 96 96h222.192c17.673 0 32-14.327 32-32s-14.327-32-32-32h-222.192c-17.673 0-32-14.327-32-32v-356c0-17.673 14.327-32 32-32h704c17.673 0 32 14.327 32 32v356c0 17.673-14.327 32-32 32h-225.262zM546 321.477l71.054 71.054c12.497 12.497 32.758 12.497 45.255 0s12.497-32.758 0-45.255l-124.841-124.841c-12.497-12.497-32.758-12.497-45.255 0l-124.841 124.841c-12.497 12.497-12.497 32.758 0 45.255s32.758 12.497 45.255 0l69.373-69.373v475.495c0 17.734 14.267 32.167 32 32.372 0.122 0.001 0.244 0.002 0.366 0.002 17.471 0 31.634-14.163 31.634-31.634v-477.917z" />
<glyph unicode="&#xe90f;" glyph-name="basic-data" d="M922.552 575.103h-820v160c0 70.692 57.308 128 128 128h564c70.692 0 128-57.308 128-128v-160zM922.552 511.103v-352c0-70.692-57.308-128-128-128h-564c-70.692 0-128 57.308-128 128v352h820zM512.552 655.103c35.346 0 64 28.654 64 64s-28.654 64-64 64c-35.346 0-64-28.654-64-64s28.654-64 64-64zM308.552 227.103c-17.673 0-32-14.327-32-32s14.327-32 32-32h428c17.673 0 32 14.327 32 32s-14.327 32-32 32h-428zM308.552 393.103c-17.673 0-32-14.327-32-32s14.327-32 32-32h428c17.673 0 32 14.327 32 32s-14.327 32-32 32h-428z" />
<glyph unicode="&#xe910;" glyph-name="Batch-deleting" d="M646.855 448l267.506-267.506c12.497-12.497 12.497-32.758 0-45.255s-32.758-12.497-45.255 0l-267.506 267.506-267.506-267.506c-12.497-12.497-32.758-12.497-45.255 0s-12.497 32.758 0 45.255l267.506 267.506-267.506 267.506c-12.497 12.497-12.497 32.758 0 45.255s32.758 12.497 45.255 0l267.506-267.506 267.506 267.506c12.497 12.497 32.758 12.497 45.255 0s12.497-32.758 0-45.255l-267.506-267.506zM422.667 480c17.673 0 32-14.327 32-32s-14.327-32-32-32h-290.133c-17.673 0-32 14.327-32 32s14.327 32 32 32h290.133zM303.2 360.533c17.673 0 32-14.327 32-32s-14.327-32-32-32h-170.667c-17.673 0-32 14.327-32 32s14.327 32 32 32h170.667zM303.2 599.467c17.673 0 32-14.327 32-32s-14.327-32-32-32h-170.667c-17.673 0-32 14.327-32 32s14.327 32 32 32h170.667z" />
<glyph unicode="&#xe911;" glyph-name="Bill" d="M481 513h-99.020c-17.673 0-32 14.327-32 32s14.327 32 32 32h98.044c-0.286 0.229-0.569 0.463-0.85 0.704l-84 72c-13.418 11.502-14.972 31.703-3.471 45.122s31.703 14.972 45.122 3.471l74.17-63.575 76.885 62.163c13.743 11.111 33.892 8.978 45.003-4.765s8.978-33.892-4.765-45.003l-83.173-67.246c0.036-0.619 0.054-1.242 0.054-1.87v-1h97.017c17.673 0 32-14.327 32-32s-14.327-32-32-32h-97.017v-64h63c17.673 0 32-14.327 32-32s-14.327-32-32-32h-63v-96c0-17.673-14.327-32-32-32s-32 14.327-32 32v96h-65c-17.673 0-32 14.327-32 32s14.327 32 32 32h65v64zM336 150.508l-154.328-142.052c-20.509-18.878-53.672-4.33-53.672 23.544v832c0 17.673 14.327 32 32 32h704c17.673 0 32-14.327 32-32v-832c0-27.875-33.162-42.422-53.672-23.544l-154.328 142.052-154.328-142.052c-12.248-11.274-31.095-11.274-43.343 0l-154.328 142.052zM192 832v-727.053l122.328 112.598c12.248 11.274 31.095 11.274 43.343 0l154.328-142.052 154.328 142.052c12.248 11.274 31.095 11.274 43.343 0l122.328-112.598v727.053h-640z" />
<glyph unicode="&#xe912;" glyph-name="border" d="M896 480v286h-351.023l-0.064-44.047c-0.026-17.673-14.374-31.979-32.047-31.953s-31.979 14.374-31.953 32.047l0.064 43.953h-352.977v-286h57c17.673 0 32-14.327 32-32s-14.327-32-32-32h-57v-290h768v290h-19c-17.673 0-32 14.327-32 32s14.327 32 32 32h19zM480.505 423.424c-7.031 5.87-11.505 14.701-11.505 24.576 0 17.673 14.327 32 32 32h60c17.673 0 32-14.327 32-32s-14.327-32-32-32h-16.535l-0.079-54.046c-0.026-17.673-14.374-31.979-32.047-31.953s-31.979 14.374-31.953 32.047l0.088 60c0.001 0.461 0.011 0.92 0.031 1.376zM128 830h768c35.346 0 64-28.654 64-64v-640c0-35.346-28.654-64-64-64h-768c-35.346 0-64 28.654-64 64v640c0 35.346 28.654 64 64 64zM480.737 602.047c0.026 17.673 14.374 31.979 32.047 31.953s31.979-14.374 31.953-32.047l-0.088-60c-0.026-17.673-14.374-31.979-32.047-31.953s-31.979 14.374-31.953 32.047l0.088 60zM480.211 242.047c0.026 17.673 14.374 31.979 32.047 31.953s31.979-14.374 31.953-32.047l-0.088-60c-0.026-17.673-14.374-31.979-32.047-31.953s-31.979 14.374-31.953 32.047l0.088 60zM313 416c-17.673 0-32 14.327-32 32s14.327 32 32 32h60c17.673 0 32-14.327 32-32s-14.327-32-32-32h-60zM689 416c-17.673 0-32 14.327-32 32s14.327 32 32 32h60c17.673 0 32-14.327 32-32s-14.327-32-32-32h-60z" />
<glyph unicode="&#xe913;" glyph-name="breakUp" d="M639.969 800c-17.673 0-32 14.327-32 32s14.327 32 32 32h224.031c35.346 0 64-28.654 64-64v-224.196c0-17.673-14.327-32-32-32s-32 14.327-32 32v224.196h-224.031zM384.782 96c17.673 0 32-14.327 32-32s-14.327-32-32-32h-224.782c-35.346 0-64 28.654-64 64v224.695c0 17.673 14.327 32 32 32s32-14.327 32-32v-224.695h224.782zM160 575.098c0-17.673-14.327-32-32-32s-32 14.327-32 32v224.902c0 35.346 28.654 64 64 64h224.196c17.673 0 32-14.327 32-32s-14.327-32-32-32h-224.196v-224.902zM761.933 243.277l111.745 111.745c12.497 12.497 32.758 12.497 45.255 0s12.497-32.758 0-45.255l-111.745-111.745 111.723-111.723c12.497-12.497 12.497-32.758 0-45.255s-32.758-12.497-45.255 0l-111.723 111.723-111.701-111.701c-12.497-12.497-32.758-12.497-45.255 0s-12.497 32.758 0 45.255l111.701 111.701-111.723 111.723c-12.497 12.497-12.497 32.758 0 45.255s32.758 12.497 45.255 0l111.723-111.723z" />
<glyph unicode="&#xe914;" glyph-name="C-category" d="M129 830h770c34.794 0 63-28.206 63-63s-28.206-63-63-63h-770c-34.794 0-63 28.206-63 63s28.206 63 63 63zM196 638h636c35.346 0 64-28.654 64-64v-448c0-35.346-28.654-64-64-64h-636c-35.346 0-64 28.654-64 64v448c0 35.346 28.654 64 64 64zM664.385 462.931c-6.446 9.338-13.694 18.076-21.652 26.108-34.986 35.311-82.129 55.533-132.359 55.533-104.237 0-188.391-86.404-188.391-192.572s84.154-192.572 188.391-192.572c49.698 0 96.385 19.794 131.273 54.446 9.331 9.267 17.705 19.496 24.98 30.516 9.737 14.749 5.673 34.599-9.076 44.335s-34.599 5.673-44.335-9.076c-4.861-7.363-10.451-14.191-16.67-20.367-23.058-22.902-53.609-35.855-86.173-35.855-68.507 0-124.391 57.378-124.391 128.572s55.883 128.572 124.391 128.572c32.913 0 63.767-13.235 86.896-36.578 5.304-5.354 10.142-11.186 14.448-17.423 10.041-14.544 29.97-18.195 44.514-8.154s18.195 29.97 8.154 44.514z" />
<glyph unicode="&#xe915;" glyph-name="Cancel-billing" d="M584.957 493.608l78.976 78.976c12.497 12.497 32.758 12.497 45.255 0s12.497-32.758 0-45.255l-78.976-78.976 80.287-80.287c12.497-12.497 12.497-32.758 0-45.255s-32.758-12.497-45.255 0l-80.287 80.287-80.33-80.33c-12.497-12.497-32.758-12.497-45.255 0s-12.497 32.758 0 45.255l80.33 80.33-79.019 79.019c-12.497 12.497-12.497 32.758 0 45.255s32.758 12.497 45.255 0l79.019-79.019zM256 198.345l-73.59-60.937c-20.86-17.274-52.41-2.438-52.41 24.644v701.95c0 17.672 14.327 31.998 32 31.998h574c17.673 0 32-14.326 32-31.998v-96.002h96c17.673 0 32-14.327 32-32v-704c0-29.425-36.368-43.252-55.917-21.26l-120.083 135.093-120.083-135.093c-12.729-14.32-35.105-14.32-47.834 0l-120.083 135.093-120.083-135.093c-19.549-21.992-55.917-8.165-55.917 21.26v166.345zM256 281.435v454.565c0 17.673 14.327 32 32 32h416v64.005h-510v-601.909l62 51.34zM320 256.894v-140.728l88.083 99.093c12.729 14.32 35.105 14.32 47.834 0l120.083-135.093 120.083 135.093c12.729 14.32 35.105 14.32 47.834 0l88.083-99.093v587.834h-512v-424.796c2.692-7.234 2.644-15.177 0-22.31z" />
<glyph unicode="&#xe916;" glyph-name="cancel-SVN" d="M123.586 570.321c-17.673 0-32 14.327-32 32s14.327 32 32 32h670.897c75.935 0 137.931-61.996 137.931-137.931v-247.172c0-75.935-61.996-137.931-137.931-137.931h-670.897c-17.673 0-32 14.327-32 32s14.327 32 32 32h670.897c40.589 0 73.931 33.342 73.931 73.931v247.172c0 40.589-33.342 73.931-73.931 73.931h-670.897zM168.845 602.317l127.178-127.178c12.497-12.497 12.497-32.758 0-45.255s-32.758-12.497-45.255 0l-149.804 149.804c-12.496 12.496-12.497 32.757-0.001 45.254l149.804 149.822c12.496 12.498 32.757 12.499 45.255 0.003s12.499-32.757 0.003-45.255l-127.179-127.194z" />
<glyph unicode="&#xe917;" glyph-name="Cancel_Invoice" d="M357.623 516.723c0.083 0.084 0.166 0.169 0.25 0.252l99.652 99.652c12.497 12.497 32.758 12.497 45.255 0s12.497-32.758 0-45.255l-45.524-45.524h132.745c48.601 0 88-39.399 88-88v-81c0-48.601-39.399-88-88-88h-210c-17.673 0-32 14.327-32 32s14.327 32 32 32h210c13.255 0 24 10.745 24 24v81c0 13.255-10.745 24-24 24h-210c-17.673 0-32 14.327-32 32 0 8.963 3.685 17.066 9.623 22.875zM192 64h472c92.784 0 168 75.216 168 168v630c0 17.673 14.327 32 32 32s32-14.327 32-32v-630c0-128.13-103.87-232-232-232h-536v662c0 128.13 103.87 232 232 232h346.153c17.673 0 32-14.327 32-32s-14.327-32-32-32h-346.153c-92.784 0-168-75.216-168-168v-598z" />
<glyph unicode="&#xe918;" glyph-name="Cells" d="M832 703v127h-640v-127h640zM832 639h-640v-577h640v577zM896 62c0-35.346-28.654-64-64-64h-640c-35.346 0-64 28.654-64 64v768c0 35.346 28.654 64 64 64h640c35.346 0 64-28.654 64-64v-768zM294 514h60c19.882 0 36-16.118 36-36v-60c0-19.882-16.118-36-36-36h-60c-19.882 0-36 16.118-36 36v60c0 19.882 16.118 36 36 36zM306 466v-36h36v36h-36zM294 324h60c19.882 0 36-16.118 36-36v-60c0-19.882-16.118-36-36-36h-60c-19.882 0-36 16.118-36 36v60c0 19.882 16.118 36 36 36zM306 276v-36h36v36h-36zM482 514h60c19.882 0 36-16.118 36-36v-60c0-19.882-16.118-36-36-36h-60c-19.882 0-36 16.118-36 36v60c0 19.882 16.118 36 36 36zM494 466v-36h36v36h-36zM482 324h60c19.882 0 36-16.118 36-36v-60c0-19.882-16.118-36-36-36h-60c-19.882 0-36 16.118-36 36v60c0 19.882 16.118 36 36 36zM494 276v-36h36v36h-36zM674 514h60c19.882 0 36-16.118 36-36v-60c0-19.882-16.118-36-36-36h-60c-19.882 0-36 16.118-36 36v60c0 19.882 16.118 36 36 36zM686 466v-36h36v36h-36zM674 324h60c19.882 0 36-16.118 36-36v-60c0-19.882-16.118-36-36-36h-60c-19.882 0-36 16.118-36 36v60c0 19.882 16.118 36 36 36zM686 276v-36h36v36h-36z" />
<glyph unicode="&#xe919;" glyph-name="clock-circle" d="M545 479h192c17.673 0 32-14.327 32-32s-14.327-32-32-32h-224c-17.673 0-32 14.327-32 32 0 0.672 0.021 1.339 0.061 2-0.041 0.661-0.061 1.328-0.061 2v284c0 17.673 14.327 32 32 32s32-14.327 32-32v-256zM512 0c-247.424 0-448 200.576-448 448s200.576 448 448 448c247.424 0 448-200.576 448-448s-200.576-448-448-448zM512 64c212.077 0 384 171.923 384 384s-171.923 384-384 384c-212.077 0-384-171.923-384-384s171.923-384 384-384z" />
<glyph unicode="&#xe91a;" glyph-name="close" d="M511 494.051l198.476 196.68c12.553 12.44 32.815 12.348 45.254-0.206s12.348-32.815-0.206-45.254l-198.062-196.27 198.062-196.27c12.553-12.44 12.646-32.701 0.206-45.254s-32.701-12.646-45.254-0.206l-198.476 196.68-198.476-196.68c-12.553-12.44-32.815-12.348-45.254 0.206s-12.348 32.815 0.206 45.254l198.062 196.27-198.062 196.27c-12.553 12.44-12.646 32.701-0.206 45.254s32.701 12.646 45.254 0.206l198.476-196.68z" />
<glyph unicode="&#xe91b;" glyph-name="Compare-bills" d="M545.020 446.999h-99.020c-17.673 0-32 14.327-32 32s14.327 32 32 32h98.044c-0.286 0.229-0.569 0.463-0.85 0.704l-84 72c-13.418 11.502-14.972 31.703-3.471 45.122s31.703 14.972 45.122 3.471l74.17-63.575 76.885 62.163c13.743 11.111 33.892 8.978 45.003-4.765s8.978-33.892-4.765-45.003l-83.173-67.246c0.036-0.619 0.054-1.242 0.054-1.87v-1h97.017c17.673 0 32-14.327 32-32s-14.327-32-32-32h-97.017v-64h63c17.673 0 32-14.327 32-32s-14.327-32-32-32h-63v-96c0-17.673-14.327-32-32-32s-32 14.327-32 32v96h-65c-17.673 0-32 14.327-32 32s14.327 32 32 32h65v64zM256 199.952l-75.59-62.598c-20.86-17.275-52.41-2.439-52.41 24.646v702c0 17.673 14.327 32 32 32h574c17.673 0 32-14.327 32-32v-96h96c17.673 0 32-14.327 32-32v-702c0-27.981-33.382-42.486-53.836-23.392l-121.664 113.573-121.664-113.573c-12.295-11.477-31.377-11.477-43.672 0l-121.664 113.573-121.664-113.573c-20.454-19.094-53.836-4.59-53.836 23.392v165.952zM256 283.048v452.952c0 17.673 14.327 32 32 32h414v64h-510v-601.952l64 53zM320 267.783v-160.135l89.664 83.701c12.295 11.477 31.377 11.477 43.672 0l121.664-113.573 121.664 113.573c12.295 11.477 31.377 11.477 43.672 0l89.664-83.701v596.352h-510v-435.748c0.001-0.156 0.001-0.313 0-0.469z" />
<glyph unicode="&#xe91c;" glyph-name="confirm" d="M853.985 531.775c-4.188 17.17 6.337 34.483 23.507 38.671s34.483-6.337 38.671-23.507c7.838-32.138 11.838-65.289 11.838-98.939 0-229.752-186.243-416-416-416-229.746 0-416 186.254-416 416s186.254 416 416 416c97.844 0 190.546-33.922 264.495-94.898 13.635-11.243 15.575-31.412 4.331-45.047s-31.412-15.575-45.047-4.331c-62.589 51.609-140.931 80.276-223.779 80.276-194.4 0-352-157.6-352-352s157.6-352 352-352c194.411 0 352 157.594 352 352 0 28.531-3.386 56.592-10.015 83.775zM474.12 336.166l378.827 378.827c12.497 12.497 32.758 12.497 45.255 0s12.497-32.758 0-45.255l-401.455-401.455c-12.497-12.497-32.758-12.497-45.255 0l-174.545 174.545c-12.497 12.497-12.497 32.758 0 45.255s32.758 12.497 45.255 0l151.918-151.918z" />
<glyph unicode="&#xe91d;" glyph-name="Counter-trial" d="M357.623 484.875c0.083 0.084 0.166 0.169 0.25 0.252l99.652 99.652c12.497 12.497 32.758 12.497 45.255 0s12.497-32.758 0-45.255l-45.524-45.524h132.745c48.601 0 88-39.399 88-88v-81c0-48.601-39.399-88-88-88h-210c-17.673 0-32 14.327-32 32s14.327 32 32 32h210c13.255 0 24 10.745 24 24v81c0 13.255-10.745 24-24 24h-210c-17.673 0-32 14.327-32 32 0 8.963 3.685 17.066 9.623 22.875zM705 768v-33c0-17.673-14.327-32-32-32h-322c-17.673 0-32 14.327-32 32v33h-125v-704h636v704h-125zM705 832h157c17.673 0 32-14.327 32-32v-768c0-17.673-14.327-32-32-32h-700c-17.673 0-32 14.327-32 32v768c0 17.673 14.327 32 32 32h157v32c0 17.673 14.327 32 32 32h322c17.673 0 32-14.327 32-32v-32zM383 832v-65h258v65h-258z" />
<glyph unicode="&#xe91e;" glyph-name="creInvoice" d="M484 64c17.673 0 32-14.327 32-32s-14.327-32-32-32h-304c-35.346 0-64 28.654-64 64v768c0 35.346 28.654 64 64 64h640c35.346 0 64-28.654 64-64v-420.564c0-17.673-14.327-32-32-32s-32 14.327-32 32v420.564h-640v-768h304zM308 577c-17.673 0-32 14.327-32 32s14.327 32 32 32h386c17.673 0 32-14.327 32-32s-14.327-32-32-32h-386zM308 417c-17.673 0-32 14.327-32 32s14.327 32 32 32h386c17.673 0 32-14.327 32-32s-14.327-32-32-32h-386zM308 257c-17.673 0-32 14.327-32 32s14.327 32 32 32h176c17.673 0 32-14.327 32-32s-14.327-32-32-32h-176zM693.932 208.099v111.689c0 17.673 14.327 32 32 32s32-14.327 32-32v-111.689h113.543c17.673 0 32-14.327 32-32s-14.327-32-32-32h-113.543v-113.604c0-17.673-14.327-32-32-32s-32 14.327-32 32v113.604h-111.75c-17.673 0-32 14.327-32 32s14.327 32 32 32h111.75z" />
<glyph unicode="&#xe91f;" glyph-name="custom" d="M155.098 485.012h292.792c15.201 0 27.098 11.897 27.098 27.098v292.792c0 15.201-11.897 27.098-27.098 27.098h-292.792c-15.201 0-27.098-11.897-27.098-27.098v-292.792c0-14.54 12.558-27.098 27.098-27.098v0zM182.196 777.804h238.596v-238.596h-238.596v238.596zM896 804.902v-292.792c0-15.201-11.897-27.098-27.098-27.098h-292.792c-15.201 0-27.098 11.897-27.098 27.098v292.792c0 15.201 11.897 27.098 27.098 27.098h292.792c15.201 0 27.098-11.897 27.098-27.098zM841.804 539.208v238.596h-238.596v-238.596h238.596zM155.098 64c-14.54 0-27.098 12.558-27.098 27.098v292.792c0 15.201 11.897 27.098 27.098 27.098h292.792c15.201 0 27.098-11.897 27.098-27.098v-292.792c0-15.201-11.897-27.098-27.098-27.098h-292.792zM182.196 356.792v-238.596h238.596v238.596h-238.596zM868.902 410.988c14.54 0 27.098-12.558 27.098-27.098v-292.792c0-15.201-11.897-27.098-27.098-27.098h-292.792c-15.201 0-27.098 11.897-27.098 27.098v292.792c0 15.201 11.897 27.098 27.098 27.098h292.792zM841.804 118.196v238.596h-238.596v-238.596h238.596z" />
<glyph unicode="&#xe920;" glyph-name="Datepicker" d="M896 577v129h-191v-36.035c0-17.673-14.327-32-32-32s-32 14.327-32 32v36.035h-256v-36.035c0-17.673-14.327-32-32-32s-32 14.327-32 32v36.035h-191v-129h766zM896 513h-766v-385h766v385zM705 770h223c17.673 0 32-14.327 32-32v-642c0-17.673-14.327-32-32-32h-830c-17.673 0-32 14.327-32 32v642c0 17.673 14.327 32 32 32h223v30c0 17.673 14.327 32 32 32s32-14.327 32-32v-30h256v30c0 17.673 14.327 32 32 32s32-14.327 32-32v-30zM350.392 356c-17.673 0-32 14.327-32 32s14.327 32 32 32h321.608c17.673 0 32-14.327 32-32s-14.327-32-32-32h-321.608zM350.392 228c-17.673 0-32 14.327-32 32s14.327 32 32 32h321.608c17.673 0 32-14.327 32-32s-14.327-32-32-32h-321.608z" />
<glyph unicode="&#xe921;" glyph-name="delete" d="M322.137 569.591v-394.667c0-45.918 24.205-70.4 70.4-70.4h238.933c48.603 0 70.4 21.548 70.4 70.4v394.667h-379.733zM663.47 735.991h136.718c37.508 0 68.079-30.561 68.079-68.079v-30.225c0-37.517-30.569-68.096-68.079-68.096h-34.318v-394.667c0-84.363-50.614-134.4-134.4-134.4h-238.933c-81.705 0-134.4 53.297-134.4 134.4v394.667h-34.307c-37.535 0-68.096 30.571-68.096 68.096v30.225c0 37.527 30.562 68.079 68.096 68.079h136.707v67.763c0 28.504 23.195 51.712 51.695 51.712h199.526c28.51 0 51.712-23.202 51.712-51.712v-67.763zM599.47 735.991v55.475h-174.933v-55.475h174.933zM800.188 633.591c2.159 0 4.079 1.921 4.079 4.096v30.225c0 2.167-1.912 4.079-4.079 4.079h-576.358c-2.192 0-4.096-1.903-4.096-4.079v-30.225c0-2.184 1.912-4.096 4.096-4.096h576.358zM480.003 499.191h64v-323.977h-64v323.977zM599.47 499.176h64v-323.977h-64v323.977zM424.537 175.201h-64v323.977h64v-323.977z" />
<glyph unicode="&#xe922;" glyph-name="diaobo" d="M430.255 273l41.373-41.373c12.497-12.497 12.497-32.758 0-45.255s-32.758-12.497-45.255 0l-91.757 91.757c-8.796 5.703-14.616 15.607-14.616 26.871 0 17.673 14.327 32 32 32h0.416c0.386 0.007 0.772 0.007 1.158 0h320.426c17.673 0 32-14.327 32-32s-14.327-32-32-32h-243.745zM674.502 399.004c-0.167-0.003-0.334-0.004-0.502-0.004h-322c-17.673 0-32 14.327-32 32s14.327 32 32 32h245.745l-41.378 41.378c-12.497 12.497-12.497 32.758 0 45.255s32.758 12.497 45.255 0l96.005-96.005c12.497-12.497 12.497-32.758 0-45.255-6.375-6.375-14.771-9.498-23.126-9.369zM829.365 701l-76.234 97h-481.062l-76.868-97h634.163zM864 637h-704v-541h704v541zM264.334 862h496.572c14.727 0 28.639-6.761 37.74-18.34l119.094-151.535c6.647-8.458 10.26-18.903 10.26-29.66v-582.465c0-26.51-21.49-48-48-48h-736c-26.51 0-48 21.49-48 48v582.15c0 10.823 3.658 21.329 10.38 29.812l120.334 151.85c9.105 11.489 22.96 18.188 37.62 18.188z" />
<glyph unicode="&#xe923;" glyph-name="Differences" d="M894.258 484.818c-2.657 27.935-8.308 54.998-16.626 80.864l-332.631-332.631v-97.49l349.258 349.258zM891.945 391.996l-323.942-323.942c167.251 24.439 299.503 156.691 323.942 323.942zM850.643 629.204c-12.577 23.456-27.52 45.454-44.51 65.674l-261.133-261.133v-110.185l305.643 305.643zM761.044 740.299c-20.312 17.323-42.452 32.566-66.091 45.4l-149.954-149.954v-111.49l216.044 216.044zM834.932 758.515c77.451-80.529 125.068-189.961 125.068-310.515 0-247.424-200.576-448-448-448s-448 200.576-448 448c0 247.424 200.576 448 448 448 64.951 0 126.674-13.822 182.387-38.685 6.031-0.895 11.856-3.515 16.678-7.86 42.053-20.892 80.357-48.198 113.633-80.637 1.998-1.255 3.888-2.752 5.627-4.492 1.793-1.793 3.328-3.745 4.606-5.811zM631.716 812.971c-27.654 9.065-56.693 15.075-86.716 17.631v-104.347l86.716 86.716zM481 65.233v765.534c-197.581-15.784-353-181.125-353-382.767s155.419-366.983 353-382.767z" />
<glyph unicode="&#xe924;" glyph-name="disable" d="M225.423 703.323c-60.501-67.857-97.268-157.335-97.268-255.4 0-212.035 171.888-383.923 383.923-383.923 98.065 0 187.543 36.767 255.4 97.268l-542.054 542.054zM271.842 747.413l539.725-539.725c52.826 65.771 84.433 149.312 84.433 240.235 0 212.035-171.888 383.923-383.923 383.923-90.923 0-174.464-31.607-240.235-84.433zM512.077-0.154c-247.466 0-448.077 200.611-448.077 448.077s200.611 448.077 448.077 448.077c247.466 0 448.077-200.611 448.077-448.077s-200.611-448.077-448.077-448.077z" />
<glyph unicode="&#xe925;" glyph-name="down-arrow" d="M229.89 567.228c-3.972 3.966-5.959 8.924-5.959 14.377s1.986 10.411 5.959 14.377c7.945 7.932 20.855 7.932 28.8 0l253.241-252.834 253.241 252.834c7.945 7.932 20.855 7.932 28.8 0s7.945-20.822 0-28.754l-267.641-267.21c-7.945-7.932-20.855-7.932-28.8 0l-267.641 267.21z" />
<glyph unicode="&#xe926;" glyph-name="download" d="M728.935 592.15h111.633l4.231-0.281c44.975-5.999 70.734-35.521 66.569-75.080-2.918-27.717-20.781-57.12-46.58-80.010l-277.812-224.71c-44.862-43.562-112.484-43.619-157.405-0.17l-285.859 224.597-2.857 2.535c-46.494 46.494-38.045 122.441 16.52 149.738 4.445 2.224 9.347 3.381 14.317 3.381h123.938v132.147c0 62.818 51.246 114.057 114.074 114.057h205.158c62.828 0 114.074-51.238 114.074-114.057v-132.147zM696.935 528.15c-17.673 0-32 14.327-32 32v164.147c0 27.47-22.59 50.057-50.074 50.057h-205.158c-27.484 0-50.074-22.587-50.074-50.057v-164.147c0-17.673-14.327-32-32-32h-146.346c-9.354-9.178-9.761-28.198 3.675-42.67l288.394-226.878c20.341-20.33 49.326-20.33 69.667 0l2.497 2.247 277.885 224.724c13.684 12.166 23.268 27.942 24.318 37.917 0.353 3.357 0.557 3.359-9.266 4.66h-141.519zM135.751 57.558c-17.673 0-32 14.327-32 32s14.327 32 32 32h750.933c17.673 0 32-14.327 32-32s-14.327-32-32-32h-750.933z" />
<glyph unicode="&#xe927;" glyph-name="edit" d="M837.102 625.473c6.7 6.7 5.72 21.456-5.154 32.33l-110.336 110.336c-10.89 10.89-25.63 11.872-32.33 5.172l-505.826-505.843 1.432-146.304 146.395-1.509 505.818 505.818zM344.071 55.519l-172.59 1.847c-26.392 1.991-48.287 23.874-50.412 52.387l-1.741 170.513c-0.088 8.6 3.29 16.872 9.371 22.954l515.328 515.345c33.137 33.137 88.2 29.469 122.84-5.171l110.336-110.336c34.627-34.627 38.287-89.707 5.154-122.84l-515.328-515.328c-6.082-6.082-14.356-9.46-22.957-9.371zM149.24 278.522c-12.497 12.497-12.497 32.758 0 45.255s32.758 12.497 45.255 0l193.075-193.075c12.497-12.497 12.497-32.758 0-45.255s-32.758-12.497-45.255 0l-193.075 193.075zM595.756 725.040c-12.496 12.497-12.495 32.759 0.002 45.255s32.759 12.495 45.255-0.002l194.901-194.918c12.496-12.497 12.495-32.759-0.002-45.255s-32.759-12.495-45.255 0.002l-194.901 194.918zM254.827 218.181c-12.497-12.497-32.758-12.497-45.255 0s-12.497 32.758 0 45.255l446.515 446.515c12.497 12.497 32.758 12.497 45.255 0s12.497-32.758 0-45.255l-446.515-446.515zM327.244 145.772c-12.497-12.497-32.758-12.497-45.255 0s-12.497 32.758 0 45.255l446.515 446.515c12.497 12.497 32.758 12.497 45.255 0s12.497-32.758 0-45.255l-446.515-446.515z" />
<glyph unicode="&#xe928;" glyph-name="edit_del" d="M512 64c-212.077 0-384 171.923-384 384s171.923 384 384 384c212.077 0 384-171.923 384-384s-171.923-384-384-384zM438 590h-66c-17.673 0-32-14.327-32-32v-18c0-17.673 14.327-32 32-32h16v-214c0-26.51 21.49-48 48-48h152c26.51 0 48 21.49 48 48v214h18c17.673 0 32 14.327 32 32v18c0 17.673-14.327 32-32 32h-68v24c0 15.464-12.536 28-28 28h-92c-15.464 0-28-12.536-28-28v-24zM466 558h184c2.209 0 4-1.791 4-4v-10c0-2.209-1.791-4-4-4h-274c-2.209 0-4 1.791-4 4v10c0 2.209 1.791 4 4 4h90zM420 508h184v-214c0-8.837-7.163-16-16-16h-152c-8.837 0-16 7.163-16 16v214zM437 458v-130c0-8.837 7.163-16 16-16s16 7.163 16 16v130c0 8.837-7.163 16-16 16s-16-7.163-16-16zM497 458v-130c0-8.837 7.163-16 16-16s16 7.163 16 16v130c0 8.837-7.163 16-16 16s-16-7.163-16-16zM553 458v-130c0-8.837 7.163-16 16-16s16 7.163 16 16v130c0 8.837-7.163 16-16 16s-16-7.163-16-16zM470 606c0 2.209 1.791 4 4 4h76c2.209 0 4-1.791 4-4v-12c0-2.209-1.791-4-4-4h-76c-2.209 0-4 1.791-4 4v12z" />
<glyph unicode="&#xe929;" glyph-name="edit_list" d="M512 64c-212.077 0-384 171.923-384 384s171.923 384 384 384c212.077 0 384-171.923 384-384s-171.923-384-384-384zM336.372 360l-0.372-72.405c0-4.084 1.488-8.169 4.465-11.139s6.698-4.456 10.791-4.456l72.186 0.371c4.093 0 7.814 1.485 10.791 4.456l249.302 248.776c5.953 5.941 5.953 15.595 0 21.907l-71.442 72.034c-5.953 5.941-15.628 5.941-21.953 0l-49.86-50.127-199.442-198.65c-2.605-2.97-4.465-6.684-4.465-10.768zM601.302 586.869l50.233-50.127-28.279-28.219-50.233 50.127 28.279 28.219zM367.256 353.316l183.814 183.426 50.233-50.127-183.814-183.055-50.605-0.371 0.372 50.127z" />
<glyph unicode="&#xe92a;" glyph-name="edit_load" d="M512 64c-212.077 0-384 171.923-384 384s171.923 384 384 384c212.077 0 384-171.923 384-384s-171.923-384-384-384zM352 311c-8.837 0-16-7.163-16-16s7.163-16 16-16h320c8.837 0 16 7.163 16 16s-7.163 16-16 16h-320zM454 470.877c8.837 0 16 7.163 16 16v99.123h84v-99.123c0-8.837 7.163-16 16-16h56.388l-114.388-91.51-114.388 91.51h56.388zM438.019 502.877h-74.616c-11.046 0-20-8.954-20-20 0-6.076 2.762-11.822 7.506-15.617l148.597-118.878c7.304-5.843 17.683-5.843 24.988 0l148.597 118.878c8.625 6.9 10.024 19.486 3.123 28.111-3.795 4.744-9.542 7.506-15.617 7.506h-74.616c0.013 0.373 0.019 0.747 0.019 1.123v82c0 17.673-14.327 32-32 32h-84c-17.673 0-32-14.327-32-32v-82c0-0.376 0.006-0.75 0.019-1.123z" />
<glyph unicode="&#xe92b;" glyph-name="editAdd" d="M496 464h-144c-8.837 0-16-7.163-16-16s7.163-16 16-16h144v-144c0-8.837 7.163-16 16-16s16 7.163 16 16v144h144c8.837 0 16 7.163 16 16s-7.163 16-16 16h-144v144c0 8.837-7.163 16-16 16s-16-7.163-16-16v-144zM512 64c-212.077 0-384 171.923-384 384s171.923 384 384 384c212.077 0 384-171.923 384-384s-171.923-384-384-384z" />
<glyph unicode="&#xe92c;" glyph-name="editMminus" d="M512 64c-212.077 0-384 171.923-384 384s171.923 384 384 384c212.077 0 384-171.923 384-384s-171.923-384-384-384zM352 464c-8.837 0-16-7.163-16-16s7.163-16 16-16h320c8.837 0 16 7.163 16 16s-7.163 16-16 16h-320z" />
<glyph unicode="&#xe92d;" glyph-name="enable" d="M512.077-0.154c-247.466 0-448.077 200.611-448.077 448.077s200.611 448.077 448.077 448.077c247.466 0 448.077-200.611 448.077-448.077s-200.611-448.077-448.077-448.077zM512.077 64c212.035 0 383.923 171.888 383.923 383.923s-171.888 383.923-383.923 383.923c-212.035 0-383.923-171.888-383.923-383.923s171.888-383.923 383.923-383.923zM452.077 571.137v-246.428l179.464 123.214-179.464 123.214zM706.189 421.542l-268-184c-21.234-14.578-50.112 0.624-50.112 26.381v368c0 25.757 28.879 40.959 50.112 26.381l268-184c18.517-12.713 18.517-40.048 0-52.762z" />
<glyph unicode="&#xe92e;" glyph-name="enlarge" d="M477.867 482.133v157.867c0 17.067 12.8 34.133 34.133 34.133s34.133-12.8 34.133-34.133v-157.867h166.4c17.067 0 34.133-12.8 34.133-34.133s-12.8-34.133-34.133-34.133h-166.4v-162.133c0-17.067-12.8-34.133-34.133-34.133s-34.133 12.8-34.133 34.133v162.133h-157.867c-17.067 0-34.133 12.8-34.133 34.133s12.8 34.133 34.133 34.133h157.867zM512 0c-247.467 0-448 200.533-448 448s200.533 448 448 448 448-200.533 448-448-200.533-448-448-448zM512 64c213.333 0 384 170.667 384 384s-170.667 384-384 384-384-170.667-384-384 170.667-384 384-384z" />
<glyph unicode="&#xe92f;" glyph-name="error-big" d="M665.9 602.35c-10.575 10.5-27.675 10.5-38.175-0.075l-115.725-116.025-115.725 116.025c-10.5 10.575-27.6 10.575-38.175 0.075s-10.575-27.6-0.075-38.175l115.875-116.175-115.875-116.175c-10.5-10.575-10.5-27.675 0.075-38.175 5.25-5.25 12.15-7.875 19.050-7.875s13.875 2.625 19.125 7.95l115.725 116.025 115.725-116.1c5.25-5.325 12.225-7.95 19.125-7.95s13.8 2.625 19.050 7.875c10.575 10.5 10.575 27.6 0.075 38.175l-115.875 116.25 115.8 116.175c10.575 10.575 10.575 27.675 0 38.175v0zM512 832c-212.1 0-384-171.9-384-384s171.9-384 384-384c212.1 0 384 171.9 384 384s-171.9 384-384 384v0zM745.325 214.675c-30.3-30.3-65.625-54.15-104.925-70.725-40.65-17.25-83.85-25.95-128.4-25.95s-87.75 8.7-128.4 25.875c-39.3 16.65-74.55 40.425-104.925 70.725-30.3 30.3-54.15 65.625-70.725 104.925-17.25 40.725-25.95 83.925-25.95 128.475s8.7 87.75 25.875 128.4c16.65 39.3 40.425 74.55 70.725 104.925 30.3 30.3 65.625 54.15 104.925 70.725 40.725 17.25 83.925 25.95 128.475 25.95s87.75-8.7 128.4-25.875c39.3-16.65 74.55-40.425 104.925-70.725 30.3-30.3 54.15-65.625 70.725-104.925 17.25-40.725 25.95-83.925 25.95-128.475s-8.7-87.75-25.875-128.4c-16.65-39.3-40.425-74.625-70.8-104.925v0z" />
<glyph unicode="&#xe930;" glyph-name="error" d="M512.667 746c-164.967 0-298.667-133.7-298.667-298.667s133.7-298.667 298.667-298.667c164.967 0 298.667 133.7 298.667 298.667s-133.7 298.667-298.667 298.667v0zM653.25 335.742c7.35-7.233 7.467-19.017 0.292-26.425v0c-7.233-7.35-19.017-7.467-26.425-0.292l-114.45 112.175-114.45-112.117c-7.35-7.233-19.192-7.117-26.425 0.292v0c-7.233 7.35-7.117 19.192 0.292 26.425l113.925 111.533-113.925 111.592c-7.35 7.233-7.467 19.017-0.292 26.425v0c7.233 7.35 19.017 7.467 26.425 0.292l114.45-112.175 114.45 112.117c7.35 7.233 19.192 7.117 26.425-0.292v0c7.233-7.35 7.117-19.192-0.292-26.425l-113.925-111.533 113.925-111.592z" />
<glyph unicode="&#xe931;" glyph-name="exit" d="M512 23.467c-234.454 0-424.533 190.079-424.533 424.533 0 234.465 190.074 424.533 424.533 424.533s424.533-190.068 424.533-424.533c0-234.454-190.079-424.533-424.533-424.533zM512 87.467c199.108 0 360.533 161.426 360.533 360.533 0 199.119-161.42 360.533-360.533 360.533s-360.533-161.415-360.533-360.533c0-199.108 161.426-360.533 360.533-360.533zM352.839 596.039c-12.497 12.497-12.497 32.758 0 45.255s32.758 12.497 45.255 0l170.667-170.667c12.497-12.497 12.497-32.758 0-45.255l-170.667-170.667c-12.497-12.497-32.758-12.497-45.255 0s-12.497 32.758 0 45.255l148.039 148.039-148.039 148.039zM616.533 618.667c0 17.673 14.327 32 32 32s32-14.327 32-32v-341.333c0-17.673-14.327-32-32-32s-32 14.327-32 32v341.333z" />
<glyph unicode="&#xe932;" glyph-name="exit-Screen" d="M381.090 551c-0.037 0-0.074 0-0.111 0h-224.978c-17.673 0-32 14.327-32 32s14.327 32 32 32h146.866l-197.313 194.193c-12.596 12.397-12.757 32.657-0.361 45.253s32.657 12.757 45.253 0.361l198.554-195.414v148.607c0 17.673 14.327 32 32 32s32-14.327 32-32v-224.981c0-0.11 0-0.219-0.001-0.329-0.040-4.181-0.881-8.17-2.378-11.821-1.494-3.652-3.693-7.086-6.598-10.094-0.092-0.096-0.185-0.191-0.279-0.285-3.061-3.093-6.597-5.431-10.377-7.013-3.779-1.585-7.926-2.465-12.277-2.477zM643.91 344c0.037 0 0.074 0 0.111 0h224.978c17.673 0 32-14.327 32-32s-14.327-32-32-32h-146.866l197.313-194.193c12.596-12.397 12.757-32.657 0.361-45.253s-32.657-12.757-45.253-0.361l-198.554 195.414v-148.607c0-17.673-14.327-32-32-32s-32 14.327-32 32v224.981c0 0.11 0 0.219 0.001 0.329 0.040 4.181 0.881 8.17 2.378 11.821 1.494 3.652 3.693 7.086 6.598 10.094 0.092 0.096 0.185 0.191 0.279 0.285 3.061 3.093 6.597 5.431 10.377 7.013 3.779 1.585 7.926 2.465 12.277 2.477z" />
<glyph unicode="&#xe933;" glyph-name="export" d="M865.616 817.796c3.774-1.562 7.31-3.876 10.378-6.944s5.383-6.604 6.944-10.378c1.565-3.773 2.428-7.91 2.428-12.249v-170.667c0-17.673-14.327-32-32-32s-32 14.327-32 32v93.412l-406.173-406.173c-12.497-12.497-32.758-12.497-45.255 0s-12.497 32.758 0 45.255l406.173 406.173h-93.412c-17.673 0-32 14.327-32 32s14.327 32 32 32h170.667c4.339 0 8.476-0.864 12.249-2.428zM821.367 429.899c0 17.673 14.327 32 32 32s32-14.327 32-32v-221.935c0-73.993-60.407-134.4-134.4-134.4h-477.867c-73.993 0-134.4 60.407-134.4 134.4v477.867c0 73.993 60.407 134.4 134.4 134.4h230.468c17.673 0 32-14.327 32-32s-14.327-32-32-32h-230.468c-38.647 0-70.4-31.753-70.4-70.4v-477.867c0-38.647 31.753-70.4 70.4-70.4h477.867c38.647 0 70.4 31.753 70.4 70.4v221.935z" />
<glyph unicode="&#xe934;" glyph-name="folding" d="M736 672v-448c0-17.673-14.327-32-32-32s-32 14.327-32 32v448c0 17.673 14.327 32 32 32s32-14.327 32-32zM608 672v-448c0-17.673-14.327-32-32-32s-32 14.327-32 32v448c0 17.673 14.327 32 32 32s32-14.327 32-32zM480 672v-448c0-17.673-14.327-32-32-32s-32 14.327-32 32v448c0 17.673 14.327 32 32 32s32-14.327 32-32zM352 672v-448c0-17.673-14.327-32-32-32s-32 14.327-32 32v448c0 17.673 14.327 32 32 32s32-14.327 32-32z" />
<glyph unicode="&#xe935;" d="M128 104h770c17.673 0 32-14.327 32-32s-14.327-32-32-32h-770c-17.673 0-32 14.327-32 32s14.327 32 32 32zM368.864 372.445l-75.186-186.091c-6.62-16.386-25.271-24.303-41.657-17.682s-24.303 25.271-17.682 41.657l248.739 615.65c6.62 16.386 25.271 24.303 41.657 17.682 6.098-2.464 11.023-6.594 14.463-11.653 1.8-2.303 3.312-4.893 4.462-7.738l248.739-615.65c6.62-16.386-1.296-35.037-17.682-41.657s-35.037 1.296-41.657 17.682l-75.876 187.8h-288.319zM394.722 436.445h236.603l-118.302 292.807-118.302-292.807z" />
<glyph unicode="&#xe936;" d="M128 104h770c17.673 0 32-14.327 32-32v0c0-17.673-14.327-32-32-32h-770c-17.673 0-32 14.327-32 32v0c0 17.673 14.327 32 32 32z" />
<glyph unicode="&#xe937;" glyph-name="freeze" d="M543.718 278.175l152.701-149.719c12.619-12.373 12.819-32.633 0.446-45.253s-32.633-12.819-45.253-0.446l-107.894 105.787v-163.968c0-17.673-14.327-32-32-32s-32 14.327-32 32v164.974l-107.431-109.549c-12.374-12.618-32.635-12.816-45.253-0.442s-12.816 32.635-0.442 45.253l153.126 156.144v135.326h-138.125l-149.716-152.698c-12.373-12.619-32.633-12.819-45.253-0.446s-12.819 32.633-0.446 45.253l105.785 107.891h-163.963c-17.673 0-32 14.327-32 32s14.327 32 32 32h165.028l-109.572 107.432c-12.619 12.373-12.819 32.633-0.446 45.253s32.633 12.819 45.253 0.446l156.181-153.131h135.275v102.827l-152.695 149.684c-12.621 12.372-12.822 32.632-0.451 45.253s32.632 12.822 45.253 0.451l107.893-105.766v199.269c0 17.673 14.327 32 32 32s32-14.327 32-32v-200.324l107.432 109.572c12.373 12.619 32.633 12.819 45.253 0.446s12.819-32.633 0.446-45.253l-153.131-156.181v-99.979h119.075l152.925 152.925c12.497 12.497 32.758 12.497 45.255 0s12.497-32.758 0-45.255l-107.67-107.67h182.121c17.673 0 32-14.327 32-32s-14.327-32-32-32h-182.134l107.683-107.683c12.497-12.497 12.497-32.758 0-45.255s-32.758-12.497-45.255 0l-152.938 152.938h-119.062v-138.107z" />
<glyph unicode="&#xe938;" glyph-name="full-Screen" d="M127.907 864c0.039 0 0.077 0 0.116 0h224.977c17.673 0 32-14.327 32-32s-14.327-32-32-32h-146.829l187.268-184.186c12.6-12.393 12.768-32.653 0.376-45.253s-32.653-12.768-45.253-0.376l-188.561 185.457v-148.643c0-17.673-14.327-32-32-32s-32 14.327-32 32v224.981c0 0.114 0 0.228 0.002 0.342 0.041 4.174 0.882 8.158 2.376 11.804 1.491 3.647 3.685 7.076 6.583 10.081 0.096 0.1 0.193 0.199 0.291 0.298 3.060 3.094 6.597 5.433 10.377 7.015 3.779 1.586 7.926 2.467 12.278 2.479zM127.907 31c-4.352 0.012-8.499 0.894-12.278 2.479-3.78 1.582-7.317 3.921-10.377 7.015-0.098 0.099-0.194 0.198-0.291 0.298-2.898 3.005-5.092 6.434-6.583 10.081-1.494 3.646-2.335 7.629-2.376 11.804-0.001 0.114-0.002 0.228-0.002 0.342v224.981c0 17.673 14.327 32 32 32s32-14.327 32-32v-148.643l188.561 185.457c12.6 12.393 32.861 12.225 45.253-0.376s12.225-32.861-0.376-45.253l-187.268-184.186h146.829c17.673 0 32-14.327 32-32s-14.327-32-32-32h-224.977c-0.039 0-0.077 0-0.116 0zM899.093 864c4.352-0.012 8.499-0.894 12.278-2.479 3.78-1.582 7.317-3.921 10.377-7.015 0.098-0.099 0.194-0.198 0.291-0.298 2.898-3.005 5.092-6.434 6.583-10.081 1.494-3.646 2.335-7.629 2.376-11.804 0.001-0.114 0.002-0.228 0.002-0.342v-224.981c0-17.673-14.327-32-32-32s-32 14.327-32 32v148.643l-188.561-185.457c-12.6-12.393-32.861-12.225-45.253 0.376s-12.225 32.861 0.376 45.253l187.268 184.186h-146.829c-17.673 0-32 14.327-32 32s14.327 32 32 32h224.977c0.039 0 0.077 0 0.116 0zM899.093 31c-0.039 0-0.077 0-0.116 0h-224.977c-17.673 0-32 14.327-32 32s14.327 32 32 32h146.829l-187.268 184.186c-12.6 12.393-12.768 32.653-0.376 45.253s32.653 12.768 45.253 0.376l188.561-185.457v148.643c0 17.673 14.327 32 32 32s32-14.327 32-32v-224.981c0-0.114 0-0.228-0.002-0.342-0.041-4.174-0.882-8.158-2.376-11.804-1.491-3.647-3.685-7.076-6.583-10.081-0.096-0.1-0.193-0.199-0.291-0.298-3.060-3.094-6.597-5.433-10.377-7.015-3.779-1.586-7.926-2.467-12.278-2.479z" />
<glyph unicode="&#xe939;" glyph-name="geteDoc" d="M488 64c17.673 0 32-14.327 32-32s-14.327-32-32-32h-308c-35.346 0-64 28.654-64 64v768c0 35.346 28.654 64 64 64h640c35.346 0 64-28.654 64-64v-380.564c0-17.673-14.327-32-32-32s-32 14.327-32 32v380.564h-640v-768h308zM308 577c-17.673 0-32 14.327-32 32s14.327 32 32 32h386c17.673 0 32-14.327 32-32s-14.327-32-32-32h-386zM308 417c-17.673 0-32 14.327-32 32s14.327 32 32 32h386c17.673 0 32-14.327 32-32s-14.327-32-32-32h-386zM308 257c-17.673 0-32 14.327-32 32s14.327 32 32 32h180c17.673 0 32-14.327 32-32s-14.327-32-32-32h-180zM601.325 108.71c-0.775 11.79 5.032 23.553 15.959 29.843 15.318 8.818 34.897 3.541 43.731-11.785 4.288-7.439 9.69-14.247 16.13-20.253 35.197-32.822 105.736-34.072 138.524 1.090 5.992 6.425 10.894 13.578 14.643 21.282 7.734 15.893 26.894 22.495 42.796 14.746s22.524-26.915 14.79-42.808c-6.522-13.403-15.037-25.827-25.375-36.912-45.336-48.617-125.062-58.585-186.486-31.814l0.36-2.485c2.285-17.533-10.078-33.585-27.615-35.853s-33.606 10.107-35.891 27.64l-11.51 79.424c-0.349 2.677-0.356 5.32-0.056 7.884zM885.004 240.489c1.385-11.518-3.558-23.381-13.82-30.33-14.634-9.91-34.544-6.074-44.47 8.57-3.652 5.387-7.927 10.386-12.795 14.925-35.197 32.822-112.635 24.699-145.423-10.463-4.544-4.873-8.463-10.166-11.728-15.804-8.858-15.294-28.445-20.499-43.749-11.626s-20.53 28.464-11.672 43.758c5.673 9.795 7.288 13.598 14.653 22.406 45.159 54.014 120.447 74.372 189.346 48.574l-2.081 9.969c-3.503 17.331 7.711 34.206 25.047 37.692s34.229-7.738 37.732-25.069l18.369-88.012c0.311-1.536 0.505-3.069 0.591-4.589z" />
<glyph unicode="&#xe93a;" glyph-name="getList" d="M762 108.417l90.21 90.21c12.497 12.497 32.758 12.497 45.255 0s12.497-32.758 0-45.255l-144.838-144.838c-6.396-6.396-14.826-9.519-23.208-9.367-8.382-0.151-16.812 2.971-23.208 9.367l-144.838 144.838c-12.497 12.497-12.497 32.758 0 45.255s32.758 12.497 45.255 0l91.373-91.373v214.745c0 17.673 14.327 32 32 32s32-14.327 32-32v-213.583zM514 62c17.673 0 32-14.327 32-32s-14.327-32-32-32h-320c-35.346 0-64 28.654-64 64v768c0 35.346 28.654 64 64 64h640c35.346 0 64-28.654 64-64v-386.564c0-17.673-14.327-32-32-32s-32 14.327-32 32v386.564h-640v-768h320zM322 575c-17.673 0-32 14.327-32 32s14.327 32 32 32h386c17.673 0 32-14.327 32-32s-14.327-32-32-32h-386zM322 415c-17.673 0-32 14.327-32 32s14.327 32 32 32h192c17.673 0 32-14.327 32-32s-14.327-32-32-32h-192zM322 255c-17.673 0-32 14.327-32 32s14.327 32 32 32h192c17.673 0 32-14.327 32-32s-14.327-32-32-32h-192z" />
<glyph unicode="&#xe93b;" glyph-name="goodsFinish" d="M841.713 639l-101.549 161h-454.325l-101.525-161h657.399zM866 575h-704c-0.672 0-1.339 0.021-2 0.061v-479.061h706v479zM268 864h490c11.088 0 21.386-5.74 27.217-15.171l140-222.412c3.127-5.057 4.783-10.884 4.783-16.829v-545.588c0-17.673-14.327-32-32-32h-770c-17.673 0-32 14.327-32 32v545.535c0 5.944 1.656 11.771 4.781 16.827l140 222.465c5.831 9.432 16.13 15.173 27.219 15.173zM458.545 249.8l245.071 251.455c12.497 12.497 32.758 12.497 45.255 0s12.497-32.758 0-45.255l-267.699-274.082c-12.497-12.497-32.758-12.497-45.255 0l-152.739 153.159c-12.497 12.497-12.497 32.758 0 45.255s32.758 12.497 45.255 0l130.111-130.532z" />
<glyph unicode="&#xe93c;" glyph-name="help-2" d="M512 0c-247.424 0-448 200.576-448 448s200.576 448 448 448c247.424 0 448-200.576 448-448s-200.576-448-448-448zM512 64c212.077 0 384 171.923 384 384s-171.923 384-384 384c-212.077 0-384-171.923-384-384s171.923-384 384-384zM637.281 674.284c29.817-26.482 44.721-60.908 44.719-103.318 0-43.432-29.155-88.943-87.505-136.473-34.845-28.285-52.244-60.653-52.244-97.156l-0.337-11.181-0.074-0.089c-1.176-15.697-14.325-28.067-30.388-28.067-16.834 0-30.483 13.589-30.483 30.356 0 0.923 0.048 1.834 0.13 2.737l-0.008 0.081c0 35.466 3.408 61.167 10.232 77.115 6.824 15.929 22.396 34.702 46.661 56.279l24.78 21.98c33.315 29.816 49.948 59.255 49.948 88.283 0 24.93-8.978 45.36-26.913 61.289s-40.715 23.914-68.329 23.914c-71.493 0-107.461-40.798-107.983-122.353 0-0.069 0.005-0.138 0.005-0.207 0-0.122-0.008-0.241-0.009-0.361-0.002-0.412-0.009-0.819-0.009-1.234h-0.022c-0.836-17.264-15.154-31.005-32.697-31.005s-31.86 13.741-32.695 31.005h-0.061c0 55.006 15.806 98.436 47.43 130.315 31.631 31.877 74.663 47.804 129.131 47.804 48.008 0 86.907-13.252 116.719-39.716zM474 222c0 23.196 18.804 42 42 42s42-18.804 42-42c0-23.196-18.804-42-42-42s-42 18.804-42 42z" />
<glyph unicode="&#xe93d;" glyph-name="help-big" d="M512 832c-212.1 0-384-171.9-384-384s171.9-384 384-384c212.1 0 384 171.9 384 384s-171.9 384-384 384v0zM745.325 214.675c-30.3-30.3-65.625-54.15-104.925-70.725-40.65-17.25-83.85-25.95-128.4-25.95s-87.75 8.7-128.4 25.875c-39.3 16.65-74.55 40.425-104.925 70.725-30.3 30.3-54.15 65.625-70.725 104.925-17.25 40.725-25.95 83.925-25.95 128.475s8.7 87.75 25.875 128.4c16.65 39.3 40.425 74.55 70.725 104.925 30.3 30.3 65.625 54.15 104.925 70.725 40.725 17.25 83.925 25.95 128.475 25.95s87.75-8.7 128.4-25.875c39.3-16.65 74.55-40.425 104.925-70.725 30.3-30.3 54.15-65.625 70.725-104.925 17.25-40.725 25.95-83.925 25.95-128.475s-8.7-87.75-25.875-128.4c-16.65-39.3-40.425-74.625-70.8-104.925v0zM600.65 302.8h-63.9v262.575c0 14.925-12.075 27-27 27v0h-72c-14.925 0-27-12.075-27-27v0c0-14.925 12.075-27 27-27h45v-235.575h-63.9c-14.925 0-27-12.075-27-27v0c0-14.925 12.075-27 27-27h181.8c14.925 0 27 12.075 27 27v0c0 14.925-12.075 27-27 27v0zM482.75 666.625c0 14.912 12.088 27 27 27s27-12.088 27-27c0-14.912-12.088-27-27-27s-27 12.088-27 27v0z" />
<glyph unicode="&#xe93e;" glyph-name="help" d="M512.667 746c-164.967 0-298.667-133.7-298.667-298.667s133.7-298.667 298.667-298.667c164.967 0 298.667 133.7 298.667 298.667s-133.7 298.667-298.667 298.667v0zM512.667 634c10.325 0 18.667-8.342 18.667-18.667s-8.342-18.667-18.667-18.667c-10.325 0-18.667 8.342-18.667 18.667s8.342 18.667 18.667 18.667v0zM568.375 260.667h-111.417c-10.325 0-18.667 8.342-18.667 18.667s8.342 18.667 18.667 18.667h36.167v188.125h-36.75c-10.325 0-18.667 8.342-18.667 18.667s8.342 18.667 18.667 18.667h55.417c10.325 0 18.667-8.342 18.667-18.667v-206.792h37.917c10.325 0 19.25-8.342 19.25-18.667s-8.925-18.667-19.25-18.667v0z" />
<glyph unicode="&#xe93f;" glyph-name="HelpCenter_icon" d="M512 149.333c-164.949 0-298.667 133.718-298.667 298.667s133.718 298.667 298.667 298.667c164.949 0 298.667-133.718 298.667-298.667s-133.718-298.667-298.667-298.667zM512 192c141.385 0 256 114.615 256 256s-114.615 256-256 256c-141.385 0-256-114.615-256-256s114.615-256 256-256zM595.52 598.856c19.878-17.655 29.814-40.605 29.813-68.879 0-28.955-19.436-59.296-58.337-90.982-23.23-18.856-34.83-40.436-34.83-64.77l-0.224-7.454-0.049-0.059c-0.784-10.465-9.55-18.712-20.259-18.712-11.223 0-20.322 9.059-20.322 20.237 0 0.615 0.032 1.223 0.086 1.825l-0.005 0.054c0 23.644 2.272 40.778 6.821 51.41 4.549 10.619 14.93 23.134 31.108 37.519l16.52 14.654c22.21 19.877 33.299 39.503 33.299 58.855 0 16.62-5.985 30.24-17.942 40.859s-27.143 15.943-45.553 15.943c-47.662 0-71.641-27.198-71.989-81.569 0-0.046 0.003-0.092 0.003-0.138 0-0.081-0.005-0.161-0.006-0.241-0.001-0.275-0.006-0.546-0.006-0.822h-0.014c-0.557-11.509-10.103-20.67-21.798-20.67s-21.24 9.161-21.796 20.67h-0.041c0 36.67 10.537 65.624 31.62 86.877 21.087 21.251 49.775 31.869 86.087 31.869 32.005 0 57.938-8.835 77.813-26.477zM486.667 297.333c0 15.464 12.536 28 28 28s28-12.536 28-28c0-15.464-12.536-28-28-28s-28 12.536-28 28zM1024 106.667v-170.667h-170.667z" />
<glyph unicode="&#xe940;" glyph-name="Home-page" d="M445.948 464.067l202.415 168.679c8.874 7.395 22.062 6.196 29.457-2.678 3.132-3.759 4.848-8.497 4.848-13.389v-337.358c0-11.551-9.364-20.915-20.915-20.915-4.893 0-9.631 1.715-13.389 4.848l-202.415 168.679c-8.874 7.395-10.073 20.583-2.678 29.457 0.81 0.972 1.706 1.868 2.678 2.678zM405.333 661.333c11.782 0 21.333-9.551 21.333-21.333v-384c0-11.782-9.551-21.333-21.333-21.333s-21.333 9.551-21.333 21.333v384c0 11.782 9.551 21.333 21.333 21.333z" />
<glyph unicode="&#xe941;" glyph-name="ic_ucheck" d="M853.985 531.775c-4.188 17.17 6.337 34.483 23.507 38.671s34.483-6.337 38.671-23.507c7.838-32.138 11.838-65.289 11.838-98.939 0-229.752-186.243-416-416-416-229.746 0-416 186.254-416 416s186.254 416 416 416c97.844 0 190.546-33.922 264.495-94.898 13.635-11.243 15.575-31.412 4.331-45.047s-31.412-15.575-45.047-4.331c-62.589 51.609-140.931 80.276-223.779 80.276-194.4 0-352-157.6-352-352s157.6-352 352-352c194.411 0 352 157.594 352 352 0 28.531-3.386 56.592-10.015 83.775zM557.255 448l124.451-124.451c12.497-12.497 12.497-32.758 0-45.255s-32.758-12.497-45.255 0l-124.451 124.451-124.451-124.451c-12.497-12.497-32.758-12.497-45.255 0s-12.497 32.758 0 45.255l124.451 124.451-124.451 124.451c-12.497 12.497-12.497 32.758 0 45.255s32.758 12.497 45.255 0l124.451-124.451 124.451 124.451c12.497 12.497 32.758 12.497 45.255 0s12.497-32.758 0-45.255l-124.451-124.451z" />
<glyph unicode="&#xe942;" glyph-name="Ignore-passback" d="M489.42 310.618l-44.755 44.755c-12.497 12.497-12.497 32.758 0 45.255s32.758 12.497 45.255 0l44.755-44.755 44.462 44.462c12.497 12.497 32.758 12.497 45.255 0s12.497-32.758 0-45.255l-44.462-44.462 45.755-45.755c12.497-12.497 12.497-32.758 0-45.255s-32.758-12.497-45.255 0l-45.755 45.755-46.048-46.048c-12.497-12.497-32.758-12.497-45.255 0s-12.497 32.758 0 45.255l46.048 46.048zM657.382 275.967v64.012h34.971v148.028h-159.979c-12.75 0-24.28 7.586-29.341 19.303l-21.036 48.71h-105.31v-216.041h36.952v-64.012h-68.919c-17.654 0-31.966 14.33-31.966 32.006v280.054c0 17.676 14.312 32.006 31.966 32.006h158.28c12.75 0 24.28-7.586 29.341-19.303l21.036-48.71h170.941c17.654 0 31.966-14.33 31.966-32.006v-212.041c0-17.676-14.312-32.006-31.966-32.006h-66.937zM207.273 646.539l18.526 7.285c16.432 6.462 34.986-1.637 41.439-18.090s-1.635-35.029-18.068-41.491l-92.551-36.396c-14.164-5.57-29.903-0.322-38.112 11.77-1.642 2.159-3.034 4.564-4.118 7.191l-37.96 92.018c-6.74 16.338 1.024 35.053 17.342 41.801s35.009-1.026 41.748-17.363l10.28-24.92c76.368 128.992 216.032 211.657 371 211.657 238.15 0 431.2-193.418 431.2-432s-193.050-432-431.2-432c-224.248 0-410.553 172.18-429.606 394.609-1.505 17.566 11.498 33.028 29.043 34.535s32.987-11.512 34.491-29.079c16.23-189.48 175.006-336.218 366.072-336.218 202.923 0 367.433 164.823 367.433 368.153s-164.51 368.153-367.433 368.153c-127.693 0-243.193-65.867-309.527-169.614z" />
<glyph unicode="&#xe943;" glyph-name="import" d="M394.812 312.494c-3.774 1.562-7.31 3.876-10.378 6.944s-5.383 6.604-6.944 10.378c-1.565 3.773-2.428 7.91-2.428 12.249v176.552c0 17.673 14.327 32 32 32s32-14.327 32-32v-99.297l386.752 386.752c12.497 12.497 32.758 12.497 45.255 0s12.497-32.758 0-45.255l-386.752-386.752h99.297c17.673 0 32-14.327 32-32s-14.327-32-32-32h-176.552c-4.339 0-8.476 0.864-12.249 2.428zM833.103 430.415c0 17.673 14.327 32 32 32s32-14.327 32-32v-229.588c0-75.935-61.996-137.931-137.931-137.931h-494.345c-75.935 0-137.931 61.996-137.931 137.931v494.345c0 75.935 61.996 137.931 137.931 137.931h238.415c17.673 0 32-14.327 32-32s-14.327-32-32-32h-238.415c-40.589 0-73.931-33.342-73.931-73.931v-494.345c0-40.589 33.342-73.931 73.931-73.931h494.345c40.589 0 73.931 33.342 73.931 73.931v229.588z" />
<glyph unicode="&#xe944;" glyph-name="IncreaseFont" d="M330.864 296.445l-75.186-186.091c-6.62-16.386-25.271-24.303-41.657-17.682s-24.303 25.271-17.682 41.657l248.739 615.65c6.62 16.386 25.271 24.303 41.657 17.682 6.098-2.464 11.023-6.594 14.463-11.653 1.8-2.303 3.312-4.893 4.462-7.738l248.739-615.65c6.62-16.386-1.296-35.037-17.682-41.657s-35.037 1.296-41.657 17.682l-75.876 187.8h-288.319zM356.722 360.445h236.603l-118.302 292.807-118.302-292.807zM724 686v88c0 17.673 14.327 32 32 32s32-14.327 32-32v-88h88c17.673 0 32-14.327 32-32s-14.327-32-32-32h-88v-88c0-17.673-14.327-32-32-32s-32 14.327-32 32v88h-88c-17.673 0-32 14.327-32 32s14.327 32 32 32h88z" />
<glyph unicode="&#xe945;" glyph-name="index" d="M926.706 504.976c33.645-35.038 29.321-65.326 23.752-77.974-3.966-8.975-17.359-33.646-55.901-33.646h-47.797v-261.141c0-59.287-42.564-115.112-103.056-115.112h-114.92c-13.193 0-23.889 10.695-23.889 23.889v252.473c0 29.633 4.483 46.139-25.774 46.139h-109.699c-30.261 0-25.774-16.506-25.774-46.139v-252.473c0-13.193-10.695-23.889-23.889-23.889h-114.911c-60.496 0-103.065 55.825-103.065 115.112v261.141h-47.793c-38.555 0-51.94 24.671-55.901 33.646-5.561 12.652-9.893 42.936 23.752 77.974l326.062 339.451c20.26 21.076 47.34 32.676 76.368 32.676s56.108-11.6 76.373-32.676l326.062-339.451z" />
<glyph unicode="&#xe946;" glyph-name="inputStatus" d="M665.424 728.243l-286.687-175.767 134.263-80.558 292.459 175.475-140.035 80.849zM602.363 764.651l-90.757 52.399-292.432-168.836 97.679-58.608 285.51 175.045zM831.213 588.209l-286.213-171.728v-318.252l286.213 165.245v324.734zM192 589.882v-326.407l289-166.854v319.861l-130 78v-80.482c0-17.673-14.327-32-32-32s-32 14.327-32 32v118c0 0.293 0.004 0.584 0.012 0.875l-95.012 57.007zM527.606 881.713l351.606-203c9.901-5.716 16-16.28 16-27.713v-406c0-11.432-6.099-21.997-16-27.713l-351.606-203c-9.901-5.716-22.099-5.716-32 0l-351.606 203c-9.901 5.716-16 16.28-16 27.713v406c0 11.432 6.099 21.997 16 27.713l351.606 203c9.901 5.716 22.099 5.716 32 0z" />
<glyph unicode="&#xe947;" glyph-name="insert_bottom" d="M415 519h198v106h-198v-106zM351 519v106h-191v-106h191zM415 798v-109h198v109h-198zM351 798h-191v-109h191v109zM415 348h198v107h-198v-107zM351 348v107h-191v-107h191zM677 519h187v106h-187v-106zM677 798v-109h187v109h-187zM677 348h187v107h-187v-107zM144 862h736c26.51 0 48-21.49 48-48v-482c0-26.51-21.49-48-48-48h-736c-26.51 0-48 21.49-48 48v482c0 26.51 21.49 48 48 48zM144 218.601h736c26.51 0 48-21.49 48-48v-96c0-26.51-21.49-48-48-48h-736c-26.51 0-48 21.49-48 48v96c0 26.51 21.49 48 48 48z" />
<glyph unicode="&#xe948;" glyph-name="insert_left" d="M705 367v164h-128v-164h128zM705 303h-128v-175h128v175zM384 367h129v164h-129v-164zM384 303v-175h129v175h-129zM896 367v164h-127v-164h127zM896 303h-127v-175h127v175zM705 595v171h-128v-171h128zM384 595h129v171h-129v-171zM896 595v171h-127v-171h127zM368 830h544c26.51 0 48-21.49 48-48v-670c0-26.51-21.49-48-48-48h-544c-26.51 0-48 21.49-48 48v670c0 26.51 21.49 48 48 48zM112 830h96c26.51 0 48-21.49 48-48v-670c0-26.51-21.49-48-48-48h-96c-26.51 0-48 21.49-48 48v670c0 26.51 21.49 48 48 48z" />
<glyph unicode="&#xe949;" glyph-name="insert_right" d="M321 531v-164h128v164h-128zM257 531h-129v-164h129v164zM321 128h128v175h-128v-175zM257 128v175h-129v-175h129zM321 766v-171h128v171h-128zM257 766h-129v-171h129v171zM513 531v-164h127v164h-127zM513 128h127v175h-127v-175zM513 766v-171h127v171h-127zM112 830h544c26.51 0 48-21.49 48-48v-670c0-26.51-21.49-48-48-48h-544c-26.51 0-48 21.49-48 48v670c0 26.51 21.49 48 48 48zM816 830h96c26.51 0 48-21.49 48-48v-670c0-26.51-21.49-48-48-48h-96c-26.51 0-48 21.49-48 48v670c0 26.51 21.49 48 48 48z" />
<glyph unicode="&#xe94a;" glyph-name="into-warehouse" d="M650.073 290l30.336 30.336c12.497 12.497 12.497 32.758 0 45.255s-32.758 12.497-45.255 0l-82.527-82.527c-6.463-6.463-9.584-15.004-9.361-23.473-0.223-8.469 2.898-17.010 9.361-23.473l82.527-82.527c12.497-12.497 32.758-12.497 45.255 0s12.497 32.758 0 45.255l-27.154 27.154h212.745v-165.193c0-17.673-14.327-32-32-32h-646c-17.673 0-32 14.327-32 32v415.869l-67.431-59.066c-13.166-11.532-33.154-10.348-44.866 2.659l-0.291 0.323c-11.665 12.955-10.619 32.914 2.336 44.579 0.107 0.096 0.215 0.192 0.323 0.287l442.66 387.743c2.354 2.062 4.925 3.717 7.629 4.971 11.69 7.41 27.294 6.59 38.209-2.971l443.127-388.162c0.108-0.095 0.216-0.19 0.322-0.286 12.955-11.665 14.001-31.624 2.336-44.579l-0.291-0.323c-11.712-13.007-31.7-14.192-44.866-2.659l-69.198 60.615v-189.806h-215.927zM274 238c-8.837 0-16-7.163-16-16v-96c0-8.837 7.163-16 16-16h96c8.837 0 16 7.163 16 16v96c0 8.837-7.163 16-16 16h-96zM274 430c-8.837 0-16-7.163-16-16v-96c0-8.837 7.163-16 16-16h96c8.837 0 16 7.163 16 16v96c0 8.837-7.163 16-16 16h-96z" />
<glyph unicode="&#xe94b;" glyph-name="inTuo" d="M93.091 960h837.818v-1024l-418.909 178.356-418.909-178.356z" />
<glyph unicode="&#xe94c;" glyph-name="invalid" d="M787.909 189.346l78.976 78.976c12.497 12.497 32.758 12.497 45.255 0s12.497-32.758 0-45.255l-78.976-78.976 80.287-80.287c12.497-12.497 12.497-32.758 0-45.255s-32.758-12.497-45.255 0l-80.287 80.287-80.33-80.33c-12.497-12.497-32.758-12.497-45.255 0s-12.497 32.758 0 45.255l80.33 80.33-79.019 79.019c-12.497 12.497-12.497 32.758 0 45.255s32.758 12.497 45.255 0l79.019-79.019zM514 62c17.673 0 32-14.327 32-32s-14.327-32-32-32h-320c-35.346 0-64 28.654-64 64v768c0 35.346 28.654 64 64 64h640c35.346 0 64-28.654 64-64v-446.564c0-17.673-14.327-32-32-32s-32 14.327-32 32v446.564h-640v-768h320zM322 575c-17.673 0-32 14.327-32 32s14.327 32 32 32h386c17.673 0 32-14.327 32-32s-14.327-32-32-32h-386zM322 415c-17.673 0-32 14.327-32 32s14.327 32 32 32h386c17.673 0 32-14.327 32-32s-14.327-32-32-32h-386zM322 255c-17.673 0-32 14.327-32 32s14.327 32 32 32h192c17.673 0 32-14.327 32-32s-14.327-32-32-32h-192z" />
<glyph unicode="&#xe94d;" glyph-name="inventory" d="M950 686h-878v54c0 26.51 21.49 48 48 48h782c26.51 0 48-21.49 48-48v-54zM950 622v-464c0-26.51-21.49-48-48-48h-782c-26.51 0-48 21.49-48 48v464h878zM151.931 622v-278.084l54 23.756 54-23.655v277.984h-108z" />
<glyph unicode="&#xe94e;" glyph-name="kucun" d="M183.836 633h297.164v165h-195.161l-102.003-165zM160 569.061v-475.061h706v475h-704c-0.672 0-1.339 0.021-2 0.061zM842.19 633l-102.026 165h-195.164v-165h297.19zM268 862h490c11.088 0 21.386-5.74 27.217-15.171l140-226.412c3.127-5.057 4.783-10.884 4.783-16.829v-541.588c0-17.673-14.327-32-32-32h-770c-17.673 0-32 14.327-32 32v541.535c0 5.944 1.656 11.771 4.781 16.827l140 226.465c5.831 9.432 16.13 15.173 27.219 15.173zM385 381c-17.673 0-32 14.327-32 32s14.327 32 32 32h260.005c17.673 0 32-14.327 32-32s-14.327-32-32-32h-260.005z" />
<glyph unicode="&#xe94f;" glyph-name="lashen" horiz-adv-x="1026" d="M434 746c17.673 0 32-14.327 32-32v-533.333c0-17.673-14.327-32-32-32s-32 14.327-32 32v533.333c0 17.673 14.327 32 32 32zM592 746c17.673 0 32-14.327 32-32v-533.333c0-17.673-14.327-32-32-32s-32 14.327-32 32v533.333c0 17.673 14.327 32 32 32z" />
<glyph unicode="&#xe950;" glyph-name="lastPage" d="M620.719 464.067l-202.415 168.679c-8.874 7.395-22.062 6.196-29.457-2.678-3.132-3.759-4.848-8.497-4.848-13.389v-337.358c0-11.551 9.364-20.915 20.915-20.915 4.893 0 9.631 1.715 13.389 4.848l202.415 168.679c8.874 7.395 10.073 20.583 2.678 29.457-0.81 0.972-1.706 1.868-2.678 2.678zM661.333 661.333c-11.782 0-21.333-9.551-21.333-21.333v-384c0-11.782 9.551-21.333 21.333-21.333s21.333 9.551 21.333 21.333v384c0 11.782-9.551 21.333-21.333 21.333z" />
<glyph unicode="&#xe951;" glyph-name="left-arrow" d="M392.703 165.959c-3.966-3.972-8.924-5.959-14.377-5.959s-10.411 1.986-14.377 5.959c-7.932 7.945-7.932 20.855 0 28.8l252.834 253.241-252.834 253.241c-7.932 7.945-7.932 20.855 0 28.8s20.822 7.945 28.754 0l267.21-267.641c7.932-7.945 7.932-20.855 0-28.8l-267.21-267.641z" />
<glyph unicode="&#xe952;" glyph-name="left-arrow_all" d="M761.252 188.569c5.453 0 10.411 1.986 14.377 5.959 7.932 7.945 7.932 20.855 0 28.8l-224.549 224.957 224.549 224.957c7.932 7.945 7.932 20.855 0 28.8s-20.822 7.945-28.754 0l-238.926-239.357c-7.932-7.945-7.932-20.855 0-28.8l238.926-239.357c3.966-3.972 8.924-5.959 14.377-5.959zM501.252 188.569c5.453 0 10.411 1.986 14.377 5.959 7.932 7.945 7.932 20.855 0 28.8l-224.549 224.957 224.549 224.957c7.932 7.945 7.932 20.855 0 28.8s-20.822 7.945-28.754 0l-238.926-239.357c-7.932-7.945-7.932-20.855 0-28.8l238.926-239.357c3.966-3.972 8.924-5.959 14.377-5.959z" />
<glyph unicode="&#xe953;" glyph-name="Left-turn" d="M251.733 588.8l132.267 46.933c17.067 4.267 38.4-4.267 42.667-21.333s-4.267-34.133-21.333-42.667l-196.267-68.267c-17.067-4.267-34.133 4.267-42.667 21.333l-68.267 187.733c-4.267 17.067 4.267 34.133 21.333 42.667 17.067 4.267 34.133-4.267 38.4-21.333l42.667-110.933c64 128 196.267 209.067 345.6 209.067 213.333 0 388.267-174.933 388.267-388.267s-174.933-388.267-388.267-388.267c-110.933 0-213.333 46.933-290.133 128-12.8 12.8-12.8 34.133 0 42.667 12.8 12.8 34.133 12.8 46.933 0 59.733-68.267 145.067-106.667 238.933-106.667 179.2 0 324.267 145.067 324.267 324.267s-145.067 324.267-324.267 324.267c-123.733 0-234.667-72.533-290.133-179.2z" />
<glyph unicode="&#xe954;" glyph-name="lineKefu" d="M221.906 504h-59.906c-17.673 0-32-14.327-32-32v-48c0-17.673 14.327-32 32-32 39.445 0 59.207-0.001 59.286-0.001l-0.355-63.999h-58.931c-53.019 0-96 42.981-96 96v48c0 53.019 42.981 96 96 96h60.261l-0.355-64zM474 114h76c32.033 0 58-25.967 58-58s-25.967-58-58-58h-76c-32.033 0-58 25.967-58 58s25.967 58 58 58zM803.754 392h60.246c17.673 0 32 14.327 32 32v48c0 17.673-14.327 32-32 32h-57.624c-0.318 0-0.636 0.002-0.953 0.007l0.953 63.993h57.624c53.019 0 96-42.981 96-96v-48c0-53.019-42.981-96-96-96h-61.2l0.953 64zM836 504v-112h28c17.673 0 32 14.327 32 32v48c0 17.673-14.327 32-32 32h-28zM835.704 568h28.296c53.019 0 96-42.981 96-96v-48c0-53.019-42.981-96-96-96h-28.151c-5.284-174.314-148.254-314-323.849-314-17.673 0-32 14.327-32 32s14.327 32 32 32c143.594 0 260 116.406 260 260v216c0 143.594-116.406 270-260 270s-260-126.406-260-270v-194c0-17.673-14.327-32-32-32s-32 14.327-32 32v194c0 178.94 145.060 334 324 334 174.256 0 316.383-147.048 323.704-320z" />
<glyph unicode="&#xe955;" glyph-name="locking" d="M791.287 88.206c3.505 0 6.506 3.002 6.506 6.506v417.333c0 3.504-3.001 6.506-6.506 6.506h-558.557c-3.513 0-6.524-3.010-6.524-6.506v-417.333c0-3.496 3.011-6.506 6.524-6.506h558.557zM542.775 204.202c61.37 13.979 107.163 68.881 107.163 134.487 0 76.182-61.749 137.931-137.931 137.931s-137.931-61.749-137.931-137.931c0-64.725 44.572-119.031 104.699-133.902v-42.65c0-17.673 14.327-32 32-32s32 14.327 32 32v42.064zM285.8 582.551v63.656c0 124.94 101.273 226.207 226.207 226.207s226.207-101.267 226.207-226.207v-63.656h53.073c38.855 0 70.506-31.66 70.506-70.506v-417.333c0-38.845-31.65-70.506-70.506-70.506h-558.557c-38.854 0-70.524 31.659-70.524 70.506v417.333c0 38.847 31.669 70.506 70.524 70.506h53.070zM349.8 582.551h324.414v63.656c0 89.593-72.618 162.207-162.207 162.207s-162.207-72.614-162.207-162.207v-63.656zM585.938 338.689c0-40.836-33.095-73.931-73.931-73.931s-73.931 33.095-73.931 73.931c0 40.836 33.095 73.931 73.931 73.931s73.931-33.095 73.931-73.931z" />
<glyph unicode="&#xe956;" glyph-name="luyouxinxi" d="M251.711 170c12.036 25.641 38.089 43.397 68.289 43.397s56.253-17.755 68.289-43.397h539.802c17.673 0 32-14.327 32-32s-14.327-32-32-32h-539.802c-12.036-25.641-38.089-43.397-68.289-43.397s-56.253 17.755-68.289 43.397h-27.711c-87.261 0-158 70.739-158 158s70.739 158 158 158h349.711c12.036 25.641 38.089 43.397 68.289 43.397s56.253-17.755 68.289-43.397h27.711c36.451 0 66 29.549 66 66s-29.549 66-66 66h-384c-71.797 0-130 58.203-130 130s58.203 130 130 130h39.711c12.036 25.641 38.089 43.397 68.289 43.397s56.253-17.755 68.289-43.397h175.711c17.673 0 32-14.327 32-32s-14.327-32-32-32h-175.711c-12.036-25.641-38.089-43.397-68.289-43.397s-56.253 17.755-68.289 43.397h-39.711c-36.451 0-66-29.549-66-66s29.549-66 66-66h384c71.797 0 130-58.203 130-130s-58.203-130-130-130h-27.711c-12.036-25.641-38.089-43.397-68.289-43.397s-56.253 17.755-68.289 43.397h-349.711c-51.915 0-94-42.085-94-94s42.085-94 94-94h27.711z" />
<glyph unicode="&#xe957;" glyph-name="merge" d="M416 290h192v512h-448v-512h256zM672 418v-128h190.090v128h-190.090zM608 96v130h-192v-130h192zM672 96h190.090v130h-190.090v-130zM672 606.562v-124.563h190.090v124.563h-190.090zM672 800v-129.438h190.090v129.438h-190.090zM352 96v130h-191.91v-130h191.91zM96.090 226h-0.090v64h0.090v128h-0.090v64h0.090v124.563h-0.090v64h0.090v129.438c0 35.346 28.654 64 64 64h702c35.346 0 64-28.654 64-64v-704c0-35.346-28.654-64-64-64h-702c-35.346 0-64 28.654-64 64v130z" />
<glyph unicode="&#xe958;" glyph-name="missing" d="M872.002 409.825l-151.197 151.197c-17.852 17.852-8.968 48.378 15.675 53.863 35.647 7.934 63.027 19.862 77.927 34.762 25.201 25.201 25.169 66.121-0.107 91.397s-66.196 25.308-91.397 0.107c-15.304-15.304-27.295-42.457-35.151-77.577-5.508-24.622-36.015-33.483-53.856-15.642l-150.815 150.815-73.884-73.884c11.461-6.578 21.605-14.141 30.288-22.825 47.208-47.208 47.208-123.746 0-170.954s-123.746-47.208-170.954 0c-8.649 8.649-16.174 18.829-22.721 30.392l-94.557-94.557 388.92-388.92 95.043 95.043c-12.572 6.926-23.631 14.987-32.995 24.352-47.208 47.208-47.208 123.746 0 170.954s123.746 47.208 170.954 0c9.324-9.324 17.342-20.423 24.234-33.113l74.591 74.591zM939.884 432.453c12.497-12.497 12.497-32.758 0-45.255l-131.508-131.508c-17.232-17.232-46.634-9.646-53.378 13.773-7.009 24.341-16.301 42.855-27.076 53.63-22.214 22.214-58.23 22.214-80.444 0s-22.214-58.23 0-80.444c11.074-11.074 29.455-20.434 53.418-27.423 23.35-6.81 30.867-36.149 13.668-53.348l-151.761-151.761c-12.497-12.497-32.758-12.497-45.255 0l-434.175 434.175c-12.497 12.497-12.497 32.758 0 45.255l150.923 150.923c17.111 17.111 46.289 9.771 53.268-13.399 6.912-22.948 15.899-40.409 26.223-50.732 22.214-22.214 58.23-22.214 80.444 0s22.214 58.23 0 80.444c-10.609 10.609-27.952 19.667-50.543 26.565-23.092 7.051-30.356 36.16-13.283 53.233l130.048 130.048c12.497 12.497 32.758 12.497 45.255 0l136.026-136.026c9.288 22.149 21.077 40.968 35.913 55.804 50.211 50.211 131.653 50.147 181.907-0.107s50.317-131.696 0.107-181.907c-14.734-14.734-33.634-26.437-56.033-35.684l136.255-136.255z" />
<glyph unicode="&#xe959;" glyph-name="Mixed" d="M834 864c0 17.673 14.327 32 32 32s32-14.327 32-32v-660c0-112.666-91.334-204-204-204h-372.612c-17.673 0-32 14.327-32 32s14.327 32 32 32h372.612c77.32 0 140 62.68 140 140v660zM194 32c0-17.673-14.327-32-32-32s-32 14.327-32 32v660c0 112.666 91.334 204 204 204h373.194c17.673 0 32-14.327 32-32s-14.327-32-32-32h-373.194c-77.32 0-140-62.68-140-140v-660zM322 255c-17.673 0-32 14.327-32 32s14.327 32 32 32h384c17.673 0 32-14.327 32-32s-14.327-32-32-32h-384zM322 415c-17.673 0-32 14.327-32 32s14.327 32 32 32h386c17.673 0 32-14.327 32-32s-14.327-32-32-32h-386zM322 575c-17.673 0-32 14.327-32 32s14.327 32 32 32h386c17.673 0 32-14.327 32-32s-14.327-32-32-32h-386z" />
<glyph unicode="&#xe95a;" glyph-name="moveDown" d="M512 64c-212.077 0-384 171.923-384 384s171.923 384 384 384c212.077 0 384-171.923 384-384s-171.923-384-384-384zM496 322.627l-110 110c-6.248 6.248-16.379 6.248-22.627 0s-6.248-16.379 0-22.627l135.765-135.765c3.401-3.401 7.953-4.951 12.402-4.649 4.449-0.302 9.001 1.248 12.402 4.649l135.765 135.765c6.248 6.248 6.248 16.379 0 22.627s-16.379 6.248-22.627 0l-109.078-109.078v284.451c0 8.837-7.163 16-16 16s-16-7.163-16-16v-285.373z" />
<glyph unicode="&#xe95b;" glyph-name="moveUp" d="M512 64c-212.077 0-384 171.923-384 384s171.923 384 384 384c212.077 0 384-171.923 384-384s-171.923-384-384-384zM496 570.922v-285.373c0-8.837 7.163-16 16-16s16 7.163 16 16v284.451l109.078-109.078c6.248-6.248 16.379-6.248 22.627 0s6.248 16.379 0 22.627l-135.765 135.765c-3.401 3.401-7.953 4.951-12.402 4.649-4.449 0.302-9.001-1.248-12.402-4.649l-135.765-135.765c-6.248-6.248-6.248-16.379 0-22.627s16.379-6.248 22.627 0l110 110z" />
<glyph unicode="&#xe95c;" glyph-name="multiple-files" d="M822.922 185.478l82.875-86.029c12.261-12.728 11.883-32.986-0.845-45.247s-32.986-11.883-45.247 0.845l-81.572 84.675c-34.815-26.073-78.051-41.516-124.894-41.516-115.183 0-208.552 93.369-208.552 208.552s93.369 208.552 208.552 208.552c115.183 0 208.552-93.369 208.552-208.552 0-45.236-14.401-87.108-38.869-121.28zM300.101 610.207c-17.673 0-32 14.327-32 32s14.327 32 32 32h300.173c17.673 0 32-14.327 32-32s-14.327-32-32-32h-300.173zM300.136 433.655c-17.673 0-32 14.327-32 32s14.327 32 32 32h158.879c17.673 0 32-14.327 32-32s-14.327-32-32-32h-158.879zM300.101 257.103c-17.673 0-32 14.327-32 32s14.327 32 32 32h105.966c17.673 0 32-14.327 32-32s-14.327-32-32-32h-105.966zM797.791 306.759c0 79.836-64.715 144.552-144.552 144.552s-144.552-64.715-144.552-144.552c0-79.836 64.715-144.552 144.552-144.552s144.552 64.715 144.552 144.552zM521.075 109.241c17.673 0 32-14.327 32-32s-14.327-32-32-32h-273.902c-75.935 0-137.931 61.996-137.931 137.931v529.655c0 75.935 61.996 137.931 137.931 137.931h423.724c75.935 0 137.931-61.996 137.931-137.931v-171.82c0-17.673-14.327-32-32-32s-32 14.327-32 32v171.82c0 40.589-33.342 73.931-73.931 73.931h-423.724c-40.589 0-73.931-33.342-73.931-73.931v-529.655c0-40.589 33.342-73.931 73.931-73.931h273.902z" />
<glyph unicode="&#xe95d;" d="M512 0c-247.467 0-448 200.533-448 448s200.533 448 448 448 448-200.533 448-448-200.533-448-448-448zM512 64c213.333 0 384 170.667 384 384s-170.667 384-384 384-384-170.667-384-384 170.667-384 384-384zM320 418.133c-17.067 0-34.133 12.8-34.133 34.133s12.8 34.133 34.133 34.133h384c17.067 0 34.133-12.8 34.133-34.133s-12.8-34.133-34.133-34.133h-384z" />
<glyph unicode="&#xe95e;" d="M512 0c-247.467 0-448 200.533-448 448s200.533 448 448 448 448-200.533 448-448-200.533-448-448-448zM512 64c213.333 0 384 170.667 384 384s-170.667 384-384 384-384-170.667-384-384 170.667-384 384-384zM320 418.133c-17.067 0-34.133 12.8-34.133 34.133s12.8 34.133 34.133 34.133h384c17.067 0 34.133-12.8 34.133-34.133s-12.8-34.133-34.133-34.133h-384z" />
<glyph unicode="&#xe95f;" glyph-name="nextPage" d="M620.719 445.14l-202.415 168.679c-8.874 7.395-22.062 6.196-29.457-2.678-3.132-3.759-4.848-8.497-4.848-13.389v-337.358c0-11.551 9.364-20.915 20.915-20.915 4.893 0 9.631 1.715 13.389 4.848l202.415 168.679c8.874 7.395 10.073 20.583 2.678 29.457-0.81 0.972-1.706 1.868-2.678 2.678z" />
<glyph unicode="&#xe960;" glyph-name="note" d="M776.828 45.241h-529.655c-75.935 0-137.931 61.996-137.931 137.931v529.655c0 75.935 61.996 137.931 137.931 137.931h529.655c75.935 0 137.931-61.996 137.931-137.931v-529.655c0-75.935-61.996-137.931-137.931-137.931zM776.828 109.241c40.589 0 73.931 33.342 73.931 73.931v529.655c0 40.589-33.342 73.931-73.931 73.931h-529.655c-40.589 0-73.931-33.342-73.931-73.931v-529.655c0-40.589 33.342-73.931 73.931-73.931h529.655zM247.172 592.552c-17.673 0-32 14.327-32 32s14.327 32 32 32h35.31c17.673 0 32-14.327 32-32s-14.327-32-32-32h-35.31zM370.759 592.552c-17.673 0-32 14.327-32 32s14.327 32 32 32h406.069c17.673 0 32-14.327 32-32s-14.327-32-32-32h-406.069zM247.172 416c-17.673 0-32 14.327-32 32s14.327 32 32 32h35.31c17.673 0 32-14.327 32-32s-14.327-32-32-32h-35.31zM370.759 416c-17.673 0-32 14.327-32 32s14.327 32 32 32h406.069c17.673 0 32-14.327 32-32s-14.327-32-32-32h-406.069zM247.172 239.448c-17.673 0-32 14.327-32 32s14.327 32 32 32h35.31c17.673 0 32-14.327 32-32s-14.327-32-32-32h-35.31zM370.759 239.448c-17.673 0-32 14.327-32 32s14.327 32 32 32h406.069c17.673 0 32-14.327 32-32s-14.327-32-32-32h-406.069z" />
<glyph unicode="&#xe961;" glyph-name="Order-to-match" d="M179.983 5.531c-21.246-14.434-49.983 0.784-49.983 26.469v832c0 17.673 14.327 32 32 32h128.14c11.015 0 21.256-5.666 27.109-14.997l53.312-85.003h285.142l56.039 85.536c5.913 9.026 15.977 14.464 26.767 14.464h127.491c17.673 0 32-14.327 32-32v-832c0-24.5-26.407-39.912-47.739-27.862l-92.019 51.983-53.322-47.921c-10.984-9.872-27.297-10.944-39.479-2.596l-72.549 49.717-58.598-48.063c-10.951-8.982-26.503-9.697-38.232-1.758l-75.817 51.322-78.345-51.554c-12.241-8.055-28.388-6.766-39.197 3.127l-50.484 46.212-72.235-49.076zM194 832v-739.573l43.18 29.336c12.266 8.334 28.651 7.148 39.589-2.865l50.766-46.469 75.371 49.597c10.802 7.108 24.82 7.017 35.528-0.232l73.732-49.911 58.708 48.153c11.003 9.025 26.644 9.699 38.383 1.655l71.601-49.067 51.708 46.471c10.221 9.186 25.165 10.82 37.129 4.061l64.303-36.326v745.17h-78.2l-56.039-85.536c-5.913-9.026-15.977-14.464-26.767-14.464h-320.137c-11.015 0-21.256 5.666-27.109 14.997l-53.312 85.003h-78.437zM322 255c-17.673 0-32 14.327-32 32s14.327 32 32 32h384c17.673 0 32-14.327 32-32s-14.327-32-32-32h-384zM444 829c-17.673 0-32 14.327-32 32s14.327 32 32 32h144c17.673 0 32-14.327 32-32s-14.327-32-32-32h-144zM322 415c-17.673 0-32 14.327-32 32s14.327 32 32 32h386c17.673 0 32-14.327 32-32s-14.327-32-32-32h-386zM322 575c-17.673 0-32 14.327-32 32s14.327 32 32 32h386c17.673 0 32-14.327 32-32s-14.327-32-32-32h-386z" />
<glyph unicode="&#xe962;" glyph-name="outbound" d="M846.76 296.713l-68.878 68.878c-12.497 12.497-32.758 12.497-45.255 0s-12.497-32.758 0-45.255l30.336-30.336h-189.659c-17.673 0-32-14.327-32-32s14.327-32 32-32h186.478l-27.154-27.154c-12.497-12.497-12.497-32.758 0-45.255s32.758-12.497 45.255 0l68.878 68.878v-90.253c0-59.287-42.564-115.112-103.056-115.112h-114.92c-13.193 0-195.831 0-209.024 0h-114.911c-60.496 0-103.065 55.825-103.065 115.112v261.141h-47.793c-38.555 0-51.94 24.671-55.901 33.646-5.561 12.652-9.893 42.936 23.752 77.974l326.062 339.451c20.26 21.076 47.34 32.676 76.368 32.676s56.108-11.6 76.373-32.676l326.062-339.451c33.645-35.038 29.321-65.326 23.752-77.974-3.966-8.975-17.359-33.646-55.901-33.646h-47.797v-96.643zM274 238c-8.837 0-16-7.163-16-16v-96c0-8.837 7.163-16 16-16h96c8.837 0 16 7.163 16 16v96c0 8.837-7.163 16-16 16h-96zM274 430c-8.837 0-16-7.163-16-16v-96c0-8.837 7.163-16 16-16h96c8.837 0 16 7.163 16 16v96c0 8.837-7.163 16-16 16h-96z" />
<glyph unicode="&#xe963;" glyph-name="packing" d="M380.023 450.501l-38.105-8.797c-4.305-0.994-6.989-5.29-5.995-9.595l10.798-46.77c0.994-4.305 5.29-6.989 9.595-5.995l38.017 8.777c8.309-16.295 19.902-30.635 33.908-42.147l-17.181-35.227c-1.937-3.971-0.288-8.76 3.683-10.697l43.142-21.042c3.971-1.937 8.76-0.288 10.697 3.683l17.487 35.854c8.385-1.67 17.056-2.546 25.931-2.546 9.443 0 18.655 0.992 27.536 2.876l17.648-36.184c1.937-3.971 6.726-5.62 10.697-3.683l43.142 21.042c3.971 1.937 5.62 6.726 3.683 10.697l-17.691 36.272c13.547 11.417 24.765 25.511 32.838 41.466l39.597-9.142c4.305-0.994 8.601 1.69 9.595 5.995l10.798 46.77c0.994 4.305-1.69 8.601-5.995 9.595l-39.879 9.207c-0.396 18.292-4.513 35.668-11.624 51.4l31.846 25.788c3.434 2.781 3.963 7.818 1.183 11.252l-30.207 37.303c-2.781 3.434-7.818 3.963-11.252 1.183l-31.273-25.325c-13.965 10.791-30.152 18.846-47.758 23.36v40.128c0 4.418-3.582 8-8 8h-48c-4.418 0-8-3.582-8-8v-39.689c-17.908-4.327-34.391-12.306-48.616-23.104l-30.415 24.63c-3.434 2.781-8.471 2.251-11.252-1.183l-30.207-37.303c-2.781-3.434-2.251-8.471 1.183-11.252l30.557-24.745c-7.458-16.123-11.759-34.005-12.109-52.853zM894 192h-764c-17.673 0-32 14.327-32 32v574c0 17.673 14.327 32 32 32h96c17.673 0 32-14.327 32-32v-104h128v44c0 17.673 14.327 32 32 32h192c17.673 0 32-14.327 32-32v-44h126v104c0 17.673 14.327 32 32 32h94c17.673 0 32-14.327 32-32v-574c0-17.673-14.327-32-32-32zM926 96v0c0-17.673-14.327-32-32-32h-764c-17.673 0-32 14.327-32 32v0c0 17.673 14.327 32 32 32h764c17.673 0 32-14.327 32-32zM512 376c-39.765 0-72 32.235-72 72s32.235 72 72 72c39.765 0 72-32.235 72-72s-32.235-72-72-72z" />
<glyph unicode="&#xe964;" glyph-name="photograph" d="M258 704v96c0 17.673 14.327 32 32 32h446c17.673 0 32-14.327 32-32v-96h160c17.673 0 32-14.327 32-32v-578c0-17.673-14.327-32-32-32h-832c-17.673 0-32 14.327-32 32v578c0 17.673 14.327 32 32 32h162zM322 768v-96c0-17.673-14.327-32-32-32h-162v-514h768v514h-160c-17.673 0-32 14.327-32 32v96h-382zM513 190c-106.591 0-193 86.409-193 193s86.409 193 193 193c106.591 0 193-86.409 193-193s-86.409-193-193-193zM513 254c71.245 0 129 57.755 129 129s-57.755 129-129 129c-71.245 0-129-57.755-129-129s57.755-129 129-129zM802 512c-17.673 0-32 14.327-32 32s14.327 32 32 32c17.673 0 32-14.327 32-32s-14.327-32-32-32z" />
<glyph unicode="&#xe965;" glyph-name="pickingSet" d="M480 105.73v62.27c0 17.673 14.327 32 32 32s32-14.327 32-32v-115.981c0.055-2.862-0.274-5.751-1.010-8.59-0.975-3.786-2.626-7.3-4.816-10.407-2.681-3.821-6.087-6.902-9.924-9.159-3.832-2.264-8.178-3.751-12.82-4.246-3.779-0.411-7.653-0.153-11.437 0.828-2.84 0.732-5.527 1.843-8.004 3.277l-349.096 193.282c-10.182 5.637-16.5 16.358-16.5 27.995v406c0 10.793 5.44 20.858 14.47 26.771l225.97 147.973c14.785 9.682 34.62 5.545 44.301-9.24s5.545-34.62-9.24-44.301l-211.5-138.497v-369.844l285.606-158.13zM544 799.729v-62.294c0-17.673-14.327-32-32-32s-32 14.327-32 32v116.565c0 17.673 14.327 32 32 32 0.313 0 0.624-0.004 0.935-0.013 5.781 0.198 11.686-1.168 17.065-4.274l351.606-203c9.901-5.716 16-16.28 16-27.713v-406c0-10.855-5.503-20.969-14.616-26.866l-229.86-148.736c-14.838-9.601-34.649-5.356-44.25 9.482s-5.356 34.649 9.482 44.25l215.244 139.278v370.116l-289.606 167.204zM514 328c-66.274 0-120 53.726-120 120s53.726 120 120 120c66.274 0 120-53.726 120-120s-53.726-120-120-120zM514 392c30.928 0 56 25.072 56 56s-25.072 56-56 56c-30.928 0-56-25.072-56-56s25.072-56 56-56z" />
<glyph unicode="&#xe966;" glyph-name="pickingType" d="M864 800h-534c-92.784 0-168-75.216-168-168v-368c0-92.784 75.216-168 168-168h366c92.784 0 168 75.216 168 168v536zM928 264c0-128.13-103.87-232-232-232h-366c-128.13 0-232 103.87-232 232v368c0 128.13 103.87 232 232 232h598v-600zM736 671c17.673 0 32-14.327 32-32s-14.327-32-32-32h-146c-17.673 0-32 14.327-32 32s14.327 32 32 32h146zM736.116 479c17.673-0.064 31.948-14.443 31.884-32.116s-14.443-31.948-32.116-31.884l-276 1c-17.673 0.064-31.948 14.443-31.884 32.116s14.443 31.948 32.116 31.884l276-1zM736 287c17.673 0 32-14.327 32-32s-14.327-32-32-32h-448c-17.673 0-32 14.327-32 32s14.327 32 32 32h448z" />
<glyph unicode="&#xe967;" glyph-name="piliang" d="M302.538 291.793l-44.755 44.755c-12.497 12.497-12.497 32.758 0 45.255s32.758 12.497 45.255 0l44.755-44.755 44.462 44.462c12.497 12.497 32.758 12.497 45.255 0s12.497-32.758 0-45.255l-44.462-44.462 45.755-45.755c12.497-12.497 12.497-32.758 0-45.255s-32.758-12.497-45.255 0l-45.755 45.755-46.048-46.048c-12.497-12.497-32.758-12.497-45.255 0s-12.497 32.758 0 45.255l46.048 46.048zM316 609v63c0 17.673 14.327 32 32 32s32-14.327 32-32v-63h63c17.673 0 32-14.327 32-32s-14.327-32-32-32h-63v-65c0-17.673-14.327-32-32-32s-32 14.327-32 32v65h-65c-17.673 0-32 14.327-32 32s14.327 32 32 32h65zM162 862h704c35.346 0 64-28.654 64-64v-704c0-35.346-28.654-64-64-64h-704c-35.346 0-64 28.654-64 64v704c0 35.346 28.654 64 64 64zM162 798v-704h704v704h-704zM581 545c-17.673 0-32 14.327-32 32s14.327 32 32 32h192c17.673 0 32-14.327 32-32s-14.327-32-32-32h-192zM581 315c-17.673 0-32 14.327-32 32s14.327 32 32 32h192c17.673 0 32-14.327 32-32s-14.327-32-32-32h-192zM581 197c-17.673 0-32 14.327-32 32s14.327 32 32 32h192c17.673 0 32-14.327 32-32s-14.327-32-32-32h-192z" />
<glyph unicode="&#xe968;" glyph-name="PMcode" d="M385 414v-111.5h511v111.5h-511zM321 414h-191v-111.5h191v111.5zM385 128h479c17.673 0 32 14.327 32 32v78.5h-511v-110.5zM321 128v110.5h-191v-78.5c0-17.673 14.327-32 32-32h159zM385 589.5v-111.5h511v111.5h-511zM321 589.5h-191v-111.5h191v111.5zM385 766v-112.5h511v80.5c0 17.673-14.327 32-32 32h-479zM321 766h-159c-17.673 0-32-14.327-32-32v-80.5h191v112.5zM162 830h702c53.019 0 96-42.981 96-96v-574c0-53.019-42.981-96-96-96h-702c-53.019 0-96 42.981-96 96v574c0 53.019 42.981 96 96 96z" />
<glyph unicode="&#xe969;" glyph-name="prePage" d="M391.526 445.14l202.415 168.679c8.874 7.395 22.062 6.196 29.457-2.678 3.132-3.759 4.848-8.497 4.848-13.389v-337.358c0-11.551-9.364-20.915-20.915-20.915-4.893 0-9.631 1.715-13.389 4.848l-202.415 168.679c-8.874 7.395-10.073 20.583-2.678 29.457 0.81 0.972 1.706 1.868 2.678 2.678z" />
<glyph unicode="&#xe96a;" glyph-name="preview" d="M512 162c-161.039 0-306.125 88.96-433.948 264.017l-16.052 21.983 16.052 21.983c127.824 175.057 272.909 264.017 433.948 264.017s306.125-88.96 433.948-264.017l16.052-21.983-16.052-21.983c-127.824-175.057-272.909-264.017-433.948-264.017zM512 232c133.711 0 256.001 71.175 368 216-111.999 144.825-234.289 216-368 216s-256.001-71.175-368-216c111.999-144.825 234.289-216 368-216zM511.002 314c-72.74 0-131.707 59.994-131.707 134s58.967 134 131.707 134c72.74 0 131.707-59.994 131.707-134s-58.967-134-131.707-134zM511.002 378c37.998 0 68.802 31.34 68.802 70s-30.804 70-68.802 70c-37.998 0-68.802-31.34-68.802-70s30.804-70 68.802-70z" />
<glyph unicode="&#xe96b;" glyph-name="print" d="M200 736v96c0 17.673 14.327 32 32 32h576c17.673 0 32-14.327 32-32v-96h58c17.673 0 32-14.327 32-32v-388c0-17.673-14.327-32-32-32h-64v-222c0-17.673-14.327-32-32-32h-576c-17.673 0-32 14.327-32 32v222h-66c-17.673 0-32 14.327-32 32v388c0 17.673 14.327 32 32 32h72zM264 736h512v64h-512v-64zM194 348v68c0 17.673 14.327 32 32 32h576c17.673 0 32-14.327 32-32v-68h32v324h-706v-324h34zM258 384v-290h512v290h-512zM359 257c-17.673 0-32 14.327-32 32s14.327 32 32 32h226.131c17.673 0 32-14.327 32-32s-14.327-32-32-32h-226.131zM359 137c-17.673 0-32 14.327-32 32s14.327 32 32 32h316.131c17.673 0 32-14.327 32-32s-14.327-32-32-32h-316.131zM770 544c-17.673 0-32 14.327-32 32s14.327 32 32 32c17.673 0 32-14.327 32-32s-14.327-32-32-32zM642 544c-17.673 0-32 14.327-32 32s14.327 32 32 32c17.673 0 32-14.327 32-32s-14.327-32-32-32z" />
<glyph unicode="&#xe96c;" glyph-name="question" d="M606.937 785.77l-420.172-420.172-10.56-115.354 121.655 5.833 419.385 419.385c0.781 0.781 0.781 2.047 0 2.828l-107.48 107.48c-0.781 0.781-2.047 0.781-2.828 0zM630.978 855.067l155.563-155.563c12.497-12.497 12.497-32.758 0-45.255l-452.17-452.17c-5.626-5.626-13.147-8.955-21.095-9.336l-170.76-8.187c-19.416-0.931-35.171 15.523-33.399 34.88l14.969 163.523c0.682 7.448 3.951 14.422 9.239 19.71l452.398 452.398c12.497 12.497 32.758 12.497 45.255 0zM141.631 120.55h756c17.673 0 32-14.327 32-32s-14.327-32-32-32h-756c-17.673 0-32 14.327-32 32s14.327 32 32 32z" />
<glyph unicode="&#xe96d;" glyph-name="quxiaOder" d="M737.605 338.473l150.656-150.656c12.497-12.497 12.497-32.758 0-45.255s-32.758-12.497-45.255 0l-150.656 150.656-150.656-150.656c-12.497-12.497-32.758-12.497-45.255 0s-12.497 32.758 0 45.255l150.656 150.656-150.656 150.656c-12.497 12.497-12.497 32.758 0 45.255s32.758 12.497 45.255 0l150.656-150.656 150.656 150.656c12.497 12.497 32.758 12.497 45.255 0s12.497-32.758 0-45.255l-150.656-150.656zM322 639c-17.673 0-32 14.327-32 32s14.327 32 32 32h386c17.673 0 32-14.327 32-32s-14.327-32-32-32h-386zM320 477c-17.673 0-32 14.327-32 32s14.327 32 32 32h70c17.673 0 32-14.327 32-32s-14.327-32-32-32h-70zM850 62c17.673 0 32-14.327 32-32s-14.327-32-32-32h-658c-35.346 0-64 28.654-64 64v768c0 35.346 28.654 64 64 64h640c35.346 0 64-28.654 64-64v-191.675c0-17.673-14.327-32-32-32s-32 14.327-32 32v191.675h-640v-768h658z" />
<glyph unicode="&#xe96e;" d="M409.6 823.467c17.067 4.267 34.133-4.267 38.4-21.333s-4.267-34.133-21.333-38.4c-140.8-42.667-238.933-170.667-238.933-315.733 0-136.533 85.333-260.267 213.333-307.2 17.067-4.267 25.6-25.6 21.333-42.667s-25.6-25.6-42.667-21.333c-153.6 55.467-256 200.533-256 366.933 0 179.2 119.467 332.8 285.867 379.733zM635.733 145.067c119.467 51.2 200.533 166.4 200.533 302.933 0 140.8-89.6 264.533-221.867 307.2-17.067 4.267-25.6 25.6-21.333 42.667s25.6 25.6 42.667 21.333c157.867-51.2 264.533-200.533 264.533-371.2 0-149.333-85.333-281.6-213.333-345.6l106.667-38.4c17.067-4.267 25.6-25.6 21.333-42.667s-25.6-25.6-42.667-21.333l-200.533 68.267c-17.067 4.267-25.6 25.6-21.333 38.4l64 192c4.267 17.067 25.6 25.6 38.4 21.333s25.6-25.6 21.333-38.4l-38.4-136.533zM392.533 768l-166.4 64c-17.067 8.533-25.6 25.6-21.333 42.667s25.6 25.6 42.667 17.067l196.267-76.8c17.067-4.267 25.6-25.6 17.067-42.667l-68.267-183.467c-4.267-17.067-25.6-25.6-42.667-17.067-12.8 4.267-21.333 21.333-17.067 38.4l59.733 157.867z" />
<glyph unicode="&#xe96f;" d="M443.733 819.2l-196.267 72.533c-17.067 8.533-34.133 0-42.667-17.067-4.267-17.067 0-34.133 17.067-42.667l106.667-42.667c-128-64-209.067-196.267-209.067-345.6 0-166.4 102.4-311.467 256-366.933 17.067-4.267 34.133 4.267 42.667 21.333s-4.267 34.133-21.333 42.667c-128 46.933-213.333 166.4-213.333 307.2 0 132.267 81.067 247.467 196.267 298.667l-46.933-136.533c-4.267-17.067 4.267-34.133 21.333-38.4s34.133 4.267 42.667 17.067l68.267 187.733c4.267 17.067-4.267 34.133-21.333 42.667z" />
<glyph unicode="&#xe970;" d="M797.867 64l-106.667 38.4c128 64 213.333 196.267 213.333 345.6 0 170.667-106.667 315.733-264.533 371.2-17.067 4.267-34.133-4.267-42.667-21.333-4.267-17.067 4.267-34.133 21.333-42.667 132.267-42.667 221.867-166.4 221.867-307.2 0-132.267-81.067-251.733-200.533-302.933l42.667 136.533c4.267 17.067-4.267 34.133-21.333 38.4s-34.133-4.267-38.4-21.333l-64-192c-4.267-17.067 4.267-34.133 21.333-38.4l200.533-68.267c17.067-4.267 34.133 4.267 42.667 21.333s-8.533 34.133-25.6 42.667z" />
<glyph unicode="&#xe971;" glyph-name="refresh" d="M544 618.667c0-17.673-14.327-32-32-32s-32 14.327-32 32v221.867c0 17.673 14.327 32 32 32s32-14.327 32-32v-221.867zM413.944 591.311c12.497-12.497 12.497-32.758 0-45.255s-32.758-12.497-45.255 0l-156.877 156.877c-12.497 12.497-12.497 32.758 0 45.255s32.758 12.497 45.255 0l156.877-156.877zM341.333 480c17.673 0 32-14.327 32-32s-14.327-32-32-32h-221.867c-17.673 0-32 14.327-32 32s14.327 32 32 32h221.867zM368.689 349.952c12.497 12.497 32.758 12.497 45.255 0s12.497-32.758 0-45.255l-156.877-156.877c-12.497-12.497-32.758-12.497-45.255 0s-12.497 32.758 0 45.255l156.877 156.877zM480 277.333c0 17.673 14.327 32 32 32s32-14.327 32-32v-221.867c0-17.673-14.327-32-32-32s-32 14.327-32 32v221.867zM610.056 304.698c-12.497 12.497-12.497 32.758 0 45.255s32.758 12.497 45.255 0l156.877-156.877c12.497-12.497 12.497-32.758 0-45.255s-32.758-12.497-45.255 0l-156.877 156.877zM682.667 416c-17.673 0-32 14.327-32 32s14.327 32 32 32h221.867c17.673 0 32-14.327 32-32s-14.327-32-32-32h-221.867zM655.311 546.056c-12.497-12.497-32.758-12.497-45.255 0s-12.497 32.758 0 45.255l156.877 156.877c12.497 12.497 32.758 12.497 45.255 0s12.497-32.758 0-45.255l-156.877-156.877z" />
<glyph unicode="&#xe972;" glyph-name="registBox" d="M860 161v480c0 17.673 14.327 32 32 32s32-14.327 32-32v-512c0-17.673-14.327-32-32-32h-756c-17.673 0-32 14.327-32 32v512c0 17.673 14.327 32 32 32s32-14.327 32-32v-480h692zM98 736c-17.673 0-32 14.327-32 32s14.327 32 32 32h832c17.673 0 32-14.327 32-32s-14.327-32-32-32h-832zM402 607v-48h224v48h-224zM370 671h288c17.673 0 32-14.327 32-32v-112c0-17.673-14.327-32-32-32h-288c-17.673 0-32 14.327-32 32v112c0 17.673 14.327 32 32 32z" />
<glyph unicode="&#xe973;" glyph-name="reportManage" d="M738 894l160-160v-672c0-35.346-28.654-64-64-64h-640c-35.346 0-64 28.654-64 64v768c0 35.346 28.654 64 64 64h544zM834.989 674c2.091 0 4.098 0.818 5.593 2.28 3.159 3.089 3.216 8.154 0.127 11.313l-148.989 152.375c-1.505 1.539-3.567 2.407-5.72 2.407-4.418 0-8-3.582-8-8v-128.375c0-17.673 14.327-32 32-32h124.989zM290 226c-17.673 0-32-14.327-32-32s14.327-32 32-32c17.673 0 32 14.327 32 32s-14.327 32-32 32zM290 416c-17.673 0-32-14.327-32-32s14.327-32 32-32c17.673 0 32 14.327 32 32s-14.327 32-32 32zM290 606c-17.673 0-32-14.327-32-32s14.327-32 32-32c17.673 0 32 14.327 32 32s-14.327 32-32 32zM418 226c-17.673 0-32-14.327-32-32s14.327-32 32-32h304c17.673 0 32 14.327 32 32s-14.327 32-32 32h-304zM418 416c-17.673 0-32-14.327-32-32s14.327-32 32-32h304c17.673 0 32 14.327 32 32s-14.327 32-32 32h-304zM418 606c-17.673 0-32-14.327-32-32s14.327-32 32-32h304c17.673 0 32 14.327 32 32s-14.327 32-32 32h-304z" />
<glyph unicode="&#xe974;" glyph-name="reSent" d="M221.385 420.572c39.291 43.454 82.282 79.018 127.383 103.324 53.3 28.724 108.279 41.069 163.363 33.898 15.942-2.075 27.869-15.656 27.869-31.732v-62.675l193.844 150.613-193.844 150.613v-62.337c0-16.248-12.177-29.917-28.317-31.787-183.009-21.204-292.237-118.746-330.030-298.394 12.408 16.653 25.778 33.045 39.732 48.478zM476 495.678c-69.607-2.199-141.362-45.279-207.143-118.030-30.018-33.199-56.775-70.708-76.56-105.993-8.653-15.432-15.545-29.727-20.144-41.567-2.076-5.345-3.611-10.006-4.569-13.766-0.695-2.729-0.971-4.528-0.971-4.915 0-42.667-64-42.667-64 0 0 302.371 125.883 478.776 373.387 518.741v99.853c0 26.621 30.612 41.603 51.634 25.269l278-216c16.489-12.811 16.489-37.727 0-50.538l-278-216c-21.022-16.333-51.634-1.352-51.634 25.269v97.678zM348 256h552c17.673 0 32-14.327 32-32s-14.327-32-32-32h-552c-17.673 0-32 14.327-32 32s14.327 32 32 32zM348 96h552c17.673 0 32-14.327 32-32s-14.327-32-32-32h-552c-17.673 0-32 14.327-32 32s14.327 32 32 32z" />
<glyph unicode="&#xe975;" glyph-name="reset-2" d="M202.406 646.501l18.545 7.284c16.45 6.461 35.023-1.637 41.483-18.087s-1.637-35.023-18.087-41.483l-92.649-36.389c-14.179-5.569-29.935-0.321-38.152 11.768-1.644 2.159-3.038 4.564-4.122 7.19l-38 92c-6.747 16.335 1.025 35.046 17.36 41.793s35.046-1.025 41.793-17.36l10.291-24.915c76.449 128.967 216.261 211.616 371.393 211.616 238.402 0 431.657-193.381 431.657-431.917s-193.255-431.917-431.657-431.917c-224.486 0-410.988 172.147-430.061 394.534-1.506 17.563 11.51 33.022 29.073 34.528s33.022-11.51 34.528-29.073c16.248-189.444 175.191-336.154 366.46-336.154 203.138 0 367.822 164.792 367.822 368.083s-164.684 368.083-367.822 368.083c-127.828 0-243.451-65.855-309.855-169.581zM720 552c17.673 0 32-14.327 32-32v-212c0-17.673-14.327-32-32-32h-380c-17.673 0-32 14.327-32 32v280c0 17.673 14.327 32 32 32h158.447c12.763 0 24.306-7.584 29.372-19.299l21.059-48.701h171.122zM372 340h316v148h-160.149c-12.763 0-24.306 7.584-29.372 19.299l-21.059 48.701h-105.421v-216z" />
<glyph unicode="&#xe976;" glyph-name="reset-password" d="M873.702 485.754l26.948 26.954c12.495 12.498 32.757 12.5 45.255 0.005s12.5-32.757 0.005-45.255l-82.22-82.238c-12.496-12.499-32.76-12.5-45.257-0.002l-82.185 82.185c-12.497 12.497-12.497 32.758 0 45.255s32.758 12.497 45.255 0l27.984-27.984c-18.283 169.843-162.096 302.085-336.797 302.085-187.092 0-338.759-151.667-338.759-338.759s151.667-338.759 338.759-338.759c105.5 0 202.938 48.505 266.794 129.986 10.901 13.91 31.015 16.35 44.926 5.448s16.35-31.015 5.448-44.926c-75.861-96.8-191.789-154.509-317.168-154.509-222.438 0-402.759 180.321-402.759 402.759s180.321 402.759 402.759 402.759c209.706 0 381.979-160.27 401.012-365.004zM352.408 509.042v27.236c0 66.419 53.857 120.276 120.276 120.276s120.276-53.857 120.276-120.276v-27.236c31.019-12.679 52.966-43.203 52.966-78.697v-105.931c0-46.804-38.161-84.966-84.966-84.966h-176.552c-46.804 0-84.966 38.161-84.966 84.966v105.931c0 35.494 21.946 66.017 52.966 78.697zM416.408 515.31h112.552v20.967c0 31.073-25.203 56.276-56.276 56.276s-56.276-25.203-56.276-56.276v-20.967zM560.96 303.448c11.458 0 20.966 9.508 20.966 20.966v105.931c0 11.458-9.508 20.966-20.966 20.966h-176.552c-11.458 0-20.966-9.508-20.966-20.966v-105.931c0-11.458 9.508-20.966 20.966-20.966h176.552zM504.684 342.069c0-17.673-14.327-32-32-32s-32 14.327-32 32v70.621c0 17.673 14.327 32 32 32s32-14.327 32-32v-70.621z" />
<glyph unicode="&#xe977;" glyph-name="reset" d="M283.786 673.947l10.12 2.974c16.956 4.983 34.741-4.722 39.725-21.678s-4.722-34.741-21.678-39.725l-101.641-29.873c-16.958-4.984-34.745 4.724-39.726 21.683l-29.855 101.641c-4.981 16.957 4.728 34.741 21.685 39.721s34.741-4.728 39.721-21.685l10.703-36.438c71.938 88.698 180.842 142.535 299.161 142.535 212.692 0 385.103-172.411 385.103-385.103s-172.411-385.103-385.103-385.103c-212.692 0-385.103 172.411-385.103 385.103 0 17.673 14.327 32 32 32s32-14.327 32-32c0-177.346 143.758-321.103 321.103-321.103s321.103 143.758 321.103 321.103c0 177.346-143.758 321.103-321.103 321.103-87.642 0-169.062-35.401-228.214-95.156z" />
<glyph unicode="&#xe978;" glyph-name="restore-SVN" d="M803.887 277.218l-95.184 95.184c-12.497 12.497-12.497 32.758 0 45.255s32.758 12.497 45.255 0l144.61-144.61c9.67-5.505 16.191-15.905 16.191-27.829 0-11.903-6.499-22.288-16.142-27.8l-144.642-144.642c-12.497-12.497-32.758-12.497-45.255 0s-12.497 32.758 0 45.255l95.187 95.187h-636.184c-32.292 0-58.483 26.191-58.483 58.483v220.69c0 17.673 14.327 32 32 32s32-14.327 32-32v-215.172h630.645zM220.115 619.287l95.182-95.182c12.497-12.497 12.497-32.758 0-45.255s-32.758-12.497-45.255 0l-149.184 149.184c-6.167 5.833-10.015 14.093-10.015 23.253 0 4.389 0.884 8.572 2.483 12.38 1.561 3.73 3.859 7.224 6.895 10.26l149.804 149.804c12.497 12.497 32.758 12.497 45.255 0s12.497-32.758 0-45.255l-95.189-95.189h636.18c32.306 0 58.483-26.188 58.483-58.483v-220.69c0-42.667-64-42.667-64 0v220.69c0-3.045 2.471-5.517 5.517-5.517h-636.155z" />
<glyph unicode="&#xe979;" glyph-name="review" d="M269.939 365.584h72.829v20.973c0 42.667 64 42.667 64 0v-20.973h72.829v20.973c0 42.667 64 42.667 64 0v-20.973h72.826v20.973c0 42.667 64 42.667 64 0v-20.973h72.829v56.269c0 42.667 64 42.667 64 0v-56.269h41.923v324.416h-695.168v-324.416h41.933v56.269c0 42.667 64 42.667 64 0v-56.269zM132.006 301.584c-17.673 0-32 14.327-32 32v388.416c0 17.673 14.327 32 32 32h759.168c17.673 0 32-14.327 32-32v-388.416c0-17.673-14.327-32-32-32h-759.168zM132 142.666c-17.673 0-32 14.327-32 32s14.327 32 32 32h759.168c17.673 0 32-14.327 32-32s-14.327-32-32-32h-759.168z" />
<glyph unicode="&#xe97a;" glyph-name="right-arrow_all" d="M262.326 188.569c-5.453 0-10.411 1.986-14.377 5.959-7.932 7.945-7.932 20.855 0 28.8l224.549 224.957-224.549 224.957c-7.932 7.945-7.932 20.855 0 28.8s20.822 7.945 28.754 0l238.926-239.357c7.932-7.945 7.932-20.855 0-28.8l-238.926-239.357c-3.966-3.972-8.924-5.959-14.377-5.959zM522.326 188.569c-5.453 0-10.411 1.986-14.377 5.959-7.932 7.945-7.932 20.855 0 28.8l224.549 224.957-224.549 224.957c-7.932 7.945-7.932 20.855 0 28.8s20.822 7.945 28.754 0l238.926-239.357c7.932-7.945 7.932-20.855 0-28.8l-238.926-239.357c-3.966-3.972-8.924-5.959-14.377-5.959z" />
<glyph unicode="&#xe97b;" glyph-name="right-turn" d="M772.267 588.8c-51.2 106.667-162.133 179.2-290.133 179.2-179.2 0-324.267-145.067-324.267-324.267s145.067-324.267 324.267-324.267c93.867 0 179.2 38.4 238.933 106.667 12.8 12.8 34.133 12.8 46.933 0s12.8-29.867 0-42.667c-72.533-81.067-174.933-128-290.133-128-213.333 0-388.267 174.933-388.267 388.267s174.933 388.267 388.267 388.267c149.333 0 281.6-85.333 345.6-209.067l38.4 110.933c4.267 17.067 25.6 25.6 38.4 17.067 17.067-4.267 25.6-25.6 21.333-38.4l-68.267-187.733c-4.267-17.067-25.6-25.6-38.4-17.067l-192 68.267c-17.067 8.533-25.6 25.6-21.333 42.667s25.6 25.6 42.667 21.333l128-51.2z" />
<glyph unicode="&#xe97c;" glyph-name="right-arrow" d="M631.159 730.041c3.966 3.972 8.924 5.959 14.377 5.959s10.411-1.986 14.377-5.959c7.932-7.945 7.932-20.855 0-28.8l-252.834-253.241 252.834-253.241c7.932-7.945 7.932-20.855 0-28.8s-20.822-7.945-28.754 0l-267.21 267.641c-7.932 7.945-7.932 20.855 0 28.8l267.21 267.641z" />
<glyph unicode="&#xe97d;" glyph-name="rOK" d="M399.001 220.015c-8.654-0.269-17.388 2.955-23.91 9.642l-158 162c-12.34 12.652-12.086 32.912 0.566 45.251s32.912 12.086 45.251-0.566l136.364-139.816 365.257 365.257c12.497 12.497 32.758 12.497 45.255 0s12.497-32.758 0-45.255l-387.156-387.156c-6.502-6.502-15.107-9.621-23.626-9.357z" />
<glyph unicode="&#xe97e;" glyph-name="save" d="M832 32h-640c-52.8 0-96 43.2-96 96v640c0 52.8 43.2 96 96 96h576c8 0 16-3.2 22.4-9.6l128-128c6.4-6.4 9.6-14.4 9.6-22.4v-576c0-52.8-43.2-96-96-96zM192 800c-17.6 0-32-14.4-32-32v-640c0-17.6 14.4-32 32-32h640c17.6 0 32 14.4 32 32v563.2l-108.8 108.8h-563.2zM736.374 32h-448.349c-17.614 0-32.025 14.4-32.025 32v252.8c0 54.4 44.835 99.2 99.277 99.2h315.445c54.442 0 99.277-44.8 99.277-99.2v-252.8c-1.601-17.6-16.012-32-33.626-32zM320 96h384v220.8c0 19.2-16 35.2-35.2 35.2h-313.6c-19.2 0-35.2-16-35.2-35.2v-220.8zM635.2 544h-246.4c-46.4 0-84.8 38.4-84.8 84.8v203.2c0 17.6 14.4 32 32 32h352c17.6 0 32-14.4 32-32v-203.2c0-46.4-38.4-84.8-84.8-84.8zM368 800v-171.2c0-11.2 9.6-20.8 20.8-20.8h246.4c11.2 0 20.8 9.6 20.8 20.8v171.2h-288zM576 656c-17.6 0-32 14.4-32 32v32c0 17.6 14.4 32 32 32s32-14.4 32-32v-32c0-17.6-14.4-32-32-32z" />
</font>
</defs>
</svg>
