<?xml version="1.0" encoding="UTF-8"?>
<svg width="512px" height="512px" viewBox="0 0 512 512" version="1.1" xmlns="http://www.w3.org/2000/svg" xmlns:xlink="http://www.w3.org/1999/xlink">
    <!-- Generator: Sketch 51 (57462) - http://www.bohemiancoding.com/sketch -->
    <title>icon/Prompt/error big</title>
    <desc>Created with Sketch.</desc>
    <defs>
        <path d="M332.95,333.175 C327.6625,338.425 319.1125,338.425 313.8625,333.1375 L256,275.125 L198.1375,333.1375 C192.8875,338.425 184.3375,338.425 179.05,333.175 C173.7625,327.925 173.7625,319.375 179.0125,314.0875 L236.95,256 L179.0125,197.9125 C173.7625,192.625 173.7625,184.075 179.05,178.825 C181.675,176.2 185.125,174.8875 188.575,174.8875 C192.025,174.8875 195.5125,176.2 198.1375,178.8625 L256,236.875 L313.8625,178.825 C316.4875,176.1625 319.975,174.85 323.425,174.85 C326.875,174.85 330.325,176.1625 332.95,178.7875 C338.2375,184.0375 338.2375,192.5875 332.9875,197.875 L275.05,256 L332.95,314.0875 C338.2375,319.375 338.2375,327.925 332.95,333.175 L332.95,333.175 Z M256,448 C149.95,448 64,362.05 64,256 C64,149.95 149.95,64 256,64 C362.05,64 448,149.95 448,256 C448,362.05 362.05,448 256,448 L256,448 Z M372.6625,139.3375 C357.5125,124.1875 339.85,112.2625 320.2,103.975 C299.875,95.35 278.275,91 256,91 C233.725,91 212.125,95.35 191.8,103.9375 C172.15,112.2625 154.525,124.15 139.3375,139.3 C124.1875,154.45 112.2625,172.1125 103.975,191.7625 C95.35,212.125 91,233.725 91,256 C91,278.275 95.35,299.875 103.9375,320.2 C112.2625,339.85 124.15,357.475 139.3,372.6625 C154.45,387.8125 172.1125,399.7375 191.7625,408.025 C212.125,416.65 233.725,421 256,421 C278.275,421 299.875,416.65 320.2,408.0625 C339.85,399.7375 357.475,387.85 372.6625,372.7 C387.8125,357.55 399.7375,339.8875 408.025,320.2375 C416.65,299.875 421,278.275 421,256 C421,233.725 416.65,212.125 408.0625,191.8 C399.7375,172.15 387.85,154.4875 372.6625,139.3375 L372.6625,139.3375 Z" id="path-1"></path>
    </defs>
    <g id="symbol" stroke="none" stroke-width="1" fill="none" fill-rule="evenodd">
        <g id="icon/Prompt/error-big">
            <g>
                <rect id="Rectangle" fill="#D8D8D8" opacity="0" x="0" y="0" width="512" height="512"></rect>
                <mask id="mask-2" fill="white">
                    <use xlink:href="#path-1"></use>
                </mask>
                <use id="Shape" fill="#F5222D" transform="translate(256.000000, 256.000000) scale(1, -1) translate(-256.000000, -256.000000) " xlink:href="#path-1"></use>
            </g>
        </g>
    </g>
</svg>