<?xml version="1.0" encoding="UTF-8"?>
<svg width="512px" height="512px" viewBox="0 0 512 512" version="1.1" xmlns="http://www.w3.org/2000/svg" xmlns:xlink="http://www.w3.org/1999/xlink">
    <!-- Generator: Sketch 51 (57462) - http://www.bohemiancoding.com/sketch -->
    <title>icon/Prompt/error</title>
    <desc>Created with Sketch.</desc>
    <defs>
        <path d="M256.333333,107 C173.85,107 107,173.85 107,256.333333 C107,338.816667 173.85,405.666667 256.333333,405.666667 C338.816667,405.666667 405.666667,338.816667 405.666667,256.333333 C405.666667,173.85 338.816667,107 256.333333,107 L256.333333,107 Z M326.625,312.129167 C330.3,315.745833 330.358333,321.6375 326.770833,325.341667 L326.770833,325.341667 C323.154167,329.016667 317.2625,329.075 313.558333,325.4875 L256.333333,269.4 L199.108333,325.458333 C195.433333,329.075 189.5125,329.016667 185.895833,325.3125 L185.895833,325.3125 C182.279167,321.6375 182.3375,315.716667 186.041667,312.1 L243.004167,256.333333 L186.041667,200.5375 C182.366667,196.920833 182.308333,191.029167 185.895833,187.325 L185.895833,187.325 C189.5125,183.65 195.404167,183.591667 199.108333,187.179167 L256.333333,243.266667 L313.558333,187.208333 C317.233333,183.591667 323.154167,183.65 326.770833,187.354167 L326.770833,187.354167 C330.3875,191.029167 330.329167,196.95 326.625,200.566667 L269.6625,256.333333 L326.625,312.129167 L326.625,312.129167 Z" id="path-1"></path>
    </defs>
    <g id="symbol" stroke="none" stroke-width="1" fill="none" fill-rule="evenodd">
        <g id="icon/Prompt/error">
            <g>
                <rect id="Rectangle" fill="#D8D8D8" opacity="0" x="0" y="0" width="512" height="512"></rect>
                <mask id="mask-2" fill="white">
                    <use xlink:href="#path-1"></use>
                </mask>
                <use id="Shape" fill="#F5222D" xlink:href="#path-1"></use>
            </g>
        </g>
    </g>
</svg>