<?xml version="1.0" encoding="UTF-8"?>
<svg width="512px" height="512px" viewBox="0 0 512 512" version="1.1" xmlns="http://www.w3.org/2000/svg" xmlns:xlink="http://www.w3.org/1999/xlink">
    <!-- Generator: Sketch 51 (57462) - http://www.bohemiancoding.com/sketch -->
    <title>icon/Prompt/help big</title>
    <desc>Created with Sketch.</desc>
    <defs>
        <path d="M256,448 C149.95,448 64,362.05 64,256 C64,149.95 149.95,64 256,64 C362.05,64 448,149.95 448,256 C448,362.05 362.05,448 256,448 L256,448 Z M372.6625,139.3375 C357.5125,124.1875 339.85,112.2625 320.2,103.975 C299.875,95.35 278.275,91 256,91 C233.725,91 212.125,95.35 191.8,103.9375 C172.15,112.2625 154.525,124.15 139.3375,139.3 C124.1875,154.45 112.2625,172.1125 103.975,191.7625 C95.35,212.125 91,233.725 91,256 C91,278.275 95.35,299.875 103.9375,320.2 C112.2625,339.85 124.15,357.475 139.3,372.6625 C154.45,387.8125 172.1125,399.7375 191.7625,408.025 C212.125,416.65 233.725,421 256,421 C278.275,421 299.875,416.65 320.2,408.0625 C339.85,399.7375 357.475,387.85 372.6625,372.7 C387.8125,357.55 399.7375,339.8875 408.025,320.2375 C416.65,299.875 421,278.275 421,256 C421,233.725 416.65,212.125 408.0625,191.8 C399.7375,172.15 387.85,154.4875 372.6625,139.3375 L372.6625,139.3375 Z M300.325,183.4 L268.375,183.4 L268.375,314.6875 C268.375,322.15 262.3375,328.1875 254.875,328.1875 L254.875,328.1875 L241.375,328.1875 L218.875,328.1875 C211.4125,328.1875 205.375,322.15 205.375,314.6875 L205.375,314.6875 C205.375,307.225 211.4125,301.1875 218.875,301.1875 L241.375,301.1875 L241.375,183.4 L209.425,183.4 C201.9625,183.4 195.925,177.3625 195.925,169.9 L195.925,169.9 C195.925,162.4375 201.9625,156.4 209.425,156.4 L241.375,156.4 L268.375,156.4 L300.325,156.4 C307.7875,156.4 313.825,162.4375 313.825,169.9 L313.825,169.9 C313.825,177.3625 307.7875,183.4 300.325,183.4 L300.325,183.4 Z M241.375,365.3125 C241.375,372.768344 247.419156,378.8125 254.875,378.8125 C262.330844,378.8125 268.375,372.768344 268.375,365.3125 C268.375,357.856656 262.330844,351.8125 254.875,351.8125 C247.419156,351.8125 241.375,357.856656 241.375,365.3125 L241.375,365.3125 Z" id="path-1"></path>
    </defs>
    <g id="symbol" stroke="none" stroke-width="1" fill="none" fill-rule="evenodd">
        <g id="icon/Prompt/help-big">
            <g>
                <rect id="Rectangle" fill="#D8D8D8" opacity="0" x="0" y="0" width="512" height="512"></rect>
                <mask id="mask-2" fill="white">
                    <use xlink:href="#path-1"></use>
                </mask>
                <use id="Shape" fill="#1890FF" transform="translate(256.000000, 256.000000) scale(1, -1) translate(-256.000000, -256.000000) " xlink:href="#path-1"></use>
            </g>
        </g>
    </g>
</svg>