<?xml version="1.0" encoding="UTF-8"?>
<svg width="512px" height="512px" viewBox="0 0 512 512" version="1.1" xmlns="http://www.w3.org/2000/svg" xmlns:xlink="http://www.w3.org/1999/xlink">
    <!-- Generator: Sketch 51 (57462) - http://www.bohemiancoding.com/sketch -->
    <title>icon/Prompt/help</title>
    <desc>Created with Sketch.</desc>
    <defs>
        <path d="M256.333333,405.666667 C173.85,405.666667 107,338.816667 107,256.333333 C107,173.85 173.85,107 256.333333,107 C338.816667,107 405.666667,173.85 405.666667,256.333333 C405.666667,338.816667 338.816667,405.666667 256.333333,405.666667 L256.333333,405.666667 Z M256.333333,349.666667 C261.495833,349.666667 265.666667,345.495833 265.666667,340.333333 C265.666667,335.170833 261.495833,331 256.333333,331 C251.170833,331 247,335.170833 247,340.333333 C247,345.495833 251.170833,349.666667 256.333333,349.666667 L256.333333,349.666667 Z M284.1875,163 L265.229167,163 L246.5625,163 L228.479167,163 C223.316667,163 219.145833,167.170833 219.145833,172.333333 C219.145833,177.495833 223.316667,181.666667 228.479167,181.666667 L246.5625,181.666667 L246.5625,275.729167 L228.1875,275.729167 C223.025,275.729167 218.854167,279.9 218.854167,285.0625 C218.854167,290.225 223.025,294.395833 228.1875,294.395833 L246.5625,294.395833 L255.895833,294.395833 C261.058333,294.395833 265.229167,290.225 265.229167,285.0625 L265.229167,181.666667 L284.1875,181.666667 C289.35,181.666667 293.8125,177.495833 293.8125,172.333333 C293.8125,167.170833 289.35,163 284.1875,163 L284.1875,163 Z" id="path-1"></path>
    </defs>
    <g id="symbol" stroke="none" stroke-width="1" fill="none" fill-rule="evenodd">
        <g id="icon/Prompt/help">
            <g>
                <rect id="Rectangle" fill="#D8D8D8" opacity="0" x="0" y="0" width="512" height="512"></rect>
                <mask id="mask-2" fill="white">
                    <use xlink:href="#path-1"></use>
                </mask>
                <use id="Shape" fill="#1890FF" transform="translate(256.333333, 256.333333) scale(1, -1) translate(-256.333333, -256.333333) " xlink:href="#path-1"></use>
            </g>
        </g>
    </g>
</svg>