<?xml version="1.0" encoding="UTF-8"?>
<svg width="512px" height="512px" viewBox="0 0 512 512" version="1.1" xmlns="http://www.w3.org/2000/svg" xmlns:xlink="http://www.w3.org/1999/xlink">
    <!-- Generator: Sketch 51 (57462) - http://www.bohemiancoding.com/sketch -->
    <title>icon/Prompt/success</title>
    <desc>Created with Sketch.</desc>
    <defs>
        <path d="M256.333333,405.666667 C173.856957,405.666667 107,338.80971 107,256.333333 C107,173.856957 173.856957,107 256.333333,107 C338.80971,107 405.666667,173.856957 405.666667,256.333333 C405.666667,338.80971 338.80971,405.666667 256.333333,405.666667 L256.333333,405.666667 Z M346.604822,295.921994 L225.328055,177.885891 C221.678658,174.236494 215.752036,174.236494 212.102639,177.885891 L165.769892,222.174976 C162.120495,225.824373 162.120495,231.750994 165.769892,235.400391 L165.769892,235.400391 C169.41929,239.049788 175.345911,239.049788 178.995308,235.400391 L218.729945,197.709417 L333.379407,309.14741 C337.028804,312.796807 342.955425,312.796807 346.604822,309.14741 L346.604822,309.14741 C350.25422,305.498012 350.25422,299.571391 346.604822,295.921994 L346.604822,295.921994 Z" id="path-1"></path>
    </defs>
    <g id="symbol" stroke="none" stroke-width="1" fill="none" fill-rule="evenodd">
        <g id="icon/Prompt/success">
            <g>
                <rect id="Rectangle" fill="#D8D8D8" opacity="0" x="0" y="0" width="512" height="512"></rect>
                <mask id="mask-2" fill="white">
                    <use xlink:href="#path-1"></use>
                </mask>
                <use id="Shape" fill="#52C41A" transform="translate(256.333333, 256.333333) scale(1, -1) translate(-256.333333, -256.333333) " xlink:href="#path-1"></use>
            </g>
        </g>
    </g>
</svg>