<?xml version="1.0" encoding="UTF-8"?>
<svg width="512px" height="512px" viewBox="0 0 512 512" version="1.1" xmlns="http://www.w3.org/2000/svg" xmlns:xlink="http://www.w3.org/1999/xlink">
    <!-- Generator: Sketch 51 (57462) - http://www.bohemiancoding.com/sketch -->
    <title>icon/Prompt/warn big</title>
    <desc>Created with Sketch.</desc>
    <defs>
        <path d="M256,421 C278.275,421 299.875,416.65 320.2,408.0625 C339.85,399.7375 357.475,387.85 372.6625,372.7 C387.8125,357.55 399.7375,339.8875 408.025,320.2375 C416.65,299.875 421,278.275 421,256 C421,233.725 416.65,212.125 408.0625,191.8 C399.7375,172.15 387.85,154.525 372.7,139.3375 C357.55,124.1875 339.8875,112.2625 320.2375,103.975 C299.875,95.35 278.275,91 256,91 C233.725,91 212.125,95.35 191.8,103.9375 C172.15,112.2625 154.525,124.15 139.3375,139.3 C124.1875,154.45 112.2625,172.1125 103.975,191.7625 C95.35,212.125 91,233.725 91,256 C91,278.275 95.35,299.875 103.9375,320.2 C112.2625,339.85 124.15,357.475 139.3,372.6625 C154.45,387.8125 172.1125,399.7375 191.7625,408.025 C212.125,416.65 233.725,421 256,421 L256,421 Z M256,448 C149.95,448 64,362.05 64,256 C64,149.95 149.95,64 256,64 C362.05,64 448,149.95 448,256 C448,362.05 362.05,448 256,448 L256,448 L256,448 Z M256,208 C247.7125,208 241,214.7125 241,223 L241,361.375 C241,369.6625 247.7125,376.375 256,376.375 C264.2875,376.375 271,369.6625 271,361.375 L271,223 C271,214.7125 264.2875,208 256,208 L256,208 Z M239.125,167.125 C239.125,176.444805 246.680195,184 256,184 C265.319805,184 272.875,176.444805 272.875,167.125 C272.875,157.805195 265.319805,150.25 256,150.25 C246.680195,150.25 239.125,157.805195 239.125,167.125 L239.125,167.125 Z" id="path-1"></path>
    </defs>
    <g id="symbol" stroke="none" stroke-width="1" fill="none" fill-rule="evenodd">
        <g id="icon/Prompt/warn-big">
            <g>
                <rect id="Rectangle-3" fill="#D8D8D8" opacity="0" x="0" y="0" width="512" height="512"></rect>
                <mask id="mask-2" fill="white">
                    <use xlink:href="#path-1"></use>
                </mask>
                <use id="Shape" fill="#FAAD14" transform="translate(256.000000, 256.000000) scale(1, -1) translate(-256.000000, -256.000000) " xlink:href="#path-1"></use>
            </g>
        </g>
    </g>
</svg>