<?xml version="1.0" encoding="UTF-8"?>
<svg width="512px" height="512px" viewBox="0 0 512 512" version="1.1" xmlns="http://www.w3.org/2000/svg" xmlns:xlink="http://www.w3.org/1999/xlink">
    <!-- Generator: Sketch 51 (57462) - http://www.bohemiancoding.com/sketch -->
    <title>icon/Prompt/warn</title>
    <desc>Created with Sketch.</desc>
    <defs>
        <path d="M256.333333,405.666667 C173.85,405.666667 107,338.816667 107,256.333333 C107,173.85 173.85,107 256.333333,107 C338.816667,107 405.666667,173.85 405.666667,256.333333 C405.666667,338.816667 338.816667,405.666667 256.333333,405.666667 L256.333333,405.666667 Z M265.666667,172.333333 C265.666667,167.170833 261.495833,163 256.333333,163 L256.333333,163 C251.170833,163 247,167.170833 247,172.333333 L247,172.333333 C247,177.495833 251.170833,181.666667 256.333333,181.666667 L256.333333,181.666667 C261.495833,181.666667 265.666667,177.495833 265.666667,172.333333 L265.666667,172.333333 L265.666667,172.333333 Z M265.666667,209.666667 C265.666667,204.504167 261.495833,200.333333 256.333333,200.333333 L256.333333,200.333333 C251.170833,200.333333 247,204.504167 247,209.666667 L247,340.333333 C247,345.495833 251.170833,349.666667 256.333333,349.666667 L256.333333,349.666667 C261.495833,349.666667 265.666667,345.495833 265.666667,340.333333 L265.666667,209.666667 L265.666667,209.666667 Z" id="path-1"></path>
    </defs>
    <g id="symbol" stroke="none" stroke-width="1" fill="none" fill-rule="evenodd">
        <g id="icon/Prompt/warn">
            <g>
                <rect id="Rectangle" fill="#D8D8D8" opacity="0" x="0" y="0" width="512" height="512"></rect>
                <mask id="mask-2" fill="white">
                    <use xlink:href="#path-1"></use>
                </mask>
                <use id="Shape-Copy-2" fill="#FAAD14" transform="translate(256.333333, 256.333333) scale(1, -1) translate(-256.333333, -256.333333) " xlink:href="#path-1"></use>
            </g>
        </g>
    </g>
</svg>