<?xml version="1.0" encoding="UTF-8"?>
<svg width="512px" height="512px" viewBox="0 0 512 512" version="1.1" xmlns="http://www.w3.org/2000/svg" xmlns:xlink="http://www.w3.org/1999/xlink">
    <!-- Generator: Sketch 51 (57462) - http://www.bohemiancoding.com/sketch -->
    <title>icon/menu/basic data</title>
    <desc>Created with Sketch.</desc>
    <defs>
        <path d="M410,144 L0,144 L0,64 C-4.32866401e-15,28.653776 28.653776,6.49299601e-15 64,0 L346,0 C381.346224,2.49007574e-14 410,28.653776 410,64 L410,144 Z M410,176 L410,352 C410,387.346224 381.346224,416 346,416 L64,416 C28.653776,416 4.32866401e-15,387.346224 0,352 L0,176 L410,176 Z M205,104 C222.673112,104 237,89.673112 237,72 C237,54.326888 222.673112,40 205,40 C187.326888,40 173,54.326888 173,72 C173,89.673112 187.326888,104 205,104 Z M103,318 C94.163444,318 87,325.163444 87,334 C87,342.836556 94.163444,350 103,350 L317,350 C325.836556,350 333,342.836556 333,334 C333,325.163444 325.836556,318 317,318 L103,318 Z M103,235 C94.163444,235 87,242.163444 87,251 C87,259.836556 94.163444,267 103,267 L317,267 C325.836556,267 333,259.836556 333,251 C333,242.163444 325.836556,235 317,235 L103,235 Z" id="path-1"></path>
    </defs>
    <g id="symbol" stroke="none" stroke-width="1" fill="none" fill-rule="evenodd">
        <g id="icon/menu/basic-data">
            <g>
                <rect id="Rectangle-Copy-249" fill-opacity="0" fill="#F0F0F0" x="0" y="0" width="512" height="512"></rect>
                <g id="Page-1" transform="translate(51.275862, 48.448276)">
                    <g id="color1">
                        <mask id="mask-2" fill="white">
                            <use xlink:href="#path-1"></use>
                        </mask>
                        <use id="Combined-Shape" fill="#D5E2E5" fill-rule="nonzero" xlink:href="#path-1"></use>
                    </g>
                </g>
            </g>
        </g>
    </g>
</svg>