<?xml version="1.0" encoding="UTF-8"?>
<svg width="512px" height="512px" viewBox="0 0 512 512" version="1.1" xmlns="http://www.w3.org/2000/svg" xmlns:xlink="http://www.w3.org/1999/xlink">
    <!-- Generator: Sketch 51 (57462) - http://www.bohemiancoding.com/sketch -->
    <title>icon/menu/C category</title>
    <desc>Created with Sketch.</desc>
    <defs>
        <path d="M31.5,0 L416.5,0 C433.89697,0 448,14.1030304 448,31.5 C448,48.8969696 433.89697,63 416.5,63 L31.5,63 C14.1030304,63 0,48.8969696 0,31.5 C0,14.1030304 14.1030304,0 31.5,0 Z M65,96 L383,96 C400.673112,96 415,110.326888 415,128 L415,352 C415,369.673112 400.673112,384 383,384 L65,384 C47.326888,384 33,369.673112 33,352 L33,128 C33,110.326888 47.326888,96 65,96 Z M299.192278,183.534503 C295.969148,178.865726 292.345107,174.496431 288.36617,170.480518 C270.873166,152.824955 247.301612,142.713887 222.186568,142.713887 C170.068059,142.713887 127.991239,185.915756 127.991239,239 C127.991239,292.084244 170.068059,335.286113 222.186568,335.286113 C247.035515,335.286113 270.379046,325.388878 287.823168,308.063147 C292.488484,303.429493 296.67588,298.315065 300.313415,292.804918 C305.181745,285.430361 303.150047,275.505541 295.77549,270.637211 C288.400933,265.768881 278.476113,267.80058 273.607783,275.175137 C271.177465,278.856588 268.382381,282.270465 265.272927,285.358816 C253.743918,296.80958 238.468423,303.286113 222.186568,303.286113 C187.932901,303.286113 159.991239,274.597347 159.991239,239 C159.991239,203.402653 187.932901,174.713887 222.186568,174.713887 C238.643025,174.713887 254.070151,181.331386 265.634346,193.003044 C268.286485,195.679829 270.705165,198.595891 272.858131,201.71451 C277.878401,208.986484 287.843234,210.81185 295.115208,205.79158 C302.387182,200.77131 304.212549,190.806477 299.192278,183.534503 Z" id="path-1"></path>
    </defs>
    <g id="symbol" stroke="none" stroke-width="1" fill="none" fill-rule="evenodd">
        <g id="icon/menu/C-category">
            <g>
                <rect id="Rectangle" fill-opacity="0" fill="#F0F0F0" x="0" y="0" width="512" height="512"></rect>
                <g id="Group-4" transform="translate(33.000000, 65.000000)">
                    <g id="color1">
                        <mask id="mask-2" fill="white">
                            <use xlink:href="#path-1"></use>
                        </mask>
                        <use id="Mask" fill="#D5E2E5" fill-rule="nonzero" xlink:href="#path-1"></use>
                    </g>
                </g>
            </g>
        </g>
    </g>
</svg>