<?xml version="1.0" encoding="UTF-8"?>
<svg width="512px" height="512px" viewBox="0 0 512 512" version="1.1" xmlns="http://www.w3.org/2000/svg" xmlns:xlink="http://www.w3.org/1999/xlink">
    <!-- Generator: Sketch 51 (57462) - http://www.bohemiancoding.com/sketch -->
    <title>icon/menu/folding</title>
    <desc>Created with Sketch.</desc>
    <defs>
        <path d="M16,0 L240,0 C248.836556,-1.623249e-15 256,7.163444 256,16 C256,24.836556 248.836556,32 240,32 L16,32 C7.163444,32 1.082166e-15,24.836556 0,16 C-1.082166e-15,7.163444 7.163444,1.623249e-15 16,0 Z M16,64 L240,64 C248.836556,64 256,71.163444 256,80 C256,88.836556 248.836556,96 240,96 L16,96 C7.163444,96 1.082166e-15,88.836556 0,80 C-1.082166e-15,71.163444 7.163444,64 16,64 Z M16,128 L240,128 C248.836556,128 256,135.163444 256,144 C256,152.836556 248.836556,160 240,160 L16,160 C7.163444,160 1.082166e-15,152.836556 0,144 C-1.082166e-15,135.163444 7.163444,128 16,128 Z M16,192 L240,192 C248.836556,192 256,199.163444 256,208 C256,216.836556 248.836556,224 240,224 L16,224 C7.163444,224 1.082166e-15,216.836556 0,208 C-1.082166e-15,199.163444 7.163444,192 16,192 Z" id="path-1"></path>
    </defs>
    <g id="symbol" stroke="none" stroke-width="1" fill="none" fill-rule="evenodd">
        <g id="icon/menu/folding">
            <g id="Group-54">
                <g transform="translate(256.000000, 256.000000) rotate(-270.000000) translate(-256.000000, -256.000000) ">
                    <rect id="Rectangle-24" fill-opacity="0" fill="#D8D8D8" x="0" y="0" width="512" height="512"></rect>
                    <g id="Group-49" transform="translate(128.000000, 144.000000)">
                        <g id="color1" transform="translate(0.000000, -0.000000)">
                            <mask id="mask-2" fill="white">
                                <use xlink:href="#path-1"></use>
                            </mask>
                            <use id="Mask" fill="#D5E2E5" xlink:href="#path-1"></use>
                        </g>
                    </g>
                </g>
            </g>
        </g>
    </g>
</svg>