<?xml version="1.0" encoding="UTF-8"?>
<svg width="512px" height="512px" viewBox="0 0 512 512" version="1.1" xmlns="http://www.w3.org/2000/svg" xmlns:xlink="http://www.w3.org/1999/xlink">
    <!-- Generator: Sketch 51 (57462) - http://www.bohemiancoding.com/sketch -->
    <title>icon/menu/into warehouse</title>
    <desc>Created with Sketch.</desc>
    <defs>
        <path d="M308.03658,287 L323.204581,271.831998 C329.45297,265.58361 329.45297,255.45297 323.204581,249.204581 C316.956193,242.956193 306.825553,242.956193 300.577164,249.204581 L259.313708,290.468037 C256.081967,293.699779 254.52172,297.970056 254.63297,302.204581 C254.52172,306.439107 256.081967,310.709384 259.313708,313.941125 L300.577164,355.204581 C306.825553,361.45297 316.956193,361.45297 323.204581,355.204581 C329.45297,348.956193 329.45297,338.825553 323.204581,332.577164 L309.627417,319 L416,319 L416,401.59627 C416,410.432826 408.836556,417.59627 400,417.59627 L77,417.59627 C68.163444,417.59627 61,410.432826 61,401.59627 L61,193.66163 L27.284311,223.194483 C20.701411,228.960696 10.7072337,228.368363 4.85152755,221.864942 L4.7060897,221.703417 C-1.12639726,215.225784 -0.603403055,205.24646 5.87422996,199.413973 C5.92770283,199.365826 5.98150433,199.318045 6.03563069,199.270634 L227.365661,5.39925112 C228.542473,4.36843649 229.828303,3.54082838 231.180019,2.91387044 C237.02485,-0.791191225 244.82691,-0.380944452 250.28433,4.39954439 L471.847954,198.480697 C471.902028,198.528064 471.955779,198.575799 472.009201,198.623901 C478.486919,204.456465 479.00992,214.43592 473.177356,220.913638 L473.032058,221.075009 C467.176296,227.578491 457.182001,228.170764 450.599116,222.404411 L416,192.096926 L416,287 L308.03658,287 Z M120,313 C115.581722,313 112,316.581722 112,321 L112,369 C112,373.418278 115.581722,377 120,377 L168,377 C172.418278,377 176,373.418278 176,369 L176,321 C176,316.581722 172.418278,313 168,313 L120,313 Z M120,217 C115.581722,217 112,220.581722 112,225 L112,273 C112,277.418278 115.581722,281 120,281 L168,281 C172.418278,281 176,277.418278 176,273 L176,225 C176,220.581722 172.418278,217 168,217 L120,217 Z" id="path-1"></path>
    </defs>
    <g id="symbol" stroke="none" stroke-width="1" fill="none" fill-rule="evenodd">
        <g id="icon/menu/into-warehouse">
            <g>
                <rect id="Rectangle" fill-opacity="0" fill="#F0F0F0" x="0" y="0" width="512" height="512"></rect>
                <g id="levite" transform="translate(17.000000, 48.000000)">
                    <g id="color1">
                        <mask id="mask-2" fill="white">
                            <use xlink:href="#path-1"></use>
                        </mask>
                        <use id="Mask" fill="#D5E2E5" fill-rule="nonzero" xlink:href="#path-1"></use>
                    </g>
                </g>
            </g>
        </g>
    </g>
</svg>