<?xml version="1.0" encoding="UTF-8"?>
<svg width="512px" height="512px" viewBox="0 0 512 512" version="1.1" xmlns="http://www.w3.org/2000/svg" xmlns:xlink="http://www.w3.org/1999/xlink">
    <!-- Generator: Sketch 51 (57462) - http://www.bohemiancoding.com/sketch -->
    <title>icon/menu/inventory</title>
    <desc>Created with Sketch.</desc>
    <defs>
        <path d="M231.180019,2.80987044 C237.02485,-0.895191225 244.82691,-0.484944452 250.28433,4.29554439 L471.847954,198.376697 C471.902028,198.424064 471.955779,198.471799 472.009201,198.519901 C478.486919,204.352465 479.00992,214.33192 473.177356,220.809638 L473.032058,220.971009 C467.176296,227.474491 457.182001,228.066764 450.599116,222.300411 L239.395505,37.2942294 L27.284311,223.090483 C20.701411,228.856696 10.7072337,228.264363 4.85152755,221.760942 L4.7060897,221.599417 C-1.12639726,215.121784 -0.603403055,205.14246 5.87422996,199.309973 C5.92770283,199.261826 5.98150433,199.214045 6.03563069,199.166634 L227.365661,5.29525112 C228.542473,4.26443649 229.828303,3.43682838 231.180019,2.80987044 Z M416,230.138053 L416,401.49227 C416,410.328826 408.836556,417.49227 400,417.49227 L77,417.49227 C68.163444,417.49227 61,410.328826 61,401.49227 L61,234.3904 C61,232.098918 61.9826256,229.917443 63.6987776,228.398986 L227.347475,83.6020897 C228.220446,82.8160636 229.15615,82.1438984 230.136373,81.5846394 C236.121873,77.1884463 244.566443,77.4373238 250.302497,82.6020897 L413.245336,224.097652 C414.995097,225.617102 416,227.820643 416,230.138053 Z M165.440909,275.398296 L144.12203,280.320147 C141.713488,280.876203 140.211751,283.279485 140.767807,285.688027 L146.808776,311.854338 C147.364831,314.262881 149.768113,315.764618 152.176656,315.208562 L173.445801,310.298193 C178.094202,319.414636 184.580591,327.43737 192.416611,333.878037 L182.804239,353.586319 C181.720631,355.808045 182.643258,358.487548 184.864984,359.571157 L209.001732,371.343435 C211.223459,372.427044 213.902962,371.504417 214.98657,369.28269 L224.770193,349.223291 C229.461188,350.157746 234.312383,350.647839 239.278045,350.647839 C244.56121,350.647839 249.714801,350.093069 254.683741,349.038607 L264.557441,369.28269 C265.641049,371.504417 268.320552,372.427044 270.542279,371.343435 L294.679027,359.571157 C296.900753,358.487548 297.82338,355.808045 296.739772,353.586319 L286.842156,333.293199 C294.421462,326.905529 300.697404,319.020479 305.21398,310.094052 L327.367355,315.208562 C329.775898,315.764618 332.179179,314.262881 332.735235,311.854338 L338.776204,285.688027 C339.33226,283.279485 337.830523,280.876203 335.421981,280.320147 L313.110574,275.169153 C312.889155,264.935256 310.585938,255.214125 306.60751,246.412347 L324.424335,231.984567 C326.34536,230.428952 326.641583,227.610578 325.085968,225.689553 L308.185825,204.819615 C306.63021,202.89859 303.811836,202.602367 301.890811,204.157982 L284.394285,218.32639 C276.581361,212.289095 267.525091,207.782884 257.675067,205.257351 L257.675067,182.806634 C257.675067,180.334737 255.671199,178.330869 253.199302,178.330869 L226.344709,178.330869 C223.872812,178.330869 221.868944,180.334737 221.868944,182.806634 L221.868944,205.011347 C211.850082,207.432426 202.628401,211.896368 194.669534,217.937538 L177.6532,204.157982 C175.732175,202.602367 172.913801,202.89859 171.358186,204.819615 L154.458043,225.689553 C152.902428,227.610578 153.198651,230.428952 155.119676,231.984567 L172.215546,245.828529 C168.043025,254.848873 165.636879,264.853395 165.440909,275.398296 Z M239.652101,317.330869 C216.456141,317.330869 197.652101,298.526828 197.652101,275.330869 C197.652101,252.134909 216.456141,233.330869 239.652101,233.330869 C262.84806,233.330869 281.652101,252.134909 281.652101,275.330869 C281.652101,298.526828 262.84806,317.330869 239.652101,317.330869 Z" id="path-1"></path>
    </defs>
    <g id="symbol" stroke="none" stroke-width="1" fill="none" fill-rule="evenodd">
        <g id="icon/menu/inventory">
            <g transform="translate(17.000000, 48.000000)" id="Group-7">
                <g transform="translate(0.000000, 0.104000)">
                    <g id="color1">
                        <mask id="mask-2" fill="white">
                            <use xlink:href="#path-1"></use>
                        </mask>
                        <use id="Mask" fill="#D5E2E5" fill-rule="nonzero" xlink:href="#path-1"></use>
                    </g>
                </g>
            </g>
        </g>
    </g>
</svg>