<?xml version="1.0" encoding="UTF-8"?>
<svg width="512px" height="512px" viewBox="0 0 512 512" version="1.1" xmlns="http://www.w3.org/2000/svg" xmlns:xlink="http://www.w3.org/1999/xlink">
    <!-- Generator: Sketch 51 (57462) - http://www.bohemiancoding.com/sketch -->
    <title>icon/menu/packing</title>
    <desc>Created with Sketch.</desc>
    <defs>
        <path d="M141.011612,189.749342 L121.958891,194.14801 C119.806372,194.644958 118.464267,196.792775 118.961215,198.945294 L124.36004,222.330176 C124.856988,224.482695 127.004806,225.8248 129.157324,225.327852 L148.1656,220.939446 C152.319884,229.086828 158.116782,236.25676 165.119848,242.012797 L156.529254,259.626125 C155.560831,261.611686 156.385384,264.006363 158.370945,264.974786 L179.942002,275.495693 C181.927563,276.464116 184.32224,275.639563 185.290663,273.654002 L194.034305,255.726878 C198.226657,256.562003 202.562178,257 207,257 C211.721574,257 216.327348,256.504201 220.7681,255.561826 L229.592243,273.654002 C230.560666,275.639563 232.955343,276.464116 234.940904,275.495693 L256.511961,264.974786 C258.497522,264.006363 259.322075,261.611686 258.353653,259.626125 L249.508135,241.490126 C256.281775,235.781453 261.890596,228.734569 265.927068,220.757005 L285.725582,225.327852 C287.878101,225.8248 290.025918,224.482695 290.522866,222.330176 L295.921692,198.945294 C296.41864,196.792775 295.076534,194.644958 292.924015,194.14801 L272.984269,189.544557 C272.786387,180.398504 270.727998,171.71071 267.172469,163.844545 L283.095399,150.950411 C284.812222,149.560155 285.076957,147.041369 283.686701,145.324545 L268.583012,126.673042 C267.192756,124.956219 264.67397,124.691484 262.957146,126.08174 L247.320468,138.744073 C240.338043,133.348531 232.244438,129.321322 223.441453,127.064248 L223.441453,107 C223.441453,104.790861 221.650592,103 219.441453,103 L195.441453,103 C193.232314,103 191.441453,104.790861 191.441453,107 L191.441453,126.844394 C182.487578,129.008117 174.246144,132.99755 167.133289,138.396555 L151.92576,126.08174 C150.208936,124.691484 147.690151,124.956219 146.299894,126.673042 L131.196205,145.324545 C129.805949,147.041369 130.070684,149.560155 131.787507,150.950411 L147.066118,163.322786 C143.337129,171.384284 141.186751,180.325345 141.011612,189.749342 Z M398,319 L16,319 C7.163444,319 1.082166e-15,311.836556 0,303 L0,16 C-1.082166e-15,7.163444 7.163444,1.623249e-15 16,0 L64,0 C72.836556,-1.623249e-15 80,7.163444 80,16 L80,68 L144,68 L144,46 C144,37.163444 151.163444,30 160,30 L256,30 C264.836556,30 272,37.163444 272,46 L272,68 L335,68 L335,16 C335,7.163444 342.163444,1.623249e-15 351,0 L398,0 C406.836556,-1.623249e-15 414,7.163444 414,16 L414,303 C414,311.836556 406.836556,319 398,319 Z M414,367 L414,367 C414,375.836556 406.836556,383 398,383 L16,383 C7.163444,383 1.082166e-15,375.836556 0,367 L0,367 C-1.082166e-15,358.163444 7.163444,351 16,351 L398,351 C406.836556,351 414,358.163444 414,367 Z M207,227 C187.117749,227 171,210.882251 171,191 C171,171.117749 187.117749,155 207,155 C226.882251,155 243,171.117749 243,191 C243,210.882251 226.882251,227 207,227 Z" id="path-1"></path>
    </defs>
    <g id="symbol" stroke="none" stroke-width="1" fill="none" fill-rule="evenodd">
        <g id="icon/menu/packing">
            <g>
                <rect id="Rectangle" fill-opacity="0" fill="#F0F0F0" x="0" y="0" width="512" height="512"></rect>
                <g id="color1" transform="translate(49.000000, 65.000000)">
                    <mask id="mask-2" fill="white">
                        <use xlink:href="#path-1"></use>
                    </mask>
                    <use id="Mask" fill="#D5E2E5" fill-rule="nonzero" xlink:href="#path-1"></use>
                </g>
            </g>
        </g>
    </g>
</svg>