<?xml version="1.0" encoding="UTF-8"?>
<svg width="512px" height="512px" viewBox="0 0 512 512" version="1.1" xmlns="http://www.w3.org/2000/svg" xmlns:xlink="http://www.w3.org/1999/xlink">
    <!-- Generator: Sketch 51 (57462) - http://www.bohemiancoding.com/sketch -->
    <title>icon/menu/search service</title>
    <desc>Created with Sketch.</desc>
    <defs>
        <path d="M369.296061,123.23485 C341.701751,68.4011894 287.870288,32 225.5,32 C163.00072,32 109.07562,68.5519127 81.533067,123.575302 C84.9789224,123.195252 88.4825161,123 92.0330697,123 C116.845881,123 116.845881,147.636575 116.845881,147.636575 C116.717212,113.668186 117.706646,246.096998 115.321083,279.109233 C114.944029,297.012549 98.8750019,301.75 92.0330697,301.75 C41.2046088,301.75 1.63318861e-14,261.73545 2.84217094e-14,212.375 C3.60326923e-14,181.300804 16.3300448,153.930538 41.110884,137.915885 C67.8039066,56.9861462 139.730595,0 225.5,0 C310.755853,0 382.334264,56.305771 409.404778,136.464747 C434.379185,152.243392 451,180.341068 451,212.375 C451,245.856747 432.842835,275.038389 405.968109,290.348388 C383.642519,349.14712 338.288356,395.43702 282.423771,414.519693 C276.123771,436.023292 252.580504,452 224.5,452 C191.595126,452 164.920455,430.061953 164.920455,403 C164.920455,375.938047 191.595126,354 224.5,354 C248.228294,354 268.716814,365.408027 278.299103,381.918958 C314.926318,367.534594 345.93825,338.714682 365.736672,301.703202 C364.780528,301.734321 363.820538,301.75 362.856936,301.75 C356.304196,301.75 340.914365,297.012549 340.553249,279.109233 C338.268517,246.096998 339.216131,113.668186 339.0929,147.636575 C339.0929,147.636575 339.0929,123 362.856936,123 C365.022438,123 367.1697,123.079183 369.296061,123.23485 Z" id="path-1"></path>
    </defs>
    <g id="symbol" stroke="none" stroke-width="1" fill="none" fill-rule="evenodd">
        <g id="icon/menu/search-service">
            <g transform="translate(32.000000, 33.000000)" id="Page-1">
                <g>
                    <g id="color1">
                        <mask id="mask-2" fill="white">
                            <use xlink:href="#path-1"></use>
                        </mask>
                        <use id="Mask" fill="#D5E2E5" fill-rule="nonzero" xlink:href="#path-1"></use>
                    </g>
                </g>
            </g>
        </g>
    </g>
</svg>