<?xml version="1.0" encoding="UTF-8"?>
<svg width="512px" height="512px" viewBox="0 0 512 512" version="1.1" xmlns="http://www.w3.org/2000/svg" xmlns:xlink="http://www.w3.org/1999/xlink">
    <!-- Generator: Sketch 51 (57462) - http://www.bohemiancoding.com/sketch -->
    <title>icon/menu/standard quotation</title>
    <desc>Created with Sketch.</desc>
    <defs>
        <path d="M257.097222,191.59705 L325.417447,123.276826 C331.665835,117.028437 331.665835,106.897797 325.417447,100.649409 C319.169058,94.4010199 309.038418,94.4010199 302.79003,100.649409 L228.895496,174.543942 L155.086536,100.734981 C148.838147,94.4865925 138.707508,94.4865925 132.459119,100.734981 C126.21073,106.98337 126.21073,117.114009 132.459119,123.362398 L200.693771,191.59705 L129.59705,191.59705 C120.760494,191.59705 113.59705,198.760494 113.59705,207.59705 C113.59705,216.433606 120.760494,223.59705 129.59705,223.59705 L212.724138,223.59705 L212.724138,274.59705 L129.59705,274.59705 C120.760494,274.59705 113.59705,281.760494 113.59705,290.59705 C113.59705,299.433606 120.760494,306.59705 129.59705,306.59705 L212.724138,306.59705 L212.724138,364 C212.724138,372.836556 219.887582,380 228.724138,380 C237.560694,380 244.724138,372.836556 244.724138,364 L244.724138,306.59705 L327.59705,306.59705 C336.433606,306.59705 343.59705,299.433606 343.59705,290.59705 C343.59705,281.760494 336.433606,274.59705 327.59705,274.59705 L244.724138,274.59705 L244.724138,223.59705 L327.59705,223.59705 C336.433606,223.59705 343.59705,216.433606 343.59705,207.59705 C343.59705,198.760494 336.433606,191.59705 327.59705,191.59705 L257.097222,191.59705 Z M446.59705,223.59705 C446.59705,346.755069 346.755069,446.59705 223.59705,446.59705 C100.439031,446.59705 0.597050103,346.755069 0.597050103,223.59705 C0.597050103,100.439031 100.439031,0.597050103 223.59705,0.597050103 C346.755069,0.597050103 446.59705,100.439031 446.59705,223.59705 Z" id="path-1"></path>
    </defs>
    <g id="symbol" stroke="none" stroke-width="1" fill="none" fill-rule="evenodd">
        <g id="icon/menu/standard-quotation">
            <g>
                <rect id="Rectangle" fill-opacity="0" fill="#F0F0F0" x="0" y="0" width="512" height="512"></rect>
                <g id="价值" transform="translate(32.000000, 32.000000)">
                    <g id="color1">
                        <mask id="mask-2" fill="white">
                            <use xlink:href="#path-1"></use>
                        </mask>
                        <use id="Mask" fill="#D5E2E5" fill-rule="nonzero" xlink:href="#path-1"></use>
                    </g>
                </g>
            </g>
        </g>
    </g>
</svg>