<?xml version="1.0" encoding="UTF-8"?>
<svg width="512px" height="512px" viewBox="0 0 512 512" version="1.1" xmlns="http://www.w3.org/2000/svg" xmlns:xlink="http://www.w3.org/1999/xlink">
    <!-- Generator: Sketch 51 (57462) - http://www.bohemiancoding.com/sketch -->
    <title>icon/menu/transfers</title>
    <desc>Created with Sketch.</desc>
    <defs>
        <path d="M416,192.096926 L416,401.59627 C416,410.432826 408.836556,417.59627 400,417.59627 L77,417.59627 C68.163444,417.59627 61,410.432826 61,401.59627 L61,193.66163 L27.284311,223.194483 C20.701411,228.960696 10.7072337,228.368363 4.85152755,221.864942 L4.7060897,221.703417 C-1.12639726,215.225784 -0.603403055,205.24646 5.87422996,199.413973 C5.92770283,199.365826 5.98150433,199.318045 6.03563069,199.270634 L227.365661,5.39925112 C228.542473,4.36843649 229.828303,3.54082838 231.180019,2.91387044 C237.02485,-0.791191225 244.82691,-0.380944452 250.28433,4.39954439 L471.847954,198.480697 C471.902028,198.528064 471.955779,198.575799 472.009201,198.623901 C478.486919,204.456465 479.00992,214.43592 473.177356,220.913638 L473.032058,221.075009 C467.176296,227.578491 457.182001,228.170764 450.599116,222.404411 L416,192.096926 Z M197.768336,312.5 L319.640919,312.5 C328.477475,312.5 335.640919,305.336556 335.640919,296.5 C335.640919,287.663444 328.477475,280.5 319.640919,280.5 L159.427879,280.5 C159.234854,280.496528 159.041777,280.496528 158.640919,280.5 C149.804364,280.5 142.640919,287.663444 142.640919,296.5 C142.640919,302.131851 145.550686,307.08409 149.948862,309.93536 L195.827211,355.813708 C202.0756,362.062097 212.206239,362.062097 218.454628,355.813708 C224.703017,349.56532 224.703017,339.43468 218.454628,333.186292 L197.768336,312.5 Z M158.640919,248.5 C266.085863,248.499571 319.83616,248.498928 319.891812,248.498073 C324.0692,248.562714 328.267077,247.001259 331.454628,243.813708 C337.703017,237.56532 337.703017,227.43468 331.454628,221.186292 L283.452024,173.183687 C277.203635,166.935299 267.072996,166.935299 260.824607,173.183687 C254.576218,179.432076 254.576218,189.562716 260.824607,195.811104 L281.513503,216.5 L158.640919,216.5 C149.804364,216.5 142.640919,223.663444 142.640919,232.5 C142.640919,241.336556 149.804364,248.5 158.640919,248.5 Z" id="path-1"></path>
    </defs>
    <g id="symbol" stroke="none" stroke-width="1" fill="none" fill-rule="evenodd">
        <g id="icon/menu/transfers">
            <g>
                <rect id="Rectangle" fill-opacity="0" fill="#F0F0F0" x="0" y="0" width="512" height="512"></rect>
                <g id="Page-1" transform="translate(17.000000, 48.000000)">
                    <g id="color1">
                        <mask id="mask-2" fill="white">
                            <use xlink:href="#path-1"></use>
                        </mask>
                        <use id="Mask" fill="#D5E2E5" fill-rule="nonzero" xlink:href="#path-1"></use>
                    </g>
                </g>
            </g>
        </g>
    </g>
</svg>