<?xml version="1.0" encoding="UTF-8"?>
<svg width="512px" height="512px" viewBox="0 0 512 512" version="1.1" xmlns="http://www.w3.org/2000/svg" xmlns:xlink="http://www.w3.org/1999/xlink">
    <!-- Generator: Sketch 51 (57462) - http://www.bohemiancoding.com/sketch -->
    <title>icon/menu/unsold</title>
    <desc>Created with Sketch.</desc>
    <defs>
        <path d="M416,192.096926 L416,401.59627 C416,410.432826 408.836556,417.59627 400,417.59627 L77,417.59627 C68.163444,417.59627 61,410.432826 61,401.59627 L61,193.66163 L27.284311,223.194483 C20.701411,228.960696 10.7072337,228.368363 4.85152755,221.864942 L4.7060897,221.703417 C-1.12639726,215.225784 -0.603403055,205.24646 5.87422996,199.413973 C5.92770283,199.365826 5.98150433,199.318045 6.03563069,199.270634 L227.365661,5.39925112 C228.542473,4.36843649 229.828303,3.54082838 231.180019,2.91387044 C237.02485,-0.791191225 244.82691,-0.380944452 250.28433,4.39954439 L471.847954,198.480697 C471.902028,198.528064 471.955779,198.575799 472.009201,198.623901 C478.486919,204.456465 479.00992,214.43592 473.177356,220.913638 L473.032058,221.075009 C467.176296,227.578491 457.182001,228.170764 450.599116,222.404411 L416,192.096926 Z M120,313 C115.581722,313 112,316.581722 112,321 L112,369 C112,373.418278 115.581722,377 120,377 L168,377 C172.418278,377 176,373.418278 176,369 L176,321 C176,316.581722 172.418278,313 168,313 L120,313 Z M216,313 C211.581722,313 208,316.581722 208,321 L208,369 C208,373.418278 211.581722,377 216,377 L264,377 C268.418278,377 272,373.418278 272,369 L272,321 C272,316.581722 268.418278,313 264,313 L216,313 Z M312,313 C307.581722,313 304,316.581722 304,321 L304,369 C304,373.418278 307.581722,377 312,377 L360,377 C364.418278,377 368,373.418278 368,369 L368,321 C368,316.581722 364.418278,313 360,313 L312,313 Z M120,217 C115.581722,217 112,220.581722 112,225 L112,273 C112,277.418278 115.581722,281 120,281 L168,281 C172.418278,281 176,277.418278 176,273 L176,225 C176,220.581722 172.418278,217 168,217 L120,217 Z M216,217 C211.581722,217 208,220.581722 208,225 L208,273 C208,277.418278 211.581722,281 216,281 L264,281 C268.418278,281 272,277.418278 272,273 L272,225 C272,220.581722 268.418278,217 264,217 L216,217 Z" id="path-1"></path>
    </defs>
    <g id="symbol" stroke="none" stroke-width="1" fill="none" fill-rule="evenodd">
        <g id="icon/menu/unsold">
            <g transform="translate(17.000000, 48.000000)" id="Page-1">
                <g>
                    <g id="color1">
                        <mask id="mask-2" fill="white">
                            <use xlink:href="#path-1"></use>
                        </mask>
                        <use id="Mask" fill="#D5E2E5" fill-rule="nonzero" xlink:href="#path-1"></use>
                    </g>
                </g>
            </g>
        </g>
    </g>
</svg>