<?xml version="1.0" encoding="UTF-8"?>
<svg width="512px" height="512px" viewBox="0 0 512 512" version="1.1" xmlns="http://www.w3.org/2000/svg" xmlns:xlink="http://www.w3.org/1999/xlink">
    <!-- Generator: Sketch 51 (57462) - http://www.bohemiancoding.com/sketch -->
    <title>icon/menu/报表管理</title>
    <desc>Created with Sketch.</desc>
    <defs>
        <path d="M304,1.42108547e-14 L384,80 L384,416 C384,433.673112 369.673112,448 352,448 L32,448 C14.326888,448 2.164332e-15,433.673112 0,416 L0,32 C-2.164332e-15,14.326888 14.326888,3.24649801e-15 32,0 L304,0 Z M352.494535,110 C353.539837,110 354.543609,109.590815 355.291006,108.860027 C356.870555,107.315579 356.89901,104.783079 355.354562,103.203529 L280.860027,27.0159364 C280.107463,26.2462688 279.076448,25.8124069 278,25.8124069 C275.790861,25.8124069 274,27.6032679 274,29.8124069 L274,94 C274,102.836556 281.163444,110 290,110 L352.494535,110 Z M80,334 C71.163444,334 64,341.163444 64,350 C64,358.836556 71.163444,366 80,366 C88.836556,366 96,358.836556 96,350 C96,341.163444 88.836556,334 80,334 Z M80,239 C71.163444,239 64,246.163444 64,255 C64,263.836556 71.163444,271 80,271 C88.836556,271 96,263.836556 96,255 C96,246.163444 88.836556,239 80,239 Z M80,144 C71.163444,144 64,151.163444 64,160 C64,168.836556 71.163444,176 80,176 C88.836556,176 96,168.836556 96,160 C96,151.163444 88.836556,144 80,144 Z M144,334 C135.163444,334 128,341.163444 128,350 C128,358.836556 135.163444,366 144,366 L296,366 C304.836556,366 312,358.836556 312,350 C312,341.163444 304.836556,334 296,334 L144,334 Z M144,239 C135.163444,239 128,246.163444 128,255 C128,263.836556 135.163444,271 144,271 L296,271 C304.836556,271 312,263.836556 312,255 C312,246.163444 304.836556,239 296,239 L144,239 Z M144,144 C135.163444,144 128,151.163444 128,160 C128,168.836556 135.163444,176 144,176 L296,176 C304.836556,176 312,168.836556 312,160 C312,151.163444 304.836556,144 296,144 L144,144 Z" id="path-1"></path>
    </defs>
    <g id="symbol" stroke="none" stroke-width="1" fill="none" fill-rule="evenodd">
        <g id="icon/menu/报表管理">
            <g transform="translate(65.000000, 33.000000)">
                <mask id="mask-2" fill="white">
                    <use xlink:href="#path-1"></use>
                </mask>
                <use id="Mask" fill="#D5E2E5" fill-rule="nonzero" xlink:href="#path-1"></use>
            </g>
        </g>
    </g>
</svg>