<?xml version="1.0" encoding="UTF-8"?>
<svg width="512px" height="512px" viewBox="0 0 512 512" version="1.1" xmlns="http://www.w3.org/2000/svg" xmlns:xlink="http://www.w3.org/1999/xlink">
    <!-- Generator: Sketch 51 (57462) - http://www.bohemiancoding.com/sketch -->
    <title>icon/menu/系统设置</title>
    <desc>Created with Sketch.</desc>
    <defs>
        <path d="M116.069212,240 L159.563034,240 C151.010637,227.64955 146,212.659924 146,196.5 C146,154.250217 180.250217,120 222.5,120 C264.749783,120 299,154.250217 299,196.5 C299,212.659924 293.989363,227.64955 285.436962,240.000006 L335.629089,240 L323.622056,233.067736 C327.781705,221.646053 330.050791,209.315871 330.050791,196.455716 C330.050791,196.096674 330.049023,195.738045 330.045494,195.379837 L361.028311,189.91673 C365.379466,189.149504 368.284814,185.000237 367.517588,180.649083 L364.154635,161.576829 C363.387409,157.225675 359.238142,154.320326 354.886988,155.087552 L323.878318,160.555217 C319.767497,149.012572 313.730514,138.383743 306.154223,129.055587 L325.346439,106.183195 C328.186453,102.798598 327.744981,97.7525533 324.360384,94.9125389 L309.524804,82.4640094 C306.140207,79.6239951 301.094162,80.0654668 298.254148,83.4500641 L279.638259,105.635617 C268.331627,98.5779039 255.61168,93.5729017 242,91.1421935 L242,63 C242,58.581722 238.418278,55 234,55 L214,55 C209.581722,55 206,58.581722 206,63 L206,90.8261023 C192.944805,92.9191365 180.678743,97.3742326 169.653969,103.739235 L152.629334,83.4500641 C149.78932,80.0654668 144.743275,79.6239951 141.358677,82.4640094 L126.523098,94.9125389 C123.1385,97.7525533 122.697029,102.798598 125.537043,106.183195 L142.357556,126.229102 C133.856828,135.990518 127.097913,147.308675 122.565053,159.699331 L96.4103545,155.087552 C92.0592,154.320326 87.9099329,157.225675 87.142707,161.576829 L83.7797541,180.649083 C83.0125282,185.000237 85.9178763,189.149504 90.2690307,189.91673 L116.101652,194.471718 C116.08965,195.131609 116.083624,195.792958 116.083624,196.455716 C116.083624,210.311104 118.717504,223.551316 123.511883,235.702972 L116.069212,240 Z M259,294 L188,294 L188,350 L259,350 L259,294 Z M291,350 L322,350 C330.836556,350 338,357.163444 338,366 C338,374.836556 330.836556,382 322,382 L124,382 C115.163444,382 108,374.836556 108,366 C108,357.163444 115.163444,350 124,350 L156,350 L156,294 L8,294 C3.581722,294 0,290.888713 0,287.050746 L0,6.94925373 C0,3.11128687 3.581722,0 8,0 L439,0 C443.418278,-2.48629242e-14 447,3.11128687 447,6.94925373 L447,287.050746 C447,290.888713 443.418278,294 439,294 L291,294 L291,350 Z M223.5,238 C246.419817,238 265,219.419817 265,196.5 C265,173.580183 246.419817,155 223.5,155 C200.580183,155 182,173.580183 182,196.5 C182,219.419817 200.580183,238 223.5,238 Z" id="path-1"></path>
    </defs>
    <g id="symbol" stroke="none" stroke-width="1" fill="none" fill-rule="evenodd">
        <g id="icon/menu/系统设置">
            <g transform="translate(33.000000, 66.000000)">
                <mask id="mask-2" fill="white">
                    <use xlink:href="#path-1"></use>
                </mask>
                <use id="Combined-Shape" fill="#D5E2E5" fill-rule="nonzero" xlink:href="#path-1"></use>
            </g>
        </g>
    </g>
</svg>