<?xml version="1.0" encoding="UTF-8"?>
<svg width="512px" height="512px" viewBox="0 0 512 512" version="1.1" xmlns="http://www.w3.org/2000/svg" xmlns:xlink="http://www.w3.org/1999/xlink">
    <!-- Generator: Sketch 51 (57462) - http://www.bohemiancoding.com/sketch -->
    <title>icon/operation/right arrow_all</title>
    <desc>Created with Sketch.</desc>
    <defs>
        <path d="M10.1629185,259.715729 C7.43628186,259.715729 4.95752124,258.722625 2.97451274,256.736418 C-0.991504248,252.764005 -0.991504248,246.308832 2.97451274,242.336418 L115.249169,129.857864 L2.97451274,17.3793103 C-0.991504248,13.4068966 -0.991504248,6.95172414 2.97451274,2.97931034 C6.94052974,-0.993103448 13.3853073,-0.993103448 17.3513243,2.97931034 L136.814386,122.657864 C140.780403,126.630278 140.780403,133.085451 136.814386,137.057864 L17.3513243,256.736418 C15.3683158,258.722625 12.8895552,259.715729 10.1629185,259.715729 Z M140.162919,259.715729 C137.436282,259.715729 134.957521,258.722625 132.974513,256.736418 C129.008496,252.764005 129.008496,246.308832 132.974513,242.336418 L245.249169,129.857864 L132.974513,17.3793103 C129.008496,13.4068966 129.008496,6.95172414 132.974513,2.97931034 C136.94053,-0.993103448 143.385307,-0.993103448 147.351324,2.97931034 L266.814386,122.657864 C270.780403,126.630278 270.780403,133.085451 266.814386,137.057864 L147.351324,256.736418 C145.368316,258.722625 142.889555,259.715729 140.162919,259.715729 Z" id="path-1"></path>
    </defs>
    <g id="symbol" stroke="none" stroke-width="1" fill="none" fill-rule="evenodd">
        <g id="right-arrow_all">
            <g id="left-arrow">
                <g>
                    <rect id="Rectangle-15" fill-opacity="0" fill="#D8D8D8" x="0" y="0" width="512" height="512"></rect>
                    <g id="color1" transform="translate(121.000000, 126.000000)">
                        <mask id="mask-2" fill="white">
                            <use xlink:href="#path-1"></use>
                        </mask>
                        <use id="Combined-Shape" fill="#595959" xlink:href="#path-1"></use>
                    </g>
                </g>
            </g>
        </g>
    </g>
</svg>