<?xml version="1.0" encoding="UTF-8"?>
<svg width="512px" height="512px" viewBox="0 0 512 512" version="1.1" xmlns="http://www.w3.org/2000/svg" xmlns:xlink="http://www.w3.org/1999/xlink">
    <!-- Generator: Sketch 51 (57462) - http://www.bohemiancoding.com/sketch -->
    <title>icon/operation/up arrow</title>
    <desc>Created with Sketch.</desc>
    <defs>
        <path d="M85.3513243,218.02069 C83.3683158,220.006897 80.8895552,221 78.1629185,221 C75.4362819,221 72.9575212,220.006897 70.9745127,218.02069 C67.0084958,214.048276 67.0084958,207.593103 70.9745127,203.62069 L197.391304,77 L70.9745127,-49.6206897 C67.0084958,-53.5931034 67.0084958,-60.0482759 70.9745127,-64.0206897 C74.9405297,-67.9931034 81.3853073,-67.9931034 85.3513243,-64.0206897 L218.956522,69.8 C222.922539,73.7724138 222.922539,80.2275862 218.956522,84.2 L85.3513243,218.02069 L85.3513243,218.02069 Z" id="path-1"></path>
    </defs>
    <g id="symbol" stroke="none" stroke-width="1" fill="none" fill-rule="evenodd">
        <g id="icon/operation/up-arrow">
            <g id="up-arrow">
                <rect id="Rectangle-15" fill-opacity="0" fill="#D8D8D8" x="0" y="0" width="512" height="512"></rect>
                <g id="color1" transform="translate(111.000000, 179.000000)">
                    <mask id="mask-2" fill="white">
                        <use xlink:href="#path-1"></use>
                    </mask>
                    <use id="Mask" fill="#D5E2E5" transform="translate(144.965517, 77.000000) rotate(-90.000000) translate(-144.965517, -77.000000) " xlink:href="#path-1"></use>
                </g>
            </g>
        </g>
    </g>
</svg>