<?xml version="1.0" encoding="UTF-8"?>
<svg width="513px" height="512px" viewBox="0 0 513 512" version="1.1" xmlns="http://www.w3.org/2000/svg" xmlns:xlink="http://www.w3.org/1999/xlink">
    <!-- Generator: Sketch 51 (57462) - http://www.bohemiancoding.com/sketch -->
    <title>icon/operation/搜索</title>
    <desc>Created with Sketch.</desc>
    <defs>
        <path d="M307.466667,169.866667 C307.466667,93.873356 245.859977,32.2666667 169.866667,32.2666667 C93.873356,32.2666667 32.2666667,93.873356 32.2666667,169.866667 C32.2666667,245.859977 93.873356,307.466667 169.866667,307.466667 C245.859977,307.466667 307.466667,245.859977 307.466667,169.866667 Z M300.575622,277.943938 L394.513708,371.882025 C400.762097,378.130414 400.762097,388.261053 394.513708,394.509442 C388.26532,400.757831 378.13468,400.757831 371.886292,394.509442 L277.948607,300.571757 C248.602523,324.865943 210.939456,339.466667 169.866667,339.466667 C76.200244,339.466667 0.266666667,263.533089 0.266666667,169.866667 C0.266666667,76.200244 76.200244,0.266666667 169.866667,0.266666667 C263.533089,0.266666667 339.466667,76.200244 339.466667,169.866667 C339.466667,210.937278 324.867491,248.598529 300.575622,277.943938 Z" id="path-1"></path>
    </defs>
    <g id="symbol" stroke="none" stroke-width="1" fill="none" fill-rule="evenodd">
        <g id="icon/operation/搜索">
            <g id="icon/operation/拉伸">
                <g id="color1" transform="translate(56.000000, 56.000000)">
                    <mask id="mask-2" fill="white">
                        <use xlink:href="#path-1"></use>
                    </mask>
                    <use id="Mask" fill="#D5E2E5" fill-rule="nonzero" xlink:href="#path-1"></use>
                </g>
            </g>
        </g>
    </g>
</svg>