<?xml version="1.0" encoding="UTF-8"?>
<svg width="512px" height="512px" viewBox="0 0 512 512" version="1.1" xmlns="http://www.w3.org/2000/svg" xmlns:xlink="http://www.w3.org/1999/xlink">
    <!-- Generator: Sketch 51 (57462) - http://www.bohemiancoding.com/sketch -->
    <title>icon/帮助中心/QQ_底色</title>
    <desc>Created with Sketch.</desc>
    <defs>
        <path d="M263.332225,445.787082 C265.201116,445.682491 267.047514,446.236541 268.550062,447.352804 C283.201139,458.237275 306.669123,464.765709 332.12456,464.765709 C379.385482,464.765709 412.353328,444.431262 412.352902,418.35692 C412.352902,406.150311 405.052956,394.885688 391.09935,386.315641 C387.087724,383.851774 386.060514,378.473587 388.88171,374.704682 C392.074607,370.12526 397.140478,369.283431 400.754356,371.911276 C408.171595,377.304748 415.909683,378.769717 422.961115,376.374289 C433.124394,372.929921 439.757298,361.721281 441.940745,343.998293 C444.087459,326.573467 441.55252,304.646228 435.128551,283.952078 C429.445153,265.664889 419.230126,249.306506 406.373655,235.211812 C404.881788,233.576262 404.134338,231.395642 404.30915,229.188805 C404.413817,227.86749 404.461107,226.512697 404.461107,224.950083 C404.461107,213.943244 401.585101,203.227661 395.806679,192.820114 C395.147074,191.632095 394.80095,190.295641 394.80095,188.936793 C394.80095,111.706305 332.631031,48.8819287 256.273214,48.8819287 C179.83023,48.8819287 117.713074,111.784342 117.713074,189.442921 C117.713074,190.797635 117.369051,192.130161 116.71326,193.315567 C111.083537,203.491842 108.253516,214.10701 108.253516,224.949568 C108.253516,226.351 108.301225,227.586257 108.405911,228.74843 C108.608289,230.995142 107.852726,233.222879 106.325326,234.882916 C93.3455128,248.989881 82.9845094,265.51619 77.2417677,283.963181 C70.8248475,304.651939 68.2932359,326.576283 70.4382219,344.000515 C72.6198775,361.722621 79.2460849,372.931623 89.3763663,376.368696 C96.4794895,378.76027 104.278041,377.282182 111.681561,371.861798 C115.446423,369.105407 120.761622,370.1428 123.213705,374.112581 C123.349606,374.325734 123.738321,374.916132 123.884634,375.144673 C126.305444,378.925978 125.141068,383.958626 121.305443,386.292414 C107.327256,394.797451 99.9836674,406.113262 99.9836674,418.356406 C99.9836674,444.428842 132.946829,464.765709 180.18012,464.765709 C205.654291,464.765709 229.11658,458.239434 243.770562,447.352804 C245.274814,446.235276 247.123639,445.681275 248.994567,445.78743 C253.933474,446.067658 258.318748,446.067658 263.332225,445.787082 Z M250.926048,461.896897 C233.290669,473.956543 207.603302,480.765709 180.18012,480.765709 C125.239839,480.765709 83.9836674,455.312408 83.9836674,418.356406 C83.9836674,409.352631 86.5486879,400.837528 91.3639482,393.171524 C88.9723286,392.861766 86.5959294,392.315081 84.2532641,391.526317 C67.230995,385.75092 57.4124043,369.141631 54.5580972,345.955415 C52.1172166,326.127562 54.9078586,301.959955 61.9624423,279.215324 C68.1343901,259.389609 78.8621998,241.74858 92.2717367,226.576686 C92.259416,226.045403 92.2535158,225.504105 92.2535158,224.949568 C92.2535158,212.014964 95.4557224,199.373916 101.725931,187.403191 C102.804748,101.892352 171.620438,32.8819287 256.273214,32.8819287 C340.827986,32.8819287 409.698582,101.798505 410.787848,186.888861 C417.205924,199.07878 420.461107,211.835287 420.461107,224.950083 C420.461107,225.633047 420.453625,226.292726 420.437965,226.937155 C433.714492,242.075355 444.298079,259.545018 450.40845,279.206064 C457.46932,301.951921 460.263788,326.124085 457.820687,345.95468 C454.963869,369.143401 445.134551,385.753515 428.102128,391.525855 C425.754505,392.323362 423.372737,392.875196 420.975187,393.18687 C425.790648,400.851048 428.352902,409.355242 428.352902,418.35679 C428.353505,455.315965 387.092326,480.765709 332.12456,480.765709 C304.718562,480.765709 279.026168,473.954162 261.392974,461.89577 C257.832995,462.031094 254.454669,462.031502 250.926048,461.896897 Z" id="path-1"></path>
    </defs>
    <g id="symbol" stroke="none" stroke-width="1" fill="none" fill-rule="evenodd">
        <g id="icon/帮助中心/QQ_底色">
            <g id="color1">
                <g>
                    <circle id="Path" fill="#1890FF" fill-rule="nonzero" opacity="0.12" cx="256" cy="256" r="256"></circle>
                    <mask id="mask-2" fill="white">
                        <use xlink:href="#path-1"></use>
                    </mask>
                    <use id="Mask" fill="#47A7FF" fill-rule="nonzero" xlink:href="#path-1"></use>
                </g>
            </g>
        </g>
    </g>
</svg>