<?xml version="1.0" encoding="UTF-8"?>
<svg width="512px" height="512px" viewBox="0 0 512 512" version="1.1" xmlns="http://www.w3.org/2000/svg" xmlns:xlink="http://www.w3.org/1999/xlink">
    <!-- Generator: Sketch 51 (57462) - http://www.bohemiancoding.com/sketch -->
    <title>icon/帮助中心/电话_底色</title>
    <desc>Created with Sketch.</desc>
    <defs>
        <path d="M316.3205,221.606476 C319.815239,225.17707 321.296849,229.543601 320.910097,234.039177 C320.662958,236.911907 319.861591,239.090581 318.505397,241.751717 C300.998582,276.103768 271.168954,306.610337 239.443089,319.26888 C234.389537,321.285234 227.01961,319.979394 222.286406,315.246398 L208.885252,301.845837 C207.508023,300.46867 206.721417,299.872744 205.411591,299.357802 C203.256914,298.510717 200.26435,298.297754 195.999225,299.104947 C168.512747,304.306878 145.91116,309.477577 139.279945,312.711972 C131.973423,316.273969 128.836897,324.556725 130.367508,337.527381 C131.235692,344.898893 136.988098,356.286273 145.341408,365.221173 C155.72766,376.330558 168.851601,382.841303 183.919776,382.996449 C220.204969,383.370184 274.550286,354.917237 312.99619,314.270035 C359.693944,264.866585 386.211753,215.884963 381.449831,178.009069 C379.184521,159.903081 371.082195,147.423755 358.756169,139.276649 C350.224782,133.637677 340.257294,130.606965 333.183739,130.090073 C325.422028,129.513675 320.084811,131.630507 315.832001,136.912457 C312.426834,141.154001 305.141427,163.24967 297.694127,190.186839 C296.38226,194.931914 296.340542,198.312659 297.0913,200.725374 C297.531812,202.141048 298.141839,203.033236 299.320588,204.237571 L316.3205,221.606476 Z M287.886072,215.429168 C281.196484,208.594378 278.447357,199.7595 282.272648,185.923274 C290.765276,155.205112 297.830251,133.777986 303.362376,126.887073 C311.047662,117.341997 321.538352,113.181209 334.359231,114.133315 C344.000535,114.837835 356.590227,118.665853 367.578641,125.92884 C383.707599,136.589562 394.465488,153.159026 397.325456,176.017962 C400.287355,199.576626 393.460433,225.662993 378.434098,253.418462 C365.620265,277.087171 347.041725,301.544048 324.622051,325.26273 C283.361926,368.885288 225.038855,399.420822 183.755015,398.9956 C164.022974,398.792434 146.867103,390.281463 133.653707,376.148097 C123.082647,364.841036 115.768543,350.362143 114.477548,339.400659 C112.22826,320.339815 117.91272,305.328626 132.267186,298.330692 C140.833123,294.152631 163.38487,288.993334 193.023972,283.384009 C200.1384,282.037574 206.179001,282.467448 211.265647,284.4672 C215.054466,285.956727 217.401612,287.734904 220.19871,290.531878 L233.599864,303.93244 C261.71684,292.890024 288.508558,265.374498 304.249892,234.486692 C304.655089,233.691612 304.863219,233.179348 304.938451,232.851901 C304.928466,232.841634 299.244339,227.034056 287.886072,215.429168 Z M234.365239,304.161347 C234.379819,304.161439 234.392604,304.161129 234.403278,304.160458 C234.399434,304.1607 234.395534,304.160965 234.391577,304.161254 L234.365239,304.161347 Z M75.1953786,360.980282 L75.369232,360.841955 C86.6182713,374.980102 101.239527,378.768861 121.028825,372.297619 C121.191862,372.214892 121.415927,372.09646 121.692502,371.94589 C122.445431,371.535987 123.502835,370.934439 124.848838,370.149214 C127.614558,368.53576 131.542672,366.179893 136.620723,363.088601 L144.940472,376.755414 C133.324448,383.826733 128.357097,386.724566 126.400143,387.373944 C103.823968,394.86543 84.471739,391.722779 69.5250015,378.004804 C67.6046659,377.512978 65.8640716,376.307848 64.7359992,374.49067 C63.981306,373.274958 63.238213,372.052056 62.506834,370.822127 C61.9427054,369.873456 61.3855594,368.920627 60.8354469,367.963715 C59.6445978,365.892253 58.4867936,363.801807 57.362532,361.693138 C40.1618585,329.431499 31.0365297,293.364883 31.0365297,256 C31.0365297,131.756106 131.756106,31.0365297 256,31.0365297 C380.243894,31.0365297 480.96347,131.756106 480.96347,256 C480.96347,380.243894 380.243894,480.96347 256,480.96347 C228.42307,480.96347 201.518523,475.996182 176.263698,466.421232 C172.151242,464.862062 170.081394,460.2643 171.640564,456.151843 C173.199734,452.039386 177.797496,449.969539 181.909953,451.528709 C205.367763,460.422351 230.359749,465.03653 256,465.03653 C371.447687,465.03653 465.03653,371.447687 465.03653,256 C465.03653,140.552313 371.447687,46.9634703 256,46.9634703 C140.552313,46.9634703 46.9634703,140.552313 46.9634703,256 C46.9634703,290.735293 55.4382594,324.23074 71.4167158,354.199984 C72.4612091,356.159039 73.5368935,358.101216 74.6433085,360.025806 C74.8264924,360.344452 75.0105165,360.662611 75.1953786,360.980282 Z" id="path-1"></path>
    </defs>
    <g id="symbol" stroke="none" stroke-width="1" fill="none" fill-rule="evenodd">
        <g id="icon/帮助中心/电话_底色">
            <g id="color1">
                <g>
                    <circle id="Oval" fill="#0EC1AF" fill-rule="nonzero" opacity="0.12" cx="256" cy="256" r="256"></circle>
                    <mask id="mask-2" fill="white">
                        <use xlink:href="#path-1"></use>
                    </mask>
                    <use id="Mask" fill="#3FCEBF" fill-rule="nonzero" xlink:href="#path-1"></use>
                </g>
            </g>
        </g>
    </g>
</svg>