<?xml version="1.0" encoding="UTF-8"?>
<svg width="512px" height="512px" viewBox="0 0 512 512" version="1.1" xmlns="http://www.w3.org/2000/svg" xmlns:xlink="http://www.w3.org/1999/xlink">
    <!-- Generator: Sketch 51 (57462) - http://www.bohemiancoding.com/sketch -->
    <title>icon/帮助中心/邮件_底色</title>
    <desc>Created with Sketch.</desc>
    <defs>
        <path d="M65.2700957,402.043613 C67.4053622,402.666172 69.6636962,403 72,403 L440,403 C442.616711,403 445.135613,402.58123 447.493343,401.807051 L316.898551,271.21226 L289.779892,298.330919 C271.608633,316.502177 241.795644,316.150619 223.190716,297.545691 L196.479367,270.834342 L65.2700957,402.043613 Z M52.1671197,392.519172 L185.165658,259.520633 L53.4345564,127.789531 C50.0383276,131.929993 48,137.226958 48,143 L48,379 C48,384.014132 49.5376447,388.669127 52.1671197,392.519172 Z M460.2309,391.917192 C462.616853,388.188073 464,383.755562 464,379 L464,143 C464,137.676375 462.266677,132.75759 459.3336,128.777211 L328.21226,259.898551 L460.2309,391.917192 Z M67.6632497,119.390807 L234.504425,286.231982 C246.919907,298.647464 266.603814,298.879579 278.466183,287.01721 L445.782243,119.701151 C443.930276,119.243056 441.993522,119 440,119 L72,119 C70.5192696,119 69.069859,119.134096 67.6632497,119.390807 Z M72,103 L440,103 C462.09139,103 480,120.90861 480,143 L480,379 C480,401.09139 462.09139,419 440,419 L72,419 C49.90861,419 32,401.09139 32,379 L32,143 C32,120.90861 49.90861,103 72,103 Z" id="path-1"></path>
    </defs>
    <g id="symbol" stroke="none" stroke-width="1" fill="none" fill-rule="evenodd">
        <g id="icon/帮助中心/邮件_底色">
            <g id="color1">
                <g>
                    <circle id="Oval" fill="#F08519" fill-rule="nonzero" opacity="0.12" cx="256" cy="256" r="256"></circle>
                    <mask id="mask-2" fill="white">
                        <use xlink:href="#path-1"></use>
                    </mask>
                    <use id="Mask" fill="#F39E47" fill-rule="nonzero" xlink:href="#path-1"></use>
                </g>
            </g>
        </g>
    </g>
</svg>