<?xml version="1.0" encoding="UTF-8"?>
<svg width="170px" height="136px" viewBox="0 0 170 136" version="1.1" xmlns="http://www.w3.org/2000/svg" xmlns:xlink="http://www.w3.org/1999/xlink">
    <!-- Generator: Sketch 52.2 (67145) - http://www.bohemiancoding.com/sketch -->
    <title>emptyData_bg</title>
    <desc>Created with Sketch.</desc>
    <g id="Page-1" stroke="none" stroke-width="1" fill="none" fill-rule="evenodd">
        <g id="暂无数据" transform="translate(-742.000000, -487.000000)">
            <g id="分组-2" transform="translate(742.000000, 487.000000)">
                <g id="emptyData_bg" transform="translate(22.000000, 1.000000)">
                    <text id="暂无数据" font-family="PingFangSC-Regular, PingFang SC" font-size="14" font-weight="normal" line-spacing="24" fill="#8C8C8C">
                        <tspan x="35" y="128">暂无数据</tspan>
                    </text>
                    <path d="M27,84 L41.5,84 C43.4329966,84 45,85.5670034 45,87.5 C45,89.4329966 43.4329966,91 41.5,91 L13.5,91 C11.5670034,91 10,89.4329966 10,87.5 C10,85.5670034 11.5670034,84 13.5,84 L13.28125,84 C15.0761754,84 16.53125,82.5449254 16.53125,80.75 C16.53125,78.9550746 15.0761754,77.5 13.28125,77.5 L4.25,77.5 C2.45507456,77.5 1,76.0449254 1,74.25 C1,72.4550746 2.45507456,71 4.25,71 L32.75,71 C34.5449254,71 36,72.4550746 36,74.25 C36,76.0449254 34.5449254,77.5 32.75,77.5 L27,77.5 C25.2050746,77.5 23.75,78.9550746 23.75,80.75 C23.75,82.5449254 25.2050746,84 27,84 Z" id="合并形状" fill="#F0F0F0" fill-rule="nonzero" opacity="0.5"></path>
                    <path d="M114.2,17 L129,17 C131.209139,17 133,18.790861 133,21 C133,23.209139 131.209139,25 129,25 L97,25 C94.790861,25 93,23.209139 93,21 C93,18.790861 94.790861,17 97,17 L96.83125,17 C99.1784602,17 101.08125,15.0972102 101.08125,12.75 C101.08125,10.4027898 99.1784602,8.5 96.83125,8.5 L86.25,8.5 C83.9027898,8.5 82,6.59721019 82,4.25 C82,1.90278981 83.9027898,4.31175516e-16 86.25,0 L120.75,7.10542736e-15 C123.09721,2.50476897e-15 125,1.90278981 125,4.25 C125,6.59721019 123.09721,8.5 120.75,8.5 L114.2,8.5 C111.85279,8.5 109.95,10.4027898 109.95,12.75 C109.95,15.0972102 111.85279,17 114.2,17 Z M144,17 C146.209139,17 148,18.790861 148,21 C148,23.209139 146.209139,25 144,25 C141.790861,25 140,23.209139 140,21 C140,18.790861 141.790861,17 144,17 Z" id="合并形状-copy" fill="#F0F0F0" fill-rule="nonzero" opacity="0.5"></path>
                    <g id="文档" transform="translate(0.000000, 4.000000)">
                        <rect id="矩形" stroke="#E1E1E1" stroke-width="0.9" fill="#ECECEC" fill-rule="nonzero" transform="translate(45.745351, 50.048652) rotate(-22.000000) translate(-45.745351, -50.048652) " x="13.6953512" y="10.498652" width="64.1" height="79.1" rx="4"></rect>
                        <path d="M27.5,74.0948687 L43.8095005,90.5 L97,90.5 C98.9329966,90.5 100.5,88.9329966 100.5,87 L100.5,5 C100.5,3.06700338 98.9329966,1.5 97,1.5 L31,1.5 C29.0670034,1.5 27.5,3.06700338 27.5,5 L27.5,74.0948687 Z" id="矩形-copy" stroke="#E1E1E1" fill="#FFFFFF" fill-rule="nonzero"></path>
                        <rect id="矩形-copy-6" fill="#ECECEC" fill-rule="nonzero" x="68" y="20" width="20" height="1" rx="0.5"></rect>
                        <rect id="矩形-copy-2" fill="#ECECEC" fill-rule="nonzero" x="68" y="37" width="20" height="1" rx="0.5"></rect>
                        <rect id="矩形-copy-3" fill="#ECECEC" fill-rule="nonzero" x="40" y="54" width="48" height="1" rx="0.5"></rect>
                        <rect id="矩形-copy-4" fill="#ECECEC" fill-rule="nonzero" x="40" y="71" width="48" height="1" rx="0.5"></rect>
                        <path d="M49.324,14.792 C51.628,14.792 53.464,15.404 54.868,16.7 C56.2,17.924 56.884,19.616 56.884,21.776 C56.884,23.396 56.416,24.8 55.516,25.988 C55.156,26.42 54.184,27.356 52.6,28.76 C51.808,29.444 51.268,30.092 50.908,30.74 C50.44,31.532 50.224,32.396 50.224,33.368 L50.224,34.196 L47.344,34.196 L47.344,33.368 C47.344,32.18 47.56,31.136 47.992,30.236 C48.496,29.156 49.684,27.788 51.628,26.06 C52.204,25.484 52.636,25.052 52.852,24.764 C53.572,23.864 53.932,22.928 53.932,21.92 C53.932,20.48 53.5,19.364 52.708,18.572 C51.88,17.708 50.692,17.312 49.18,17.312 C47.38,17.312 46.048,17.888 45.184,19.076 C44.392,20.084 44,21.0426524 44,22.8066524 C43.7765656,23.6586524 43.30131,24.0846524 42.5742331,24.0846524 C41.8471562,24.0846524 41.3744118,23.6586524 41.156,22.8066524 C41.156,20.2866524 41.836,18.68 43.276,17.168 C44.716,15.584 46.732,14.792 49.324,14.792 Z M48.784,36.716 C49.396,36.716 49.936,36.896 50.368,37.328 C50.764,37.724 50.98,38.228 50.98,38.84 C50.98,39.488 50.764,39.992 50.332,40.388 C49.9,40.784 49.396,41 48.784,41 C48.172,41 47.668,40.784 47.236,40.388 C46.804,39.956 46.624,39.452 46.624,38.84 C46.624,38.228 46.804,37.724 47.236,37.328 C47.668,36.896 48.172,36.716 48.784,36.716 Z" id="？" fill="#F0F0F0"></path>
                    </g>
                    <g id="放大镜" transform="translate(101.195287, 64.628836) rotate(-36.000000) translate(-101.195287, -64.628836) translate(79.195287, 31.628836)" fill-rule="nonzero">
                        <circle id="椭圆形" stroke="#E5E5E5" stroke-width="4" fill="#FFFFFF" cx="22" cy="22" r="20"></circle>
                        <path d="M34.4699862,28.37044 C35.4481636,26.4595118 36,24.2942 36,22 C36,20.9627176 35.8871915,19.951783 35.6731736,18.9787954 C35.5622847,18.474662 35.4242253,17.9807158 35.2606089,17.4985702 M33.5664423,14.1098091 C33.1129654,13.4463267 32.6038884,12.823859 32.0459214,12.2491162" id="形状" stroke="#E1E1E1" stroke-linecap="round" stroke-linejoin="round"></path>
                        <rect id="矩形" fill="#E1E1E1" x="21" y="44" width="2" height="4"></rect>
                        <rect id="矩形" stroke="#E1E1E1" fill="#ECECEC" x="19.5" y="46.5" width="5" height="19" rx="2.5"></rect>
                    </g>
                    <path d="M43.5,80.4142136 C43.5,80.2816053 43.4473216,80.1544284 43.3535534,80.0606602 C43.1582912,79.865398 42.8417088,79.865398 42.6464466,80.0606602 L28.0606602,94.6464466 C27.966892,94.7402148 27.9142136,94.8673918 27.9142136,95 C27.9142136,95.2761424 28.1380712,95.5 28.4142136,95.5 L43,95.5 C43.2761424,95.5 43.5,95.2761424 43.5,95 L43.5,80.4142136 Z" id="矩形" stroke="#E1E1E1" fill="#FFFFFF" fill-rule="nonzero" transform="translate(35.000000, 87.000000) rotate(-90.000000) translate(-35.000000, -87.000000) "></path>
                </g>
            </g>
        </g>
    </g>
</svg>