<?xml version="1.0" encoding="UTF-8"?>
<svg width="214px" height="121px" viewBox="0 0 214 121" version="1.1" xmlns="http://www.w3.org/2000/svg" xmlns:xlink="http://www.w3.org/1999/xlink">
    <!-- Generator: Sketch 52.2 (67145) - http://www.bohemiancoding.com/sketch -->
    <title>loginLost_bg</title>
    <desc>Created with Sketch.</desc>
    <g id="Page-1" stroke="none" stroke-width="1" fill="none" fill-rule="evenodd">
        <g id="登录失效" transform="translate(-720.000000, -430.000000)" fill-rule="nonzero">
            <g id="bg">
                <g id="Content-Box" transform="translate(222.000000, 40.000000)">
                    <g id="2">
                        <g id="登录失效" transform="translate(498.000000, 390.000000)">
                            <g id="loginLost_bg">
                                <g id="空态图">
                                    <path d="M98.4762592,82.9524113 C92.1015949,82.5530234 86.4017784,79.6651011 82.3369969,75.2488316 L82,75.0879765 L82,74.8749464 C78.2658195,70.6441472 76,65.0866788 76,59 C76,45.745166 86.745166,35 100,35 C100.141956,35 100.283624,35.0012325 100.424995,35.0036873 C102.513436,25.3169791 112.050508,18 123.5,18 C134.948082,18 144.484214,25.3151767 146.574233,35.0001078 C160.071072,35.0393218 171,45.7694138 171,59 C171,72.254834 160.030976,83 146.5,83 C146.368475,83 146.237192,82.9989847 146.106158,82.9969618 C146.103139,82.9979746 146.100119,82.9989874 146.097099,83 L98.5759591,83 L98.4762592,82.9524113 Z" id="合并形状" stroke="#8ACEC8" fill="#E8F4F6"></path>
                                    <g id="分组-2" transform="translate(53.142857, 16.714286)">
                                        <g id="投影" transform="translate(7.000000, 90.000000)">
                                            <ellipse id="椭圆形" fill="#E8F4F6" cx="51.5714286" cy="7.14285714" rx="51.4285714" ry="7.14285714"></ellipse>
                                            <ellipse id="椭圆形-copy" cx="51.5714286" cy="7.14285714" rx="31.4285714" ry="4.28571429"></ellipse>
                                        </g>
                                        <path d="M27.2080016,79.9274359 C19.4564513,79.3841062 12.5368755,75.8241262 7.61571992,70.4139415 L7.14285714,70.1843318 L7.14285714,69.8812921 C2.69270472,64.7447095 0,58.0439551 0,50.7142857 C0,34.5402323 13.1116609,21.4285714 29.2857143,21.4285714 C29.6558642,21.4285714 30.0244102,21.4354386 30.3912318,21.4490524 C32.6488869,9.27734843 44.4063573,0 58.5714286,0 C72.7352112,0 84.4918309,9.2756605 86.7510089,21.4457305 C102.839506,21.9790886 115.714286,34.8789526 115.714286,50.7142857 C115.714286,66.8883391 102.282828,80 85.7142857,80 C85.5817912,80 85.4494973,79.9991615 85.3174092,79.9974897 C85.3149567,79.9983265 85.3125039,79.9991633 85.310051,80 L27.3574415,80 L27.2080016,79.9274359 Z" id="合并形状" stroke="#8ACEC8" stroke-width="1.2" fill="#FFFFFF"></path>
                                    </g>
                                    <g id="图形">
                                        <path d="M177.333333,10.8571429 C178.832392,10.8571429 180.047619,9.64191575 180.047619,8.14285714 C180.047619,6.64379854 178.832392,5.42857143 177.333333,5.42857143 L169.904762,5.42857143 C168.405703,5.42857143 167.190476,4.21334432 167.190476,2.71428571 C167.190476,1.21522711 168.405703,2.75372599e-16 169.904762,0 L194,3.10862447e-15 C195.499059,1.70388862e-16 196.714286,1.21522711 196.714286,2.71428571 C196.714286,4.21334432 195.499059,5.42857143 194,5.42857143 L192.285714,5.42857143 C190.786656,5.42857143 189.571429,6.64379854 189.571429,8.14285714 C189.571429,9.64191575 190.786656,10.8571429 192.285714,10.8571429 L201.142857,10.8571429 C202.641916,10.8571429 203.857143,12.07237 203.857143,13.5714286 C203.857143,15.0704872 202.641916,16.2857143 201.142857,16.2857143 L163.714286,16.2857143 C162.215227,16.2857143 161,15.0704872 161,13.5714286 C161,12.07237 162.215227,10.8571429 163.714286,10.8571429 L177.333333,10.8571429 Z M173.714286,20 L184.47619,20 C185.975249,20 187.190476,21.2152271 187.190476,22.7142857 C187.190476,24.2133443 185.975249,25.4285714 184.47619,25.4285714 L173.714286,25.4285714 C172.215227,25.4285714 171,24.2133443 171,22.7142857 C171,21.2152271 172.215227,20 173.714286,20 Z M209.904762,11.4285714 L211.142857,11.4285714 C212.641916,11.4285714 213.857143,12.6437985 213.857143,14.1428571 C213.857143,15.6419157 212.641916,16.8571429 211.142857,16.8571429 L209.904762,16.8571429 C208.405703,16.8571429 207.190476,15.6419157 207.190476,14.1428571 C207.190476,12.6437985 208.405703,11.4285714 209.904762,11.4285714 Z" id="合并形状" fill="#E2F1F4" opacity="0.800000012"></path>
                                        <path d="M7.9500446,86.3050847 C9.37287989,86.3050847 10.5263158,85.1516488 10.5263158,83.7288136 C10.5263158,82.3059783 9.37287989,81.1525424 7.9500446,81.1525424 L5.52363961,81.1525424 C4.10080432,81.1525424 2.94736842,79.9991065 2.94736842,78.5762712 C2.94736842,77.1534359 4.10080432,76 5.52363961,76 L22.6868867,76 C24.109722,76 25.2631579,77.1534359 25.2631579,78.5762712 C25.2631579,79.9991065 24.109722,81.1525424 22.6868867,81.1525424 L21.5236396,81.1525424 C20.1008043,81.1525424 18.9473684,82.3059783 18.9473684,83.7288136 C18.9473684,85.1516488 20.1008043,86.3050847 21.5236396,86.3050847 L27.7395183,86.3050847 C29.1623536,86.3050847 30.3157895,87.4585206 30.3157895,88.8813559 C30.3157895,90.3041912 29.1623536,91.4576271 27.7395183,91.4576271 L2.57627119,91.4576271 C1.1534359,91.4576271 6.41230933e-14,90.3041912 6.39488462e-14,88.8813559 C6.37745992e-14,87.4585206 1.1534359,86.3050847 2.57627119,86.3050847 L7.9500446,86.3050847 Z M36.6815343,86.8474576 L37.4237288,86.8474576 C38.8465641,86.8474576 40,88.0008935 40,89.4237288 C40,90.8465641 38.8465641,92 37.4237288,92 L36.6815343,92 C35.2586991,92 34.1052632,90.8465641 34.1052632,89.4237288 C34.1052632,88.0008935 35.2586991,86.8474576 36.6815343,86.8474576 Z" id="合并形状-copy-2" fill="#E2F1F4" opacity="0.800000012" transform="translate(20.000000, 84.000000) scale(-1, 1) translate(-20.000000, -84.000000) "></path>
                                        <g id="点缀" transform="translate(41.495798, 3.285714)">
                                            <g id="分组" transform="translate(0.168067, 13.714286)" fill="#E0F4F6">
                                                <path d="M150.705882,42.6946565 L150.705882,40.0168067 C150.705882,38.9029551 151.608837,38 152.722689,38 C153.836541,38 154.739496,38.9029551 154.739496,40.0168067 L154.739496,42.6946565 L157.433383,42.6946565 C158.544577,42.6946565 159.445378,43.5954576 159.445378,44.7066521 C159.445378,45.8178466 158.544577,46.7186478 157.433383,46.7186478 L154.739496,46.7186478 L154.739496,49.3964975 C154.739496,50.5103491 153.836541,51.4133043 152.722689,51.4133043 C151.608837,51.4133043 150.705882,50.5103491 150.705882,49.3964975 L150.705882,46.7186478 L148.011996,46.7186478 C146.900801,46.7186478 146,45.8178466 146,44.7066521 C146,43.5954576 146.900801,42.6946565 148.011996,42.6946565 L150.705882,42.6946565 Z" id="合并形状" opacity="0.6"></path>
                                                <path d="M3.5,3.5 L3.5,1 C3.5,0.44771525 3.94771525,-3.38176876e-17 4.5,-4.93038066e-32 C5.05228475,3.38176876e-17 5.5,0.44771525 5.5,1 L5.5,3.5 L8,3.5 C8.55228475,3.5 9,3.94771525 9,4.5 C9,5.05228475 8.55228475,5.5 8,5.5 L5.5,5.5 L5.5,8 C5.5,8.55228475 5.05228475,9 4.5,9 C3.94771525,9 3.5,8.55228475 3.5,8 L3.5,5.5 L1,5.5 C0.44771525,5.5 6.76353751e-17,5.05228475 0,4.5 C-6.76353751e-17,3.94771525 0.44771525,3.5 1,3.5 L3.5,3.5 Z" id="合并形状-copy"></path>
                                            </g>
                                            <circle id="椭圆形" stroke="#BEE0DD" stroke-width="3.32467532" fill="#FFFFFF" opacity="0.600000024" cx="12.5" cy="3.5" r="3.5"></circle>
                                        </g>
                                    </g>
                                </g>
                                <g id="睫毛" transform="translate(84.000000, 51.000000)" stroke-linecap="round" stroke-linejoin="round">
                                    <path d="M17.5155419,0.545234813 C16.6183682,2.60782604 14.9142169,5.44848922 10.0777929,6.44485411 C4.51602579,7.59064892 0.792113908,4.58956266 0.118912664,3.14255738" id="路径-3" stroke="#8ACEC8"></path>
                                    <path d="M3.25536132,5.77962913 L2.21671656,7.72601193" id="路径-4" stroke="#97D9D3"></path>
                                    <path d="M9.70462285,6.5531691 L10.1718399,8.50327276" id="路径-5" stroke="#97D9D3"></path>
                                    <path d="M15.6983446,3.48365732 L16.9821023,4.9033873" id="路径-6" stroke="#97D9D3"></path>
                                </g>
                                <g id="睫毛-copy" transform="translate(127.000000, 55.500000) scale(-1, 1) translate(-127.000000, -55.500000) translate(118.000000, 51.000000)" stroke="#97D9D3" stroke-linecap="round" stroke-linejoin="round">
                                    <path d="M17.5155419,0.545234813 C16.6183682,2.60782604 14.9142169,5.44848922 10.0777929,6.44485411 C4.51602579,7.59064892 0.792113908,4.58956266 0.118912664,3.14255738" id="路径-3"></path>
                                    <path d="M3.25536132,5.77962913 L2.21671656,7.72601193" id="路径-4"></path>
                                    <path d="M9.70462285,6.5531691 L10.1718399,8.50327276" id="路径-5"></path>
                                    <path d="M15.6983446,3.48365732 L16.9821023,4.9033873" id="路径-6"></path>
                                </g>
                                <rect id="矩形" stroke="#8ACEC8" stroke-width="1.2" fill="#E0F4F6" x="97.6" y="74.6" width="26.8" height="5.8" rx="2.9"></rect>
                                <rect id="矩形" stroke="#BEE0DD" fill="#E0F4F6" x="97.5" y="83.5" width="3" height="17" rx="1.5"></rect>
                            </g>
                        </g>
                    </g>
                </g>
            </g>
        </g>
    </g>
</svg>