<?xml version="1.0" encoding="UTF-8"?>
<svg width="56px" height="48px" viewBox="0 0 56 48" version="1.1" xmlns="http://www.w3.org/2000/svg" xmlns:xlink="http://www.w3.org/1999/xlink">
    <!-- Generator: Sketch 52.2 (67145) - http://www.bohemiancoding.com/sketch -->
    <title>画板</title>
    <desc>Created with Sketch.</desc>
    <g id="Page-1" stroke="none" stroke-width="1" fill="none" fill-rule="evenodd">
        <g id="画板">
            <g id="icon:logo_min">
                <g id="折叠目录0" transform="translate(0.000000, 0.000000)">
                    <g id="Sider-Box">
                        <g id="Header-Box">
                            <g id="logo">
                                <g id="Group-2_min">
                                    <g id="WMS系统" transform="translate(0.000000, 30.000000)" fill="#FFFFFF" font-family="PingFangSC-Medium, PingFang SC" font-size="12" font-weight="400">
                                        <text>
                                            <tspan x="0.958" y="13">WMS系统</tspan>
                                        </text>
                                    </g>
                                    <g id="Group">
                                        <path d="M50.3602821,28.2354093 C50.3602821,27.5038643 50.3527963,26.810529 50.3706655,26.1179191 C50.3725973,26.0385979 50.5039604,25.9425902 50.5954798,25.8881777 C51.8958289,25.1155212 52.8998868,24.0739463 53.4743585,22.6589811 C54.4038002,20.3695477 53.7493999,17.7533979 51.8465678,16.0675797 C50.624457,14.9848932 49.2002306,14.3684608 47.5852381,14.1532294 C46.3708545,13.9914431 45.1842407,14.1600007 43.996178,14.3655588 C43.626961,14.4294027 43.256778,14.4857498 42.846993,14.552012 C42.8943223,14.4635012 42.9220921,14.3991736 42.9602453,14.3418591 C43.2995193,13.8361862 43.6233388,13.3189054 43.9833798,12.8287098 C45.4747365,10.7982796 44.6273967,8.37922364 42.5982726,7.26920998 C41.5683768,6.70549716 40.4628989,6.58482247 39.3187849,6.68905251 C39.1463709,6.70477166 39.0553344,6.65519588 38.9703348,6.51348172 C37.479944,4.02816354 35.2359061,2.63762355 32.4333339,2.17644794 C29.4542426,1.68625236 26.7120393,2.32590076 24.3441242,4.2620161 C22.8392448,5.49197895 21.8921753,7.07598538 21.5770489,9.01185888 C21.4080156,10.0483553 21.5321344,11.0700999 21.7629856,12.0845895 C21.824079,12.3527824 21.8653715,12.6253282 21.9264649,12.953012 C21.3867657,12.8354811 20.9045378,12.7215778 20.4184463,12.6265374 C17.692422,12.0932955 15.165857,12.5346408 12.8969471,14.1960338 C12.7481978,14.3051005 12.6511244,14.3239635 12.4953723,14.2078836 C12.2488251,14.0238487 11.9836843,13.8613369 11.7154043,13.7097076 C11.4480902,13.5585619 11.1670119,13.4320832 10.8328089,13.2654603 C11.2008186,12.970424 11.5309165,12.6802243 11.8863694,12.4258159 C13.5086062,11.2657428 15.3153308,10.5917541 17.303404,10.4391575 C17.9549066,10.3890981 18.6122047,10.4074774 19.2666051,10.4140069 C19.4865899,10.4161834 19.4556809,10.2884955 19.470411,10.1528272 C19.5527543,9.40677224 19.565794,8.64282166 19.7406228,7.91877353 C20.360975,5.35316678 21.8755135,3.40786179 24.0480744,1.9587982 C25.5913485,0.929798605 27.2920651,0.315300844 29.1340452,0.0995857703 C32.5767707,-0.303791744 35.6836029,0.509492777 38.376545,2.72565078 C38.9391844,3.18851922 39.4231026,3.75392487 39.9036402,4.30627154 C40.1009262,4.53262727 40.2829992,4.62718399 40.5807393,4.64145214 C43.0481426,4.7611595 45.5382447,6.27358334 46.4413655,8.76615651 C46.7912645,9.73203768 46.8801277,10.722344 46.6509669,11.7274021 C46.5879416,12.0030918 46.6734241,12.0543604 46.9267326,12.0657265 C49.6643478,12.1893032 52.0083568,13.199198 53.8636181,15.2424454 C55.0248769,16.5215003 55.7198453,18.0281202 55.8792195,19.7647233 C56.122869,22.4210174 55.1598621,24.6042861 53.2637913,26.4136809 C52.502417,27.1403892 51.6234438,27.6978144 50.6592295,28.1190876 C50.5739884,28.1563298 50.4858497,28.1868008 50.3602821,28.2354093" id="Fill-4" fill="#F08519"></path>
                                        <path d="M9.77318647,26.0021084 C8.81832129,25.0037257 7.88142272,24.0242707 6.92104777,23.020617 C6.20142534,23.9619766 5.50120685,24.8779395 4.80098835,25.794142 C6.03277881,26.7175322 8.46042652,26.8234322 9.77318647,26.0021084 Z M11.3473007,24.7691644 C13.005259,23.0340341 13.1583345,19.6080982 11.081874,17.5729979 C8.96397057,15.4974064 5.71800389,15.5874933 3.70885831,17.7771309 C1.73852059,19.9243606 2.20924565,23.1039952 3.30425035,24.3218449 C3.37084657,24.2384666 3.43696368,24.1589218 3.49972702,24.0772207 C4.05836867,23.3471818 4.61174011,22.6128302 5.18044306,21.8906978 C5.25662146,21.7939024 5.40658273,21.7047739 5.52612054,21.7004612 C6.22394349,21.6748248 6.92344332,21.6911171 7.62126627,21.6618868 C8.11930057,21.6408026 8.49444329,21.7809644 8.84491187,22.1695837 C9.6455038,23.0579934 10.5009538,23.8965678 11.3473007,24.7691644 Z M7.18664211e-05,20.9555675 C0.0716987328,20.5231027 0.117693242,20.0846481 0.219504006,19.6596107 C0.928106918,16.6987242 3.34545377,14.4973465 6.4064842,14.1226235 C9.61076836,13.7304103 12.17616,14.869434 13.9081408,17.6189997 C15.6214363,20.3388559 15.2185052,23.8692543 13.0277771,26.2261276 C12.970284,26.2879425 12.9168633,26.3538305 12.8437991,26.4386463 C13.8163913,27.491177 14.7803596,28.5348428 15.7872081,29.6247499 C14.8881592,29.6247499 14.0501967,29.6295418 13.2122343,29.617083 C13.1286297,29.615885 13.0335264,29.5207667 12.965972,29.4484097 C12.4688959,28.9169931 11.9727781,28.384139 11.4872006,27.8419407 C11.3518522,27.6905181 11.248125,27.6562564 11.053367,27.7578437 C9.83235649,28.3927643 8.52750184,28.6963282 7.15293676,28.6443366 C3.59483025,28.5099251 0.60758268,25.8772806 0.117693242,22.4932734 C0.0796040391,22.2297215 0.0393588433,21.9664091 7.18664211e-05,21.7030967 L7.18664211e-05,20.9555675 Z" id="Fill-1" fill="#FFFFFF" fill-rule="nonzero"></path>
                                        <path d="M24.908662,28.3073495 C24.1696356,28.3073495 23.453367,28.3107038 22.7373379,28.3004013 C22.6843963,28.2996825 22.6120507,28.2103145 22.5866579,28.147062 C22.5598278,28.0806948 22.5775549,27.9961186 22.5775549,27.9194489 C22.5775549,23.261767 22.5773153,18.6043246 22.5775549,13.9468823 C22.5775549,13.5347829 22.578034,13.5345433 22.9771322,13.5343037 C23.5139743,13.5338245 24.0505769,13.5333453 24.58694,13.5347829 C24.6899485,13.5350225 24.7927175,13.5434082 24.9335757,13.5496376 L24.9335757,20.6753639 C24.9529796,20.6801557 24.972144,20.6851872 24.9915479,20.689979 C25.052874,20.6104343 25.1197097,20.534723 25.1743282,20.4506259 C25.6970366,19.6477508 26.4370212,19.1925247 27.3808669,19.0509254 C28.335253,18.9081282 29.2582574,18.9546092 30.1661698,19.3386763 C31.2118262,19.781204 31.7038717,20.5732974 31.7163285,21.6677568 C31.7405236,23.7855166 31.7354929,25.903516 31.7330974,28.0212758 C31.7330974,28.1027373 31.6346404,28.2534412 31.5795428,28.2546391 C30.8630345,28.2704522 30.1462868,28.2651812 29.388096,28.2651812 L29.388096,27.9007607 C29.3878565,26.4248697 29.403188,24.9487391 29.3794721,23.4733273 C29.3706085,22.9313687 29.3123967,22.3819826 29.2017224,21.851764 C29.0426581,21.0889009 28.5728913,20.7254388 27.7967339,20.7151363 C27.4266218,20.7101048 27.0435738,20.7218449 26.687835,20.8112129 C25.554262,21.0958491 24.9654365,21.9032764 24.9465117,23.1985145 C24.9235144,24.7793471 24.9314197,26.3606589 24.9249517,27.9419706 C24.9244726,28.0545792 24.91513,28.1671878 24.908662,28.3073495" id="Fill-6" fill="#FFFFFF"></path>
                                        <path d="M41.4386336,23.6110931 C41.418511,23.4381072 41.4003048,23.111782 41.339937,22.7936029 C41.1109227,21.5920455 40.247807,20.8200779 39.1032144,20.7750344 C37.8110562,20.7244804 36.9000295,21.3656304 36.5509983,22.5880323 C36.3092875,23.4352321 36.3102458,24.2900988 36.5526752,25.135861 C36.8346311,26.1210662 37.4704094,26.7310692 38.5072023,26.862366 C39.4936887,26.9871938 40.2947597,26.658233 40.8701702,25.8318778 C41.3030456,25.2103744 41.4273745,24.50118 41.4386336,23.6110931 Z M41.3818591,27.1738365 C41.3004105,27.2351722 41.2738199,27.247631 41.2575302,27.2684756 C40.2518794,28.5809644 38.8964787,28.8907577 37.3582977,28.5783288 C35.8404789,28.2702126 34.8290788,27.3477808 34.3667382,25.8704522 C33.9269157,24.4640431 33.9036789,23.038227 34.392131,21.6380473 C34.9529286,20.0301408 36.10351,19.1297514 37.8067442,19.0147469 C38.3603552,18.9773705 38.9381612,19.0228931 39.480034,19.142929 C40.2597847,19.3159149 40.8529222,19.7974963 41.2287836,20.5198682 C41.2505831,20.5615574 41.2769341,20.6010901 41.3030456,20.6408625 C41.307118,20.6470919 41.3202935,20.6475711 41.3820987,20.6693741 C41.3820987,20.3061515 41.3952742,19.9585025 41.3773076,19.6127703 C41.3646112,19.3659898 41.4364776,19.2787781 41.6968736,19.2859659 C42.3647522,19.3044145 43.033589,19.2921953 43.7199133,19.2921953 L43.7199133,28.3092662 L41.969966,28.3092662 C41.3818591,28.3092662 41.3818591,28.3092662 41.3818591,27.7172327 L41.3818591,27.1738365 Z" id="Fill-8" fill="#FFFFFF" fill-rule="nonzero"></path>
                                        <polygon id="Fill-10" fill="#FFFFFF" points="17.9273183 28.2930219 20.260821 28.2930219 20.260821 19.3109314 17.9273183 19.3109314"></polygon>
                                        <polygon id="Fill-12" fill="#FFFFFF" points="46.0790723 28.4518718 48.3828702 28.4518718 48.3828702 19.4427074 46.0790723 19.4427074"></polygon>
                                        <path d="M17.910813,18.3972447 L17.910813,16.0957173 C17.9826794,16.0842168 18.0545458,16.0631327 18.1261727,16.0626535 C18.7487755,16.060018 19.3713782,16.0612159 19.9935019,16.0612159 C20.120945,16.0612159 20.2524605,16.0513926 20.2515023,16.2404313 C20.2483881,16.9297394 20.2471903,17.6190476 20.2428783,18.3085954 C20.2428783,18.3339922 20.2220371,18.3591494 20.2055078,18.3972447 L17.910813,18.3972447 Z" id="Fill-13" fill="#FFFFFF"></path>
                                        <path d="M48.3789415,18.5454807 C47.6406338,18.5454807 46.9329892,18.548835 46.225584,18.5394909 C46.1666536,18.5387721 46.0581353,18.4537167 46.0576561,18.4065169 C46.0468762,17.6815094 46.0499904,16.9565019 46.0499904,16.2140042 L48.3789415,16.2140042 L48.3789415,18.5454807 Z" id="Fill-14" fill="#FFFFFF"></path>
                                    </g>
                                </g>
                            </g>
                        </g>
                    </g>
                </g>
            </g>
        </g>
    </g>
</svg>