<?xml version="1.0" encoding="UTF-8"?>
<svg width="260px" height="99px" viewBox="0 0 260 99" version="1.1" xmlns="http://www.w3.org/2000/svg" xmlns:xlink="http://www.w3.org/1999/xlink">
    <!-- Generator: Sketch 52.2 (67145) - http://www.bohemiancoding.com/sketch -->
    <title>logo</title>
    <desc>Created with Sketch.</desc>
    <defs>
        <linearGradient x1="23.3803445%" y1="81.0893544%" x2="90.5470717%" y2="-1.09743478%" id="linearGradient-1">
            <stop stop-color="#4AC0F0" offset="0%"></stop>
            <stop stop-color="#44B3E6" offset="13.99%"></stop>
            <stop stop-color="#3291CA" offset="39.76%"></stop>
            <stop stop-color="#175B9E" offset="74.19%"></stop>
            <stop stop-color="#002E79" offset="100%"></stop>
        </linearGradient>
        <linearGradient x1="17.0928406%" y1="96.7730231%" x2="99.6879173%" y2="-12.091252%" id="linearGradient-2">
            <stop stop-color="#005AAA" offset="0%"></stop>
            <stop stop-color="#0D56A7" offset="6.569017%"></stop>
            <stop stop-color="#2F4C9F" offset="18.68%"></stop>
            <stop stop-color="#653C92" offset="35%"></stop>
            <stop stop-color="#B02680" offset="54.69%"></stop>
            <stop stop-color="#CD1E79" offset="61.73%"></stop>
            <stop stop-color="#D21577" offset="100%"></stop>
        </linearGradient>
        <linearGradient x1="16.8558426%" y1="1.89169146%" x2="81.3782807%" y2="98.5371712%" id="linearGradient-3">
            <stop stop-color="#005AAA" offset="0%"></stop>
            <stop stop-color="#0D56A7" offset="6.569017%"></stop>
            <stop stop-color="#2F4C9F" offset="18.68%"></stop>
            <stop stop-color="#653C92" offset="35%"></stop>
            <stop stop-color="#B02680" offset="54.69%"></stop>
            <stop stop-color="#CD1E79" offset="61.73%"></stop>
            <stop stop-color="#D21577" offset="100%"></stop>
        </linearGradient>
        <linearGradient x1="14.1779503%" y1="-2.17015776%" x2="61.6897516%" y2="64.4560586%" id="linearGradient-4">
            <stop stop-color="#005AAA" offset="0%"></stop>
            <stop stop-color="#0D56A7" offset="6.569017%"></stop>
            <stop stop-color="#2F4C9F" offset="18.68%"></stop>
            <stop stop-color="#653C92" offset="35%"></stop>
            <stop stop-color="#B02680" offset="54.69%"></stop>
            <stop stop-color="#CD1E79" offset="61.73%"></stop>
            <stop stop-color="#D21577" offset="100%"></stop>
        </linearGradient>
    </defs>
    <g id="Page-1" stroke="none" stroke-width="1" fill="none" fill-rule="evenodd">
        <g id="登录" transform="translate(-15.000000, -12.000000)">
            <g id="logo" transform="translate(15.000000, 12.000000)">
                <g></g>
                <g id="Group-2" transform="translate(21.666667, 18.562500)" fill-rule="nonzero">
                    <g id="Group">
                        <path d="M22.2101299,56.8298077 C22.2101299,56.8298077 32.349537,67.1105769 44.0339967,56.3538462 L64.2162452,37.125 C64.2162452,37.125 65.181903,36.5538462 64.0231136,35.7923077 C64.0231136,35.7923077 53.8837065,26.4634615 42.6820757,38.0769231 L32.7358002,47.5961538 C32.7358002,47.5961538 28.1972084,52.4509615 19.6994196,51.975 C19.6994196,51.975 18.1543671,51.975 16.416183,51.3086538 L22.2101299,56.8298077 Z" id="Shape" fill="url(#linearGradient-1)"></path>
                        <path d="M12.2638543,47.3105769 C12.2638543,47.3105769 21.4376036,53.9740385 30.9010503,46.4538462 C30.9010503,46.4538462 31.3838792,45.9778846 30.9976161,45.5971154 L20.9547747,36.4586538 C20.9547747,36.4586538 14.0020384,28.5576923 0.0965657822,35.7923077 L12.2638543,47.3105769 Z" id="Shape" fill="#01508E"></path>
                        <path d="M42.58551,5.14038462 C42.58551,5.14038462 32.4461028,-5.14038462 20.7616432,5.61634615 L0.579394693,24.8451923 C0.579394693,24.8451923 -0.386263129,25.4163462 0.772526258,26.1778846 C0.772526258,26.1778846 10.9119334,35.5067308 22.1135641,23.8932692 L32.0598397,14.4692308 C32.0598397,14.4692308 36.5984315,9.61442308 45.0962203,10.0903846 C45.0962203,10.0903846 46.6412728,10.0903846 48.3794569,10.7567308 L42.58551,5.14038462 Z" id="Shape" fill="url(#linearGradient-2)"></path>
                        <path d="M44.9030887,28.4625 C47.3172333,28.3673077 49.9245094,27.5105769 52.6283513,25.9875 L43.3580362,18.5625 C43.3580362,18.5625 40.8473259,16.7538462 36.9846946,16.9442308 C34.3774185,17.1346154 31.9632739,18.0865385 29.8388267,19.9903846 L38.0469182,26.3682692 C38.0469182,26.4634615 40.5576285,28.7480769 44.9030887,28.4625 Z" id="Shape" fill="url(#linearGradient-3)"></path>
                        <path d="M46.0618781,18.0865385 L58.2291667,28.6528846 C60.1604823,28.1769231 62.1883637,27.5105769 64.6025083,26.2730769 L53.5940091,15.8019231 C53.5940091,15.8019231 45.1927861,7.425 33.7980238,15.6115385 C33.7980238,15.6115385 33.5083264,15.8971154 33.5083264,16.1826923 C40.364497,13.3269231 46.0618781,18.0865385 46.0618781,18.0865385 Z" id="Shape" fill="url(#linearGradient-4)"></path>
                    </g>
                    <g id="Group" transform="translate(81.250000, 48.292683)" fill="#FFFFFF">
                        <path d="M6.31299603,3.11261433 L6.31299603,4.43311738 L1.81737765,4.43311738 L1.81737765,7.45141006 L0.19130291,7.45141006 L0.19130291,3.58422256 C0.19130291,2.4523628 0.286954365,1.69778963 0.478257275,1.4148247 C0.76521164,0.943216463 1.14781746,0.565929878 1.62607474,0.377286585 C2.10433201,0.188643293 2.7738922,0.0943216463 3.63475529,0.0943216463 L6.21734458,0.0943216463 L6.21734458,1.4148247 L3.8260582,1.4148247 C3.06084656,1.4148247 2.58258929,1.50914634 2.39128638,1.60346799 C2.00868056,1.79211128 1.72172619,2.16939787 1.72172619,2.73532774 L1.72172619,3.11261433 L6.31299603,3.11261433 Z" id="Shape"></path>
                        <path d="M8.99123677,0 L8.99123677,4.43311738 C8.99123677,4.81040396 8.99123677,5.0933689 9.08688823,5.2820122 C9.18253968,5.47065549 9.27819114,5.65929878 9.37384259,5.75362043 C9.66079696,6.03658537 10.1390542,6.22522866 10.712963,6.22522866 C11.0955688,6.22522866 11.3825231,6.13090701 11.6694775,6.03658537 C11.9564319,5.94226372 12.1477348,5.75362043 12.2433862,5.56497713 C12.3390377,5.37633384 12.4346892,4.99904726 12.4346892,4.43311738 L12.4346892,0 L14.0607639,0 L14.0607639,4.33879573 C14.0607639,4.90472561 13.9651124,5.37633384 13.869461,5.75362043 C13.7738095,6.13090701 13.5825066,6.41387195 13.2955522,6.69683689 C12.7216435,7.16844512 11.8607804,7.45141006 10.8086144,7.45141006 C9.66079696,7.45141006 8.79993386,7.16844512 8.22602513,6.69683689 C7.93907077,6.41387195 7.74776786,6.13090701 7.6521164,5.84794207 C7.55646495,5.56497713 7.46081349,5.0933689 7.46081349,4.52743902 L7.46081349,0 L8.99123677,0 Z" id="Shape"></path>
                        <polygon id="Shape" points="23.1476521 4.24447409 20.3737599 0.0943216463 22.286789 0.0943216463 24.0085152 3.01829268 25.8258929 0.0943216463 27.738922 0.0943216463 24.7737269 4.33879573 24.7737269 7.54573171 23.1476521 7.54573171 23.1476521 4.24447409"></polygon>
                        <polygon id="Shape" points="28.4084821 7.45141006 28.4084821 0 30.0345569 0 30.0345569 7.45141006"></polygon>
                        <polygon id="Shape" points="33.0954034 1.98075457 33.0954034 7.45141006 31.5649802 7.45141006 31.5649802 0 33.5736607 0 36.5388558 5.56497713 36.5388558 0 38.0692791 0 38.0692791 7.45141006 36.0605985 7.45141006"></polygon>
                        <path d="M42.3735946,3.01829268 L46.1040013,3.01829268 L46.1040013,7.45141006 L42.7562004,7.45141006 C42.1822917,7.45141006 41.7040344,7.45141006 41.41708,7.35708841 C41.0344742,7.26276677 40.7475198,7.16844512 40.4605655,6.88548018 C39.6953538,6.3195503 39.312748,5.2820122 39.312748,3.77286585 C39.312748,2.82964939 39.5040509,1.98075457 39.8866567,1.4148247 C40.1736111,0.943216463 40.5562169,0.565929878 41.0344742,0.377286585 C41.5127315,0.188643293 42.1822917,0.0943216463 42.9475033,0.0943216463 L46.1996528,0.0943216463 L46.1996528,1.4148247 L43.0431548,1.4148247 C42.3735946,1.4148247 41.8953373,1.60346799 41.6083829,1.88643293 C41.2257771,2.26371951 41.0344742,2.82964939 41.0344742,3.67854421 C41.0344742,4.15015244 41.0344742,4.52743902 41.1301257,4.90472561 C41.2257771,5.2820122 41.3214286,5.56497713 41.5127315,5.75362043 C41.6083829,5.94226372 41.8953373,6.03658537 42.0866402,6.13090701 C42.3735946,6.22522866 42.6605489,6.22522866 43.0431548,6.22522866 L44.4779266,6.22522866 L44.4779266,4.43311738 L42.3735946,4.43311738 L42.3735946,3.01829268 Z" id="Shape"></path>
                        <polygon id="Shape" points="54.1387235 0 55.8604497 5.56497713 57.390873 0 59.2082507 0 60.7386739 5.56497713 62.4604001 0 64.0864749 0 61.6951885 7.45141006 59.8778108 7.45141006 58.3473876 2.07507622 56.8169643 7.45141006 54.9995866 7.45141006 52.6083003 0"></polygon>
                        <path d="M64.2777778,7.45141006 L67.4342758,0 L69.2516534,0 L72.4081515,7.45141006 L70.4951224,7.45141006 L69.7299107,5.75362043 L66.8603671,5.75362043 L66.0951554,7.45141006 L64.2777778,7.45141006 Z M68.2951389,1.79211128 L67.2429729,4.33879573 L69.3473049,4.33879573 L68.2951389,1.79211128 Z" id="Shape"></path>
                        <path d="M74.7037864,4.62176067 L74.7037864,7.45141006 L73.0777116,7.45141006 L73.0777116,0 L76.7124669,0 C77.7646329,0 78.5298446,0.0943216463 78.9124504,0.377286585 C79.1994048,0.565929878 79.3907077,0.754573171 79.5820106,1.03753811 C79.7733135,1.32050305 79.7733135,1.69778963 79.7733135,1.98075457 C79.7733135,2.6410061 79.5820106,3.20693598 79.1994048,3.58422256 C79.0081019,3.77286585 78.7211475,3.96150915 78.3385417,4.15015244 C78.625496,4.24447409 78.8167989,4.33879573 79.0081019,4.43311738 C79.1994048,4.52743902 79.2950562,4.71608232 79.3907077,4.90472561 C79.4863591,5.0933689 79.5820106,5.2820122 79.5820106,5.37633384 C79.5820106,5.56497713 79.677662,5.75362043 79.677662,6.13090701 C79.677662,6.69683689 79.7733135,7.07412348 79.8689649,7.26276677 L78.0515873,7.26276677 C77.9559358,7.07412348 77.9559358,6.69683689 77.8602844,6.22522866 C77.8602844,5.75362043 77.7646329,5.47065549 77.6689815,5.2820122 C77.57333,5.0933689 77.3820271,4.90472561 77.1907242,4.71608232 C76.9037698,4.52743902 76.4255126,4.52743902 75.9472553,4.52743902 L74.7037864,4.52743902 L74.7037864,4.62176067 Z M74.7037864,3.30125762 L76.9037698,3.30125762 C77.2863757,3.30125762 77.57333,3.20693598 77.6689815,3.11261433 C77.9559358,2.92397104 78.0515873,2.6410061 78.0515873,2.26371951 C78.0515873,1.79211128 77.8602844,1.50914634 77.4776786,1.4148247 C77.3820271,1.4148247 77.1907242,1.32050305 76.9037698,1.32050305 L74.7037864,1.32050305 L74.7037864,3.30125762 Z" id="Shape"></path>
                        <path d="M86.8515212,0 L86.8515212,1.32050305 L84.7471892,1.32050305 C84.1732804,1.32050305 83.7906746,1.32050305 83.5993717,1.4148247 C83.3124173,1.50914634 83.1211144,1.60346799 83.025463,1.88643293 C82.9298115,2.07507622 82.8341601,2.16939787 82.8341601,2.35804116 C82.8341601,2.54668445 82.7385086,2.73532774 82.7385086,3.11261433 L86.9471726,3.11261433 L86.9471726,4.43311738 L82.7385086,4.43311738 C82.8341601,5.0933689 83.025463,5.47065549 83.3124173,5.75362043 C83.5993717,6.03658537 84.1732804,6.13090701 84.9384921,6.13090701 L86.9471726,6.13090701 L86.9471726,7.45141006 L84.8428406,7.45141006 C84.2689319,7.45141006 83.7906746,7.45141006 83.3124173,7.35708841 C82.6428571,7.26276677 82.0689484,6.97980183 81.6863426,6.5081936 C81.1124339,5.84794207 80.8254795,4.90472561 80.8254795,3.77286585 C80.8254795,2.4523628 81.2080853,1.50914634 82.0689484,0.754573171 C82.3559028,0.471608232 82.6428571,0.377286585 82.9298115,0.282964939 C83.2167659,0.188643293 83.6950231,0.0943216463 84.1732804,0.0943216463 L86.8515212,0.0943216463 L86.8515212,0 Z" id="Shape"></path>
                        <polygon id="Shape" points="94.1210317 0 94.1210317 7.45141006 92.494957 7.45141006 92.494957 4.33879573 89.6254134 4.33879573 89.6254134 7.45141006 87.9993386 7.45141006 87.9993386 0 89.6254134 0 89.6254134 3.01829268 92.494957 3.01829268 92.494957 0"></polygon>
                        <path d="M98.999256,0 C99.7644676,0 100.434028,0.0943216463 101.007937,0.377286585 C101.677497,0.660251524 102.155754,1.2261814 102.442708,1.88643293 C102.634011,2.4523628 102.729663,3.11261433 102.729663,3.8671875 C102.729663,4.62176067 102.634011,5.2820122 102.347057,5.84794207 C102.060103,6.5081936 101.486194,6.97980183 100.816634,7.26276677 C100.338376,7.45141006 99.7644676,7.54573171 99.0949074,7.54573171 C98.2340443,7.54573171 97.4688327,7.35708841 96.8949239,7.07412348 C96.3210152,6.79115854 95.9384094,6.41387195 95.651455,5.84794207 C95.3645007,5.2820122 95.2688492,4.62176067 95.2688492,3.8671875 C95.2688492,2.4523628 95.651455,1.4148247 96.3210152,0.848894817 C96.9905754,0.282964939 97.8514385,0 98.999256,0 Z M98.999256,1.2261814 C98.2340443,1.2261814 97.755787,1.50914634 97.3731812,1.98075457 C97.0862269,2.35804116 96.9905754,2.92397104 96.9905754,3.77286585 C96.9905754,4.62176067 97.1818783,5.2820122 97.4688327,5.65929878 C97.755787,6.03658537 98.3296958,6.22522866 98.999256,6.22522866 C99.6688161,6.22522866 100.147073,6.03658537 100.434028,5.65929878 C100.720982,5.2820122 100.912285,4.62176067 100.912285,3.77286585 C100.912285,3.01829268 100.816634,2.35804116 100.529679,1.98075457 C100.242725,1.50914634 99.7644676,1.2261814 98.999256,1.2261814 Z" id="Shape"></path>
                        <path d="M105.312252,0 L105.312252,4.43311738 C105.312252,4.81040396 105.312252,5.0933689 105.407903,5.2820122 C105.503555,5.47065549 105.599206,5.65929878 105.694858,5.75362043 C105.981812,6.03658537 106.460069,6.22522866 107.033978,6.22522866 C107.416584,6.22522866 107.703538,6.13090701 107.990493,6.03658537 C108.277447,5.94226372 108.46875,5.75362043 108.564401,5.56497713 C108.660053,5.37633384 108.755704,4.99904726 108.755704,4.43311738 L108.755704,0 L110.381779,0 L110.381779,4.33879573 C110.381779,4.90472561 110.286128,5.37633384 110.190476,5.75362043 C110.094825,6.13090701 109.903522,6.41387195 109.616567,6.69683689 C109.042659,7.16844512 108.181796,7.45141006 107.12963,7.45141006 C105.981812,7.45141006 105.120949,7.16844512 104.54704,6.69683689 C104.260086,6.41387195 104.068783,6.13090701 103.973132,5.84794207 C103.87748,5.56497713 103.781829,5.0933689 103.781829,4.52743902 L103.781829,0 L105.312252,0 Z" id="Shape"></path>
                        <path d="M111.720899,7.45141006 L111.720899,6.13090701 L115.164352,6.13090701 C115.738261,6.13090701 116.120866,6.03658537 116.216518,5.94226372 C116.503472,5.75362043 116.599124,5.56497713 116.599124,5.2820122 C116.599124,4.90472561 116.407821,4.62176067 116.120866,4.52743902 C115.929563,4.43311738 115.642609,4.33879573 115.260003,4.33879573 L113.825231,4.33879573 C112.964368,4.33879573 112.39046,4.15015244 112.007854,3.8671875 C111.816551,3.67854421 111.625248,3.39557927 111.433945,3.11261433 C111.338294,2.82964939 111.242642,2.54668445 111.242642,2.16939787 C111.242642,1.69778963 111.433945,1.13185976 111.720899,0.754573171 C112.007854,0.377286585 112.486111,0.0943216463 113.155671,0 C113.346974,0 113.72958,0 114.112186,0 L117.842593,0 L117.842593,1.32050305 L114.494792,1.32050305 C114.016534,1.32050305 113.633929,1.32050305 113.538277,1.4148247 C113.155671,1.50914634 113.06002,1.79211128 113.06002,2.16939787 C113.06002,2.54668445 113.155671,2.73532774 113.442626,2.92397104 C113.633929,3.01829268 113.920883,3.01829268 114.39914,3.01829268 L115.642609,3.01829268 C116.216518,3.01829268 116.694775,3.11261433 116.981729,3.20693598 C117.555638,3.39557927 117.842593,3.67854421 118.129547,4.15015244 C118.32085,4.52743902 118.32085,4.90472561 118.32085,5.2820122 C118.32085,5.75362043 118.225198,6.13090701 118.033896,6.5081936 C117.746941,6.97980183 117.268684,7.35708841 116.694775,7.45141006 C116.407821,7.45141006 115.929563,7.54573171 115.355655,7.54573171 L111.720899,7.54573171 L111.720899,7.45141006 Z" id="Shape"></path>
                        <path d="M125.207755,0 L125.207755,1.32050305 L123.103423,1.32050305 C122.529514,1.32050305 122.146908,1.32050305 121.955605,1.4148247 C121.668651,1.50914634 121.477348,1.60346799 121.381696,1.88643293 C121.286045,2.07507622 121.190394,2.16939787 121.190394,2.35804116 C121.190394,2.54668445 121.094742,2.73532774 121.094742,3.11261433 L125.303406,3.11261433 L125.303406,4.43311738 L121.094742,4.43311738 C121.190394,5.0933689 121.381696,5.47065549 121.668651,5.75362043 C121.955605,6.03658537 122.529514,6.13090701 123.294726,6.13090701 L125.303406,6.13090701 L125.303406,7.45141006 L123.199074,7.45141006 C122.625165,7.45141006 122.146908,7.45141006 121.668651,7.35708841 C120.999091,7.26276677 120.425182,6.97980183 120.042576,6.5081936 C119.468667,5.84794207 119.181713,4.90472561 119.181713,3.77286585 C119.181713,2.4523628 119.564319,1.50914634 120.425182,0.754573171 C120.712136,0.471608232 120.999091,0.377286585 121.286045,0.282964939 C121.572999,0.188643293 122.051257,0.0943216463 122.529514,0.0943216463 L125.207755,0.0943216463 L125.207755,0 Z" id="Shape"></path>
                        <path d="M126.451224,7.45141006 L126.451224,6.13090701 L129.894676,6.13090701 C130.468585,6.13090701 130.85119,6.03658537 130.946842,5.94226372 C131.233796,5.75362043 131.329448,5.56497713 131.329448,5.2820122 C131.329448,4.90472561 131.138145,4.62176067 130.85119,4.52743902 C130.659888,4.43311738 130.372933,4.33879573 129.990327,4.33879573 L128.555556,4.33879573 C127.694692,4.33879573 127.120784,4.15015244 126.738178,3.8671875 C126.546875,3.67854421 126.355572,3.39557927 126.164269,3.11261433 C126.068618,2.82964939 125.972966,2.54668445 125.972966,2.16939787 C125.972966,1.69778963 126.164269,1.13185976 126.451224,0.754573171 C126.738178,0.377286585 127.216435,0.0943216463 127.885995,0 C128.077298,0 128.459904,0 128.84251,0 L132.572917,0 L132.572917,1.32050305 L129.225116,1.32050305 C128.746858,1.32050305 128.364253,1.32050305 128.268601,1.4148247 C127.885995,1.50914634 127.790344,1.79211128 127.790344,2.16939787 C127.790344,2.54668445 127.885995,2.73532774 128.17295,2.92397104 C128.364253,3.01829268 128.651207,3.01829268 129.129464,3.01829268 L130.372933,3.01829268 C130.946842,3.01829268 131.425099,3.11261433 131.712054,3.20693598 C132.285962,3.39557927 132.572917,3.67854421 132.859871,4.15015244 C133.051174,4.52743902 133.051174,4.90472561 133.051174,5.2820122 C133.051174,5.75362043 132.955522,6.13090701 132.76422,6.5081936 C132.477265,6.97980183 131.999008,7.35708841 131.425099,7.45141006 C131.138145,7.45141006 130.659888,7.54573171 130.085979,7.54573171 L126.451224,7.54573171 L126.451224,7.45141006 Z" id="Shape"></path>
                    </g>
                    <g id="Group" transform="translate(76.736111, 9.054878)" fill="#FFFFFF">
                        <path d="M16.6766553,6.15199067 C14.4722698,6.15199067 13.3221556,7.08411047 13.3221556,8.94835007 L13.3221556,11.3718615 C13.3221556,13.2361011 14.4722698,14.1682209 16.6766553,14.1682209 L27.2193683,14.1682209 C29.2320681,14.075009 30.2863394,13.0496772 30.3821823,11.1854376 L30.3821823,8.94835007 C30.2863394,7.17732245 29.2320681,6.24520265 27.2193683,6.15199067 L16.6766553,6.15199067 Z M27.6027397,9.13477403 L27.6027397,11.3718615 C27.6027397,12.0243454 27.3152112,12.3039813 26.6443113,12.3039813 L17.3475552,12.3039813 C16.5808124,12.2107694 16.197441,11.9311334 16.1015982,11.3718615 L16.1015982,9.13477403 C16.197441,8.48229017 16.5808124,8.20265423 17.3475552,8.10944225 L26.3567827,8.10944225 C27.2193683,8.10944225 27.6027397,8.38907819 27.6027397,9.13477403 Z" id="Shape"></path>
                        <path d="M10.8302416,15.8460366 L10.8302416,15.7528246 L8.81754186,15.7528246 L8.81754186,15.3799767 L8.53001332,15.3799767 C10.0634989,12.9564652 11.213613,10.9058016 11.9803558,9.22798601 C12.5554129,8.10944225 12.6512557,7.27053443 12.3637272,6.71126255 C12.1720415,6.05877869 11.5969844,5.68593077 10.7343988,5.68593077 L1.53348554,5.68593077 L1.53348554,8.01623027 L9.1050704,8.01623027 C9.20091324,8.01623027 9.39259893,8.01623027 9.39259893,8.01623027 C9.39259893,8.01623027 9.48844178,8.20265423 9.20091324,8.85513809 C7.18821347,13.0496772 4.40877093,17.0577923 0.862585616,20.5998476 L0.76674277,20.6930595 L2.6835997,22.5572991 L2.77944254,22.4640872 C3.9295567,21.2523314 5.07967085,20.0405757 6.03809932,18.9220319 L6.03809932,31.2260133 L8.81754186,31.2260133 L8.81754186,17.4306402 C9.00922755,17.9899121 9.29675609,18.735608 9.58428463,19.5745158 C9.87181317,20.1337877 10.0634989,20.6930595 10.1593417,20.9726955 L10.1593417,21.0659075 L12.9387842,21.0659075 L12.8429414,20.8794835 C12.2678843,19.0152439 11.5011416,17.4306402 10.8302416,15.8460366 Z" id="Shape"></path>
                        <polygon id="Rectangle-path" points="12.9387842 2.42351148 30.6697108 2.42351148 30.6697108 4.56738702 12.9387842 4.56738702"></polygon>
                        <path d="M26.9318398,15.5664006 L16.6766553,15.5664006 C15.3348554,15.4731887 14.2805841,15.7528246 13.705527,16.4053085 C13.1304699,17.0577923 12.8429414,17.9899121 12.9387842,19.2016679 L12.9387842,27.3111101 C12.9387842,28.4296539 13.1304699,29.2685617 13.705527,29.8278336 C14.2805841,30.3871055 15.1431697,30.6667414 16.2932839,30.6667414 C16.3891267,30.6667414 16.4849696,30.6667414 16.5808124,30.6667414 L26.835997,30.6667414 C26.9318398,30.6667414 27.0276826,30.6667414 27.1235255,30.6667414 C28.5611682,30.6667414 29.6154395,30.2938935 30.2863394,29.6414096 C30.8613965,29.0821377 31.0530822,28.2432299 31.0530822,27.3111101 L31.0530822,19.1084559 C31.0530822,16.7781564 29.6154395,15.5664006 26.9318398,15.5664006 Z M28.081954,24.1419028 L28.081954,27.5907461 C28.081954,28.056806 27.9861111,28.6160778 26.7401541,28.6160778 L23.3856545,28.6160778 L23.3856545,24.1419028 L28.081954,24.1419028 Z M28.081954,18.549184 L28.081954,22.0912392 L23.3856545,22.0912392 L23.3856545,17.5238522 L26.6443113,17.5238522 C27.9861111,17.5238522 28.081954,18.0831241 28.081954,18.549184 Z M20.5103691,24.1419028 L20.5103691,28.6160778 L16.9641838,28.6160778 C16.197441,28.6160778 15.8140696,28.2432299 15.7182268,27.5907461 L15.7182268,24.1419028 L20.5103691,24.1419028 Z M20.5103691,17.5238522 L20.5103691,22.0912392 L15.8140696,22.0912392 L15.8140696,18.549184 C15.9099125,17.8034882 16.2932839,17.5238522 17.0600266,17.5238522 L20.5103691,17.5238522 Z" id="Shape"></path>
                        <path d="M65.2689783,22.6505111 C65.1731355,20.9726955 64.1188642,20.0405757 62.1061644,19.8541517 L42.4583809,19.8541517 C40.4456811,19.9473637 39.3914098,20.8794835 39.295567,22.5572991 L39.295567,28.3364419 L36.803653,28.3364419 L36.803653,30.4803174 L68.0484209,30.4803174 L68.0484209,28.3364419 L65.2689783,28.3364419 L65.2689783,22.6505111 Z M42.1708524,28.3364419 L42.1708524,23.209783 C42.1708524,22.3708752 42.6500666,21.9980273 43.6084951,21.9980273 L46.9629947,21.9980273 L46.9629947,28.3364419 L42.1708524,28.3364419 Z M49.9341229,28.3364419 L49.9341229,21.9980273 L54.6304224,21.9980273 L54.6304224,28.3364419 L49.9341229,28.3364419 Z M57.4098649,28.3364419 L57.4098649,21.9980273 L60.6685217,21.9980273 C61.722793,22.0912392 62.2020072,22.5572991 62.2978501,23.302995 L62.2978501,28.3364419 L57.4098649,28.3364419 Z" id="Shape"></path>
                        <path d="M38.624667,19.4813038 C41.3082667,16.8713684 43.3209665,14.1682209 44.4710807,11.4650735 L44.7586092,11.7447095 C45.6211948,12.6768293 46.771309,13.702161 48.1131088,14.8207048 C46.0045662,15.9392486 43.9918664,16.7781564 42.1708524,17.3374283 L41.9791667,17.4306402 L43.4168094,19.5745158 L43.5126522,19.4813038 C45.9087234,18.549184 48.2089517,17.4306402 50.3174943,16.3120965 C52.0426655,17.4306402 53.9595225,18.455972 56.1639079,19.2948798 L56.2597508,19.3880918 L57.7932363,17.1510043 L57.6015506,17.0577923 C55.6846937,16.4053085 53.9595225,15.6596126 52.5218798,14.8207048 C53.7678368,13.888585 55.0137938,12.7700412 56.0680651,11.5582855 C56.6431221,10.7193777 56.738965,9.97368185 56.3555936,9.32119799 C56.0680651,8.48229017 55.3013223,8.01623027 54.1512081,8.01623027 L45.6211948,8.01623027 C45.9087234,6.89768651 46.1004091,5.68593077 46.2920947,4.38096306 L56.5472793,4.38096306 C57.1223364,4.38096306 57.5057078,4.47417504 57.6973935,4.75381098 C57.8890791,4.94023494 57.984922,5.31308286 57.8890791,5.77914275 L57.5057078,8.29586621 C57.4098649,9.04156205 57.5057078,9.60083393 57.7932363,9.97368185 C58.1766077,10.4397418 58.8475076,10.7193777 59.7100932,10.7193777 L61.722793,10.7193777 C62.2978501,10.7193777 62.6812215,10.8125897 62.8729072,11.0922256 C63.0645928,11.2786496 63.1604357,11.5582855 63.0645928,11.9311334 L63.0645928,15.2867647 C63.0645928,16.0324605 62.6812215,16.3120965 61.8186358,16.3120965 L58.4641362,16.3120965 L59.1350361,18.455972 L63.3521214,18.455972 C65.0772926,18.2695481 66.0357211,17.3374283 66.2274068,15.6596126 L66.2274068,11.5582855 C66.1315639,9.69404591 65.1731355,8.66871413 63.3521214,8.57550215 L60.5726788,8.57550215 L61.0518931,5.31308286 C61.1477359,4.28775108 61.0518931,3.54205524 60.5726788,2.98278336 C60.0934646,2.42351148 59.3267218,2.14387554 58.1766077,2.14387554 L38.3371385,2.14387554 L38.3371385,4.28775108 L43.4168094,4.28775108 C43.2251237,9.04156205 40.9248954,13.5157371 36.803653,17.5238522 L36.7078101,17.6170642 L38.7205099,19.3880918 L38.624667,19.4813038 Z M44.4710807,11.4650735 C44.6627664,10.9990136 44.8544521,10.6261657 44.9502949,10.1601058 L52.8094083,10.1601058 C53.0969368,10.0668938 53.1927797,10.1601058 53.2886225,10.3465298 C53.2886225,10.3465298 53.2886225,10.4397418 53.001094,10.9058016 C52.1385084,11.7447095 51.1800799,12.5836173 50.1258086,13.3293131 C49.263223,12.6768293 48.4006374,12.0243454 47.6338946,11.3718615 L44.4710807,11.3718615 L44.4710807,11.4650735 Z" id="Shape"></path>
                        <path d="M95.5553177,3.91490316 C94.788575,2.98278336 94.3093607,2.51672346 94.0218322,2.3302995 C93.4467751,1.8642396 92.7758752,1.58460366 92.0091324,1.58460366 L84.2458619,1.58460366 C83.3832763,1.58460366 82.6165335,1.77102762 81.9456336,2.14387554 C81.1788908,2.60993544 80.6038337,3.2624193 80.2204623,4.10132712 C78.4952911,7.08411047 75.9075342,9.97368185 72.6488775,12.6768293 L72.4571918,12.7700412 L74.4698916,14.5410689 L74.5657344,14.4478569 C77.5368626,12.1175574 80.5079909,8.94835007 83.1915906,4.84702296 C83.6708048,4.1945391 84.2458619,3.82169118 84.8209189,3.82169118 L90.9548611,3.82169118 C91.625761,3.7284792 92.2008181,4.10132712 92.6800323,4.84702296 C94.9802607,8.38907819 97.7597032,11.5582855 101.01836,14.1682209 L101.114203,14.2614329 L103.126903,12.1175574 L103.03106,12.0243454 C99.9640887,9.60083393 97.3763318,6.89768651 95.5553177,3.91490316 Z" id="Shape"></path>
                        <path d="M80.5079909,26.7518382 L80.5079909,16.0324605 C80.6038337,15.1935527 80.9872051,14.8207048 81.7539479,14.7274928 L93.9259893,14.7274928 C94.788575,14.8207048 95.1719463,15.2867647 95.2677892,16.0324605 L95.2677892,21.0659075 C95.2677892,21.9048153 94.8844178,22.2776632 94.0218322,22.2776632 L87.88789,22.2776632 L88.6546328,24.6079627 L95.0761035,24.6079627 C97.0888033,24.5147507 98.1430746,23.4894189 98.2389174,21.6251793 L98.2389174,15.1935527 C97.9513889,13.6089491 96.8971176,12.6768293 95.1719463,12.3971933 L80.2204623,12.3971933 C78.3994482,12.5836173 77.3451769,13.6089491 77.2493341,15.4731887 L77.2493341,27.5907461 C77.2493341,29.9210456 78.6869768,31.0395893 81.5622622,31.0395893 L100.634989,31.0395893 L101.401731,28.6160778 L82.4248478,28.6160778 C81.1788908,28.6160778 80.5079909,28.056806 80.5079909,26.7518382 Z" id="Shape"></path>
                        <path d="M120.474458,27.683958 C120.378615,27.5907461 120.378615,27.3111101 120.378615,27.0314742 L120.378615,13.5157371 C120.378615,11.4650735 119.324344,10.4397418 117.215801,10.4397418 L115.011416,10.4397418 L115.011416,12.5836173 L116.449058,12.5836173 C117.311644,12.5836173 117.695015,12.9564652 117.695015,13.795373 L117.695015,28.1500179 C117.790858,29.1753497 118.557601,29.8278336 119.899401,29.9210456 L122.678843,29.9210456 L124.116486,27.870382 L121.049515,27.870382 C120.761986,27.870382 120.570301,27.77717 120.474458,27.683958 Z" id="Shape"></path>
                        <path d="M116.353215,1.02533178 L116.449058,0.838907819 L113.47793,0.838907819 L113.47793,0.932119799 C111.752759,6.05877869 109.740059,10.5329537 107.343988,14.3546449 L107.248145,14.5410689 L109.740059,15.8460366 L109.835902,15.7528246 C109.931745,15.6596126 110.027588,15.5664006 110.315116,15.1003407 C110.79433,14.3546449 111.081859,13.702161 111.369387,13.2361011 L111.369387,31.3192253 L114.340516,31.3192253 L114.340516,10.9058016 L112.711187,10.9058016 C113.861301,8.38907819 115.107258,5.03344692 116.353215,1.02533178 Z" id="Shape"></path>
                        <path d="M139.643027,13.1428892 L139.643027,10.9990136 L134.563356,10.9990136 C136.480213,8.29586621 138.109541,5.59271879 139.355498,2.88957138 L139.451341,2.70314742 L136.480213,2.70314742 L136.480213,2.7963594 C135.617627,4.38096306 134.850885,5.77914275 134.084142,6.99089849 L134.084142,4.94023494 L130.346271,4.94023494 L130.346271,0.932119799 L127.375143,0.932119799 L127.375143,4.75381098 L122.870529,4.75381098 L122.870529,6.80447453 L127.375143,6.80447453 L127.375143,10.9058016 L122.007943,10.9058016 L122.007943,13.0496772 L129.196157,13.0496772 C126.991771,15.3799767 124.116486,17.7102762 120.570301,19.9473637 L120.378615,20.0405757 L122.103786,22.1844512 L122.199629,22.0912392 C122.487158,21.9048153 122.870529,21.6251793 123.445586,21.1591194 C123.828957,20.8794835 124.212329,20.6930595 124.404014,20.5066356 L124.404014,27.77717 C124.499857,29.5481976 125.458286,30.4803174 127.2793,30.5735294 L135.04257,30.5735294 C136.959427,30.4803174 138.013699,29.5481976 138.109541,27.77717 L138.109541,19.5745158 C138.013699,17.6170642 136.959427,16.5917324 135.04257,16.4985204 L129.483685,16.4985204 C130.633799,15.4731887 131.688071,14.2614329 132.742342,13.1428892 L139.643027,13.1428892 Z M127.2793,27.5907461 L127.2793,24.7011747 L135.330099,24.7011747 L135.330099,27.4043221 C135.234256,28.1500179 134.850885,28.5228659 134.275828,28.6160778 L128.525257,28.6160778 C127.758514,28.5228659 127.375143,28.1500179 127.2793,27.5907461 Z M134.275828,18.549184 C135.04257,18.642396 135.330099,19.0152439 135.330099,19.8541517 L135.330099,22.6505111 L127.2793,22.6505111 L127.2793,19.9473637 C127.375143,19.1084559 127.758514,18.735608 128.525257,18.642396 L134.275828,18.549184 Z M131.017171,10.9058016 L130.346271,10.9058016 L130.346271,6.80447453 L133.988299,6.80447453 C133.029871,8.48229017 131.975599,9.88046987 131.017171,10.9058016 Z" id="Shape"></path>
                    </g>
                    <polygon id="Shape" fill="#FFFFFF" points="167.841435 34.7103659 164.00463 34.7103659 164.79456 30.1829268 168.518519 30.1829268"></polygon>
                    <polygon id="Shape" fill="#FFFFFF" points="195.138889 19.6189024 192.592593 19.6189024 193.055556 15.0914634 195.601852 15.0914634"></polygon>
                    <polygon id="Shape" fill="#FFFFFF" points="216.185185 21.1280488 213.657407 21.1280488 214.138889 18.1097561 216.666667 18.1097561"></polygon>
                    <polygon id="Shape" fill="#FFFFFF" points="83.5445602 15.0914634 87.2685185 15.0914634 86.5914352 10.5640244 82.7546296 10.5640244"></polygon>
                </g>
            </g>
        </g>
    </g>
</svg>