<?xml version="1.0" encoding="UTF-8"?>
<svg width="117px" height="77px" viewBox="0 0 117 77" version="1.1" xmlns="http://www.w3.org/2000/svg" xmlns:xlink="http://www.w3.org/1999/xlink">
    <!-- Generator: Sketch 51 (57462) - http://www.bohemiancoding.com/sketch -->
    <title>Group 2</title>
    <desc>Created with Sketch.</desc>
    <defs></defs>
    <g id="Symbols" stroke="none" stroke-width="1" fill="none" fill-rule="evenodd">
        <g id="Sider-Box" transform="translate(-48.000000, -16.000000)">
            <g id="Group-3">
                <g>
                    <g id="logo">
                        <g id="Group-2" transform="translate(48.000000, 16.000000)">
                            <g id="Group" transform="translate(11.444444, 0.000000)">
                                <path d="M85.4326213,47.0590154 C85.4326213,45.8397738 85.4199223,44.6842149 85.4502362,43.5298652 C85.4535133,43.3976632 85.6763613,43.2376503 85.8316176,43.1469629 C88.0375669,41.859202 89.7408793,40.1232438 90.7154297,37.7649685 C92.2921611,33.9492462 91.1820176,29.5889964 87.9539989,26.7792995 C85.8807752,24.974822 83.4646769,23.9474346 80.7249575,23.5887156 C78.6648425,23.3190718 76.6518369,23.6000011 74.6363734,23.942598 C74.0100231,24.0490045 73.3820342,24.1429163 72.6868631,24.2533534 C72.7671539,24.1058353 72.8142634,23.9986226 72.8789876,23.9030986 C73.4545417,23.0603104 74.0038784,22.1981756 74.6146621,21.381183 C77.1446423,17.9971326 75.7071908,13.9653727 72.2649267,12.11535 C70.517782,11.1758286 68.6424178,10.9747041 66.7015101,11.1484208 C66.4090221,11.1746194 66.2545852,11.0919931 66.1103894,10.8558029 C63.5820479,6.71360591 59.7751979,4.39603925 55.0208342,3.62741323 C49.9670186,2.8104206 45.3150667,3.87650126 41.2980678,7.10336016 C38.7451474,9.15329825 37.1385117,11.793309 36.6039223,15.0197648 C36.3171694,16.7472588 36.5277279,18.4501665 36.9193505,20.1409825 C37.0229912,20.5879706 37.0930409,21.0422137 37.1966816,21.5883533 C36.2811204,21.3924685 35.4630553,21.2026296 34.6384358,21.0442289 C30.0139303,20.1554925 25.7277932,20.891068 21.8787496,23.6600564 C21.626407,23.8418342 21.4617289,23.8732725 21.1975065,23.6798061 C20.7792569,23.3730811 20.3294644,23.1022281 19.8743466,22.8495126 C19.4208673,22.5976032 18.9440381,22.3868054 18.3770866,22.1091004 C19.0013887,21.6173733 19.5613762,21.1337072 20.1643767,20.7096932 C22.9163855,18.7762381 25.9813647,17.6529236 29.3539889,17.3985958 C30.4592166,17.3151634 31.5742759,17.3457956 32.6844194,17.3566781 C33.0576078,17.3603056 33.005173,17.1474925 33.0301615,16.9213786 C33.1698511,15.6779537 33.191972,14.4047028 33.4885565,13.1979559 C34.5409398,8.92194464 37.110246,5.67976965 40.7958405,3.26466367 C43.4138948,1.54966434 46.299039,0.525501407 49.4238266,0.165976284 C55.2641646,-0.506319574 60.5346835,0.849154629 65.1030673,4.5427513 C66.057545,5.3141987 66.8784776,6.25654146 67.6936753,7.17711924 C68.0283569,7.55437878 68.3372308,7.71197332 68.8423256,7.73575357 C73.0280991,7.93526583 77.2523795,10.4559722 78.7844594,14.6102609 C79.378038,16.2200628 79.5287881,17.8705733 79.140033,19.5456702 C79.0331152,20.005153 79.1781302,20.0906006 79.60785,20.1095442 C84.2520185,20.3155054 88.2284624,21.9986634 91.3757807,25.4040756 C93.3457733,27.5358339 94.5247375,30.046867 94.7951046,32.9412055 C95.2084385,37.3683624 93.574766,41.0071435 90.3582174,44.0228016 C89.0666003,45.2339821 87.575485,46.163024 85.9397644,46.8651459 C85.795159,46.9272164 85.6456378,46.9780014 85.4326213,47.0590154" id="Fill-4" fill="#F08519"></path>
                                <path d="M16.5795128,43.3368474 C14.9596522,41.6728761 13.3702707,40.0404512 11.7410632,38.3676949 C10.5202751,39.9366277 9.33240447,41.4632325 8.14453381,42.9902366 C10.2341783,44.5292203 14.3525093,44.7057203 16.5795128,43.3368474 Z M19.249885,41.2819407 C22.0624929,38.3900569 22.3221745,32.6801637 18.7996077,29.2883298 C15.2067358,25.8290107 9.70018516,25.9791554 6.2918132,29.6285515 C2.94927601,33.2072676 3.74782744,38.5066587 5.60542471,40.5364081 C5.71840043,40.3974443 5.83056338,40.2648697 5.93703691,40.1287012 C6.88473256,38.9119697 7.82348769,37.6880503 8.78825161,36.4844964 C8.91748284,36.3231706 9.17188141,36.1746231 9.37466877,36.1674354 C10.5584756,36.124708 11.7451271,36.1518618 12.9289339,36.1031447 C13.7738135,36.0680044 14.4102163,36.3016073 15.0047612,36.9493062 C16.3629082,38.429989 17.814118,39.8276131 19.249885,41.2819407 Z M0.00012191625,34.9259459 C0.121631779,34.2051712 0.199658179,33.4744135 0.372372867,32.7660178 C1.57446709,27.8312069 5.67532336,24.1622442 10.8681428,23.5377059 C16.303982,22.8840172 20.6559858,24.7823899 23.5941674,29.3649995 C26.5006508,33.8980932 25.817107,39.7820904 22.1006933,43.7102126 C22.0031603,43.8132375 21.9125359,43.9230508 21.7885877,44.0644105 C23.438521,45.8186283 25.0738243,47.5580713 26.781871,49.3745832 C25.2566987,49.3745832 23.8351552,49.3825696 22.4136117,49.3618049 C22.2717825,49.3598083 22.1104466,49.2012778 21.9958454,49.0806828 C21.1525913,48.1949885 20.3109628,47.3068983 19.4872153,46.4032345 C19.2576064,46.1508635 19.0816406,46.0937606 18.7512476,46.2630728 C16.6798905,47.3212738 14.4662978,47.8272137 12.1344463,47.740561 C6.09837275,47.5165419 1.03072062,43.128801 0.199658179,37.4887891 C0.135042566,37.0495358 0.0667694663,36.6106818 0.00012191625,36.1718279 L0.00012191625,34.9259459 Z" id="Fill-1" fill="#FFFFFF"></path>
                                <path d="M42.2557659,47.1789158 C41.0020605,47.1789158 39.7869618,47.1845063 38.5722696,47.1673355 C38.482458,47.1661376 38.3597289,47.0171908 38.3166519,46.91177 C38.2711365,46.801158 38.3012091,46.6601977 38.3012091,46.5324149 C38.3012091,38.7696117 38.3008027,31.0072077 38.3012091,23.2448038 C38.3012091,22.5579714 38.3020219,22.5575721 38.9790635,22.5571728 C39.8897779,22.5563742 40.8000859,22.5555755 41.7099875,22.5579714 C41.8847341,22.5583708 42.0590744,22.572347 42.2980302,22.5827294 L42.2980302,34.4589398 C42.3309476,34.4669262 42.3634586,34.475312 42.396376,34.4832984 C42.5004112,34.3507238 42.6137933,34.2245383 42.7064496,34.0843766 C43.5931872,32.7462514 44.8485182,31.9875412 46.4496849,31.7515424 C48.0687327,31.513547 49.6345437,31.5910153 51.1747524,32.2311271 C52.9486338,32.9686733 53.7833537,34.288829 53.8044859,36.112928 C53.845531,39.6425277 53.8369969,43.1725267 53.832933,46.7021264 C53.832933,46.8378956 53.6659077,47.0890686 53.5724386,47.0910652 C52.3569336,47.1174204 51.1410222,47.1086353 49.8548058,47.1086353 L49.8548058,46.5012678 C49.8543994,44.0414495 49.8804082,41.5812319 49.8401758,39.1222122 C49.8251395,38.2189478 49.7263873,37.3033044 49.5386363,36.4196067 C49.268795,35.1481681 48.4718691,34.5423979 47.1551736,34.5252271 C46.5273049,34.5168414 45.8774913,34.5364081 45.2740059,34.6853549 C43.3509802,35.1597484 42.3520797,36.5054607 42.3199751,38.6641909 C42.2809619,41.2989118 42.2943727,43.9344315 42.2834003,46.5699511 C42.2825875,46.757632 42.2667384,46.945313 42.2557659,47.1789158" id="Fill-6" fill="#FFFFFF"></path>
                                <path d="M70.297682,39.3518219 C70.2635454,39.063512 70.23266,38.5196366 70.1302503,37.9893381 C69.7417439,35.9867425 68.2775297,34.7001298 66.3358102,34.6250574 C64.143756,34.5408006 62.5982644,35.609384 62.0061578,37.6467206 C61.5961128,39.0587202 61.5977383,40.4834981 62.0090025,41.8931017 C62.4873206,43.5351103 63.565873,44.551782 65.3247181,44.77061 C66.9982218,44.9786563 68.3571816,44.4303883 69.3333244,43.0531297 C70.0676666,42.0172906 70.2785817,40.8353 70.297682,39.3518219 Z M70.2013681,45.2897275 C70.0631964,45.3919537 70.0180874,45.4127184 69.990453,45.4474593 C68.2844383,47.6349406 65.9850978,48.1512629 63.3756837,47.6305481 C60.8008125,47.1170211 59.0850444,45.5796346 58.3007166,43.1174204 C57.5545891,40.7734052 57.5151695,38.397045 58.3437936,36.0634122 C59.2951468,33.3835679 61.2470259,31.882919 64.1364411,31.6912449 C65.0756026,31.6289508 66.0558092,31.7048218 66.9750577,31.9048817 C68.2978491,32.1931916 69.3040645,32.9958271 69.9416865,34.1997804 C69.9786678,34.2692623 70.0233704,34.3351502 70.0676666,34.4014376 C70.0745752,34.4118199 70.0969265,34.4126185 70.2017745,34.4489568 C70.2017745,33.8435859 70.2241258,33.2641709 70.1936468,32.6879505 C70.1721082,32.2766497 70.2940245,32.1312968 70.7357677,32.1432764 C71.868776,32.1740242 73.0034099,32.1536588 74.1677101,32.1536588 L74.1677101,47.1821104 L71.1990494,47.1821104 C70.2013681,47.1821104 70.2013681,47.1821104 70.2013681,46.1953878 L70.2013681,45.2897275 Z" id="Fill-8" fill="#FFFFFF"></path>
                                <polygon id="Fill-10" fill="#FFFFFF" points="30.412415 47.1550364 34.3710356 47.1550364 34.3710356 32.1848857 30.412415 32.1848857"></polygon>
                                <polygon id="Fill-12" fill="#FFFFFF" points="78.1698549 47.4197864 82.0780835 47.4197864 82.0780835 32.4045123 78.1698549 32.4045123"></polygon>
                                <path d="M30.3844149,30.6620745 L30.3844149,26.8261955 C30.5063311,26.8070281 30.6282474,26.7718878 30.7497572,26.7710891 C31.8059584,26.7666966 32.8621595,26.7686932 33.9175478,26.7686932 C34.133746,26.7686932 34.3568527,26.7523211 34.3552271,27.0673854 C34.3499441,28.2162324 34.3479122,29.3650794 34.3405972,30.5143256 C34.3405972,30.5566537 34.3052415,30.5985824 34.2772007,30.6620745 L30.3844149,30.6620745 Z" id="Fill-13" fill="#FFFFFF"></path>
                                <path d="M82.0714187,30.9091345 C80.8189324,30.9091345 79.6184637,30.914725 78.4184015,30.8991514 C78.3184301,30.8979535 78.1343366,30.7561945 78.1335238,30.6775282 C78.1152364,29.4691824 78.1205194,28.2608366 78.1205194,27.0233403 L82.0714187,27.0233403 L82.0714187,30.9091345 Z" id="Fill-14" fill="#FFFFFF"></path>
                            </g>
                            <text id="WMS系统平台" font-family="PingFangSC-Semibold, PingFang SC" font-size="18" font-weight="500" line-spacing="24" fill="#FFFFFF">
                                <tspan x="0.546296296" y="76">WMS系统平台</tspan>
                            </text>
                        </g>
                    </g>
                </g>
            </g>
        </g>
    </g>
</svg>